<svg width="56" height="56" viewBox="0 0 56 56" fill="none" xmlns="http://www.w3.org/2000/svg">
<rect x="10" y="10.4512" width="37" height="40" rx="6" fill="#151E2C"/>
<path fill-rule="evenodd" clip-rule="evenodd" d="M28 0C12.5356 0 0 12.5356 0 28C0 43.4644 12.5356 56 28 56C43.4644 56 56 43.4644 56 28C56 12.5356 43.4644 0 28 0ZM18.2 21C18.2 19.713 18.4535 18.4387 18.946 17.2497C19.4385 16.0607 20.1603 14.9804 21.0704 14.0704C21.9804 13.1603 23.0607 12.4385 24.2497 11.946C25.4387 11.4535 26.713 11.2 28 11.2C29.287 11.2 30.5613 11.4535 31.7503 11.946C32.9393 12.4385 34.0196 13.1603 34.9296 14.0704C35.8397 14.9804 36.5615 16.0607 37.054 17.2497C37.5465 18.4387 37.8 19.713 37.8 21C37.8 23.5991 36.7675 26.0918 34.9296 27.9296C33.0918 29.7675 30.5991 30.8 28 30.8C25.4009 30.8 22.9082 29.7675 21.0704 27.9296C19.2325 26.0918 18.2 23.5991 18.2 21ZM45.5224 41.9552C43.4257 44.591 40.761 46.7194 37.727 48.1816C34.693 49.6438 31.368 50.4021 28 50.4C24.632 50.4021 21.307 49.6438 18.273 48.1816C15.239 46.7194 12.5743 44.591 10.4776 41.9552C15.0164 38.6988 21.21 36.4 28 36.4C34.79 36.4 40.9836 38.6988 45.5224 41.9552Z" fill="#F6F8FF"/>
</svg>
