<svg width="855" height="667" viewBox="0 0 855 667" fill="none" xmlns="http://www.w3.org/2000/svg">
<rect x="1" y="1" width="853" height="665" rx="16" fill="#F2F4F8" stroke="#D4D8E2" stroke-width="2"/>
<mask id="mask0_3175_1918" style="mask-type:alpha" maskUnits="userSpaceOnUse" x="2" y="2" width="851" height="663">
<rect x="2" y="2" width="851" height="663" rx="15" fill="#F2F4F8"/>
</mask>
<g mask="url(#mask0_3175_1918)">
<line x1="61.5" y1="-1" x2="61.5" y2="857" stroke="#E0E3EB"/>
<line x1="122.5" y1="-1" x2="122.5" y2="857" stroke="#E0E3EB"/>
<line x1="183.5" y1="-1" x2="183.5" y2="857" stroke="#E0E3EB"/>
<line x1="244.5" y1="-1" x2="244.5" y2="857" stroke="#E0E3EB"/>
<line x1="305.5" y1="-1" x2="305.5" y2="857" stroke="#E0E3EB"/>
<line x1="366.5" y1="-1" x2="366.5" y2="857" stroke="#E0E3EB"/>
<line x1="427.5" y1="-1" x2="427.5" y2="857" stroke="#E0E3EB"/>
<line x1="488.5" y1="-1" x2="488.5" y2="857" stroke="#E0E3EB"/>
<line x1="549.5" y1="-1" x2="549.5" y2="857" stroke="#E0E3EB"/>
<line x1="610.5" y1="-1" x2="610.5" y2="857" stroke="#E0E3EB"/>
<line x1="671.5" y1="-1" x2="671.5" y2="857" stroke="#E0E3EB"/>
<line x1="732.5" y1="-1" x2="732.5" y2="857" stroke="#E0E3EB"/>
<line x1="793.5" y1="-1" x2="793.5" y2="857" stroke="#E0E3EB"/>
<line x1="856" y1="40.5" x2="-2" y2="40.4999" stroke="#E0E3EB"/>
<line x1="856" y1="101.5" x2="-2" y2="101.5" stroke="#E0E3EB"/>
<line x1="856" y1="162.5" x2="-2" y2="162.5" stroke="#E0E3EB"/>
<line x1="856" y1="223.5" x2="-2" y2="223.5" stroke="#E0E3EB"/>
<line x1="856" y1="284.5" x2="-2" y2="284.5" stroke="#E0E3EB"/>
<line x1="856" y1="345.5" x2="-2" y2="345.5" stroke="#E0E3EB"/>
<line x1="856" y1="406.5" x2="-2" y2="406.5" stroke="#E0E3EB"/>
<line x1="856" y1="467.5" x2="-2" y2="467.5" stroke="#E0E3EB"/>
<line x1="856" y1="528.5" x2="-2" y2="528.5" stroke="#E0E3EB"/>
<line x1="856" y1="589.5" x2="-2" y2="589.5" stroke="#E0E3EB"/>
<line x1="856" y1="650.5" x2="-2" y2="650.5" stroke="#E0E3EB"/>
<rect y="2" width="853" height="40" fill="#E8EBF0"/>
<rect x="0.5" y="41.5" width="855" height="49" fill="white" stroke="#E0E3EB"/>
<rect x="265.854" y="135" width="323.122" height="15.1463" rx="7.57317" fill="#C8CDD8"/>
<rect x="238.926" y="161.585" width="376.976" height="8.41463" rx="4.20732" fill="#C8CDD8"/>
<rect x="205" y="215" width="8" height="8" rx="4" fill="#C8CDD8"/>
<rect x="216" y="215" width="78" height="8" rx="4" fill="#C8CDD8"/>
<rect x="324" y="215" width="8" height="8" rx="4" fill="#C8CDD8"/>
<rect x="335" y="215" width="78" height="8" rx="4" fill="#C8CDD8"/>
<rect x="443" y="215" width="8" height="8" rx="4" fill="#C8CDD8"/>
<rect x="454" y="215" width="78" height="8" rx="4" fill="#C8CDD8"/>
<rect x="562" y="215" width="8" height="8" rx="4" fill="#C8CDD8"/>
<rect x="573" y="215" width="78" height="8" rx="4" fill="#C8CDD8"/>
<path d="M768 57C768 54.2386 770.239 52 773 52H823C825.761 52 828 54.2386 828 57V75C828 77.7614 825.761 80 823 80H773C770.239 80 768 77.7614 768 75V57Z" fill="#B0C8F0"/>
<path d="M779.381 70V62.7273H781.838C782.406 62.7273 782.873 62.8243 783.237 63.0185C783.602 63.2102 783.872 63.4742 784.047 63.8104C784.222 64.1465 784.31 64.5289 784.31 64.9574C784.31 65.3859 784.222 65.7659 784.047 66.0973C783.872 66.4287 783.603 66.6892 783.241 66.8786C782.879 67.0656 782.416 67.1591 781.852 67.1591H779.864V66.3636H781.824C782.212 66.3636 782.525 66.3068 782.761 66.1932C783 66.0795 783.173 65.9186 783.28 65.7102C783.389 65.4995 783.443 65.2486 783.443 64.9574C783.443 64.6662 783.389 64.4117 783.28 64.1939C783.171 63.9761 782.997 63.808 782.758 63.6896C782.519 63.5689 782.203 63.5085 781.81 63.5085H780.261V70H779.381ZM782.804 66.733L784.594 70H783.571L781.81 66.733H782.804ZM787.892 70.1136C787.366 70.1136 786.913 69.9976 786.532 69.7656C786.153 69.5312 785.861 69.2045 785.655 68.7855C785.451 68.3641 785.349 67.8741 785.349 67.3153C785.349 66.7566 785.451 66.2642 785.655 65.8381C785.861 65.4096 786.147 65.0758 786.514 64.8366C786.883 64.5952 787.314 64.4744 787.807 64.4744C788.091 64.4744 788.371 64.5218 788.648 64.6165C788.925 64.7112 789.177 64.8651 789.405 65.0781C789.632 65.2888 789.813 65.5682 789.948 65.9162C790.083 66.2642 790.15 66.6927 790.15 67.2017V67.5568H785.946V66.8324H789.298C789.298 66.5246 789.237 66.25 789.113 66.0085C788.993 65.767 788.82 65.5765 788.595 65.4368C788.372 65.2971 788.11 65.2273 787.807 65.2273C787.473 65.2273 787.184 65.3101 786.94 65.4759C786.699 65.6392 786.513 65.8523 786.383 66.1151C786.252 66.3778 786.187 66.6596 786.187 66.9602V67.4432C786.187 67.8551 786.258 68.2043 786.4 68.4908C786.545 68.7749 786.745 68.9915 787.001 69.1406C787.256 69.2874 787.553 69.3608 787.892 69.3608C788.112 69.3608 788.311 69.33 788.488 69.2685C788.668 69.2045 788.823 69.1098 788.954 68.9844C789.084 68.8565 789.184 68.6979 789.256 68.5085L790.065 68.7358C789.98 69.0104 789.837 69.2519 789.635 69.4602C789.434 69.6662 789.186 69.8272 788.89 69.9432C788.594 70.0568 788.261 70.1136 787.892 70.1136ZM793.627 72.1591C793.222 72.1591 792.874 72.107 792.583 72.0028C792.292 71.901 792.049 71.7661 791.855 71.598C791.663 71.4323 791.51 71.2547 791.397 71.0653L792.064 70.5966C792.14 70.696 792.236 70.8097 792.352 70.9375C792.468 71.0677 792.627 71.1802 792.828 71.2749C793.032 71.3719 793.298 71.4205 793.627 71.4205C794.067 71.4205 794.431 71.3139 794.717 71.1009C795.004 70.8878 795.147 70.554 795.147 70.0994V68.9915H795.076C795.014 69.0909 794.927 69.214 794.813 69.3608C794.702 69.5052 794.541 69.6342 794.33 69.7479C794.122 69.8591 793.84 69.9148 793.485 69.9148C793.045 69.9148 792.649 69.8106 792.299 69.6023C791.951 69.3939 791.675 69.0909 791.471 68.6932C791.27 68.2955 791.17 67.8125 791.17 67.2443C791.17 66.6856 791.268 66.1991 791.464 65.7848C791.661 65.3681 791.934 65.0462 792.285 64.8189C792.635 64.5893 793.04 64.4744 793.499 64.4744C793.854 64.4744 794.136 64.5336 794.344 64.652C794.555 64.768 794.716 64.9006 794.827 65.0497C794.941 65.1965 795.028 65.3172 795.09 65.4119H795.175V64.5455H795.985V70.1562C795.985 70.625 795.878 71.0062 795.665 71.2997C795.455 71.5956 795.171 71.8123 794.813 71.9496C794.458 72.0893 794.063 72.1591 793.627 72.1591ZM793.599 69.1619C793.935 69.1619 794.219 69.085 794.451 68.9311C794.683 68.7772 794.859 68.5559 794.98 68.267C795.101 67.9782 795.161 67.6326 795.161 67.2301C795.161 66.8371 795.102 66.4903 794.983 66.1896C794.865 65.889 794.69 65.6534 794.458 65.483C794.226 65.3125 793.939 65.2273 793.599 65.2273C793.243 65.2273 792.948 65.3172 792.711 65.4972C792.476 65.6771 792.3 65.9186 792.182 66.2216C792.066 66.5246 792.008 66.8608 792.008 67.2301C792.008 67.6089 792.067 67.9439 792.185 68.2351C792.306 68.5239 792.483 68.7512 792.718 68.9169C792.955 69.0803 793.248 69.1619 793.599 69.1619ZM797.519 70V64.5455H798.357V70H797.519ZM797.945 63.6364C797.782 63.6364 797.641 63.5807 797.523 63.4695C797.407 63.3582 797.349 63.2244 797.349 63.0682C797.349 62.9119 797.407 62.7782 797.523 62.6669C797.641 62.5556 797.782 62.5 797.945 62.5C798.108 62.5 798.248 62.5556 798.364 62.6669C798.483 62.7782 798.542 62.9119 798.542 63.0682C798.542 63.2244 798.483 63.3582 798.364 63.4695C798.248 63.5807 798.108 63.6364 797.945 63.6364ZM803.756 65.767L803.003 65.9801C802.955 65.8546 802.886 65.7327 802.793 65.6143C802.703 65.4936 802.58 65.3942 802.424 65.3161C802.268 65.2379 802.068 65.1989 801.824 65.1989C801.49 65.1989 801.212 65.2758 800.989 65.4297C800.769 65.5812 800.659 65.7741 800.659 66.0085C800.659 66.2169 800.735 66.3814 800.886 66.5021C801.038 66.6229 801.275 66.7235 801.597 66.804L802.406 67.0028C802.894 67.1212 803.257 67.3023 803.496 67.5462C803.736 67.7876 803.855 68.099 803.855 68.4801C803.855 68.7926 803.765 69.072 803.585 69.3182C803.408 69.5644 803.159 69.7585 802.839 69.9006C802.52 70.0426 802.148 70.1136 801.724 70.1136C801.168 70.1136 800.708 69.9929 800.343 69.7514C799.978 69.5099 799.748 69.1572 799.651 68.6932L800.446 68.4943C800.522 68.7879 800.665 69.008 800.876 69.1548C801.089 69.3016 801.367 69.375 801.71 69.375C802.101 69.375 802.411 69.2921 802.641 69.1264C802.873 68.9583 802.989 68.7571 802.989 68.5227C802.989 68.3333 802.922 68.1747 802.79 68.0469C802.657 67.9167 802.454 67.8196 802.179 67.7557L801.27 67.5426C800.77 67.4242 800.403 67.2408 800.169 66.9922C799.937 66.7412 799.821 66.4276 799.821 66.0511C799.821 65.7434 799.907 65.4711 800.08 65.2344C800.255 64.9976 800.493 64.8118 800.794 64.6768C801.097 64.5419 801.44 64.4744 801.824 64.4744C802.364 64.4744 802.787 64.5928 803.095 64.8295C803.405 65.0663 803.625 65.3788 803.756 65.767ZM807.489 64.5455V65.2557H804.662V64.5455H807.489ZM805.486 63.2386H806.324V68.4375C806.324 68.6742 806.358 68.8518 806.427 68.9702C806.498 69.0862 806.588 69.1643 806.697 69.2045C806.808 69.2424 806.925 69.2614 807.048 69.2614C807.141 69.2614 807.217 69.2566 807.276 69.2472C807.335 69.2353 807.382 69.2259 807.418 69.2188L807.588 69.9716C807.531 69.9929 807.452 70.0142 807.35 70.0355C807.249 70.0592 807.119 70.071 806.963 70.071C806.727 70.071 806.494 70.0201 806.267 69.9183C806.042 69.8165 805.855 69.6615 805.706 69.4531C805.559 69.2448 805.486 68.982 805.486 68.6648V63.2386ZM810.978 70.1136C810.452 70.1136 809.999 69.9976 809.618 69.7656C809.239 69.5312 808.947 69.2045 808.741 68.7855C808.537 68.3641 808.435 67.8741 808.435 67.3153C808.435 66.7566 808.537 66.2642 808.741 65.8381C808.947 65.4096 809.233 65.0758 809.6 64.8366C809.969 64.5952 810.4 64.4744 810.893 64.4744C811.177 64.4744 811.457 64.5218 811.734 64.6165C812.011 64.7112 812.263 64.8651 812.491 65.0781C812.718 65.2888 812.899 65.5682 813.034 65.9162C813.169 66.2642 813.236 66.6927 813.236 67.2017V67.5568H809.032V66.8324H812.384C812.384 66.5246 812.323 66.25 812.199 66.0085C812.079 65.767 811.906 65.5765 811.681 65.4368C811.458 65.2971 811.196 65.2273 810.893 65.2273C810.559 65.2273 810.27 65.3101 810.026 65.4759C809.785 65.6392 809.599 65.8523 809.469 66.1151C809.338 66.3778 809.273 66.6596 809.273 66.9602V67.4432C809.273 67.8551 809.344 68.2043 809.486 68.4908C809.631 68.7749 809.831 68.9915 810.086 69.1406C810.342 69.2874 810.639 69.3608 810.978 69.3608C811.198 69.3608 811.397 69.33 811.574 69.2685C811.754 69.2045 811.909 69.1098 812.04 68.9844C812.17 68.8565 812.27 68.6979 812.341 68.5085L813.151 68.7358C813.066 69.0104 812.923 69.2519 812.721 69.4602C812.52 69.6662 812.272 69.8272 811.976 69.9432C811.68 70.0568 811.347 70.1136 810.978 70.1136ZM814.511 70V64.5455H815.321V65.3693H815.378C815.477 65.0994 815.657 64.8804 815.917 64.7124C816.178 64.5443 816.471 64.4602 816.798 64.4602C816.86 64.4602 816.937 64.4614 817.029 64.4638C817.121 64.4661 817.191 64.4697 817.238 64.4744V65.3267C817.21 65.3196 817.145 65.3089 817.043 65.2947C816.944 65.2782 816.838 65.2699 816.727 65.2699C816.462 65.2699 816.225 65.3255 816.017 65.4368C815.811 65.5457 815.648 65.6972 815.527 65.8913C815.408 66.0831 815.349 66.3021 815.349 66.5483V70H814.511Z" fill="#6B80A4"/>
<rect x="724" y="64" width="28" height="5" rx="2.5" fill="#C8CDD8"/>
<rect x="693" y="58" width="16" height="16" rx="3" fill="#DDE2EA"/>
<rect x="321" y="64" width="32" height="5" rx="2.5" fill="#C8CDD8"/>
<rect x="377" y="64" width="40" height="5" rx="2.5" fill="#C8CDD8"/>
<rect x="441" y="64" width="36" height="5" rx="2.5" fill="#C8CDD8"/>
<rect x="501" y="64" width="28" height="5" rx="2.5" fill="#C8CDD8"/>
<rect x="27" y="55" width="22" height="22" rx="3" fill="#DDE2EA"/>
<rect x="57" y="62.5" width="52" height="7" rx="3.5" fill="#C8CDD8"/>
<rect x="791" y="14" width="20" height="16" rx="4" fill="#C8CDD8"/>
<rect x="817" y="14" width="20" height="16" rx="4" fill="#C8CDD8"/>
<rect x="88.5" y="12.5" width="676" height="19" rx="9.5" fill="#F2F4F8" stroke="#D4D8E2"/>
<circle cx="103" cy="22" r="4" fill="#D4D8E2"/>
<rect x="113" y="16" width="212" height="12" rx="6" fill="#D4D8E2"/>
<circle cx="21" cy="22" r="5" fill="#C8CDD8"/>
<circle cx="39" cy="22" r="5" fill="#C8CDD8"/>
<circle cx="57" cy="22" r="5" fill="#C8CDD8"/>
<g filter="url(#filter0_d_3175_1918)">
<rect x="675" y="209" width="64" height="21" rx="10.5" fill="#3AC2BA" shape-rendering="crispEdges"/>
<path d="M698.789 218.174C698.755 217.871 698.614 217.637 698.367 217.471C698.12 217.303 697.809 217.218 697.434 217.218C697.165 217.218 696.933 217.261 696.737 217.346C696.541 217.429 696.389 217.544 696.28 217.691C696.174 217.836 696.12 218.001 696.12 218.187C696.12 218.342 696.157 218.477 696.229 218.589C696.304 218.702 696.401 218.797 696.52 218.874C696.641 218.949 696.771 219.011 696.91 219.062C697.048 219.112 697.181 219.152 697.309 219.184L697.949 219.35C698.157 219.401 698.371 219.471 698.591 219.558C698.81 219.645 699.014 219.76 699.201 219.903C699.389 220.046 699.54 220.223 699.655 220.434C699.772 220.645 699.831 220.897 699.831 221.191C699.831 221.562 699.735 221.891 699.543 222.179C699.354 222.466 699.078 222.693 698.716 222.859C698.355 223.026 697.92 223.109 697.408 223.109C696.918 223.109 696.494 223.031 696.136 222.875C695.778 222.72 695.498 222.499 695.296 222.214C695.093 221.926 694.982 221.585 694.96 221.191H695.951C695.97 221.428 696.047 221.625 696.181 221.782C696.317 221.938 696.491 222.054 696.702 222.131C696.915 222.205 697.148 222.243 697.402 222.243C697.681 222.243 697.929 222.199 698.147 222.112C698.366 222.022 698.539 221.898 698.664 221.741C698.79 221.581 698.853 221.395 698.853 221.181C698.853 220.988 698.798 220.829 698.687 220.705C698.578 220.582 698.43 220.479 698.243 220.398C698.057 220.317 697.847 220.246 697.613 220.184L696.839 219.973C696.315 219.831 695.9 219.621 695.593 219.344C695.288 219.067 695.136 218.7 695.136 218.244C695.136 217.867 695.238 217.538 695.443 217.257C695.647 216.975 695.924 216.757 696.274 216.602C696.623 216.444 697.017 216.365 697.456 216.365C697.9 216.365 698.29 216.443 698.629 216.598C698.97 216.754 699.239 216.968 699.435 217.241C699.631 217.511 699.733 217.822 699.741 218.174H698.789ZM703.226 218.091V218.858H700.544V218.091H703.226ZM701.264 216.915H702.219V221.559C702.219 221.744 702.247 221.884 702.302 221.977C702.358 222.069 702.429 222.132 702.516 222.166C702.606 222.198 702.703 222.214 702.807 222.214C702.884 222.214 702.951 222.208 703.009 222.198C703.066 222.187 703.111 222.179 703.143 222.172L703.315 222.962C703.26 222.983 703.181 223.004 703.079 223.026C702.977 223.049 702.849 223.062 702.695 223.064C702.444 223.068 702.21 223.023 701.992 222.93C701.775 222.836 701.599 222.691 701.465 222.495C701.331 222.299 701.264 222.053 701.264 221.757V216.915ZM706.346 223.099C705.862 223.099 705.446 222.996 705.096 222.789C704.749 222.58 704.481 222.287 704.291 221.91C704.104 221.531 704.01 221.087 704.01 220.577C704.01 220.075 704.104 219.631 704.291 219.248C704.481 218.864 704.745 218.565 705.084 218.35C705.425 218.135 705.823 218.027 706.279 218.027C706.556 218.027 706.824 218.073 707.084 218.164C707.344 218.256 707.578 218.4 707.784 218.596C707.991 218.792 708.154 219.047 708.273 219.36C708.393 219.671 708.452 220.049 708.452 220.494V220.833H704.55V220.117H707.516C707.516 219.866 707.465 219.643 707.362 219.449C707.26 219.253 707.116 219.099 706.931 218.986C706.748 218.873 706.532 218.816 706.285 218.816C706.017 218.816 705.782 218.882 705.582 219.015C705.384 219.145 705.231 219.315 705.122 219.526C705.015 219.735 704.962 219.962 704.962 220.207V220.766C704.962 221.094 705.02 221.373 705.135 221.603C705.252 221.833 705.415 222.009 705.624 222.131C705.833 222.25 706.077 222.31 706.356 222.31C706.537 222.31 706.702 222.284 706.851 222.233C707 222.18 707.129 222.101 707.238 221.996C707.346 221.892 707.43 221.763 707.487 221.61L708.392 221.773C708.319 222.039 708.189 222.272 708.002 222.473C707.816 222.671 707.583 222.825 707.302 222.936C707.023 223.045 706.704 223.099 706.346 223.099ZM709.513 224.841V218.091H710.446V218.887H710.526C710.581 218.784 710.661 218.666 710.765 218.532C710.87 218.398 711.015 218.281 711.2 218.18C711.385 218.078 711.63 218.027 711.935 218.027C712.331 218.027 712.685 218.127 712.996 218.327C713.307 218.528 713.551 218.816 713.728 219.194C713.907 219.571 713.997 220.025 713.997 220.555C713.997 221.086 713.908 221.54 713.731 221.92C713.554 222.297 713.312 222.588 713.003 222.792C712.694 222.995 712.341 223.096 711.945 223.096C711.646 223.096 711.402 223.046 711.213 222.946C711.025 222.846 710.878 222.728 710.772 222.594C710.665 222.46 710.583 222.341 710.526 222.236H710.468V224.841H709.513ZM710.449 220.545C710.449 220.891 710.499 221.193 710.599 221.453C710.699 221.713 710.844 221.917 711.034 222.064C711.223 222.208 711.456 222.281 711.731 222.281C712.016 222.281 712.255 222.205 712.446 222.054C712.638 221.901 712.783 221.693 712.881 221.431C712.981 221.169 713.031 220.874 713.031 220.545C713.031 220.222 712.982 219.931 712.884 219.673C712.788 219.415 712.644 219.212 712.45 219.062C712.258 218.913 712.018 218.839 711.731 218.839C711.454 218.839 711.219 218.91 711.027 219.053C710.838 219.196 710.694 219.395 710.596 219.651C710.498 219.906 710.449 220.205 710.449 220.545ZM718.746 219.289L717.88 219.443C717.843 219.332 717.786 219.227 717.707 219.126C717.63 219.026 717.526 218.944 717.394 218.88C717.262 218.816 717.097 218.784 716.899 218.784C716.628 218.784 716.402 218.845 716.221 218.967C716.04 219.086 715.949 219.24 715.949 219.43C715.949 219.594 716.01 219.726 716.131 219.826C716.253 219.926 716.449 220.009 716.72 220.072L717.499 220.251C717.951 220.356 718.288 220.517 718.509 220.734C718.731 220.951 718.842 221.234 718.842 221.581C718.842 221.875 718.756 222.137 718.586 222.367C718.418 222.595 718.182 222.774 717.88 222.904C717.579 223.034 717.231 223.099 716.835 223.099C716.285 223.099 715.836 222.982 715.489 222.748C715.142 222.511 714.929 222.175 714.85 221.741L715.774 221.6C715.831 221.841 715.949 222.023 716.128 222.147C716.307 222.268 716.541 222.329 716.828 222.329C717.141 222.329 717.392 222.264 717.579 222.134C717.767 222.002 717.861 221.841 717.861 221.651C717.861 221.498 717.803 221.369 717.688 221.265C717.575 221.16 717.401 221.081 717.167 221.028L716.336 220.846C715.878 220.741 715.539 220.575 715.32 220.347C715.102 220.119 714.994 219.831 714.994 219.481C714.994 219.191 715.075 218.938 715.237 218.721C715.399 218.503 715.622 218.334 715.908 218.212C716.193 218.089 716.52 218.027 716.889 218.027C717.419 218.027 717.837 218.142 718.142 218.372C718.446 218.6 718.648 218.906 718.746 219.289Z" fill="white"/>
</g>
<g filter="url(#filter1_d_3175_1918)">
<rect x="74" y="334" width="73" height="21" rx="10.5" fill="#3AC2BA" shape-rendering="crispEdges"/>
<path d="M85.7191 348V341.455H89.7781V342.305H86.7067V344.299H89.4872V345.146H86.7067V348H85.7191ZM92.6233 348.099C92.1631 348.099 91.7615 347.994 91.4184 347.783C91.0754 347.572 90.809 347.277 90.6194 346.897C90.4298 346.518 90.335 346.075 90.335 345.568C90.335 345.059 90.4298 344.613 90.6194 344.232C90.809 343.85 91.0754 343.554 91.4184 343.343C91.7615 343.132 92.1631 343.027 92.6233 343.027C93.0835 343.027 93.4852 343.132 93.8282 343.343C94.1713 343.554 94.4376 343.85 94.6272 344.232C94.8169 344.613 94.9117 345.059 94.9117 345.568C94.9117 346.075 94.8169 346.518 94.6272 346.897C94.4376 347.277 94.1713 347.572 93.8282 347.783C93.4852 347.994 93.0835 348.099 92.6233 348.099ZM92.6265 347.297C92.9248 347.297 93.172 347.218 93.368 347.06C93.564 346.903 93.7089 346.693 93.8026 346.431C93.8985 346.169 93.9465 345.88 93.9465 345.565C93.9465 345.251 93.8985 344.964 93.8026 344.702C93.7089 344.437 93.564 344.225 93.368 344.066C93.172 343.906 92.9248 343.826 92.6265 343.826C92.3261 343.826 92.0768 343.906 91.8786 344.066C91.6826 344.225 91.5367 344.437 91.4408 344.702C91.347 344.964 91.3002 345.251 91.3002 345.565C91.3002 345.88 91.347 346.169 91.4408 346.431C91.5367 346.693 91.6826 346.903 91.8786 347.06C92.0768 347.218 92.3261 347.297 92.6265 347.297ZM95.9783 348V343.091H96.902V343.871H96.9531C97.0426 343.607 97.2003 343.399 97.4261 343.248C97.6541 343.094 97.9119 343.017 98.1996 343.017C98.2592 343.017 98.3295 343.02 98.4105 343.024C98.4936 343.028 98.5586 343.033 98.6055 343.04V343.954C98.5671 343.943 98.4989 343.931 98.4009 343.919C98.3029 343.904 98.2049 343.896 98.1069 343.896C97.881 343.896 97.6797 343.944 97.5028 344.04C97.3281 344.134 97.1896 344.265 97.0874 344.433C96.9851 344.599 96.9339 344.789 96.9339 345.002V348H95.9783ZM99.4324 348V343.091H100.35V343.89H100.41C100.513 343.619 100.68 343.408 100.912 343.257C101.144 343.104 101.422 343.027 101.746 343.027C102.074 343.027 102.349 343.104 102.571 343.257C102.795 343.411 102.96 343.621 103.066 343.89H103.117C103.235 343.628 103.421 343.419 103.677 343.263C103.932 343.106 104.237 343.027 104.591 343.027C105.036 343.027 105.399 343.167 105.681 343.446C105.964 343.725 106.106 344.146 106.106 344.708V348H105.15V344.798C105.15 344.465 105.06 344.224 104.878 344.075C104.697 343.926 104.481 343.852 104.23 343.852C103.919 343.852 103.677 343.947 103.504 344.139C103.332 344.329 103.245 344.573 103.245 344.871V348H102.293V344.737C102.293 344.471 102.21 344.256 102.044 344.094C101.877 343.933 101.661 343.852 101.395 343.852C101.214 343.852 101.046 343.9 100.893 343.995C100.742 344.089 100.619 344.22 100.525 344.388C100.434 344.557 100.388 344.752 100.388 344.973V348H99.4324ZM109.768 348V343.091H110.724V348H109.768ZM110.251 342.333C110.085 342.333 109.942 342.278 109.823 342.167C109.706 342.054 109.647 341.92 109.647 341.765C109.647 341.607 109.706 341.473 109.823 341.362C109.942 341.249 110.085 341.192 110.251 341.192C110.417 341.192 110.559 341.249 110.676 341.362C110.795 341.473 110.855 341.607 110.855 341.765C110.855 341.92 110.795 342.054 110.676 342.167C110.559 342.278 110.417 342.333 110.251 342.333ZM112.965 345.085V348H112.01V343.091H112.927V343.89H112.988C113.1 343.63 113.277 343.421 113.518 343.263C113.761 343.106 114.067 343.027 114.435 343.027C114.77 343.027 115.063 343.097 115.314 343.238C115.566 343.376 115.761 343.583 115.899 343.858C116.038 344.133 116.107 344.473 116.107 344.877V348H115.151V344.993C115.151 344.637 115.059 344.359 114.873 344.158C114.688 343.956 114.433 343.855 114.109 343.855C113.888 343.855 113.691 343.903 113.518 343.999C113.348 344.094 113.212 344.235 113.112 344.42C113.014 344.604 112.965 344.825 112.965 345.085ZM117.388 349.841V343.091H118.322V343.887H118.402C118.457 343.784 118.537 343.666 118.641 343.532C118.746 343.398 118.891 343.281 119.076 343.18C119.261 343.078 119.506 343.027 119.811 343.027C120.207 343.027 120.561 343.127 120.872 343.327C121.183 343.528 121.427 343.816 121.604 344.194C121.783 344.571 121.873 345.025 121.873 345.555C121.873 346.086 121.784 346.54 121.607 346.92C121.43 347.297 121.188 347.588 120.879 347.792C120.57 347.995 120.217 348.096 119.821 348.096C119.522 348.096 119.278 348.046 119.089 347.946C118.901 347.846 118.754 347.728 118.648 347.594C118.541 347.46 118.459 347.341 118.402 347.236H118.344V349.841H117.388ZM118.325 345.545C118.325 345.891 118.375 346.193 118.475 346.453C118.575 346.713 118.72 346.917 118.91 347.064C119.099 347.208 119.332 347.281 119.607 347.281C119.892 347.281 120.131 347.205 120.322 347.054C120.514 346.901 120.659 346.693 120.757 346.431C120.857 346.169 120.907 345.874 120.907 345.545C120.907 345.222 120.858 344.931 120.76 344.673C120.664 344.415 120.52 344.212 120.326 344.062C120.134 343.913 119.894 343.839 119.607 343.839C119.33 343.839 119.095 343.91 118.903 344.053C118.714 344.196 118.57 344.395 118.472 344.651C118.374 344.906 118.325 345.205 118.325 345.545ZM126.053 345.964V343.091H127.012V348H126.072V347.15H126.021C125.908 347.412 125.727 347.63 125.478 347.805C125.23 347.978 124.923 348.064 124.554 348.064C124.239 348.064 123.96 347.995 123.717 347.856C123.476 347.716 123.286 347.508 123.148 347.233C123.011 346.958 122.943 346.618 122.943 346.213V343.091H123.899V346.098C123.899 346.433 123.991 346.699 124.177 346.897C124.362 347.096 124.603 347.195 124.899 347.195C125.078 347.195 125.256 347.15 125.433 347.06C125.612 346.971 125.76 346.836 125.877 346.654C125.996 346.473 126.055 346.243 126.053 345.964ZM130.587 343.091V343.858H127.906V343.091H130.587ZM128.625 341.915H129.581V346.559C129.581 346.744 129.608 346.884 129.664 346.977C129.719 347.069 129.79 347.132 129.878 347.166C129.967 347.198 130.064 347.214 130.169 347.214C130.245 347.214 130.312 347.208 130.37 347.198C130.427 347.187 130.472 347.179 130.504 347.172L130.677 347.962C130.621 347.983 130.543 348.004 130.44 348.026C130.338 348.049 130.21 348.062 130.057 348.064C129.805 348.068 129.571 348.023 129.354 347.93C129.136 347.836 128.96 347.691 128.826 347.495C128.692 347.299 128.625 347.053 128.625 346.757V341.915ZM135.244 344.289L134.378 344.443C134.342 344.332 134.284 344.227 134.205 344.126C134.128 344.026 134.024 343.944 133.892 343.88C133.76 343.816 133.595 343.784 133.397 343.784C133.126 343.784 132.9 343.845 132.719 343.967C132.538 344.086 132.447 344.24 132.447 344.43C132.447 344.594 132.508 344.726 132.63 344.826C132.751 344.926 132.947 345.009 133.218 345.072L133.997 345.251C134.449 345.356 134.786 345.517 135.007 345.734C135.229 345.951 135.34 346.234 135.34 346.581C135.34 346.875 135.255 347.137 135.084 347.367C134.916 347.595 134.68 347.774 134.378 347.904C134.077 348.034 133.729 348.099 133.333 348.099C132.783 348.099 132.334 347.982 131.987 347.748C131.64 347.511 131.427 347.175 131.348 346.741L132.272 346.6C132.329 346.841 132.447 347.023 132.626 347.147C132.805 347.268 133.039 347.329 133.326 347.329C133.639 347.329 133.89 347.264 134.077 347.134C134.265 347.002 134.359 346.841 134.359 346.651C134.359 346.498 134.301 346.369 134.186 346.265C134.073 346.16 133.899 346.081 133.665 346.028L132.834 345.846C132.376 345.741 132.037 345.575 131.818 345.347C131.6 345.119 131.492 344.831 131.492 344.481C131.492 344.191 131.573 343.938 131.735 343.721C131.897 343.503 132.12 343.334 132.406 343.212C132.691 343.089 133.018 343.027 133.387 343.027C133.918 343.027 134.335 343.142 134.64 343.372C134.945 343.6 135.146 343.906 135.244 344.289Z" fill="white"/>
</g>
<g filter="url(#filter2_d_3175_1918)">
<rect x="166" y="260" width="251" height="46" rx="12.6118" fill="white"/>
<rect x="166.631" y="260.631" width="249.739" height="44.7388" rx="11.9812" stroke="#D4D8E2" stroke-width="1.26118"/>
</g>
<rect x="182.395" y="275" width="68.1035" height="6.30588" rx="3.15294" fill="#C8CDD8"/>
<rect x="182.395" y="286.351" width="94.5882" height="5.0447" rx="2.52235" fill="#C8CDD8"/>
<g filter="url(#filter3_d_3175_1918)">
<rect x="436" y="260" width="251" height="46" rx="12.6118" fill="white"/>
<rect x="436.631" y="260.631" width="249.739" height="44.7388" rx="11.9812" stroke="#D4D8E2" stroke-width="1.26118"/>
</g>
<rect x="452.395" y="275" width="68.1035" height="6.30588" rx="3.15294" fill="#C8CDD8"/>
<rect x="452.395" y="286.351" width="94.5882" height="5.0447" rx="2.52235" fill="#C8CDD8"/>
<g filter="url(#filter4_d_3175_1918)">
<rect x="166" y="325" width="251" height="46" rx="12.6118" fill="white"/>
<rect x="166.631" y="325.631" width="249.739" height="44.7388" rx="11.9812" stroke="#D4D8E2" stroke-width="1.26118"/>
</g>
<rect x="182.395" y="340" width="68.1035" height="6.30588" rx="3.15294" fill="#C8CDD8"/>
<rect x="182.395" y="351.351" width="94.5882" height="5.0447" rx="2.52235" fill="#C8CDD8"/>
<g filter="url(#filter5_d_3175_1918)">
<rect x="436" y="325" width="251" height="46" rx="12.6118" fill="white"/>
<rect x="436.631" y="325.631" width="249.739" height="44.7388" rx="11.9812" stroke="#D4D8E2" stroke-width="1.26118"/>
</g>
<rect x="452.395" y="340" width="68.1035" height="6.30588" rx="3.15294" fill="#C8CDD8"/>
<rect x="452.395" y="351.351" width="94.5882" height="5.0447" rx="2.52235" fill="#C8CDD8"/>
<g filter="url(#filter6_d_3175_1918)">
<rect x="166" y="390" width="251" height="46" rx="12.6118" fill="white"/>
<rect x="166.631" y="390.631" width="249.739" height="44.7388" rx="11.9812" stroke="#D4D8E2" stroke-width="1.26118"/>
</g>
<rect x="182.395" y="405" width="68.1035" height="6.30588" rx="3.15294" fill="#C8CDD8"/>
<rect x="182.395" y="416.351" width="94.5882" height="5.0447" rx="2.52235" fill="#C8CDD8"/>
<g filter="url(#filter7_d_3175_1918)">
<rect x="436" y="390" width="251" height="46" rx="12.6118" fill="white"/>
<rect x="436.631" y="390.631" width="249.739" height="44.7388" rx="11.9812" stroke="#D4D8E2" stroke-width="1.26118"/>
</g>
<rect x="452.395" y="405" width="68.1035" height="6.30588" rx="3.15294" fill="#C8CDD8"/>
<rect x="452.395" y="416.351" width="94.5882" height="5.0447" rx="2.52235" fill="#C8CDD8"/>
<g filter="url(#filter8_d_3175_1918)">
<rect x="167" y="459" width="18" height="18" rx="4" fill="white"/>
<rect x="167.631" y="459.631" width="16.7388" height="16.7388" rx="3.36941" stroke="#D4D8E2" stroke-width="1.26118"/>
</g>
<rect x="192" y="466" width="279" height="5" rx="2.5" fill="#C8CDD8"/>
<path d="M588 523C588 520.239 590.239 518 593 518H683C685.761 518 688 520.239 688 523V541C688 543.761 685.761 546 683 546H593C590.239 546 588 543.761 588 541V523Z" fill="#B0C8F0"/>
<path d="M604.858 530.545C604.815 530.186 604.643 529.906 604.339 529.707C604.036 529.509 603.665 529.409 603.224 529.409C602.902 529.409 602.621 529.461 602.379 529.565C602.14 529.67 601.953 529.813 601.818 529.995C601.686 530.177 601.619 530.384 601.619 530.616C601.619 530.811 601.665 530.978 601.758 531.117C601.853 531.254 601.973 531.369 602.12 531.462C602.267 531.552 602.421 531.626 602.582 531.685C602.743 531.742 602.891 531.788 603.026 531.824L603.764 532.023C603.954 532.072 604.164 532.141 604.396 532.229C604.631 532.316 604.854 532.436 605.067 532.587C605.283 532.737 605.46 532.928 605.6 533.163C605.74 533.397 605.81 533.685 605.81 534.026C605.81 534.419 605.707 534.774 605.501 535.091C605.297 535.408 604.999 535.66 604.606 535.847C604.215 536.034 603.741 536.128 603.182 536.128C602.661 536.128 602.21 536.044 601.829 535.876C601.45 535.708 601.152 535.473 600.934 535.173C600.719 534.872 600.597 534.523 600.568 534.125H601.477C601.501 534.4 601.593 534.627 601.754 534.807C601.918 534.984 602.124 535.117 602.372 535.205C602.623 535.29 602.893 535.332 603.182 535.332C603.518 535.332 603.82 535.278 604.087 535.169C604.355 535.058 604.567 534.904 604.723 534.707C604.879 534.509 604.957 534.277 604.957 534.011C604.957 533.77 604.89 533.573 604.755 533.422C604.62 533.27 604.442 533.147 604.222 533.053C604.002 532.958 603.764 532.875 603.509 532.804L602.614 532.548C602.045 532.385 601.596 532.152 601.264 531.849C600.933 531.546 600.767 531.149 600.767 530.659C600.767 530.252 600.877 529.897 601.097 529.594C601.32 529.288 601.618 529.052 601.992 528.884C602.369 528.713 602.789 528.628 603.253 528.628C603.722 528.628 604.138 528.712 604.503 528.88C604.867 529.046 605.156 529.273 605.369 529.562C605.585 529.851 605.698 530.179 605.71 530.545H604.858ZM608.749 536.128C608.403 536.128 608.09 536.063 607.808 535.933C607.526 535.8 607.303 535.609 607.137 535.361C606.971 535.11 606.888 534.807 606.888 534.452C606.888 534.139 606.95 533.886 607.073 533.692C607.196 533.495 607.361 533.341 607.567 533.23C607.773 533.119 608 533.036 608.248 532.982C608.499 532.925 608.751 532.88 609.005 532.847C609.336 532.804 609.605 532.772 609.811 532.751C610.019 532.727 610.171 532.688 610.265 532.634C610.363 532.579 610.411 532.484 610.411 532.349V532.321C610.411 531.971 610.315 531.698 610.123 531.504C609.934 531.31 609.646 531.213 609.26 531.213C608.86 531.213 608.547 531.301 608.319 531.476C608.092 531.651 607.932 531.838 607.84 532.037L607.045 531.753C607.187 531.421 607.376 531.163 607.613 530.979C607.852 530.792 608.112 530.661 608.394 530.588C608.678 530.512 608.957 530.474 609.232 530.474C609.407 530.474 609.608 530.496 609.836 530.538C610.065 530.579 610.287 530.663 610.5 530.79C610.715 530.918 610.894 531.111 611.036 531.369C611.178 531.627 611.249 531.973 611.249 532.406V536H610.411V535.261H610.368C610.312 535.38 610.217 535.506 610.084 535.641C609.952 535.776 609.775 535.891 609.555 535.986C609.335 536.08 609.066 536.128 608.749 536.128ZM608.877 535.375C609.208 535.375 609.488 535.31 609.715 535.18C609.945 535.049 610.117 534.881 610.233 534.675C610.352 534.469 610.411 534.253 610.411 534.026V533.259C610.376 533.301 610.297 533.34 610.177 533.376C610.058 533.409 609.921 533.438 609.765 533.464C609.611 533.488 609.461 533.509 609.314 533.528C609.169 533.545 609.052 533.559 608.962 533.571C608.744 533.599 608.541 533.646 608.351 533.71C608.164 533.771 608.013 533.865 607.897 533.99C607.783 534.113 607.726 534.281 607.726 534.494C607.726 534.786 607.834 535.006 608.05 535.155C608.267 535.302 608.543 535.375 608.877 535.375ZM617.044 530.545L615.027 536H614.174L612.157 530.545H613.066L614.572 534.892H614.629L616.135 530.545H617.044ZM620.241 536.114C619.716 536.114 619.263 535.998 618.881 535.766C618.503 535.531 618.21 535.205 618.004 534.786C617.801 534.364 617.699 533.874 617.699 533.315C617.699 532.757 617.801 532.264 618.004 531.838C618.21 531.41 618.497 531.076 618.864 530.837C619.233 530.595 619.664 530.474 620.156 530.474C620.44 530.474 620.721 530.522 620.998 530.616C621.275 530.711 621.527 530.865 621.754 531.078C621.982 531.289 622.163 531.568 622.298 531.916C622.433 532.264 622.5 532.693 622.5 533.202V533.557H618.295V532.832H621.648C621.648 532.525 621.586 532.25 621.463 532.009C621.342 531.767 621.17 531.576 620.945 531.437C620.722 531.297 620.459 531.227 620.156 531.227C619.822 531.227 619.534 531.31 619.29 531.476C619.048 531.639 618.862 531.852 618.732 532.115C618.602 532.378 618.537 532.66 618.537 532.96V533.443C618.537 533.855 618.608 534.204 618.75 534.491C618.894 534.775 619.094 534.991 619.35 535.141C619.606 535.287 619.903 535.361 620.241 535.361C620.462 535.361 620.661 535.33 620.838 535.268C621.018 535.205 621.173 535.11 621.303 534.984C621.433 534.857 621.534 534.698 621.605 534.509L622.415 534.736C622.33 535.01 622.186 535.252 621.985 535.46C621.784 535.666 621.535 535.827 621.239 535.943C620.943 536.057 620.611 536.114 620.241 536.114ZM628.647 536.099C628.169 536.099 627.757 536.012 627.411 535.837C627.066 535.661 626.799 535.421 626.612 535.116C626.425 534.81 626.332 534.461 626.332 534.068C626.332 533.765 626.396 533.496 626.523 533.262C626.654 533.025 626.832 532.806 627.06 532.605C627.289 532.402 627.553 532.198 627.852 531.994L628.903 531.213C629.109 531.078 629.273 530.934 629.396 530.78C629.522 530.626 629.585 530.425 629.585 530.176C629.585 529.991 629.503 529.813 629.339 529.64C629.179 529.467 628.967 529.381 628.704 529.381C628.519 529.381 628.356 529.428 628.214 529.523C628.074 529.615 627.964 529.733 627.884 529.878C627.805 530.02 627.766 530.167 627.766 530.318C627.766 530.489 627.813 530.661 627.905 530.837C628 531.009 628.119 531.187 628.263 531.369C628.41 531.549 628.562 531.734 628.718 531.923L632.056 536H631.048L628.292 532.676C628.036 532.368 627.804 532.089 627.596 531.838C627.388 531.587 627.222 531.34 627.099 531.096C626.976 530.852 626.914 530.588 626.914 530.304C626.914 529.977 626.986 529.691 627.131 529.445C627.277 529.196 627.482 529.003 627.745 528.866C628.01 528.726 628.32 528.656 628.675 528.656C629.04 528.656 629.354 528.727 629.616 528.869C629.879 529.009 630.082 529.195 630.224 529.427C630.366 529.656 630.437 529.906 630.437 530.176C630.437 530.524 630.35 530.826 630.178 531.082C630.005 531.337 629.769 531.575 629.471 531.795L628.022 532.875C627.695 533.116 627.474 533.351 627.358 533.578C627.242 533.805 627.184 533.969 627.184 534.068C627.184 534.295 627.243 534.507 627.362 534.704C627.48 534.9 627.647 535.059 627.862 535.18C628.078 535.3 628.33 535.361 628.619 535.361C628.893 535.361 629.161 535.303 629.421 535.187C629.682 535.068 629.917 534.898 630.128 534.675C630.341 534.453 630.509 534.185 630.632 533.873C630.758 533.56 630.82 533.209 630.82 532.818H631.63C631.63 533.301 631.574 533.695 631.463 534.001C631.352 534.306 631.226 534.545 631.087 534.718C630.947 534.891 630.835 535.02 630.749 535.105C630.721 535.141 630.695 535.176 630.671 535.212C630.647 535.247 630.621 535.283 630.593 535.318C630.359 535.581 630.063 535.777 629.705 535.908C629.348 536.036 628.995 536.099 628.647 536.099ZM638.012 536.114C637.501 536.114 637.061 535.993 636.691 535.751C636.322 535.51 636.038 535.177 635.839 534.754C635.64 534.33 635.541 533.846 635.541 533.301C635.541 532.747 635.642 532.258 635.846 531.835C636.052 531.408 636.338 531.076 636.705 530.837C637.075 530.595 637.506 530.474 637.998 530.474C638.382 530.474 638.727 530.545 639.035 530.688C639.343 530.83 639.595 531.028 639.791 531.284C639.988 531.54 640.11 531.838 640.157 532.179H639.319C639.255 531.93 639.113 531.71 638.893 531.518C638.675 531.324 638.382 531.227 638.012 531.227C637.686 531.227 637.399 531.312 637.153 531.483C636.909 531.651 636.718 531.889 636.581 532.197C636.446 532.502 636.379 532.861 636.379 533.273C636.379 533.694 636.445 534.061 636.578 534.374C636.713 534.686 636.902 534.929 637.146 535.102C637.392 535.274 637.681 535.361 638.012 535.361C638.23 535.361 638.428 535.323 638.605 535.247C638.783 535.171 638.933 535.062 639.056 534.92C639.179 534.778 639.267 534.608 639.319 534.409H640.157C640.11 534.731 639.993 535.021 639.806 535.279C639.621 535.535 639.376 535.738 639.07 535.89C638.767 536.039 638.415 536.114 638.012 536.114ZM643.598 536.114C643.106 536.114 642.674 535.996 642.302 535.762C641.933 535.528 641.644 535.2 641.436 534.778C641.23 534.357 641.127 533.865 641.127 533.301C641.127 532.733 641.23 532.237 641.436 531.813C641.644 531.389 641.933 531.06 642.302 530.826C642.674 530.592 643.106 530.474 643.598 530.474C644.091 530.474 644.521 530.592 644.891 530.826C645.262 531.06 645.551 531.389 645.757 531.813C645.966 532.237 646.07 532.733 646.07 533.301C646.07 533.865 645.966 534.357 645.757 534.778C645.551 535.2 645.262 535.528 644.891 535.762C644.521 535.996 644.091 536.114 643.598 536.114ZM643.598 535.361C643.972 535.361 644.28 535.265 644.521 535.073C644.763 534.881 644.942 534.629 645.058 534.317C645.174 534.004 645.232 533.666 645.232 533.301C645.232 532.937 645.174 532.597 645.058 532.282C644.942 531.967 644.763 531.713 644.521 531.518C644.28 531.324 643.972 531.227 643.598 531.227C643.224 531.227 642.916 531.324 642.675 531.518C642.433 531.713 642.255 531.967 642.139 532.282C642.023 532.597 641.965 532.937 641.965 533.301C641.965 533.666 642.023 534.004 642.139 534.317C642.255 534.629 642.433 534.881 642.675 535.073C642.916 535.265 643.224 535.361 643.598 535.361ZM648.187 532.719V536H647.349V530.545H648.159V531.398H648.23C648.358 531.121 648.552 530.898 648.812 530.73C649.073 530.56 649.409 530.474 649.821 530.474C650.19 530.474 650.513 530.55 650.79 530.702C651.067 530.851 651.283 531.078 651.436 531.384C651.59 531.687 651.667 532.07 651.667 532.534V536H650.829V532.591C650.829 532.162 650.718 531.829 650.495 531.589C650.273 531.348 649.967 531.227 649.579 531.227C649.312 531.227 649.073 531.285 648.862 531.401C648.654 531.517 648.489 531.687 648.368 531.909C648.248 532.132 648.187 532.402 648.187 532.719ZM655.571 530.545V531.256H652.744V530.545H655.571ZM653.568 529.239H654.406V534.438C654.406 534.674 654.44 534.852 654.509 534.97C654.58 535.086 654.67 535.164 654.779 535.205C654.89 535.242 655.007 535.261 655.131 535.261C655.223 535.261 655.299 535.257 655.358 535.247C655.417 535.235 655.464 535.226 655.5 535.219L655.67 535.972C655.613 535.993 655.534 536.014 655.432 536.036C655.331 536.059 655.202 536.071 655.045 536.071C654.809 536.071 654.577 536.02 654.349 535.918C654.124 535.817 653.937 535.661 653.788 535.453C653.641 535.245 653.568 534.982 653.568 534.665V529.239ZM656.831 536V530.545H657.67V536H656.831ZM657.258 529.636C657.094 529.636 656.953 529.581 656.835 529.469C656.719 529.358 656.661 529.224 656.661 529.068C656.661 528.912 656.719 528.778 656.835 528.667C656.953 528.556 657.094 528.5 657.258 528.5C657.421 528.5 657.561 528.556 657.677 528.667C657.795 528.778 657.854 528.912 657.854 529.068C657.854 529.224 657.795 529.358 657.677 529.469C657.561 529.581 657.421 529.636 657.258 529.636ZM660.043 532.719V536H659.205V530.545H660.014V531.398H660.085C660.213 531.121 660.407 530.898 660.668 530.73C660.928 530.56 661.264 530.474 661.676 530.474C662.045 530.474 662.369 530.55 662.646 530.702C662.923 530.851 663.138 531.078 663.292 531.384C663.446 531.687 663.523 532.07 663.523 532.534V536H662.685V532.591C662.685 532.162 662.573 531.829 662.351 531.589C662.128 531.348 661.823 531.227 661.435 531.227C661.167 531.227 660.928 531.285 660.717 531.401C660.509 531.517 660.344 531.687 660.224 531.909C660.103 532.132 660.043 532.402 660.043 532.719ZM668.492 533.77V530.545H669.33V536H668.492V535.077H668.435C668.307 535.354 668.108 535.589 667.838 535.783C667.568 535.975 667.227 536.071 666.816 536.071C666.475 536.071 666.172 535.996 665.906 535.847C665.641 535.696 665.433 535.469 665.281 535.165C665.13 534.86 665.054 534.475 665.054 534.011V530.545H665.892V533.955C665.892 534.352 666.003 534.67 666.226 534.906C666.451 535.143 666.737 535.261 667.085 535.261C667.294 535.261 667.506 535.208 667.721 535.102C667.939 534.995 668.121 534.832 668.268 534.612C668.417 534.391 668.492 534.111 668.492 533.77ZM673.152 536.114C672.626 536.114 672.173 535.998 671.792 535.766C671.413 535.531 671.12 535.205 670.914 534.786C670.711 534.364 670.609 533.874 670.609 533.315C670.609 532.757 670.711 532.264 670.914 531.838C671.12 531.41 671.407 531.076 671.774 530.837C672.143 530.595 672.574 530.474 673.066 530.474C673.35 530.474 673.631 530.522 673.908 530.616C674.185 530.711 674.437 530.865 674.664 531.078C674.892 531.289 675.073 531.568 675.208 531.916C675.343 532.264 675.41 532.693 675.41 533.202V533.557H671.206V532.832H674.558C674.558 532.525 674.496 532.25 674.373 532.009C674.252 531.767 674.08 531.576 673.855 531.437C673.632 531.297 673.369 531.227 673.066 531.227C672.733 531.227 672.444 531.31 672.2 531.476C671.958 531.639 671.773 531.852 671.642 532.115C671.512 532.378 671.447 532.66 671.447 532.96V533.443C671.447 533.855 671.518 534.204 671.66 534.491C671.805 534.775 672.005 534.991 672.26 535.141C672.516 535.287 672.813 535.361 673.152 535.361C673.372 535.361 673.571 535.33 673.748 535.268C673.928 535.205 674.083 535.11 674.213 534.984C674.344 534.857 674.444 534.698 674.515 534.509L675.325 534.736C675.24 535.01 675.096 535.252 674.895 535.46C674.694 535.666 674.445 535.827 674.15 535.943C673.854 536.057 673.521 536.114 673.152 536.114Z" fill="#6B80A4"/>
<g filter="url(#filter9_d_3175_1918)">
<rect x="166" y="518" width="61" height="28" rx="5" fill="white" shape-rendering="crispEdges"/>
<rect x="166.631" y="518.631" width="59.7388" height="26.7388" rx="4.36941" stroke="#D4D8E2" stroke-width="1.26118" shape-rendering="crispEdges"/>
<path d="M185.381 536V528.727H187.923C188.43 528.727 188.848 528.815 189.177 528.99C189.506 529.163 189.751 529.396 189.912 529.69C190.073 529.981 190.153 530.304 190.153 530.659C190.153 530.972 190.098 531.23 189.987 531.433C189.878 531.637 189.733 531.798 189.553 531.916C189.376 532.035 189.183 532.122 188.974 532.179V532.25C189.197 532.264 189.421 532.342 189.646 532.484C189.871 532.626 190.059 532.83 190.21 533.095C190.362 533.36 190.438 533.685 190.438 534.068C190.438 534.433 190.355 534.761 190.189 535.052C190.023 535.343 189.762 535.574 189.404 535.744C189.047 535.915 188.581 536 188.009 536H185.381ZM186.261 535.219H188.009C188.584 535.219 188.992 535.107 189.234 534.885C189.478 534.66 189.599 534.388 189.599 534.068C189.599 533.822 189.537 533.595 189.411 533.386C189.286 533.176 189.107 533.008 188.875 532.882C188.643 532.754 188.368 532.69 188.051 532.69H186.261V535.219ZM186.261 531.923H187.895C188.16 531.923 188.399 531.871 188.612 531.767C188.828 531.663 188.998 531.516 189.124 531.327C189.251 531.137 189.315 530.915 189.315 530.659C189.315 530.339 189.204 530.068 188.982 529.846C188.759 529.621 188.406 529.509 187.923 529.509H186.261V531.923ZM193.376 536.128C193.03 536.128 192.717 536.063 192.435 535.933C192.153 535.8 191.93 535.609 191.764 535.361C191.598 535.11 191.515 534.807 191.515 534.452C191.515 534.139 191.577 533.886 191.7 533.692C191.823 533.495 191.988 533.341 192.194 533.23C192.4 533.119 192.627 533.036 192.875 532.982C193.126 532.925 193.378 532.88 193.632 532.847C193.963 532.804 194.232 532.772 194.438 532.751C194.646 532.727 194.798 532.688 194.892 532.634C194.989 532.579 195.038 532.484 195.038 532.349V532.321C195.038 531.971 194.942 531.698 194.75 531.504C194.561 531.31 194.273 531.213 193.887 531.213C193.487 531.213 193.174 531.301 192.946 531.476C192.719 531.651 192.559 531.838 192.467 532.037L191.672 531.753C191.814 531.421 192.003 531.163 192.24 530.979C192.479 530.792 192.739 530.661 193.021 530.588C193.305 530.512 193.584 530.474 193.859 530.474C194.034 530.474 194.235 530.496 194.463 530.538C194.692 530.579 194.914 530.663 195.127 530.79C195.342 530.918 195.521 531.111 195.663 531.369C195.805 531.627 195.876 531.973 195.876 532.406V536H195.038V535.261H194.995C194.939 535.38 194.844 535.506 194.711 535.641C194.579 535.776 194.402 535.891 194.182 535.986C193.962 536.08 193.693 536.128 193.376 536.128ZM193.504 535.375C193.835 535.375 194.115 535.31 194.342 535.18C194.572 535.049 194.744 534.881 194.86 534.675C194.979 534.469 195.038 534.253 195.038 534.026V533.259C195.002 533.301 194.924 533.34 194.804 533.376C194.685 533.409 194.548 533.438 194.392 533.464C194.238 533.488 194.087 533.509 193.941 533.528C193.796 533.545 193.679 533.559 193.589 533.571C193.371 533.599 193.168 533.646 192.978 533.71C192.791 533.771 192.64 533.865 192.524 533.99C192.41 534.113 192.353 534.281 192.353 534.494C192.353 534.786 192.461 535.006 192.676 535.155C192.894 535.302 193.17 535.375 193.504 535.375ZM199.622 536.114C199.11 536.114 198.67 535.993 198.301 535.751C197.931 535.51 197.647 535.177 197.448 534.754C197.249 534.33 197.15 533.846 197.15 533.301C197.15 532.747 197.252 532.258 197.455 531.835C197.661 531.408 197.948 531.076 198.315 530.837C198.684 530.595 199.115 530.474 199.607 530.474C199.991 530.474 200.337 530.545 200.644 530.688C200.952 530.83 201.204 531.028 201.401 531.284C201.597 531.54 201.719 531.838 201.767 532.179H200.928C200.865 531.93 200.722 531.71 200.502 531.518C200.285 531.324 199.991 531.227 199.622 531.227C199.295 531.227 199.008 531.312 198.762 531.483C198.518 531.651 198.328 531.889 198.191 532.197C198.056 532.502 197.988 532.861 197.988 533.273C197.988 533.694 198.054 534.061 198.187 534.374C198.322 534.686 198.511 534.929 198.755 535.102C199.001 535.274 199.29 535.361 199.622 535.361C199.839 535.361 200.037 535.323 200.215 535.247C200.392 535.171 200.543 535.062 200.666 534.92C200.789 534.778 200.876 534.608 200.928 534.409H201.767C201.719 534.731 201.602 535.021 201.415 535.279C201.23 535.535 200.985 535.738 200.68 535.89C200.377 536.039 200.024 536.114 199.622 536.114ZM203.773 534.011L203.759 532.974H203.929L206.316 530.545H207.352L204.81 533.116H204.739L203.773 534.011ZM202.992 536V528.727H203.83V536H202.992ZM206.458 536L204.327 533.301L204.923 532.719L207.523 536H206.458Z" fill="#6B80A4"/>
</g>
</g>
<defs>
<filter id="filter0_d_3175_1918" x="671" y="209" width="72" height="29" filterUnits="userSpaceOnUse" color-interpolation-filters="sRGB">
<feFlood flood-opacity="0" result="BackgroundImageFix"/>
<feColorMatrix in="SourceAlpha" type="matrix" values="0 0 0 0 0 0 0 0 0 0 0 0 0 0 0 0 0 0 127 0" result="hardAlpha"/>
<feOffset dy="4"/>
<feGaussianBlur stdDeviation="2"/>
<feComposite in2="hardAlpha" operator="out"/>
<feColorMatrix type="matrix" values="0 0 0 0 0 0 0 0 0 0 0 0 0 0 0 0 0 0 0.07 0"/>
<feBlend mode="normal" in2="BackgroundImageFix" result="effect1_dropShadow_3175_1918"/>
<feBlend mode="normal" in="SourceGraphic" in2="effect1_dropShadow_3175_1918" result="shape"/>
</filter>
<filter id="filter1_d_3175_1918" x="70" y="334" width="81" height="29" filterUnits="userSpaceOnUse" color-interpolation-filters="sRGB">
<feFlood flood-opacity="0" result="BackgroundImageFix"/>
<feColorMatrix in="SourceAlpha" type="matrix" values="0 0 0 0 0 0 0 0 0 0 0 0 0 0 0 0 0 0 127 0" result="hardAlpha"/>
<feOffset dy="4"/>
<feGaussianBlur stdDeviation="2"/>
<feComposite in2="hardAlpha" operator="out"/>
<feColorMatrix type="matrix" values="0 0 0 0 0 0 0 0 0 0 0 0 0 0 0 0 0 0 0.07 0"/>
<feBlend mode="normal" in2="BackgroundImageFix" result="effect1_dropShadow_3175_1918"/>
<feBlend mode="normal" in="SourceGraphic" in2="effect1_dropShadow_3175_1918" result="shape"/>
</filter>
<filter id="filter2_d_3175_1918" x="160.955" y="260" width="261.089" height="56.0894" filterUnits="userSpaceOnUse" color-interpolation-filters="sRGB">
<feFlood flood-opacity="0" result="BackgroundImageFix"/>
<feColorMatrix in="SourceAlpha" type="matrix" values="0 0 0 0 0 0 0 0 0 0 0 0 0 0 0 0 0 0 127 0" result="hardAlpha"/>
<feOffset dy="5.0447"/>
<feGaussianBlur stdDeviation="2.52235"/>
<feComposite in2="hardAlpha" operator="out"/>
<feColorMatrix type="matrix" values="0 0 0 0 0 0 0 0 0 0 0 0 0 0 0 0 0 0 0.07 0"/>
<feBlend mode="normal" in2="BackgroundImageFix" result="effect1_dropShadow_3175_1918"/>
<feBlend mode="normal" in="SourceGraphic" in2="effect1_dropShadow_3175_1918" result="shape"/>
</filter>
<filter id="filter3_d_3175_1918" x="430.955" y="260" width="261.089" height="56.0894" filterUnits="userSpaceOnUse" color-interpolation-filters="sRGB">
<feFlood flood-opacity="0" result="BackgroundImageFix"/>
<feColorMatrix in="SourceAlpha" type="matrix" values="0 0 0 0 0 0 0 0 0 0 0 0 0 0 0 0 0 0 127 0" result="hardAlpha"/>
<feOffset dy="5.0447"/>
<feGaussianBlur stdDeviation="2.52235"/>
<feComposite in2="hardAlpha" operator="out"/>
<feColorMatrix type="matrix" values="0 0 0 0 0 0 0 0 0 0 0 0 0 0 0 0 0 0 0.07 0"/>
<feBlend mode="normal" in2="BackgroundImageFix" result="effect1_dropShadow_3175_1918"/>
<feBlend mode="normal" in="SourceGraphic" in2="effect1_dropShadow_3175_1918" result="shape"/>
</filter>
<filter id="filter4_d_3175_1918" x="160.955" y="325" width="261.089" height="56.0894" filterUnits="userSpaceOnUse" color-interpolation-filters="sRGB">
<feFlood flood-opacity="0" result="BackgroundImageFix"/>
<feColorMatrix in="SourceAlpha" type="matrix" values="0 0 0 0 0 0 0 0 0 0 0 0 0 0 0 0 0 0 127 0" result="hardAlpha"/>
<feOffset dy="5.0447"/>
<feGaussianBlur stdDeviation="2.52235"/>
<feComposite in2="hardAlpha" operator="out"/>
<feColorMatrix type="matrix" values="0 0 0 0 0 0 0 0 0 0 0 0 0 0 0 0 0 0 0.07 0"/>
<feBlend mode="normal" in2="BackgroundImageFix" result="effect1_dropShadow_3175_1918"/>
<feBlend mode="normal" in="SourceGraphic" in2="effect1_dropShadow_3175_1918" result="shape"/>
</filter>
<filter id="filter5_d_3175_1918" x="430.955" y="325" width="261.089" height="56.0894" filterUnits="userSpaceOnUse" color-interpolation-filters="sRGB">
<feFlood flood-opacity="0" result="BackgroundImageFix"/>
<feColorMatrix in="SourceAlpha" type="matrix" values="0 0 0 0 0 0 0 0 0 0 0 0 0 0 0 0 0 0 127 0" result="hardAlpha"/>
<feOffset dy="5.0447"/>
<feGaussianBlur stdDeviation="2.52235"/>
<feComposite in2="hardAlpha" operator="out"/>
<feColorMatrix type="matrix" values="0 0 0 0 0 0 0 0 0 0 0 0 0 0 0 0 0 0 0.07 0"/>
<feBlend mode="normal" in2="BackgroundImageFix" result="effect1_dropShadow_3175_1918"/>
<feBlend mode="normal" in="SourceGraphic" in2="effect1_dropShadow_3175_1918" result="shape"/>
</filter>
<filter id="filter6_d_3175_1918" x="160.955" y="390" width="261.089" height="56.0894" filterUnits="userSpaceOnUse" color-interpolation-filters="sRGB">
<feFlood flood-opacity="0" result="BackgroundImageFix"/>
<feColorMatrix in="SourceAlpha" type="matrix" values="0 0 0 0 0 0 0 0 0 0 0 0 0 0 0 0 0 0 127 0" result="hardAlpha"/>
<feOffset dy="5.0447"/>
<feGaussianBlur stdDeviation="2.52235"/>
<feComposite in2="hardAlpha" operator="out"/>
<feColorMatrix type="matrix" values="0 0 0 0 0 0 0 0 0 0 0 0 0 0 0 0 0 0 0.07 0"/>
<feBlend mode="normal" in2="BackgroundImageFix" result="effect1_dropShadow_3175_1918"/>
<feBlend mode="normal" in="SourceGraphic" in2="effect1_dropShadow_3175_1918" result="shape"/>
</filter>
<filter id="filter7_d_3175_1918" x="430.955" y="390" width="261.089" height="56.0894" filterUnits="userSpaceOnUse" color-interpolation-filters="sRGB">
<feFlood flood-opacity="0" result="BackgroundImageFix"/>
<feColorMatrix in="SourceAlpha" type="matrix" values="0 0 0 0 0 0 0 0 0 0 0 0 0 0 0 0 0 0 127 0" result="hardAlpha"/>
<feOffset dy="5.0447"/>
<feGaussianBlur stdDeviation="2.52235"/>
<feComposite in2="hardAlpha" operator="out"/>
<feColorMatrix type="matrix" values="0 0 0 0 0 0 0 0 0 0 0 0 0 0 0 0 0 0 0.07 0"/>
<feBlend mode="normal" in2="BackgroundImageFix" result="effect1_dropShadow_3175_1918"/>
<feBlend mode="normal" in="SourceGraphic" in2="effect1_dropShadow_3175_1918" result="shape"/>
</filter>
<filter id="filter8_d_3175_1918" x="161.955" y="459" width="28.0894" height="28.0894" filterUnits="userSpaceOnUse" color-interpolation-filters="sRGB">
<feFlood flood-opacity="0" result="BackgroundImageFix"/>
<feColorMatrix in="SourceAlpha" type="matrix" values="0 0 0 0 0 0 0 0 0 0 0 0 0 0 0 0 0 0 127 0" result="hardAlpha"/>
<feOffset dy="5.0447"/>
<feGaussianBlur stdDeviation="2.52235"/>
<feComposite in2="hardAlpha" operator="out"/>
<feColorMatrix type="matrix" values="0 0 0 0 0 0 0 0 0 0 0 0 0 0 0 0 0 0 0.07 0"/>
<feBlend mode="normal" in2="BackgroundImageFix" result="effect1_dropShadow_3175_1918"/>
<feBlend mode="normal" in="SourceGraphic" in2="effect1_dropShadow_3175_1918" result="shape"/>
</filter>
<filter id="filter9_d_3175_1918" x="160.955" y="518" width="71.0894" height="38.0894" filterUnits="userSpaceOnUse" color-interpolation-filters="sRGB">
<feFlood flood-opacity="0" result="BackgroundImageFix"/>
<feColorMatrix in="SourceAlpha" type="matrix" values="0 0 0 0 0 0 0 0 0 0 0 0 0 0 0 0 0 0 127 0" result="hardAlpha"/>
<feOffset dy="5.0447"/>
<feGaussianBlur stdDeviation="2.52235"/>
<feComposite in2="hardAlpha" operator="out"/>
<feColorMatrix type="matrix" values="0 0 0 0 0 0 0 0 0 0 0 0 0 0 0 0 0 0 0.07 0"/>
<feBlend mode="normal" in2="BackgroundImageFix" result="effect1_dropShadow_3175_1918"/>
<feBlend mode="normal" in="SourceGraphic" in2="effect1_dropShadow_3175_1918" result="shape"/>
</filter>
</defs>
</svg>
