<svg width="261" height="667" viewBox="0 0 261 667" fill="none" xmlns="http://www.w3.org/2000/svg">
<g clip-path="url(#clip0_3183_2535)">
<rect width="261" height="667" rx="33" fill="#1E2533"/>
<g clip-path="url(#clip1_3183_2535)">
<rect x="5" y="28" width="252" height="612" fill="white"/>
<rect x="19" y="279" width="125" height="10" rx="5" fill="#C8CDD8"/>
<rect x="5" y="28" width="252" height="94" fill="#F2F4F8"/>
<g filter="url(#filter0_d_3183_2535)">
<rect x="19" y="102" width="225" height="38" rx="8" fill="white"/>
<rect x="19.6306" y="102.631" width="223.739" height="36.7388" rx="7.36941" stroke="#D4D8E2" stroke-width="1.26118"/>
</g>
<rect x="218" y="113" width="16" height="16" rx="3" fill="#DDE2EA"/>
<rect x="32" y="119" width="68" height="4" rx="2" fill="#C8CDD8"/>
<rect x="19" y="63" width="30" height="30" rx="15" fill="#C8CDD8"/>
<rect x="57" y="81" width="89" height="4" rx="2" fill="#C8CDD8"/>
<rect x="57" y="71" width="71" height="5" rx="2.5" fill="#C8CDD8"/>
<path d="M21.8988 39.3651C22.2354 39.3651 22.5593 39.4215 22.8704 39.5344C23.1836 39.6474 23.4627 39.8274 23.7077 40.0746C23.9549 40.3217 24.1499 40.6499 24.2926 41.0589C24.4375 41.4659 24.511 41.9656 24.5131 42.5579C24.5131 43.114 24.4503 43.6104 24.3246 44.0472C24.201 44.4819 24.0231 44.8516 23.7908 45.1562C23.5586 45.4609 23.2784 45.6932 22.9503 45.853C22.6222 46.0107 22.2557 46.0895 21.8509 46.0895C21.4141 46.0895 21.0284 46.0053 20.6939 45.837C20.3594 45.6665 20.0898 45.4354 19.8853 45.1435C19.6829 44.8494 19.5604 44.5192 19.5178 44.1527H20.8825C20.9357 44.3913 21.0476 44.5767 21.218 44.7088C21.3885 44.8388 21.5994 44.9038 21.8509 44.9038C22.277 44.9038 22.6009 44.7184 22.8224 44.3477C23.044 43.9748 23.1559 43.4645 23.158 42.8168H23.1133C23.0153 43.0085 22.8832 43.1737 22.717 43.3121C22.5508 43.4485 22.3601 43.554 22.1449 43.6286C21.9318 43.7031 21.7049 43.7404 21.4641 43.7404C21.0785 43.7404 20.7344 43.6499 20.4318 43.4688C20.1293 43.2876 19.8906 43.0384 19.7159 42.7209C19.5412 42.4034 19.4538 42.0412 19.4538 41.6342C19.4517 41.1953 19.5529 40.8043 19.7575 40.4613C19.962 40.1183 20.2475 39.8498 20.614 39.6559C20.9826 39.4599 21.4109 39.3629 21.8988 39.3651ZM21.9084 40.4517C21.6932 40.4517 21.5014 40.5028 21.3331 40.6051C21.1669 40.7074 21.0348 40.8448 20.9368 41.0174C20.8409 41.19 20.794 41.3828 20.7962 41.5959C20.7962 41.8111 20.843 42.005 20.9368 42.1776C21.0327 42.348 21.1626 42.4844 21.3267 42.5866C21.4929 42.6868 21.6825 42.7369 21.8956 42.7369C22.0554 42.7369 22.2035 42.707 22.3398 42.6474C22.4762 42.5877 22.5945 42.5057 22.6946 42.4013C22.7969 42.2947 22.8768 42.1722 22.9343 42.0337C22.9918 41.8952 23.0206 41.7482 23.0206 41.5927C23.0185 41.386 22.9695 41.1964 22.8736 41.0238C22.7777 40.8512 22.6456 40.7127 22.4773 40.6083C22.3089 40.5039 22.1193 40.4517 21.9084 40.4517ZM26.2805 45.2393C26.0696 45.2393 25.8885 45.1648 25.7372 45.0156C25.5881 44.8665 25.5135 44.6854 25.5135 44.4723C25.5135 44.2635 25.5881 44.0845 25.7372 43.9354C25.8885 43.7862 26.0696 43.7116 26.2805 43.7116C26.4851 43.7116 26.6641 43.7862 26.8175 43.9354C26.9709 44.0845 27.0476 44.2635 27.0476 44.4723C27.0476 44.6129 27.0114 44.7418 26.9389 44.859C26.8686 44.9741 26.7759 45.0668 26.6609 45.1371C26.5458 45.2053 26.419 45.2393 26.2805 45.2393ZM26.2805 42.0273C26.0696 42.0273 25.8885 41.9528 25.7372 41.8036C25.5881 41.6545 25.5135 41.4734 25.5135 41.2603C25.5135 41.0515 25.5881 40.8736 25.7372 40.7266C25.8885 40.5774 26.0696 40.5028 26.2805 40.5028C26.4851 40.5028 26.6641 40.5774 26.8175 40.7266C26.9709 40.8736 27.0476 41.0515 27.0476 41.2603C27.0476 41.4031 27.0114 41.533 26.9389 41.6502C26.8686 41.7653 26.7759 41.8569 26.6609 41.9251C26.5458 41.9933 26.419 42.0273 26.2805 42.0273ZM28.0535 44.8494V43.7596L30.7861 39.4545H31.7258V40.9631H31.1697L29.447 43.6893V43.7404H33.3302V44.8494H28.0535ZM31.1952 46V44.517L31.2208 44.0344V39.4545H32.5184V46H31.1952ZM37.012 39.4545V46H35.6281V40.7681H35.5898L34.0908 41.7077V40.4805L35.7112 39.4545H37.012Z" fill="#9BA5B7"/>
<rect x="220" y="40" width="12" height="5" rx="2.5" fill="#C8CDD8"/>
<rect x="236" y="40" width="8" height="5" rx="2.5" fill="#C8CDD8"/>
<g filter="url(#filter1_d_3183_2535)">
<rect x="19" y="156" width="110" height="100" rx="8" fill="white"/>
<rect x="19.6306" y="156.631" width="108.739" height="98.7388" rx="7.36941" stroke="#D4D8E2" stroke-width="1.26118"/>
</g>
<rect x="29" y="239" width="33" height="4" rx="2" fill="#C8CDD8"/>
<rect x="29" y="229" width="81" height="5" rx="2.5" fill="#C8CDD8"/>
<rect x="29" y="168" width="22" height="22" rx="3" fill="#DDE2EA"/>
<g filter="url(#filter2_d_3183_2535)">
<rect x="134" y="156" width="110" height="100" rx="8" fill="white"/>
<rect x="134.631" y="156.631" width="108.739" height="98.7388" rx="7.36941" stroke="#D4D8E2" stroke-width="1.26118"/>
</g>
<rect x="144" y="239" width="33" height="4" rx="2" fill="#C8CDD8"/>
<rect x="144" y="229" width="81" height="5" rx="2.5" fill="#C8CDD8"/>
<rect x="144" y="168" width="22" height="22" rx="3" fill="#DDE2EA"/>
<rect x="211" y="282" width="33" height="4" rx="2" fill="#C8CDD8"/>
<rect x="19" y="361" width="125" height="10" rx="5" fill="#C8CDD8"/>
<g filter="url(#filter3_d_3183_2535)">
<rect x="19" y="380" width="150" height="145" rx="8" fill="white"/>
<rect x="19.6306" y="380.631" width="148.739" height="143.739" rx="7.36941" stroke="#D4D8E2" stroke-width="1.26118"/>
</g>
<path d="M29 494C29 491.239 31.2386 489 34 489H72C74.7614 489 77 491.239 77 494V508C77 510.761 74.7614 513 72 513H34C31.2386 513 29 510.761 29 508V494Z" fill="#B0C8F0"/>
<path d="M40.679 505H39.7557L42.4261 497.727H43.3352L46.0057 505H45.0824L42.9091 498.878H42.8523L40.679 505ZM41.0199 502.159H44.7415V502.94H41.0199V502.159ZM47.0249 507.045V499.545H47.8345V500.412H47.9339C47.9955 500.317 48.0807 500.196 48.1896 500.05C48.3009 499.901 48.4595 499.768 48.6655 499.652C48.8738 499.534 49.1555 499.474 49.5107 499.474C49.9699 499.474 50.3748 499.589 50.7251 499.819C51.0755 500.049 51.349 500.374 51.5455 500.795C51.742 501.217 51.8402 501.714 51.8402 502.287C51.8402 502.865 51.742 503.365 51.5455 503.789C51.349 504.21 51.0767 504.537 50.7287 504.769C50.3807 504.999 49.9794 505.114 49.5249 505.114C49.1745 505.114 48.8939 505.056 48.6832 504.94C48.4725 504.821 48.3104 504.687 48.1967 504.538C48.0831 504.387 47.9955 504.261 47.9339 504.162H47.8629V507.045H47.0249ZM47.8487 502.273C47.8487 502.685 47.9091 503.048 48.0298 503.363C48.1506 503.675 48.3269 503.92 48.5589 504.098C48.791 504.273 49.075 504.361 49.4112 504.361C49.7616 504.361 50.054 504.268 50.2884 504.084C50.5251 503.897 50.7027 503.646 50.821 503.331C50.9418 503.014 51.0021 502.661 51.0021 502.273C51.0021 501.889 50.9429 501.544 50.8246 501.236C50.7086 500.926 50.5322 500.681 50.2955 500.501C50.0611 500.318 49.7663 500.227 49.4112 500.227C49.0703 500.227 48.7839 500.314 48.5518 500.487C48.3198 500.657 48.1446 500.896 48.0263 501.204C47.9079 501.509 47.8487 501.866 47.8487 502.273ZM53.1186 507.045V499.545H53.9283V500.412H54.0277C54.0893 500.317 54.1745 500.196 54.2834 500.05C54.3946 499.901 54.5533 499.768 54.7592 499.652C54.9676 499.534 55.2493 499.474 55.6044 499.474C56.0637 499.474 56.4685 499.589 56.8189 499.819C57.1693 500.049 57.4427 500.374 57.6392 500.795C57.8357 501.217 57.9339 501.714 57.9339 502.287C57.9339 502.865 57.8357 503.365 57.6392 503.789C57.4427 504.21 57.1705 504.537 56.8224 504.769C56.4744 504.999 56.0732 505.114 55.6186 505.114C55.2682 505.114 54.9877 505.056 54.777 504.94C54.5663 504.821 54.4041 504.687 54.2905 504.538C54.1768 504.387 54.0893 504.261 54.0277 504.162H53.9567V507.045H53.1186ZM53.9425 502.273C53.9425 502.685 54.0028 503.048 54.1236 503.363C54.2443 503.675 54.4207 503.92 54.6527 504.098C54.8847 504.273 55.1688 504.361 55.505 504.361C55.8554 504.361 56.1477 504.268 56.3821 504.084C56.6188 503.897 56.7964 503.646 56.9148 503.331C57.0355 503.014 57.0959 502.661 57.0959 502.273C57.0959 501.889 57.0367 501.544 56.9183 501.236C56.8023 500.926 56.6259 500.681 56.3892 500.501C56.1548 500.318 55.8601 500.227 55.505 500.227C55.1641 500.227 54.8776 500.314 54.6456 500.487C54.4136 500.657 54.2384 500.896 54.12 501.204C54.0017 501.509 53.9425 501.866 53.9425 502.273ZM60.0504 497.727V505H59.2124V497.727H60.0504ZM62.1252 507.045C61.9831 507.045 61.8565 507.034 61.7452 507.01C61.6339 506.989 61.557 506.967 61.5144 506.946L61.7275 506.207C61.931 506.259 62.111 506.278 62.2672 506.264C62.4235 506.25 62.562 506.18 62.6827 506.055C62.8058 505.932 62.9183 505.732 63.0201 505.455L63.1763 505.028L61.1593 499.545H62.0684L63.574 503.892H63.6309L65.1365 499.545H66.0456L63.7303 505.795C63.6261 506.077 63.4971 506.31 63.3432 506.495C63.1893 506.682 63.0106 506.821 62.807 506.911C62.6058 507 62.3785 507.045 62.1252 507.045Z" fill="#6B80A4"/>
<rect x="57" y="406" width="33" height="4" rx="2" fill="#C8CDD8"/>
<rect x="57" y="396" width="61" height="5" rx="2.5" fill="#C8CDD8"/>
<rect x="29" y="423" width="126" height="4" rx="2" fill="#C8CDD8"/>
<rect x="29" y="431" width="112" height="4" rx="2" fill="#C8CDD8"/>
<rect x="29" y="439" width="59" height="4" rx="2" fill="#C8CDD8"/>
<rect x="29" y="457" width="9" height="4" rx="2" fill="#C8CDD8"/>
<rect x="29" y="466" width="9" height="4" rx="2" fill="#C8CDD8"/>
<rect x="41" y="457" width="36" height="4" rx="2" fill="#C8CDD8"/>
<rect x="41" y="466" width="49" height="4" rx="2" fill="#C8CDD8"/>
<rect x="29" y="392" width="22" height="22" rx="3" fill="#DDE2EA"/>
<g filter="url(#filter4_d_3183_2535)">
<rect x="174" y="380" width="150" height="145" rx="8" fill="white"/>
<rect x="174.631" y="380.631" width="148.739" height="143.739" rx="7.36941" stroke="#D4D8E2" stroke-width="1.26118"/>
</g>
<path d="M184 494C184 491.239 186.239 489 189 489H227C229.761 489 232 491.239 232 494V508C232 510.761 229.761 513 227 513H189C186.239 513 184 510.761 184 508V494Z" fill="#B0C8F0"/>
<path d="M195.679 505H194.756L197.426 497.727H198.335L201.006 505H200.082L197.909 498.878H197.852L195.679 505ZM196.02 502.159H199.741V502.94H196.02V502.159ZM202.025 507.045V499.545H202.835V500.412H202.934C202.996 500.317 203.081 500.196 203.19 500.05C203.301 499.901 203.46 499.768 203.665 499.652C203.874 499.534 204.156 499.474 204.511 499.474C204.97 499.474 205.375 499.589 205.725 499.819C206.076 500.049 206.349 500.374 206.545 500.795C206.742 501.217 206.84 501.714 206.84 502.287C206.84 502.865 206.742 503.365 206.545 503.789C206.349 504.21 206.077 504.537 205.729 504.769C205.381 504.999 204.979 505.114 204.525 505.114C204.174 505.114 203.894 505.056 203.683 504.94C203.473 504.821 203.31 504.687 203.197 504.538C203.083 504.387 202.996 504.261 202.934 504.162H202.863V507.045H202.025ZM202.849 502.273C202.849 502.685 202.909 503.048 203.03 503.363C203.151 503.675 203.327 503.92 203.559 504.098C203.791 504.273 204.075 504.361 204.411 504.361C204.762 504.361 205.054 504.268 205.288 504.084C205.525 503.897 205.703 503.646 205.821 503.331C205.942 503.014 206.002 502.661 206.002 502.273C206.002 501.889 205.943 501.544 205.825 501.236C205.709 500.926 205.532 500.681 205.295 500.501C205.061 500.318 204.766 500.227 204.411 500.227C204.07 500.227 203.784 500.314 203.552 500.487C203.32 500.657 203.145 500.896 203.026 501.204C202.908 501.509 202.849 501.866 202.849 502.273ZM208.119 507.045V499.545H208.928V500.412H209.028C209.089 500.317 209.174 500.196 209.283 500.05C209.395 499.901 209.553 499.768 209.759 499.652C209.968 499.534 210.249 499.474 210.604 499.474C211.064 499.474 211.469 499.589 211.819 499.819C212.169 500.049 212.443 500.374 212.639 500.795C212.836 501.217 212.934 501.714 212.934 502.287C212.934 502.865 212.836 503.365 212.639 503.789C212.443 504.21 212.17 504.537 211.822 504.769C211.474 504.999 211.073 505.114 210.619 505.114C210.268 505.114 209.988 505.056 209.777 504.94C209.566 504.821 209.404 504.687 209.29 504.538C209.177 504.387 209.089 504.261 209.028 504.162H208.957V507.045H208.119ZM208.942 502.273C208.942 502.685 209.003 503.048 209.124 503.363C209.244 503.675 209.421 503.92 209.653 504.098C209.885 504.273 210.169 504.361 210.505 504.361C210.855 504.361 211.148 504.268 211.382 504.084C211.619 503.897 211.796 503.646 211.915 503.331C212.036 503.014 212.096 502.661 212.096 502.273C212.096 501.889 212.037 501.544 211.918 501.236C211.802 500.926 211.626 500.681 211.389 500.501C211.155 500.318 210.86 500.227 210.505 500.227C210.164 500.227 209.878 500.314 209.646 500.487C209.414 500.657 209.238 500.896 209.12 501.204C209.002 501.509 208.942 501.866 208.942 502.273ZM215.05 497.727V505H214.212V497.727H215.05ZM217.125 507.045C216.983 507.045 216.856 507.034 216.745 507.01C216.634 506.989 216.557 506.967 216.514 506.946L216.727 506.207C216.931 506.259 217.111 506.278 217.267 506.264C217.423 506.25 217.562 506.18 217.683 506.055C217.806 505.932 217.918 505.732 218.02 505.455L218.176 505.028L216.159 499.545H217.068L218.574 503.892H218.631L220.137 499.545H221.046L218.73 505.795C218.626 506.077 218.497 506.31 218.343 506.495C218.189 506.682 218.011 506.821 217.807 506.911C217.606 507 217.378 507.045 217.125 507.045Z" fill="#6B80A4"/>
<rect x="212" y="406" width="33" height="4" rx="2" fill="#C8CDD8"/>
<rect x="212" y="396" width="61" height="5" rx="2.5" fill="#C8CDD8"/>
<rect x="184" y="423" width="126" height="4" rx="2" fill="#C8CDD8"/>
<rect x="184" y="431" width="112" height="4" rx="2" fill="#C8CDD8"/>
<rect x="184" y="439" width="59" height="4" rx="2" fill="#C8CDD8"/>
<rect x="184" y="457" width="9" height="4" rx="2" fill="#C8CDD8"/>
<rect x="184" y="466" width="9" height="4" rx="2" fill="#C8CDD8"/>
<rect x="196" y="457" width="36" height="4" rx="2" fill="#C8CDD8"/>
<rect x="196" y="466" width="49" height="4" rx="2" fill="#C8CDD8"/>
<rect x="184" y="392" width="22" height="22" rx="3" fill="#DDE2EA"/>
<rect x="211" y="364" width="33" height="4" rx="2" fill="#C8CDD8"/>
<rect x="19" y="548" width="125" height="10" rx="5" fill="#C8CDD8"/>
<g filter="url(#filter5_d_3183_2535)">
<rect x="19" y="567" width="150" height="145" rx="8" fill="white"/>
<rect x="19.6306" y="567.631" width="148.739" height="143.739" rx="7.36941" stroke="#D4D8E2" stroke-width="1.26118"/>
</g>
<rect x="57" y="593" width="33" height="4" rx="2" fill="#C8CDD8"/>
<rect x="57" y="583" width="61" height="5" rx="2.5" fill="#C8CDD8"/>
<rect x="29" y="610" width="126" height="4" rx="2" fill="#C8CDD8"/>
<rect x="29" y="618" width="112" height="4" rx="2" fill="#C8CDD8"/>
<rect x="29" y="626" width="59" height="4" rx="2" fill="#C8CDD8"/>
<rect x="29" y="579" width="22" height="22" rx="3" fill="#DDE2EA"/>
<g filter="url(#filter6_d_3183_2535)">
<rect x="174" y="567" width="150" height="145" rx="8" fill="white"/>
<rect x="174.631" y="567.631" width="148.739" height="143.739" rx="7.36941" stroke="#D4D8E2" stroke-width="1.26118"/>
</g>
<rect x="212" y="593" width="33" height="4" rx="2" fill="#C8CDD8"/>
<rect x="212" y="583" width="61" height="5" rx="2.5" fill="#C8CDD8"/>
<rect x="184" y="610" width="126" height="4" rx="2" fill="#C8CDD8"/>
<rect x="184" y="618" width="112" height="4" rx="2" fill="#C8CDD8"/>
<rect x="184" y="626" width="59" height="4" rx="2" fill="#C8CDD8"/>
<rect x="184" y="579" width="22" height="22" rx="3" fill="#DDE2EA"/>
<rect x="211" y="551" width="33" height="4" rx="2" fill="#C8CDD8"/>
<rect x="19.5" y="298.5" width="109" height="39" rx="7.5" fill="#F2F4F8" stroke="#D4D8E2"/>
<rect x="29" y="307" width="22" height="22" rx="3" fill="#C8CDD8"/>
<rect x="57" y="321" width="33" height="4" rx="2" fill="#C8CDD8"/>
<rect x="57" y="311" width="56" height="5" rx="2.5" fill="#C8CDD8"/>
<rect x="134.5" y="298.5" width="109" height="39" rx="7.5" fill="#F2F4F8" stroke="#D4D8E2"/>
<rect x="144" y="307" width="22" height="22" rx="3" fill="#C8CDD8"/>
<rect x="172" y="321" width="33" height="4" rx="2" fill="#C8CDD8"/>
<rect x="172" y="311" width="56" height="5" rx="2.5" fill="#C8CDD8"/>
<rect x="19" y="593" width="225" height="35" rx="17.5" fill="#1E2533"/>
<g opacity="0.4">
<rect x="34" y="607" width="39" height="7" rx="3.5" fill="#C8CDD8"/>
<rect x="86" y="607" width="39" height="7" rx="3.5" fill="#C8CDD8"/>
<rect x="138" y="607" width="39" height="7" rx="3.5" fill="#C8CDD8"/>
<rect x="190" y="607" width="39" height="7" rx="3.5" fill="#C8CDD8"/>
</g>
</g>
<rect x="91" y="6" width="80" height="16" rx="8" fill="#2E3A50"/>
<rect x="99" y="650" width="64" height="4" rx="2" fill="#626670"/>
</g>
<defs>
<filter id="filter0_d_3183_2535" x="13.9553" y="102" width="235.089" height="48.0894" filterUnits="userSpaceOnUse" color-interpolation-filters="sRGB">
<feFlood flood-opacity="0" result="BackgroundImageFix"/>
<feColorMatrix in="SourceAlpha" type="matrix" values="0 0 0 0 0 0 0 0 0 0 0 0 0 0 0 0 0 0 127 0" result="hardAlpha"/>
<feOffset dy="5.0447"/>
<feGaussianBlur stdDeviation="2.52235"/>
<feComposite in2="hardAlpha" operator="out"/>
<feColorMatrix type="matrix" values="0 0 0 0 0 0 0 0 0 0 0 0 0 0 0 0 0 0 0.07 0"/>
<feBlend mode="normal" in2="BackgroundImageFix" result="effect1_dropShadow_3183_2535"/>
<feBlend mode="normal" in="SourceGraphic" in2="effect1_dropShadow_3183_2535" result="shape"/>
</filter>
<filter id="filter1_d_3183_2535" x="13.9553" y="156" width="120.089" height="110.089" filterUnits="userSpaceOnUse" color-interpolation-filters="sRGB">
<feFlood flood-opacity="0" result="BackgroundImageFix"/>
<feColorMatrix in="SourceAlpha" type="matrix" values="0 0 0 0 0 0 0 0 0 0 0 0 0 0 0 0 0 0 127 0" result="hardAlpha"/>
<feOffset dy="5.0447"/>
<feGaussianBlur stdDeviation="2.52235"/>
<feComposite in2="hardAlpha" operator="out"/>
<feColorMatrix type="matrix" values="0 0 0 0 0 0 0 0 0 0 0 0 0 0 0 0 0 0 0.07 0"/>
<feBlend mode="normal" in2="BackgroundImageFix" result="effect1_dropShadow_3183_2535"/>
<feBlend mode="normal" in="SourceGraphic" in2="effect1_dropShadow_3183_2535" result="shape"/>
</filter>
<filter id="filter2_d_3183_2535" x="128.955" y="156" width="120.089" height="110.089" filterUnits="userSpaceOnUse" color-interpolation-filters="sRGB">
<feFlood flood-opacity="0" result="BackgroundImageFix"/>
<feColorMatrix in="SourceAlpha" type="matrix" values="0 0 0 0 0 0 0 0 0 0 0 0 0 0 0 0 0 0 127 0" result="hardAlpha"/>
<feOffset dy="5.0447"/>
<feGaussianBlur stdDeviation="2.52235"/>
<feComposite in2="hardAlpha" operator="out"/>
<feColorMatrix type="matrix" values="0 0 0 0 0 0 0 0 0 0 0 0 0 0 0 0 0 0 0.07 0"/>
<feBlend mode="normal" in2="BackgroundImageFix" result="effect1_dropShadow_3183_2535"/>
<feBlend mode="normal" in="SourceGraphic" in2="effect1_dropShadow_3183_2535" result="shape"/>
</filter>
<filter id="filter3_d_3183_2535" x="13.9553" y="380" width="160.089" height="155.089" filterUnits="userSpaceOnUse" color-interpolation-filters="sRGB">
<feFlood flood-opacity="0" result="BackgroundImageFix"/>
<feColorMatrix in="SourceAlpha" type="matrix" values="0 0 0 0 0 0 0 0 0 0 0 0 0 0 0 0 0 0 127 0" result="hardAlpha"/>
<feOffset dy="5.0447"/>
<feGaussianBlur stdDeviation="2.52235"/>
<feComposite in2="hardAlpha" operator="out"/>
<feColorMatrix type="matrix" values="0 0 0 0 0 0 0 0 0 0 0 0 0 0 0 0 0 0 0.07 0"/>
<feBlend mode="normal" in2="BackgroundImageFix" result="effect1_dropShadow_3183_2535"/>
<feBlend mode="normal" in="SourceGraphic" in2="effect1_dropShadow_3183_2535" result="shape"/>
</filter>
<filter id="filter4_d_3183_2535" x="168.955" y="380" width="160.089" height="155.089" filterUnits="userSpaceOnUse" color-interpolation-filters="sRGB">
<feFlood flood-opacity="0" result="BackgroundImageFix"/>
<feColorMatrix in="SourceAlpha" type="matrix" values="0 0 0 0 0 0 0 0 0 0 0 0 0 0 0 0 0 0 127 0" result="hardAlpha"/>
<feOffset dy="5.0447"/>
<feGaussianBlur stdDeviation="2.52235"/>
<feComposite in2="hardAlpha" operator="out"/>
<feColorMatrix type="matrix" values="0 0 0 0 0 0 0 0 0 0 0 0 0 0 0 0 0 0 0.07 0"/>
<feBlend mode="normal" in2="BackgroundImageFix" result="effect1_dropShadow_3183_2535"/>
<feBlend mode="normal" in="SourceGraphic" in2="effect1_dropShadow_3183_2535" result="shape"/>
</filter>
<filter id="filter5_d_3183_2535" x="13.9553" y="567" width="160.089" height="155.089" filterUnits="userSpaceOnUse" color-interpolation-filters="sRGB">
<feFlood flood-opacity="0" result="BackgroundImageFix"/>
<feColorMatrix in="SourceAlpha" type="matrix" values="0 0 0 0 0 0 0 0 0 0 0 0 0 0 0 0 0 0 127 0" result="hardAlpha"/>
<feOffset dy="5.0447"/>
<feGaussianBlur stdDeviation="2.52235"/>
<feComposite in2="hardAlpha" operator="out"/>
<feColorMatrix type="matrix" values="0 0 0 0 0 0 0 0 0 0 0 0 0 0 0 0 0 0 0.07 0"/>
<feBlend mode="normal" in2="BackgroundImageFix" result="effect1_dropShadow_3183_2535"/>
<feBlend mode="normal" in="SourceGraphic" in2="effect1_dropShadow_3183_2535" result="shape"/>
</filter>
<filter id="filter6_d_3183_2535" x="168.955" y="567" width="160.089" height="155.089" filterUnits="userSpaceOnUse" color-interpolation-filters="sRGB">
<feFlood flood-opacity="0" result="BackgroundImageFix"/>
<feColorMatrix in="SourceAlpha" type="matrix" values="0 0 0 0 0 0 0 0 0 0 0 0 0 0 0 0 0 0 127 0" result="hardAlpha"/>
<feOffset dy="5.0447"/>
<feGaussianBlur stdDeviation="2.52235"/>
<feComposite in2="hardAlpha" operator="out"/>
<feColorMatrix type="matrix" values="0 0 0 0 0 0 0 0 0 0 0 0 0 0 0 0 0 0 0.07 0"/>
<feBlend mode="normal" in2="BackgroundImageFix" result="effect1_dropShadow_3183_2535"/>
<feBlend mode="normal" in="SourceGraphic" in2="effect1_dropShadow_3183_2535" result="shape"/>
</filter>
<clipPath id="clip0_3183_2535">
<rect width="261" height="667" fill="white"/>
</clipPath>
<clipPath id="clip1_3183_2535">
<rect width="252" height="612" fill="white" transform="translate(5 28)"/>
</clipPath>
</defs>
</svg>
