<svg width="855" height="667" viewBox="0 0 855 667" fill="none" xmlns="http://www.w3.org/2000/svg">
<rect x="1" y="1" width="853" height="665" rx="16" fill="#F2F4F8" stroke="#D4D8E2" stroke-width="2"/>
<mask id="mask0_3175_2190" style="mask-type:alpha" maskUnits="userSpaceOnUse" x="2" y="2" width="851" height="663">
<rect x="2" y="2" width="851" height="663" rx="15" fill="#F2F4F8"/>
</mask>
<g mask="url(#mask0_3175_2190)">
<rect x="843" y="257" width="162" height="6.00001" rx="3" transform="rotate(-90 843 257)" fill="#C8CDD8"/>
<line x1="61.5" y1="-1" x2="61.5" y2="857" stroke="#E0E3EB"/>
<line x1="122.5" y1="-1" x2="122.5" y2="857" stroke="#E0E3EB"/>
<line x1="183.5" y1="-1" x2="183.5" y2="857" stroke="#E0E3EB"/>
<line x1="244.5" y1="-1" x2="244.5" y2="857" stroke="#E0E3EB"/>
<line x1="305.5" y1="-1" x2="305.5" y2="857" stroke="#E0E3EB"/>
<line x1="366.5" y1="-1" x2="366.5" y2="857" stroke="#E0E3EB"/>
<line x1="427.5" y1="-1" x2="427.5" y2="857" stroke="#E0E3EB"/>
<line x1="488.5" y1="-1" x2="488.5" y2="857" stroke="#E0E3EB"/>
<line x1="549.5" y1="-1" x2="549.5" y2="857" stroke="#E0E3EB"/>
<line x1="610.5" y1="-1" x2="610.5" y2="857" stroke="#E0E3EB"/>
<line x1="671.5" y1="-1" x2="671.5" y2="857" stroke="#E0E3EB"/>
<line x1="732.5" y1="-1" x2="732.5" y2="857" stroke="#E0E3EB"/>
<line x1="793.5" y1="-1" x2="793.5" y2="857" stroke="#E0E3EB"/>
<line x1="856" y1="40.5" x2="-2" y2="40.4999" stroke="#E0E3EB"/>
<line x1="856" y1="101.5" x2="-2" y2="101.5" stroke="#E0E3EB"/>
<line x1="856" y1="162.5" x2="-2" y2="162.5" stroke="#E0E3EB"/>
<line x1="856" y1="223.5" x2="-2" y2="223.5" stroke="#E0E3EB"/>
<line x1="856" y1="284.5" x2="-2" y2="284.5" stroke="#E0E3EB"/>
<line x1="856" y1="345.5" x2="-2" y2="345.5" stroke="#E0E3EB"/>
<line x1="856" y1="406.5" x2="-2" y2="406.5" stroke="#E0E3EB"/>
<line x1="856" y1="467.5" x2="-2" y2="467.5" stroke="#E0E3EB"/>
<line x1="856" y1="528.5" x2="-2" y2="528.5" stroke="#E0E3EB"/>
<line x1="856" y1="589.5" x2="-2" y2="589.5" stroke="#E0E3EB"/>
<line x1="856" y1="650.5" x2="-2" y2="650.5" stroke="#E0E3EB"/>
<rect y="2" width="853" height="40" fill="#E8EBF0"/>
<rect x="0.5" y="41.5" width="855" height="49" fill="white" stroke="#E0E3EB"/>
<rect x="714" y="64" width="28" height="5" rx="2.5" fill="#C8CDD8"/>
<rect x="784" y="61" width="28" height="4" rx="2" fill="#C8CDD8"/>
<rect x="784" y="68" width="44" height="4" rx="2" fill="#C8CDD8"/>
<rect x="683" y="58" width="16" height="16" rx="3" fill="#DDE2EA"/>
<rect x="321" y="64" width="32" height="5" rx="2.5" fill="#C8CDD8"/>
<rect x="377" y="64" width="40" height="5" rx="2.5" fill="#C8CDD8"/>
<rect x="441" y="64" width="36" height="5" rx="2.5" fill="#C8CDD8"/>
<rect x="501" y="64" width="28" height="5" rx="2.5" fill="#C8CDD8"/>
<rect x="27" y="55" width="22" height="22" rx="3" fill="#DDE2EA"/>
<rect x="57" y="62.5" width="52" height="7" rx="3.5" fill="#C8CDD8"/>
<circle cx="767.5" cy="66.5" r="11.5" fill="#C8CDD8"/>
<rect x="791" y="14" width="20" height="16" rx="4" fill="#C8CDD8"/>
<rect x="817" y="14" width="20" height="16" rx="4" fill="#C8CDD8"/>
<rect x="88.5" y="12.5" width="676" height="19" rx="9.5" fill="#F2F4F8" stroke="#D4D8E2"/>
<circle cx="103" cy="22" r="4" fill="#D4D8E2"/>
<rect x="113" y="16" width="212" height="12" rx="6" fill="#D4D8E2"/>
<circle cx="21" cy="22" r="5" fill="#C8CDD8"/>
<circle cx="39" cy="22" r="5" fill="#C8CDD8"/>
<circle cx="57" cy="22" r="5" fill="#C8CDD8"/>
<g filter="url(#filter0_d_3175_2190)">
<rect x="716" y="272" width="93" height="21" rx="10.5" fill="#FA4E09" shape-rendering="crispEdges"/>
<path d="M727.219 286V279.455H731.278V280.305H728.207V282.299H730.987V283.146H728.207V286H727.219ZM733.371 279.455V286H732.416V279.455H733.371ZM736.725 286.099C736.265 286.099 735.863 285.994 735.52 285.783C735.177 285.572 734.911 285.277 734.721 284.897C734.531 284.518 734.437 284.075 734.437 283.568C734.437 283.059 734.531 282.613 734.721 282.232C734.911 281.85 735.177 281.554 735.52 281.343C735.863 281.132 736.265 281.027 736.725 281.027C737.185 281.027 737.587 281.132 737.93 281.343C738.273 281.554 738.539 281.85 738.729 282.232C738.918 282.613 739.013 283.059 739.013 283.568C739.013 284.075 738.918 284.518 738.729 284.897C738.539 285.277 738.273 285.572 737.93 285.783C737.587 285.994 737.185 286.099 736.725 286.099ZM736.728 285.297C737.026 285.297 737.274 285.218 737.47 285.06C737.666 284.903 737.81 284.693 737.904 284.431C738 284.169 738.048 283.88 738.048 283.565C738.048 283.251 738 282.964 737.904 282.702C737.81 282.437 737.666 282.225 737.47 282.066C737.274 281.906 737.026 281.826 736.728 281.826C736.428 281.826 736.178 281.906 735.98 282.066C735.784 282.225 735.638 282.437 735.542 282.702C735.449 282.964 735.402 283.251 735.402 283.565C735.402 283.88 735.449 284.169 735.542 284.431C735.638 284.693 735.784 284.903 735.98 285.06C736.178 285.218 736.428 285.297 736.728 285.297ZM741.509 286.109C741.197 286.109 740.916 286.051 740.665 285.936C740.413 285.819 740.214 285.65 740.067 285.428C739.922 285.206 739.85 284.935 739.85 284.613C739.85 284.336 739.903 284.108 740.01 283.929C740.116 283.75 740.26 283.608 740.441 283.504C740.622 283.4 740.825 283.321 741.048 283.267C741.272 283.214 741.5 283.174 741.732 283.146C742.026 283.112 742.265 283.084 742.448 283.063C742.631 283.039 742.765 283.002 742.848 282.951C742.931 282.9 742.972 282.817 742.972 282.702V282.679C742.972 282.4 742.893 282.184 742.736 282.031C742.58 281.877 742.348 281.8 742.039 281.8C741.717 281.8 741.464 281.872 741.278 282.015C741.095 282.155 740.968 282.312 740.898 282.484L740 282.28C740.107 281.982 740.262 281.741 740.467 281.558C740.673 281.372 740.911 281.238 741.179 281.155C741.448 281.07 741.73 281.027 742.026 281.027C742.222 281.027 742.43 281.05 742.65 281.097C742.871 281.142 743.078 281.225 743.27 281.347C743.463 281.468 743.622 281.642 743.746 281.868C743.869 282.091 743.931 282.382 743.931 282.74V286H742.998V285.329H742.96C742.898 285.452 742.805 285.574 742.681 285.693C742.558 285.812 742.399 285.912 742.205 285.99C742.011 286.069 741.779 286.109 741.509 286.109ZM741.716 285.342C741.98 285.342 742.206 285.289 742.394 285.185C742.583 285.081 742.727 284.944 742.825 284.776C742.925 284.605 742.975 284.423 742.975 284.229V283.597C742.941 283.631 742.875 283.663 742.777 283.692C742.681 283.72 742.572 283.745 742.448 283.766C742.325 283.785 742.204 283.803 742.087 283.82C741.97 283.835 741.872 283.848 741.793 283.859C741.608 283.882 741.438 283.922 741.285 283.977C741.134 284.032 741.012 284.112 740.92 284.217C740.831 284.319 740.786 284.455 740.786 284.626C740.786 284.862 740.874 285.041 741.048 285.163C741.223 285.282 741.446 285.342 741.716 285.342ZM747.495 281.091V281.858H744.814V281.091H747.495ZM745.533 279.915H746.489V284.559C746.489 284.744 746.516 284.884 746.572 284.977C746.627 285.069 746.699 285.132 746.786 285.166C746.875 285.198 746.972 285.214 747.077 285.214C747.153 285.214 747.221 285.208 747.278 285.198C747.336 285.187 747.38 285.179 747.412 285.172L747.585 285.962C747.53 285.983 747.451 286.004 747.348 286.026C747.246 286.049 747.118 286.062 746.965 286.064C746.714 286.068 746.479 286.023 746.262 285.93C746.044 285.836 745.869 285.691 745.734 285.495C745.6 285.299 745.533 285.053 745.533 284.757V279.915ZM748.553 286V281.091H749.508V286H748.553ZM749.035 280.333C748.869 280.333 748.726 280.278 748.607 280.167C748.49 280.054 748.431 279.92 748.431 279.765C748.431 279.607 748.49 279.473 748.607 279.362C748.726 279.249 748.869 279.192 749.035 279.192C749.201 279.192 749.343 279.249 749.46 279.362C749.58 279.473 749.639 279.607 749.639 279.765C749.639 279.92 749.58 280.054 749.46 280.167C749.343 280.278 749.201 280.333 749.035 280.333ZM751.749 283.085V286H750.794V281.091H751.711V281.89H751.772C751.885 281.63 752.062 281.421 752.302 281.263C752.545 281.106 752.851 281.027 753.22 281.027C753.554 281.027 753.847 281.097 754.098 281.238C754.35 281.376 754.545 281.583 754.683 281.858C754.822 282.133 754.891 282.473 754.891 282.877V286H753.935V282.993C753.935 282.637 753.843 282.359 753.657 282.158C753.472 281.956 753.217 281.855 752.894 281.855C752.672 281.855 752.475 281.903 752.302 281.999C752.132 282.094 751.997 282.235 751.896 282.42C751.798 282.604 751.749 282.825 751.749 283.085ZM758.231 287.943C757.841 287.943 757.505 287.892 757.224 287.79C756.945 287.688 756.717 287.552 756.54 287.384C756.363 287.216 756.231 287.031 756.144 286.831L756.965 286.492C757.023 286.586 757.1 286.685 757.195 286.789C757.293 286.896 757.426 286.987 757.592 287.061C757.76 287.136 757.976 287.173 758.241 287.173C758.603 287.173 758.902 287.085 759.139 286.908C759.375 286.733 759.493 286.454 759.493 286.07V285.105H759.433C759.375 285.21 759.292 285.326 759.183 285.453C759.077 285.581 758.93 285.692 758.742 285.786C758.555 285.88 758.311 285.926 758.01 285.926C757.623 285.926 757.273 285.836 756.962 285.655C756.653 285.472 756.408 285.202 756.227 284.846C756.048 284.488 755.959 284.048 755.959 283.526C755.959 283.004 756.047 282.557 756.224 282.184C756.403 281.811 756.648 281.526 756.959 281.327C757.27 281.127 757.623 281.027 758.017 281.027C758.321 281.027 758.568 281.078 758.755 281.18C758.943 281.281 759.089 281.398 759.193 281.532C759.299 281.666 759.381 281.784 759.439 281.887H759.509V281.091H760.446V286.109C760.446 286.531 760.348 286.877 760.152 287.147C759.956 287.418 759.69 287.618 759.356 287.748C759.024 287.878 758.649 287.943 758.231 287.943ZM758.221 285.134C758.496 285.134 758.728 285.07 758.918 284.942C759.11 284.812 759.255 284.627 759.353 284.386C759.453 284.143 759.503 283.852 759.503 283.513C759.503 283.183 759.454 282.892 759.356 282.641C759.258 282.39 759.114 282.194 758.924 282.053C758.735 281.91 758.5 281.839 758.221 281.839C757.934 281.839 757.694 281.913 757.502 282.062C757.31 282.21 757.166 282.41 757.068 282.663C756.972 282.917 756.924 283.2 756.924 283.513C756.924 283.835 756.973 284.118 757.071 284.36C757.169 284.603 757.314 284.793 757.505 284.929C757.699 285.066 757.938 285.134 758.221 285.134ZM765.173 286L763.729 281.091H764.716L765.678 284.696H765.726L766.692 281.091H767.679L768.638 284.68H768.686L769.642 281.091H770.629L769.188 286H768.213L767.216 282.456H767.142L766.145 286H765.173ZM771.536 286V281.091H772.492V286H771.536ZM772.019 280.333C771.852 280.333 771.71 280.278 771.59 280.167C771.473 280.054 771.415 279.92 771.415 279.765C771.415 279.607 771.473 279.473 771.59 279.362C771.71 279.249 771.852 279.192 772.019 279.192C772.185 279.192 772.326 279.249 772.444 279.362C772.563 279.473 772.623 279.607 772.623 279.765C772.623 279.92 772.563 280.054 772.444 280.167C772.326 280.278 772.185 280.333 772.019 280.333ZM775.615 286.096C775.219 286.096 774.865 285.995 774.554 285.792C774.245 285.588 774.002 285.297 773.825 284.92C773.65 284.54 773.563 284.086 773.563 283.555C773.563 283.025 773.651 282.571 773.828 282.194C774.007 281.816 774.252 281.528 774.563 281.327C774.874 281.127 775.227 281.027 775.621 281.027C775.926 281.027 776.171 281.078 776.356 281.18C776.544 281.281 776.689 281.398 776.791 281.532C776.895 281.666 776.976 281.784 777.034 281.887H777.091V279.455H778.047V286H777.114V285.236H777.034C776.976 285.341 776.893 285.46 776.785 285.594C776.678 285.728 776.531 285.846 776.344 285.946C776.156 286.046 775.913 286.096 775.615 286.096ZM775.826 285.281C776.101 285.281 776.333 285.208 776.523 285.064C776.714 284.917 776.859 284.713 776.957 284.453C777.057 284.193 777.107 283.891 777.107 283.545C777.107 283.205 777.058 282.906 776.96 282.651C776.862 282.395 776.719 282.196 776.529 282.053C776.339 281.91 776.105 281.839 775.826 281.839C775.538 281.839 775.298 281.913 775.107 282.062C774.915 282.212 774.77 282.415 774.672 282.673C774.576 282.931 774.528 283.222 774.528 283.545C774.528 283.874 774.577 284.169 774.675 284.431C774.773 284.693 774.918 284.901 775.11 285.054C775.304 285.205 775.542 285.281 775.826 285.281ZM781.469 287.943C781.079 287.943 780.744 287.892 780.462 287.79C780.183 287.688 779.955 287.552 779.778 287.384C779.602 287.216 779.47 287.031 779.382 286.831L780.204 286.492C780.261 286.586 780.338 286.685 780.434 286.789C780.532 286.896 780.664 286.987 780.83 287.061C780.998 287.136 781.215 287.173 781.479 287.173C781.841 287.173 782.14 287.085 782.377 286.908C782.613 286.733 782.732 286.454 782.732 286.07V285.105H782.671C782.613 285.21 782.53 285.326 782.422 285.453C782.315 285.581 782.168 285.692 781.981 285.786C781.793 285.88 781.549 285.926 781.249 285.926C780.861 285.926 780.511 285.836 780.2 285.655C779.891 285.472 779.646 285.202 779.465 284.846C779.286 284.488 779.197 284.048 779.197 283.526C779.197 283.004 779.285 282.557 779.462 282.184C779.641 281.811 779.886 281.526 780.197 281.327C780.508 281.127 780.861 281.027 781.255 281.027C781.56 281.027 781.806 281.078 781.993 281.18C782.181 281.281 782.327 281.398 782.431 281.532C782.538 281.666 782.62 281.784 782.677 281.887H782.748V281.091H783.684V286.109C783.684 286.531 783.586 286.877 783.39 287.147C783.194 287.418 782.929 287.618 782.594 287.748C782.262 287.878 781.887 287.943 781.469 287.943ZM781.46 285.134C781.734 285.134 781.967 285.07 782.156 284.942C782.348 284.812 782.493 284.627 782.591 284.386C782.691 284.143 782.741 283.852 782.741 283.513C782.741 283.183 782.692 282.892 782.594 282.641C782.496 282.39 782.352 282.194 782.163 282.053C781.973 281.91 781.739 281.839 781.46 281.839C781.172 281.839 780.932 281.913 780.741 282.062C780.549 282.21 780.404 282.41 780.306 282.663C780.21 282.917 780.162 283.2 780.162 283.513C780.162 283.835 780.211 284.118 780.309 284.36C780.407 284.603 780.552 284.793 780.744 284.929C780.938 285.066 781.176 285.134 781.46 285.134ZM787.081 286.099C786.598 286.099 786.181 285.996 785.832 285.789C785.484 285.58 785.216 285.287 785.026 284.91C784.839 284.531 784.745 284.087 784.745 283.577C784.745 283.075 784.839 282.631 785.026 282.248C785.216 281.864 785.48 281.565 785.819 281.35C786.16 281.135 786.558 281.027 787.014 281.027C787.291 281.027 787.56 281.073 787.82 281.164C788.08 281.256 788.313 281.4 788.52 281.596C788.726 281.792 788.889 282.047 789.009 282.36C789.128 282.671 789.188 283.049 789.188 283.494V283.833H785.285V283.117H788.251C788.251 282.866 788.2 282.643 788.098 282.449C787.995 282.253 787.852 282.099 787.666 281.986C787.483 281.873 787.268 281.816 787.021 281.816C786.752 281.816 786.518 281.882 786.318 282.015C786.119 282.145 785.966 282.315 785.857 282.526C785.751 282.735 785.698 282.962 785.698 283.207V283.766C785.698 284.094 785.755 284.373 785.87 284.603C785.987 284.833 786.15 285.009 786.359 285.131C786.568 285.25 786.812 285.31 787.091 285.31C787.272 285.31 787.437 285.284 787.586 285.233C787.736 285.18 787.864 285.101 787.973 284.996C788.082 284.892 788.165 284.763 788.222 284.61L789.127 284.773C789.054 285.039 788.924 285.272 788.737 285.473C788.552 285.671 788.318 285.825 788.037 285.936C787.758 286.045 787.439 286.099 787.081 286.099ZM792.539 281.091V281.858H789.858V281.091H792.539ZM790.577 279.915H791.533V284.559C791.533 284.744 791.56 284.884 791.616 284.977C791.671 285.069 791.743 285.132 791.83 285.166C791.919 285.198 792.016 285.214 792.121 285.214C792.197 285.214 792.265 285.208 792.322 285.198C792.38 285.187 792.424 285.179 792.456 285.172L792.629 285.962C792.574 285.983 792.495 286.004 792.392 286.026C792.29 286.049 792.162 286.062 792.009 286.064C791.757 286.068 791.523 286.023 791.306 285.93C791.088 285.836 790.913 285.691 790.778 285.495C790.644 285.299 790.577 285.053 790.577 284.757V279.915ZM797.196 282.289L796.33 282.443C796.294 282.332 796.236 282.227 796.157 282.126C796.081 282.026 795.976 281.944 795.844 281.88C795.712 281.816 795.547 281.784 795.349 281.784C795.078 281.784 794.852 281.845 794.671 281.967C794.49 282.086 794.4 282.24 794.4 282.43C794.4 282.594 794.46 282.726 794.582 282.826C794.703 282.926 794.899 283.009 795.17 283.072L795.95 283.251C796.401 283.356 796.738 283.517 796.96 283.734C797.181 283.951 797.292 284.234 797.292 284.581C797.292 284.875 797.207 285.137 797.036 285.367C796.868 285.595 796.632 285.774 796.33 285.904C796.029 286.034 795.681 286.099 795.285 286.099C794.735 286.099 794.287 285.982 793.939 285.748C793.592 285.511 793.379 285.175 793.3 284.741L794.224 284.6C794.281 284.841 794.4 285.023 794.578 285.147C794.757 285.268 794.991 285.329 795.278 285.329C795.592 285.329 795.842 285.264 796.029 285.134C796.217 285.002 796.311 284.841 796.311 284.651C796.311 284.498 796.253 284.369 796.138 284.265C796.025 284.16 795.852 284.081 795.617 284.028L794.786 283.846C794.328 283.741 793.989 283.575 793.77 283.347C793.553 283.119 793.444 282.831 793.444 282.481C793.444 282.191 793.525 281.938 793.687 281.721C793.849 281.503 794.072 281.334 794.358 281.212C794.643 281.089 794.971 281.027 795.339 281.027C795.87 281.027 796.287 281.142 796.592 281.372C796.897 281.6 797.098 281.906 797.196 282.289Z" fill="white"/>
</g>
<g filter="url(#filter1_d_3175_2190)">
<rect x="70" y="533" width="51" height="21" rx="10.5" fill="#FA4E09" shape-rendering="crispEdges"/>
<path d="M91.1488 542.522C91.087 542.328 91.0039 542.155 90.8995 542.001C90.7972 541.846 90.6747 541.714 90.532 541.605C90.3892 541.494 90.2262 541.41 90.043 541.353C89.8619 541.295 89.6626 541.266 89.4453 541.266C89.0767 541.266 88.7443 541.361 88.4482 541.551C88.152 541.74 87.9176 542.018 87.745 542.385C87.5746 542.749 87.4893 543.196 87.4893 543.724C87.4893 544.255 87.5756 544.703 87.7482 545.07C87.9208 545.436 88.1573 545.714 88.4577 545.904C88.7582 546.093 89.1001 546.188 89.4837 546.188C89.8395 546.188 90.1495 546.116 90.4137 545.971C90.68 545.826 90.8857 545.621 91.0305 545.357C91.1776 545.091 91.2511 544.778 91.2511 544.418L91.5067 544.466H89.6339V543.651H92.2067V544.395C92.2067 544.945 92.0895 545.422 91.8551 545.827C91.6229 546.23 91.3011 546.541 90.8899 546.76C90.4808 546.98 90.0121 547.089 89.4837 547.089C88.8913 547.089 88.3714 546.953 87.924 546.68C87.4787 546.408 87.1314 546.021 86.8821 545.52C86.6328 545.017 86.5082 544.421 86.5082 543.73C86.5082 543.208 86.5806 542.74 86.7255 542.324C86.8704 541.909 87.0739 541.556 87.3359 541.266C87.6001 540.974 87.9102 540.752 88.266 540.598C88.6239 540.443 89.0149 540.365 89.4389 540.365C89.7926 540.365 90.1218 540.417 90.4265 540.522C90.7333 540.626 91.006 540.774 91.2447 540.966C91.4854 541.158 91.6847 541.386 91.8423 541.65C92 541.912 92.1065 542.203 92.1619 542.522H91.1488ZM93.3836 547V542.091H94.3073V542.871H94.3584C94.4479 542.607 94.6056 542.399 94.8314 542.248C95.0594 542.094 95.3172 542.017 95.6048 542.017C95.6645 542.017 95.7348 542.02 95.8158 542.024C95.8989 542.028 95.9639 542.033 96.0107 542.04V542.954C95.9724 542.943 95.9042 542.931 95.8062 542.919C95.7082 542.904 95.6102 542.896 95.5122 542.896C95.2863 542.896 95.085 542.944 94.9081 543.04C94.7334 543.134 94.5949 543.265 94.4926 543.433C94.3904 543.599 94.3392 543.789 94.3392 544.002V547H93.3836ZM96.8377 547V542.091H97.7933V547H96.8377ZM97.3203 541.333C97.1541 541.333 97.0114 541.278 96.892 541.167C96.7749 541.054 96.7163 540.92 96.7163 540.765C96.7163 540.607 96.7749 540.473 96.892 540.362C97.0114 540.249 97.1541 540.192 97.3203 540.192C97.4865 540.192 97.6282 540.249 97.7454 540.362C97.8647 540.473 97.9244 540.607 97.9244 540.765C97.9244 540.92 97.8647 541.054 97.7454 541.167C97.6282 541.278 97.4865 541.333 97.3203 541.333ZM100.917 547.096C100.52 547.096 100.167 546.995 99.8556 546.792C99.5466 546.588 99.3037 546.297 99.1269 545.92C98.9521 545.54 98.8648 545.086 98.8648 544.555C98.8648 544.025 98.9532 543.571 99.1301 543.194C99.309 542.816 99.5541 542.528 99.8651 542.327C100.176 542.127 100.529 542.027 100.923 542.027C101.228 542.027 101.473 542.078 101.658 542.18C101.846 542.281 101.991 542.398 102.093 542.532C102.197 542.666 102.278 542.784 102.336 542.887H102.393V540.455H103.349V547H102.416V546.236H102.336C102.278 546.341 102.195 546.46 102.086 546.594C101.98 546.728 101.833 546.846 101.645 546.946C101.458 547.046 101.215 547.096 100.917 547.096ZM101.128 546.281C101.402 546.281 101.635 546.208 101.824 546.064C102.016 545.917 102.161 545.713 102.259 545.453C102.359 545.193 102.409 544.891 102.409 544.545C102.409 544.205 102.36 543.906 102.262 543.651C102.164 543.395 102.02 543.196 101.831 543.053C101.641 542.91 101.407 542.839 101.128 542.839C100.84 542.839 100.6 542.913 100.408 543.062C100.217 543.212 100.072 543.415 99.9738 543.673C99.8779 543.931 99.83 544.222 99.83 544.545C99.83 544.874 99.879 545.169 99.977 545.431C100.075 545.693 100.22 545.901 100.412 546.054C100.606 546.205 100.844 546.281 101.128 546.281Z" fill="white"/>
</g>
<g filter="url(#filter2_d_3175_2190)">
<rect x="150" y="116" width="175" height="58" rx="12.6118" fill="white"/>
<rect x="150.631" y="116.631" width="173.739" height="56.7388" rx="11.9812" stroke="#D4D8E2" stroke-width="1.26118"/>
</g>
<rect x="200" y="139" width="52" height="4" rx="2" fill="#C8CDD8"/>
<rect x="200" y="146" width="26" height="7" rx="3.5" fill="#C8CDD8"/>
<rect x="166" y="132" width="27" height="27" rx="13.5" fill="#DDE2EA"/>
<g filter="url(#filter3_d_3175_2190)">
<rect x="340" y="116" width="175" height="58" rx="12.6118" fill="white"/>
<rect x="340.631" y="116.631" width="173.739" height="56.7388" rx="11.9812" stroke="#D4D8E2" stroke-width="1.26118"/>
</g>
<rect x="390" y="139" width="52" height="4" rx="2" fill="#C8CDD8"/>
<rect x="390" y="146" width="26" height="7" rx="3.5" fill="#C8CDD8"/>
<rect x="356" y="132" width="27" height="27" rx="13.5" fill="#DDE2EA"/>
<g filter="url(#filter4_d_3175_2190)">
<rect x="530" y="116" width="175" height="58" rx="12.6118" fill="white"/>
<rect x="530.631" y="116.631" width="173.739" height="56.7388" rx="11.9812" stroke="#D4D8E2" stroke-width="1.26118"/>
</g>
<rect x="580" y="139" width="52" height="4" rx="2" fill="#C8CDD8"/>
<rect x="580" y="146" width="26" height="7" rx="3.5" fill="#C8CDD8"/>
<rect x="546" y="132" width="27" height="27" rx="13.5" fill="#DDE2EA"/>
<g filter="url(#filter5_d_3175_2190)">
<rect x="150" y="188" width="270" height="207" rx="12.6118" fill="white"/>
<rect x="150.631" y="188.631" width="268.739" height="205.739" rx="11.9812" stroke="#D4D8E2" stroke-width="1.26118"/>
</g>
<rect x="170" y="209" width="110" height="10" rx="5" fill="#C8CDD8"/>
<line x1="182.225" y1="235.957" x2="184.954" y2="235.957" stroke="#DDDDDD" stroke-width="0.454876"/>
<line x1="182.225" y1="260.975" x2="394.381" y2="260.975" stroke="#DDDDDD" stroke-width="0.454876"/>
<line x1="182.225" y1="285.993" x2="394.381" y2="285.993" stroke="#DDDDDD" stroke-width="0.454876"/>
<line x1="182.225" y1="311.011" x2="394.381" y2="311.011" stroke="#DDDDDD" stroke-width="0.454876"/>
<line x1="182.225" y1="336.029" x2="394.381" y2="336.029" stroke="#DDDDDD" stroke-width="0.454876"/>
<line x1="182.225" y1="361.047" x2="184.954" y2="361.047" stroke="#DDDDDD" stroke-width="0.454876"/>
<path d="M179.715 362.621C179.464 362.978 179.109 363.156 178.65 363.156C178.192 363.156 177.835 362.978 177.58 362.621C177.329 362.261 177.204 361.781 177.204 361.18C177.204 360.58 177.329 360.101 177.58 359.745C177.835 359.384 178.192 359.204 178.65 359.204C179.109 359.204 179.464 359.384 179.715 359.745C179.969 360.101 180.097 360.58 180.097 361.18C180.097 361.781 179.969 362.261 179.715 362.621ZM177.864 362.365C178.054 362.645 178.316 362.785 178.65 362.785C178.985 362.785 179.245 362.645 179.431 362.365C179.62 362.085 179.715 361.69 179.715 361.18C179.715 360.671 179.62 360.276 179.431 359.996C179.245 359.716 178.985 359.576 178.65 359.576C178.316 359.576 178.054 359.716 177.864 359.996C177.679 360.276 177.586 360.671 177.586 361.18C177.586 361.69 177.679 362.085 177.864 362.365Z" fill="#6C6C6C"/>
<path d="M181.582 372.697C181.316 372.697 181.078 372.643 180.867 372.534C180.66 372.421 180.51 372.257 180.419 372.042L180.741 371.851C180.861 372.168 181.142 372.326 181.582 372.326C181.848 372.326 182.059 372.262 182.215 372.135C182.375 372.008 182.455 371.813 182.455 371.551V368.811H182.837V371.551C182.837 371.922 182.717 372.206 182.477 372.403C182.241 372.599 181.942 372.697 181.582 372.697ZM185.975 369.903H186.336V372.632H185.975V372.097C185.724 372.497 185.357 372.697 184.873 372.697C184.483 372.697 184.15 372.559 183.874 372.282C183.601 372.006 183.464 371.667 183.464 371.267C183.464 370.867 183.601 370.528 183.874 370.252C184.15 369.975 184.483 369.837 184.873 369.837C185.357 369.837 185.724 370.037 185.975 370.438V369.903ZM184.136 372.037C184.343 372.244 184.598 372.348 184.9 372.348C185.202 372.348 185.457 372.244 185.664 372.037C185.872 371.826 185.975 371.569 185.975 371.267C185.975 370.965 185.872 370.71 185.664 370.503C185.457 370.292 185.202 370.186 184.9 370.186C184.598 370.186 184.343 370.292 184.136 370.503C183.928 370.71 183.825 370.965 183.825 371.267C183.825 371.569 183.928 371.826 184.136 372.037ZM188.43 369.837C188.761 369.837 189.022 369.939 189.211 370.143C189.404 370.343 189.5 370.614 189.5 370.956V372.632H189.14V370.956C189.14 370.712 189.074 370.523 188.943 370.388C188.816 370.254 188.634 370.186 188.397 370.186C188.135 370.186 187.923 370.27 187.759 370.438C187.595 370.601 187.513 370.856 187.513 371.202V372.632H187.153V369.903H187.513V370.328C187.717 370.001 188.023 369.837 188.43 369.837Z" fill="#6C6C6C"/>
<path d="M225.057 369.171H223.283V370.579H224.975V370.94H223.283V372.632H222.9V368.811H225.057V369.171ZM226.971 369.837C227.375 369.837 227.7 369.981 227.948 370.268C228.199 370.552 228.324 370.889 228.324 371.278C228.324 371.318 228.321 371.375 228.313 371.447H225.917C225.954 371.724 226.07 371.944 226.266 372.108C226.467 372.268 226.712 372.348 227.003 372.348C227.211 372.348 227.389 372.306 227.538 372.222C227.691 372.135 227.806 372.022 227.882 371.884L228.199 372.07C228.079 372.262 227.915 372.415 227.708 372.528C227.5 372.641 227.264 372.697 226.998 372.697C226.569 372.697 226.219 372.563 225.95 372.293C225.681 372.024 225.546 371.682 225.546 371.267C225.546 370.86 225.679 370.519 225.944 370.246C226.21 369.974 226.552 369.837 226.971 369.837ZM226.971 370.186C226.687 370.186 226.448 370.272 226.256 370.443C226.066 370.61 225.954 370.829 225.917 371.098H227.953C227.917 370.811 227.806 370.587 227.62 370.427C227.435 370.266 227.218 370.186 226.971 370.186ZM230.415 369.837C230.804 369.837 231.135 369.975 231.408 370.252C231.685 370.528 231.823 370.867 231.823 371.267C231.823 371.667 231.685 372.006 231.408 372.282C231.135 372.559 230.804 372.697 230.415 372.697C229.931 372.697 229.563 372.497 229.312 372.097V372.632H228.952V368.811H229.312V370.438C229.563 370.037 229.931 369.837 230.415 369.837ZM229.623 372.037C229.831 372.244 230.086 372.348 230.388 372.348C230.69 372.348 230.944 372.244 231.152 372.037C231.359 371.826 231.463 371.569 231.463 371.267C231.463 370.965 231.359 370.71 231.152 370.503C230.944 370.292 230.69 370.186 230.388 370.186C230.086 370.186 229.831 370.292 229.623 370.503C229.416 370.71 229.312 370.965 229.312 371.267C229.312 371.569 229.416 371.826 229.623 372.037Z" fill="#6C6C6C"/>
<path d="M268.199 368.811V372.632H267.817V369.389L266.48 371.627H266.425L265.088 369.389V372.632H264.706V368.811H265.18L266.452 370.94L267.724 368.811H268.199ZM271.418 369.903H271.779V372.632H271.418V372.097C271.167 372.497 270.8 372.697 270.316 372.697C269.926 372.697 269.593 372.559 269.317 372.282C269.044 372.006 268.907 371.667 268.907 371.267C268.907 370.867 269.044 370.528 269.317 370.252C269.593 369.975 269.926 369.837 270.316 369.837C270.8 369.837 271.167 370.037 271.418 370.438V369.903ZM269.579 372.037C269.786 372.244 270.041 372.348 270.343 372.348C270.645 372.348 270.9 372.244 271.107 372.037C271.315 371.826 271.418 371.569 271.418 371.267C271.418 370.965 271.315 370.71 271.107 370.503C270.9 370.292 270.645 370.186 270.343 370.186C270.041 370.186 269.786 370.292 269.579 370.503C269.371 370.71 269.268 370.965 269.268 371.267C269.268 371.569 269.371 371.826 269.579 372.037ZM272.956 370.356C273.124 370.024 273.411 369.859 273.819 369.859V370.208C273.571 370.208 273.366 370.281 273.202 370.427C273.038 370.572 272.956 370.801 272.956 371.114V372.632H272.596V369.903H272.956V370.356Z" fill="#6C6C6C"/>
<path d="M309.516 372.632L309.161 371.693H307.349L306.994 372.632H306.59L308.058 368.811H308.451L309.92 372.632H309.516ZM307.485 371.333H309.024L308.255 369.286L307.485 371.333ZM311.873 369.837C312.262 369.837 312.594 369.975 312.867 370.252C313.143 370.528 313.281 370.867 313.281 371.267C313.281 371.667 313.143 372.006 312.867 372.282C312.594 372.559 312.262 372.697 311.873 372.697C311.389 372.697 311.022 372.497 310.77 372.097V373.724H310.41V369.903H310.77V370.438C311.022 370.037 311.389 369.837 311.873 369.837ZM311.082 372.037C311.289 372.244 311.544 372.348 311.846 372.348C312.148 372.348 312.403 372.244 312.61 372.037C312.817 371.826 312.921 371.569 312.921 371.267C312.921 370.965 312.817 370.71 312.61 370.503C312.403 370.292 312.148 370.186 311.846 370.186C311.544 370.186 311.289 370.292 311.082 370.503C310.874 370.71 310.77 370.965 310.77 371.267C310.77 371.569 310.874 371.826 311.082 372.037ZM314.295 370.356C314.463 370.024 314.75 369.859 315.158 369.859V370.208C314.91 370.208 314.705 370.281 314.541 370.427C314.377 370.572 314.295 370.801 314.295 371.114V372.632H313.935V369.903H314.295V370.356Z" fill="#6C6C6C"/>
<path d="M351.408 368.811V372.632H351.026V369.389L349.689 371.627H349.634L348.297 369.389V372.632H347.915V368.811H348.39L349.661 370.94L350.933 368.811H351.408ZM354.628 369.903H354.988V372.632H354.628V372.097C354.376 372.497 354.009 372.697 353.525 372.697C353.136 372.697 352.803 372.559 352.526 372.282C352.253 372.006 352.117 371.667 352.117 371.267C352.117 370.867 352.253 370.528 352.526 370.252C352.803 369.975 353.136 369.837 353.525 369.837C354.009 369.837 354.376 370.037 354.628 370.438V369.903ZM352.788 372.037C352.995 372.244 353.25 372.348 353.552 372.348C353.854 372.348 354.109 372.244 354.316 372.037C354.524 371.826 354.628 371.569 354.628 371.267C354.628 370.965 354.524 370.71 354.316 370.503C354.109 370.292 353.854 370.186 353.552 370.186C353.25 370.186 352.995 370.292 352.788 370.503C352.581 370.71 352.477 370.965 352.477 371.267C352.477 371.569 352.581 371.826 352.788 372.037ZM357.77 369.903H358.152L356.984 372.883C356.879 373.152 356.728 373.363 356.531 373.516C356.338 373.673 356.122 373.742 355.882 373.724V373.385C356.209 373.422 356.458 373.232 356.629 372.817L356.7 372.648L355.478 369.903H355.86L356.886 372.19L357.77 369.903Z" fill="#6C6C6C"/>
<path d="M391.606 372.697C391.34 372.697 391.102 372.643 390.891 372.534C390.684 372.421 390.534 372.257 390.443 372.042L390.766 371.851C390.886 372.168 391.166 372.326 391.606 372.326C391.872 372.326 392.083 372.262 392.239 372.135C392.399 372.008 392.479 371.813 392.479 371.551V368.811H392.862V371.551C392.862 371.922 392.742 372.206 392.501 372.403C392.265 372.599 391.966 372.697 391.606 372.697ZM395.6 369.903H395.961V372.632H395.6V372.206C395.397 372.534 395.091 372.697 394.683 372.697C394.352 372.697 394.09 372.597 393.897 372.397C393.708 372.193 393.613 371.92 393.613 371.578V369.903H393.974V371.578C393.974 371.822 394.037 372.011 394.165 372.146C394.296 372.281 394.48 372.348 394.716 372.348C394.978 372.348 395.191 372.266 395.355 372.102C395.518 371.935 395.6 371.678 395.6 371.333V369.903ZM398.055 369.837C398.386 369.837 398.646 369.939 398.835 370.143C399.028 370.343 399.124 370.614 399.124 370.956V372.632H398.764V370.956C398.764 370.712 398.699 370.523 398.568 370.388C398.44 370.254 398.258 370.186 398.022 370.186C397.76 370.186 397.547 370.27 397.383 370.438C397.219 370.601 397.138 370.856 397.138 371.202V372.632H396.777V369.903H397.138V370.328C397.341 370.001 397.647 369.837 398.055 369.837Z" fill="#6C6C6C"/>
<path d="M175.751 335.791C176.108 335.791 176.41 335.897 176.657 336.108C176.908 336.315 177.034 336.601 177.034 336.965C177.034 337.329 176.908 337.616 176.657 337.827C176.41 338.035 176.108 338.138 175.751 338.138C175.464 338.138 175.207 338.069 174.982 337.931C174.756 337.789 174.603 337.587 174.523 337.325L174.845 337.139C174.9 337.343 175.007 337.5 175.167 337.609C175.331 337.714 175.526 337.767 175.751 337.767C176.013 337.767 176.228 337.698 176.395 337.56C176.566 337.418 176.652 337.219 176.652 336.965C176.652 336.71 176.566 336.513 176.395 336.375C176.228 336.233 176.013 336.162 175.751 336.162H174.714L174.851 334.252H176.897V334.612H175.189L175.107 335.791H175.751ZM179.984 337.603C179.733 337.96 179.378 338.138 178.92 338.138C178.461 338.138 178.105 337.96 177.85 337.603C177.599 337.243 177.473 336.763 177.473 336.162C177.473 335.562 177.599 335.083 177.85 334.727C178.105 334.366 178.461 334.186 178.92 334.186C179.378 334.186 179.733 334.366 179.984 334.727C180.239 335.083 180.366 335.562 180.366 336.162C180.366 336.763 180.239 337.243 179.984 337.603ZM178.134 337.347C178.323 337.627 178.585 337.767 178.92 337.767C179.255 337.767 179.515 337.627 179.7 337.347C179.89 337.067 179.984 336.672 179.984 336.162C179.984 335.653 179.89 335.258 179.7 334.978C179.515 334.698 179.255 334.557 178.92 334.557C178.585 334.557 178.323 334.698 178.134 334.978C177.948 335.258 177.855 335.653 177.855 336.162C177.855 336.672 177.948 337.067 178.134 337.347Z" fill="#6C6C6C"/>
<path d="M172.161 309.234H172.489V313.055H172.107V309.654L171.25 309.911L171.151 309.583L172.161 309.234ZM175.763 312.585C175.512 312.942 175.157 313.12 174.699 313.12C174.24 313.12 173.883 312.942 173.629 312.585C173.378 312.225 173.252 311.745 173.252 311.144C173.252 310.544 173.378 310.065 173.629 309.709C173.883 309.348 174.24 309.168 174.699 309.168C175.157 309.168 175.512 309.348 175.763 309.709C176.018 310.065 176.145 310.544 176.145 311.144C176.145 311.745 176.018 312.225 175.763 312.585ZM173.913 312.329C174.102 312.609 174.364 312.749 174.699 312.749C175.033 312.749 175.294 312.609 175.479 312.329C175.668 312.049 175.763 311.654 175.763 311.144C175.763 310.635 175.668 310.24 175.479 309.96C175.294 309.68 175.033 309.539 174.699 309.539C174.364 309.539 174.102 309.68 173.913 309.96C173.727 310.24 173.634 310.635 173.634 311.144C173.634 311.654 173.727 312.049 173.913 312.329ZM179.256 312.585C179.005 312.942 178.65 313.12 178.191 313.12C177.733 313.12 177.376 312.942 177.121 312.585C176.87 312.225 176.745 311.745 176.745 311.144C176.745 310.544 176.87 310.065 177.121 309.709C177.376 309.348 177.733 309.168 178.191 309.168C178.65 309.168 179.005 309.348 179.256 309.709C179.511 310.065 179.638 310.544 179.638 311.144C179.638 311.745 179.511 312.225 179.256 312.585ZM177.405 312.329C177.595 312.609 177.857 312.749 178.191 312.749C178.526 312.749 178.786 312.609 178.972 312.329C179.161 312.049 179.256 311.654 179.256 311.144C179.256 310.635 179.161 310.24 178.972 309.96C178.786 309.68 178.526 309.539 178.191 309.539C177.857 309.539 177.595 309.68 177.405 309.96C177.22 310.24 177.127 310.635 177.127 311.144C177.127 311.654 177.22 312.049 177.405 312.329Z" fill="#6C6C6C"/>
<path d="M173.213 284.215H173.541V288.036H173.159V284.635L172.302 284.892L172.203 284.565L173.213 284.215ZM175.478 285.754C175.834 285.754 176.136 285.86 176.384 286.071C176.635 286.278 176.76 286.564 176.76 286.928C176.76 287.292 176.635 287.579 176.384 287.79C176.136 287.998 175.834 288.102 175.478 288.102C175.19 288.102 174.934 288.032 174.708 287.894C174.482 287.752 174.33 287.55 174.25 287.288L174.572 287.103C174.626 287.307 174.734 287.463 174.894 287.572C175.057 287.678 175.252 287.73 175.478 287.73C175.74 287.73 175.954 287.661 176.122 287.523C176.293 287.381 176.378 287.183 176.378 286.928C176.378 286.673 176.293 286.477 176.122 286.339C175.954 286.197 175.74 286.126 175.478 286.126H174.441L174.577 284.215H176.624V284.575H174.916L174.834 285.754H175.478ZM179.711 287.567C179.46 287.923 179.105 288.102 178.646 288.102C178.188 288.102 177.831 287.923 177.577 287.567C177.325 287.206 177.2 286.726 177.2 286.126C177.2 285.525 177.325 285.047 177.577 284.69C177.831 284.33 178.188 284.15 178.646 284.15C179.105 284.15 179.46 284.33 179.711 284.69C179.966 285.047 180.093 285.525 180.093 286.126C180.093 286.726 179.966 287.206 179.711 287.567ZM177.86 287.31C178.05 287.59 178.312 287.73 178.646 287.73C178.981 287.73 179.241 287.59 179.427 287.31C179.616 287.03 179.711 286.635 179.711 286.126C179.711 285.616 179.616 285.221 179.427 284.941C179.241 284.661 178.981 284.521 178.646 284.521C178.312 284.521 178.05 284.661 177.86 284.941C177.675 285.221 177.582 285.616 177.582 286.126C177.582 286.635 177.675 287.03 177.86 287.31Z" fill="#6C6C6C"/>
<path d="M170.418 263.018V262.674L171.794 261.288C172.187 260.895 172.383 260.558 172.383 260.278C172.383 260.034 172.307 259.845 172.154 259.71C172.005 259.572 171.825 259.503 171.614 259.503C171.221 259.503 170.935 259.683 170.757 260.043L170.435 259.852C170.555 259.616 170.718 259.437 170.926 259.317C171.133 259.193 171.363 259.132 171.614 259.132C171.919 259.132 172.187 259.235 172.416 259.443C172.649 259.647 172.765 259.925 172.765 260.278C172.765 260.5 172.703 260.713 172.58 260.917C172.456 261.12 172.281 261.335 172.056 261.561L170.964 262.647H172.847V263.018H170.418ZM175.853 262.549C175.602 262.905 175.247 263.084 174.788 263.084C174.33 263.084 173.973 262.905 173.719 262.549C173.467 262.188 173.342 261.708 173.342 261.108C173.342 260.507 173.467 260.029 173.719 259.672C173.973 259.312 174.33 259.132 174.788 259.132C175.247 259.132 175.602 259.312 175.853 259.672C176.108 260.029 176.235 260.507 176.235 261.108C176.235 261.708 176.108 262.188 175.853 262.549ZM174.002 262.292C174.192 262.572 174.454 262.712 174.788 262.712C175.123 262.712 175.383 262.572 175.569 262.292C175.758 262.012 175.853 261.617 175.853 261.108C175.853 260.598 175.758 260.203 175.569 259.923C175.383 259.643 175.123 259.503 174.788 259.503C174.454 259.503 174.192 259.643 174.002 259.923C173.817 260.203 173.724 260.598 173.724 261.108C173.724 261.617 173.817 262.012 174.002 262.292ZM179.346 262.549C179.095 262.905 178.74 263.084 178.281 263.084C177.823 263.084 177.466 262.905 177.211 262.549C176.96 262.188 176.835 261.708 176.835 261.108C176.835 260.507 176.96 260.029 177.211 259.672C177.466 259.312 177.823 259.132 178.281 259.132C178.74 259.132 179.095 259.312 179.346 259.672C179.6 260.029 179.728 260.507 179.728 261.108C179.728 261.708 179.6 262.188 179.346 262.549ZM177.495 262.292C177.684 262.572 177.946 262.712 178.281 262.712C178.616 262.712 178.876 262.572 179.062 262.292C179.251 262.012 179.346 261.617 179.346 261.108C179.346 260.598 179.251 260.203 179.062 259.923C178.876 259.643 178.616 259.503 178.281 259.503C177.946 259.503 177.684 259.643 177.495 259.923C177.31 260.203 177.217 260.598 177.217 261.108C177.217 261.617 177.31 262.012 177.495 262.292Z" fill="#6C6C6C"/>
<path d="M171.444 238V237.656L172.819 236.27C173.212 235.877 173.409 235.54 173.409 235.26C173.409 235.016 173.332 234.827 173.179 234.692C173.03 234.554 172.85 234.485 172.639 234.485C172.246 234.485 171.96 234.665 171.782 235.025L171.46 234.834C171.58 234.598 171.744 234.419 171.951 234.299C172.159 234.175 172.388 234.114 172.639 234.114C172.945 234.114 173.212 234.217 173.441 234.425C173.674 234.628 173.791 234.907 173.791 235.26C173.791 235.482 173.729 235.695 173.605 235.898C173.481 236.102 173.307 236.317 173.081 236.543L171.989 237.629H173.873V238H171.444ZM175.568 235.718C175.924 235.718 176.226 235.824 176.474 236.035C176.725 236.242 176.85 236.528 176.85 236.892C176.85 237.256 176.725 237.543 176.474 237.754C176.226 237.962 175.924 238.066 175.568 238.066C175.28 238.066 175.024 237.996 174.798 237.858C174.572 237.716 174.419 237.514 174.339 237.252L174.661 237.067C174.716 237.27 174.823 237.427 174.984 237.536C175.147 237.642 175.342 237.694 175.568 237.694C175.83 237.694 176.044 237.625 176.212 237.487C176.383 237.345 176.468 237.147 176.468 236.892C176.468 236.637 176.383 236.441 176.212 236.302C176.044 236.16 175.83 236.09 175.568 236.09H174.53L174.667 234.179H176.714V234.539H175.005L174.923 235.718H175.568ZM179.801 237.531C179.55 237.887 179.195 238.066 178.736 238.066C178.278 238.066 177.921 237.887 177.666 237.531C177.415 237.17 177.29 236.69 177.29 236.09C177.29 235.489 177.415 235.011 177.666 234.654C177.921 234.294 178.278 234.114 178.736 234.114C179.195 234.114 179.55 234.294 179.801 234.654C180.055 235.011 180.183 235.489 180.183 236.09C180.183 236.69 180.055 237.17 179.801 237.531ZM177.95 237.274C178.139 237.554 178.401 237.694 178.736 237.694C179.071 237.694 179.331 237.554 179.517 237.274C179.706 236.994 179.801 236.599 179.801 236.09C179.801 235.58 179.706 235.185 179.517 234.905C179.331 234.625 179.071 234.485 178.736 234.485C178.401 234.485 178.139 234.625 177.95 234.905C177.765 235.185 177.672 235.58 177.672 236.09C177.672 236.599 177.765 236.994 177.95 237.274Z" fill="#6C6C6C"/>
<line x1="185.179" y1="364.004" x2="185.179" y2="235.963" stroke="#DDDDDD" stroke-width="0.454876"/>
<line x1="227.026" y1="364.004" x2="227.026" y2="235.963" stroke="#DDDDDD" stroke-width="0.454876"/>
<line x1="268.876" y1="364.004" x2="268.876" y2="235.963" stroke="#DDDDDD" stroke-width="0.454876"/>
<line x1="310.724" y1="364.004" x2="310.724" y2="235.963" stroke="#DDDDDD" stroke-width="0.454876"/>
<line x1="352.573" y1="364.004" x2="352.573" y2="235.963" stroke="#DDDDDD" stroke-width="0.454876"/>
<line x1="394.421" y1="364.004" x2="394.421" y2="235.963" stroke="#DDDDDD" stroke-width="0.454876"/>
<path d="M185.451 305.535L226.997 329.907L268.852 305.093L310.716 291.041L352.591 310.383L394.153 279.994" stroke="#2D82FF" stroke-width="0.909752" stroke-linecap="round" stroke-linejoin="round"/>
<rect x="185.181" y="235.953" width="209.241" height="125.094" stroke="#DDDDDD" stroke-width="0.454876"/>
<circle cx="227.049" cy="329.384" r="1.59207" fill="#2D82FF"/>
<circle cx="268.897" cy="305.098" r="1.59207" fill="#2D82FF"/>
<circle cx="310.68" cy="291.399" r="1.59207" fill="#2D82FF"/>
<circle cx="352.53" cy="310.049" r="1.59207" fill="#2D82FF"/>
<rect x="151" y="429" width="163" height="10" rx="5" fill="#C8CDD8"/>
<rect x="630" y="431" width="75" height="6" rx="3" fill="#C8CDD8"/>
<g filter="url(#filter6_d_3175_2190)">
<rect x="435" y="188" width="270" height="207" rx="12.6118" fill="white"/>
<rect x="435.631" y="188.631" width="268.739" height="205.739" rx="11.9812" stroke="#D4D8E2" stroke-width="1.26118"/>
</g>
<rect x="489" y="252" width="133" height="4" rx="2" fill="#C8CDD8"/>
<rect x="489" y="242" width="182" height="5" rx="2.5" fill="#C8CDD8"/>
<rect x="455" y="235" width="27" height="27" rx="13.5" fill="#DDE2EA"/>
<rect x="489" y="289" width="133" height="4" rx="2" fill="#C8CDD8"/>
<rect x="489" y="279" width="182" height="5" rx="2.5" fill="#C8CDD8"/>
<rect x="455" y="272" width="27" height="27" rx="13.5" fill="#DDE2EA"/>
<rect x="489" y="326" width="133" height="4" rx="2" fill="#C8CDD8"/>
<rect x="489" y="316" width="182" height="5" rx="2.5" fill="#C8CDD8"/>
<rect x="455" y="309" width="27" height="27" rx="13.5" fill="#DDE2EA"/>
<rect x="489" y="363" width="133" height="4" rx="2" fill="#C8CDD8"/>
<rect x="489" y="353" width="182" height="5" rx="2.5" fill="#C8CDD8"/>
<rect x="455" y="346" width="27" height="27" rx="13.5" fill="#DDE2EA"/>
<rect x="455" y="209" width="110" height="10" rx="5" fill="#C8CDD8"/>
<mask id="path-118-inside-1_3175_2190" fill="white">
<path d="M150 460H705V484H150V460Z"/>
</mask>
<path d="M705 484V483H150V484V485H705V484Z" fill="#E0E3EB" mask="url(#path-118-inside-1_3175_2190)"/>
<rect x="150" y="470" width="89" height="4" rx="2" fill="#C8CDD8"/>
<rect x="150" y="460" width="71" height="5" rx="2.5" fill="#C8CDD8"/>
<rect x="301.25" y="464.5" width="71" height="5" rx="2.5" fill="#C8CDD8"/>
<rect x="434.5" y="464.5" width="71" height="5" rx="2.5" fill="#C8CDD8"/>
<rect x="567.75" y="464.5" width="31" height="5" rx="2.5" fill="#C8CDD8"/>
<rect x="661" y="464.5" width="19" height="5" rx="2.5" fill="#C8CDD8"/>
<rect x="686" y="464.5" width="19" height="5" rx="2.5" fill="#C8CDD8"/>
<mask id="path-127-inside-2_3175_2190" fill="white">
<path d="M150 494H705V518H150V494Z"/>
</mask>
<path d="M705 518V517H150V518V519H705V518Z" fill="#E0E3EB" mask="url(#path-127-inside-2_3175_2190)"/>
<rect x="150" y="504" width="89" height="4" rx="2" fill="#C8CDD8"/>
<rect x="150" y="494" width="71" height="5" rx="2.5" fill="#C8CDD8"/>
<rect x="301.25" y="498.5" width="71" height="5" rx="2.5" fill="#C8CDD8"/>
<rect x="434.5" y="498.5" width="71" height="5" rx="2.5" fill="#C8CDD8"/>
<rect x="567.75" y="498.5" width="31" height="5" rx="2.5" fill="#C8CDD8"/>
<rect x="661" y="498.5" width="19" height="5" rx="2.5" fill="#C8CDD8"/>
<rect x="686" y="498.5" width="19" height="5" rx="2.5" fill="#C8CDD8"/>
<mask id="path-136-inside-3_3175_2190" fill="white">
<path d="M150 528H705V552H150V528Z"/>
</mask>
<path d="M705 552V551H150V552V553H705V552Z" fill="#E0E3EB" mask="url(#path-136-inside-3_3175_2190)"/>
<rect x="150" y="538" width="89" height="4" rx="2" fill="#C8CDD8"/>
<rect x="150" y="528" width="71" height="5" rx="2.5" fill="#C8CDD8"/>
<rect x="301.25" y="532.5" width="71" height="5" rx="2.5" fill="#C8CDD8"/>
<rect x="434.5" y="532.5" width="71" height="5" rx="2.5" fill="#C8CDD8"/>
<rect x="567.75" y="532.5" width="31" height="5" rx="2.5" fill="#C8CDD8"/>
<rect x="661" y="532.5" width="19" height="5" rx="2.5" fill="#C8CDD8"/>
<rect x="686" y="532.5" width="19" height="5" rx="2.5" fill="#C8CDD8"/>
<mask id="path-145-inside-4_3175_2190" fill="white">
<path d="M150 562H705V586H150V562Z"/>
</mask>
<path d="M705 586V585H150V586V587H705V586Z" fill="#E0E3EB" mask="url(#path-145-inside-4_3175_2190)"/>
<rect x="150" y="572" width="89" height="4" rx="2" fill="#C8CDD8"/>
<rect x="150" y="562" width="71" height="5" rx="2.5" fill="#C8CDD8"/>
<rect x="301.25" y="566.5" width="71" height="5" rx="2.5" fill="#C8CDD8"/>
<rect x="434.5" y="566.5" width="71" height="5" rx="2.5" fill="#C8CDD8"/>
<rect x="567.75" y="566.5" width="31" height="5" rx="2.5" fill="#C8CDD8"/>
<rect x="661" y="566.5" width="19" height="5" rx="2.5" fill="#C8CDD8"/>
<rect x="686" y="566.5" width="19" height="5" rx="2.5" fill="#C8CDD8"/>
<mask id="path-154-inside-5_3175_2190" fill="white">
<path d="M150 596H705V620H150V596Z"/>
</mask>
<path d="M705 620V619H150V620V621H705V620Z" fill="#E0E3EB" mask="url(#path-154-inside-5_3175_2190)"/>
<rect x="150" y="606" width="89" height="4" rx="2" fill="#C8CDD8"/>
<rect x="150" y="596" width="71" height="5" rx="2.5" fill="#C8CDD8"/>
<rect x="301.25" y="600.5" width="71" height="5" rx="2.5" fill="#C8CDD8"/>
<rect x="434.5" y="600.5" width="71" height="5" rx="2.5" fill="#C8CDD8"/>
<rect x="567.75" y="600.5" width="31" height="5" rx="2.5" fill="#C8CDD8"/>
<rect x="661" y="600.5" width="19" height="5" rx="2.5" fill="#C8CDD8"/>
<rect x="686" y="600.5" width="19" height="5" rx="2.5" fill="#C8CDD8"/>
<mask id="path-163-inside-6_3175_2190" fill="white">
<path d="M150 630H705V654H150V630Z"/>
</mask>
<path d="M705 654V653H150V654V655H705V654Z" fill="#E0E3EB" mask="url(#path-163-inside-6_3175_2190)"/>
<rect x="150" y="640" width="89" height="4" rx="2" fill="#C8CDD8"/>
<rect x="150" y="630" width="71" height="5" rx="2.5" fill="#C8CDD8"/>
<rect x="301.25" y="634.5" width="71" height="5" rx="2.5" fill="#C8CDD8"/>
<rect x="434.5" y="634.5" width="71" height="5" rx="2.5" fill="#C8CDD8"/>
<rect x="567.75" y="634.5" width="31" height="5" rx="2.5" fill="#C8CDD8"/>
<rect x="661" y="634.5" width="19" height="5" rx="2.5" fill="#C8CDD8"/>
<rect x="686" y="634.5" width="19" height="5" rx="2.5" fill="#C8CDD8"/>
</g>
<defs>
<filter id="filter0_d_3175_2190" x="712" y="272" width="101" height="29" filterUnits="userSpaceOnUse" color-interpolation-filters="sRGB">
<feFlood flood-opacity="0" result="BackgroundImageFix"/>
<feColorMatrix in="SourceAlpha" type="matrix" values="0 0 0 0 0 0 0 0 0 0 0 0 0 0 0 0 0 0 127 0" result="hardAlpha"/>
<feOffset dy="4"/>
<feGaussianBlur stdDeviation="2"/>
<feComposite in2="hardAlpha" operator="out"/>
<feColorMatrix type="matrix" values="0 0 0 0 0 0 0 0 0 0 0 0 0 0 0 0 0 0 0.07 0"/>
<feBlend mode="normal" in2="BackgroundImageFix" result="effect1_dropShadow_3175_2190"/>
<feBlend mode="normal" in="SourceGraphic" in2="effect1_dropShadow_3175_2190" result="shape"/>
</filter>
<filter id="filter1_d_3175_2190" x="66" y="533" width="59" height="29" filterUnits="userSpaceOnUse" color-interpolation-filters="sRGB">
<feFlood flood-opacity="0" result="BackgroundImageFix"/>
<feColorMatrix in="SourceAlpha" type="matrix" values="0 0 0 0 0 0 0 0 0 0 0 0 0 0 0 0 0 0 127 0" result="hardAlpha"/>
<feOffset dy="4"/>
<feGaussianBlur stdDeviation="2"/>
<feComposite in2="hardAlpha" operator="out"/>
<feColorMatrix type="matrix" values="0 0 0 0 0 0 0 0 0 0 0 0 0 0 0 0 0 0 0.07 0"/>
<feBlend mode="normal" in2="BackgroundImageFix" result="effect1_dropShadow_3175_2190"/>
<feBlend mode="normal" in="SourceGraphic" in2="effect1_dropShadow_3175_2190" result="shape"/>
</filter>
<filter id="filter2_d_3175_2190" x="144.955" y="116" width="185.089" height="68.0894" filterUnits="userSpaceOnUse" color-interpolation-filters="sRGB">
<feFlood flood-opacity="0" result="BackgroundImageFix"/>
<feColorMatrix in="SourceAlpha" type="matrix" values="0 0 0 0 0 0 0 0 0 0 0 0 0 0 0 0 0 0 127 0" result="hardAlpha"/>
<feOffset dy="5.0447"/>
<feGaussianBlur stdDeviation="2.52235"/>
<feComposite in2="hardAlpha" operator="out"/>
<feColorMatrix type="matrix" values="0 0 0 0 0 0 0 0 0 0 0 0 0 0 0 0 0 0 0.07 0"/>
<feBlend mode="normal" in2="BackgroundImageFix" result="effect1_dropShadow_3175_2190"/>
<feBlend mode="normal" in="SourceGraphic" in2="effect1_dropShadow_3175_2190" result="shape"/>
</filter>
<filter id="filter3_d_3175_2190" x="334.955" y="116" width="185.089" height="68.0894" filterUnits="userSpaceOnUse" color-interpolation-filters="sRGB">
<feFlood flood-opacity="0" result="BackgroundImageFix"/>
<feColorMatrix in="SourceAlpha" type="matrix" values="0 0 0 0 0 0 0 0 0 0 0 0 0 0 0 0 0 0 127 0" result="hardAlpha"/>
<feOffset dy="5.0447"/>
<feGaussianBlur stdDeviation="2.52235"/>
<feComposite in2="hardAlpha" operator="out"/>
<feColorMatrix type="matrix" values="0 0 0 0 0 0 0 0 0 0 0 0 0 0 0 0 0 0 0.07 0"/>
<feBlend mode="normal" in2="BackgroundImageFix" result="effect1_dropShadow_3175_2190"/>
<feBlend mode="normal" in="SourceGraphic" in2="effect1_dropShadow_3175_2190" result="shape"/>
</filter>
<filter id="filter4_d_3175_2190" x="524.955" y="116" width="185.089" height="68.0894" filterUnits="userSpaceOnUse" color-interpolation-filters="sRGB">
<feFlood flood-opacity="0" result="BackgroundImageFix"/>
<feColorMatrix in="SourceAlpha" type="matrix" values="0 0 0 0 0 0 0 0 0 0 0 0 0 0 0 0 0 0 127 0" result="hardAlpha"/>
<feOffset dy="5.0447"/>
<feGaussianBlur stdDeviation="2.52235"/>
<feComposite in2="hardAlpha" operator="out"/>
<feColorMatrix type="matrix" values="0 0 0 0 0 0 0 0 0 0 0 0 0 0 0 0 0 0 0.07 0"/>
<feBlend mode="normal" in2="BackgroundImageFix" result="effect1_dropShadow_3175_2190"/>
<feBlend mode="normal" in="SourceGraphic" in2="effect1_dropShadow_3175_2190" result="shape"/>
</filter>
<filter id="filter5_d_3175_2190" x="144.955" y="188" width="280.089" height="217.089" filterUnits="userSpaceOnUse" color-interpolation-filters="sRGB">
<feFlood flood-opacity="0" result="BackgroundImageFix"/>
<feColorMatrix in="SourceAlpha" type="matrix" values="0 0 0 0 0 0 0 0 0 0 0 0 0 0 0 0 0 0 127 0" result="hardAlpha"/>
<feOffset dy="5.0447"/>
<feGaussianBlur stdDeviation="2.52235"/>
<feComposite in2="hardAlpha" operator="out"/>
<feColorMatrix type="matrix" values="0 0 0 0 0 0 0 0 0 0 0 0 0 0 0 0 0 0 0.07 0"/>
<feBlend mode="normal" in2="BackgroundImageFix" result="effect1_dropShadow_3175_2190"/>
<feBlend mode="normal" in="SourceGraphic" in2="effect1_dropShadow_3175_2190" result="shape"/>
</filter>
<filter id="filter6_d_3175_2190" x="429.955" y="188" width="280.089" height="217.089" filterUnits="userSpaceOnUse" color-interpolation-filters="sRGB">
<feFlood flood-opacity="0" result="BackgroundImageFix"/>
<feColorMatrix in="SourceAlpha" type="matrix" values="0 0 0 0 0 0 0 0 0 0 0 0 0 0 0 0 0 0 127 0" result="hardAlpha"/>
<feOffset dy="5.0447"/>
<feGaussianBlur stdDeviation="2.52235"/>
<feComposite in2="hardAlpha" operator="out"/>
<feColorMatrix type="matrix" values="0 0 0 0 0 0 0 0 0 0 0 0 0 0 0 0 0 0 0.07 0"/>
<feBlend mode="normal" in2="BackgroundImageFix" result="effect1_dropShadow_3175_2190"/>
<feBlend mode="normal" in="SourceGraphic" in2="effect1_dropShadow_3175_2190" result="shape"/>
</filter>
</defs>
</svg>
