<svg width="855" height="667" viewBox="0 0 855 667" fill="none" xmlns="http://www.w3.org/2000/svg">
<rect x="1" y="1" width="853" height="665" rx="16" fill="#F2F4F8" stroke="#D4D8E2" stroke-width="2"/>
<mask id="mask0_3123_2190" style="mask-type:alpha" maskUnits="userSpaceOnUse" x="2" y="2" width="851" height="663">
<rect x="2" y="2" width="851" height="663" rx="15" fill="#F2F4F8"/>
</mask>
<g mask="url(#mask0_3123_2190)">
<line x1="61.5" y1="-1" x2="61.5" y2="857" stroke="#E0E3EB"/>
<line x1="122.5" y1="-1" x2="122.5" y2="857" stroke="#E0E3EB"/>
<line x1="183.5" y1="-1" x2="183.5" y2="857" stroke="#E0E3EB"/>
<line x1="244.5" y1="-1" x2="244.5" y2="857" stroke="#E0E3EB"/>
<line x1="305.5" y1="-1" x2="305.5" y2="857" stroke="#E0E3EB"/>
<line x1="366.5" y1="-1" x2="366.5" y2="857" stroke="#E0E3EB"/>
<line x1="427.5" y1="-1" x2="427.5" y2="857" stroke="#E0E3EB"/>
<line x1="488.5" y1="-1" x2="488.5" y2="857" stroke="#E0E3EB"/>
<line x1="549.5" y1="-1" x2="549.5" y2="857" stroke="#E0E3EB"/>
<line x1="610.5" y1="-1" x2="610.5" y2="857" stroke="#E0E3EB"/>
<line x1="671.5" y1="-1" x2="671.5" y2="857" stroke="#E0E3EB"/>
<line x1="732.5" y1="-1" x2="732.5" y2="857" stroke="#E0E3EB"/>
<line x1="793.5" y1="-1" x2="793.5" y2="857" stroke="#E0E3EB"/>
<line x1="856" y1="40.5" x2="-2" y2="40.4999" stroke="#E0E3EB"/>
<line x1="856" y1="101.5" x2="-2" y2="101.5" stroke="#E0E3EB"/>
<line x1="856" y1="162.5" x2="-2" y2="162.5" stroke="#E0E3EB"/>
<line x1="856" y1="223.5" x2="-2" y2="223.5" stroke="#E0E3EB"/>
<line x1="856" y1="284.5" x2="-2" y2="284.5" stroke="#E0E3EB"/>
<line x1="856" y1="345.5" x2="-2" y2="345.5" stroke="#E0E3EB"/>
<line x1="856" y1="406.5" x2="-2" y2="406.5" stroke="#E0E3EB"/>
<line x1="856" y1="467.5" x2="-2" y2="467.5" stroke="#E0E3EB"/>
<line x1="856" y1="528.5" x2="-2" y2="528.5" stroke="#E0E3EB"/>
<line x1="856" y1="589.5" x2="-2" y2="589.5" stroke="#E0E3EB"/>
<line x1="856" y1="650.5" x2="-2" y2="650.5" stroke="#E0E3EB"/>
<rect y="2" width="853" height="40" fill="#E8EBF0"/>
<rect x="0.5" y="41.5" width="855" height="49" fill="white" stroke="#E0E3EB"/>
<g filter="url(#filter0_d_3123_2190)">
<rect x="325" y="356" width="174" height="175" rx="12.6118" fill="white"/>
<rect x="325.631" y="356.631" width="172.739" height="173.739" rx="11.9812" stroke="#D4D8E2" stroke-width="1.26118"/>
</g>
<path d="M343 487C343 484.239 345.239 482 348 482H398C400.761 482 403 484.239 403 487V505C403 507.761 400.761 510 398 510H348C345.239 510 343 507.761 343 505V487Z" fill="#B0C8F0"/>
<path d="M360.679 500H359.756L362.426 492.727H363.335L366.006 500H365.082L362.909 493.878H362.852L360.679 500ZM361.02 497.159H364.741V497.94H361.02V497.159ZM367.025 502.045V494.545H367.835V495.412H367.934C367.996 495.317 368.081 495.196 368.19 495.05C368.301 494.901 368.46 494.768 368.665 494.652C368.874 494.534 369.156 494.474 369.511 494.474C369.97 494.474 370.375 494.589 370.725 494.819C371.076 495.049 371.349 495.374 371.545 495.795C371.742 496.217 371.84 496.714 371.84 497.287C371.84 497.865 371.742 498.365 371.545 498.789C371.349 499.21 371.077 499.537 370.729 499.769C370.381 499.999 369.979 500.114 369.525 500.114C369.174 500.114 368.894 500.056 368.683 499.94C368.473 499.821 368.31 499.687 368.197 499.538C368.083 499.387 367.996 499.261 367.934 499.162H367.863V502.045H367.025ZM367.849 497.273C367.849 497.685 367.909 498.048 368.03 498.363C368.151 498.675 368.327 498.92 368.559 499.098C368.791 499.273 369.075 499.361 369.411 499.361C369.762 499.361 370.054 499.268 370.288 499.084C370.525 498.897 370.703 498.646 370.821 498.331C370.942 498.014 371.002 497.661 371.002 497.273C371.002 496.889 370.943 496.544 370.825 496.236C370.709 495.926 370.532 495.681 370.295 495.501C370.061 495.318 369.766 495.227 369.411 495.227C369.07 495.227 368.784 495.314 368.552 495.487C368.32 495.657 368.145 495.896 368.026 496.204C367.908 496.509 367.849 496.866 367.849 497.273ZM373.119 502.045V494.545H373.928V495.412H374.028C374.089 495.317 374.174 495.196 374.283 495.05C374.395 494.901 374.553 494.768 374.759 494.652C374.968 494.534 375.249 494.474 375.604 494.474C376.064 494.474 376.469 494.589 376.819 494.819C377.169 495.049 377.443 495.374 377.639 495.795C377.836 496.217 377.934 496.714 377.934 497.287C377.934 497.865 377.836 498.365 377.639 498.789C377.443 499.21 377.17 499.537 376.822 499.769C376.474 499.999 376.073 500.114 375.619 500.114C375.268 500.114 374.988 500.056 374.777 499.94C374.566 499.821 374.404 499.687 374.29 499.538C374.177 499.387 374.089 499.261 374.028 499.162H373.957V502.045H373.119ZM373.942 497.273C373.942 497.685 374.003 498.048 374.124 498.363C374.244 498.675 374.421 498.92 374.653 499.098C374.885 499.273 375.169 499.361 375.505 499.361C375.855 499.361 376.148 499.268 376.382 499.084C376.619 498.897 376.796 498.646 376.915 498.331C377.036 498.014 377.096 497.661 377.096 497.273C377.096 496.889 377.037 496.544 376.918 496.236C376.802 495.926 376.626 495.681 376.389 495.501C376.155 495.318 375.86 495.227 375.505 495.227C375.164 495.227 374.878 495.314 374.646 495.487C374.414 495.657 374.238 495.896 374.12 496.204C374.002 496.509 373.942 496.866 373.942 497.273ZM380.05 492.727V500H379.212V492.727H380.05ZM382.125 502.045C381.983 502.045 381.856 502.034 381.745 502.01C381.634 501.989 381.557 501.967 381.514 501.946L381.727 501.207C381.931 501.259 382.111 501.278 382.267 501.264C382.423 501.25 382.562 501.18 382.683 501.055C382.806 500.932 382.918 500.732 383.02 500.455L383.176 500.028L381.159 494.545H382.068L383.574 498.892H383.631L385.137 494.545H386.046L383.73 500.795C383.626 501.077 383.497 501.31 383.343 501.495C383.189 501.682 383.011 501.821 382.807 501.911C382.606 502 382.378 502.045 382.125 502.045Z" fill="#6B80A4"/>
<rect x="343" y="423" width="134" height="5" rx="2.5" fill="#C8CDD8"/>
<rect x="343" y="432" width="112" height="5" rx="2.5" fill="#C8CDD8"/>
<rect x="343" y="441" width="124" height="5" rx="2.5" fill="#C8CDD8"/>
<rect x="343" y="450" width="74" height="5" rx="2.5" fill="#C8CDD8"/>
<rect x="343" y="403" width="119" height="11" rx="5.5" fill="#C8CDD8"/>
<rect x="343" y="375" width="16" height="16" rx="3" fill="#DDE2EA"/>
<g filter="url(#filter1_d_3123_2190)">
<rect x="509" y="356" width="174" height="175" rx="12.6118" fill="white"/>
<rect x="509.631" y="356.631" width="172.739" height="173.739" rx="11.9812" stroke="#D4D8E2" stroke-width="1.26118"/>
</g>
<path d="M527 487C527 484.239 529.239 482 532 482H582C584.761 482 587 484.239 587 487V505C587 507.761 584.761 510 582 510H532C529.239 510 527 507.761 527 505V487Z" fill="#B0C8F0"/>
<path d="M544.679 500H543.756L546.426 492.727H547.335L550.006 500H549.082L546.909 493.878H546.852L544.679 500ZM545.02 497.159H548.741V497.94H545.02V497.159ZM551.025 502.045V494.545H551.835V495.412H551.934C551.996 495.317 552.081 495.196 552.19 495.05C552.301 494.901 552.46 494.768 552.665 494.652C552.874 494.534 553.156 494.474 553.511 494.474C553.97 494.474 554.375 494.589 554.725 494.819C555.076 495.049 555.349 495.374 555.545 495.795C555.742 496.217 555.84 496.714 555.84 497.287C555.84 497.865 555.742 498.365 555.545 498.789C555.349 499.21 555.077 499.537 554.729 499.769C554.381 499.999 553.979 500.114 553.525 500.114C553.174 500.114 552.894 500.056 552.683 499.94C552.473 499.821 552.31 499.687 552.197 499.538C552.083 499.387 551.996 499.261 551.934 499.162H551.863V502.045H551.025ZM551.849 497.273C551.849 497.685 551.909 498.048 552.03 498.363C552.151 498.675 552.327 498.92 552.559 499.098C552.791 499.273 553.075 499.361 553.411 499.361C553.762 499.361 554.054 499.268 554.288 499.084C554.525 498.897 554.703 498.646 554.821 498.331C554.942 498.014 555.002 497.661 555.002 497.273C555.002 496.889 554.943 496.544 554.825 496.236C554.709 495.926 554.532 495.681 554.295 495.501C554.061 495.318 553.766 495.227 553.411 495.227C553.07 495.227 552.784 495.314 552.552 495.487C552.32 495.657 552.145 495.896 552.026 496.204C551.908 496.509 551.849 496.866 551.849 497.273ZM557.119 502.045V494.545H557.928V495.412H558.028C558.089 495.317 558.174 495.196 558.283 495.05C558.395 494.901 558.553 494.768 558.759 494.652C558.968 494.534 559.249 494.474 559.604 494.474C560.064 494.474 560.469 494.589 560.819 494.819C561.169 495.049 561.443 495.374 561.639 495.795C561.836 496.217 561.934 496.714 561.934 497.287C561.934 497.865 561.836 498.365 561.639 498.789C561.443 499.21 561.17 499.537 560.822 499.769C560.474 499.999 560.073 500.114 559.619 500.114C559.268 500.114 558.988 500.056 558.777 499.94C558.566 499.821 558.404 499.687 558.29 499.538C558.177 499.387 558.089 499.261 558.028 499.162H557.957V502.045H557.119ZM557.942 497.273C557.942 497.685 558.003 498.048 558.124 498.363C558.244 498.675 558.421 498.92 558.653 499.098C558.885 499.273 559.169 499.361 559.505 499.361C559.855 499.361 560.148 499.268 560.382 499.084C560.619 498.897 560.796 498.646 560.915 498.331C561.036 498.014 561.096 497.661 561.096 497.273C561.096 496.889 561.037 496.544 560.918 496.236C560.802 495.926 560.626 495.681 560.389 495.501C560.155 495.318 559.86 495.227 559.505 495.227C559.164 495.227 558.878 495.314 558.646 495.487C558.414 495.657 558.238 495.896 558.12 496.204C558.002 496.509 557.942 496.866 557.942 497.273ZM564.05 492.727V500H563.212V492.727H564.05ZM566.125 502.045C565.983 502.045 565.856 502.034 565.745 502.01C565.634 501.989 565.557 501.967 565.514 501.946L565.727 501.207C565.931 501.259 566.111 501.278 566.267 501.264C566.423 501.25 566.562 501.18 566.683 501.055C566.806 500.932 566.918 500.732 567.02 500.455L567.176 500.028L565.159 494.545H566.068L567.574 498.892H567.631L569.137 494.545H570.046L567.73 500.795C567.626 501.077 567.497 501.31 567.343 501.495C567.189 501.682 567.011 501.821 566.807 501.911C566.606 502 566.378 502.045 566.125 502.045Z" fill="#6B80A4"/>
<rect x="527" y="423" width="134" height="5" rx="2.5" fill="#C8CDD8"/>
<rect x="527" y="432" width="112" height="5" rx="2.5" fill="#C8CDD8"/>
<rect x="527" y="441" width="124" height="5" rx="2.5" fill="#C8CDD8"/>
<rect x="527" y="450" width="74" height="5" rx="2.5" fill="#C8CDD8"/>
<rect x="527" y="403" width="119" height="11" rx="5.5" fill="#C8CDD8"/>
<rect x="527" y="375" width="16" height="16" rx="3" fill="#DDE2EA"/>
<g filter="url(#filter2_d_3123_2190)">
<rect x="325" y="541" width="174" height="175" rx="12.6118" fill="white"/>
<rect x="325.631" y="541.631" width="172.739" height="173.739" rx="11.9812" stroke="#D4D8E2" stroke-width="1.26118"/>
</g>
<rect x="343" y="608" width="134" height="5" rx="2.5" fill="#C8CDD8"/>
<rect x="343" y="617" width="112" height="5" rx="2.5" fill="#C8CDD8"/>
<rect x="343" y="626" width="124" height="5" rx="2.5" fill="#C8CDD8"/>
<rect x="343" y="635" width="74" height="5" rx="2.5" fill="#C8CDD8"/>
<rect x="343" y="588" width="119" height="11" rx="5.5" fill="#C8CDD8"/>
<rect x="343" y="560" width="16" height="16" rx="3" fill="#DDE2EA"/>
<g filter="url(#filter3_d_3123_2190)">
<rect x="509" y="541" width="174" height="175" rx="12.6118" fill="white"/>
<rect x="509.631" y="541.631" width="172.739" height="173.739" rx="11.9812" stroke="#D4D8E2" stroke-width="1.26118"/>
</g>
<rect x="527" y="608" width="134" height="5" rx="2.5" fill="#C8CDD8"/>
<rect x="527" y="617" width="112" height="5" rx="2.5" fill="#C8CDD8"/>
<rect x="527" y="626" width="124" height="5" rx="2.5" fill="#C8CDD8"/>
<rect x="527" y="635" width="74" height="5" rx="2.5" fill="#C8CDD8"/>
<rect x="527" y="588" width="119" height="11" rx="5.5" fill="#C8CDD8"/>
<rect x="527" y="560" width="16" height="16" rx="3" fill="#DDE2EA"/>
<g filter="url(#filter4_d_3123_2190)">
<rect x="171" y="270" width="512.037" height="61.7976" rx="12.6118" fill="white"/>
<rect x="171.631" y="270.631" width="510.776" height="60.5364" rx="11.9812" stroke="#D4D8E2" stroke-width="1.26118"/>
</g>
<path d="M604 292C604 289.239 606.239 287 609 287H659C661.761 287 664 289.239 664 292V310C664 312.761 661.761 315 659 315H609C606.239 315 604 312.761 604 310V292Z" fill="#B0C8F0"/>
<path d="M622.358 299.545C622.315 299.186 622.143 298.906 621.839 298.707C621.536 298.509 621.165 298.409 620.724 298.409C620.402 298.409 620.121 298.461 619.879 298.565C619.64 298.67 619.453 298.813 619.318 298.995C619.186 299.177 619.119 299.384 619.119 299.616C619.119 299.811 619.165 299.978 619.258 300.117C619.353 300.254 619.473 300.369 619.62 300.462C619.767 300.552 619.921 300.626 620.082 300.685C620.243 300.742 620.391 300.788 620.526 300.824L621.264 301.023C621.454 301.072 621.664 301.141 621.896 301.229C622.131 301.316 622.354 301.436 622.567 301.587C622.783 301.737 622.96 301.928 623.1 302.163C623.24 302.397 623.31 302.685 623.31 303.026C623.31 303.419 623.207 303.774 623.001 304.091C622.797 304.408 622.499 304.66 622.106 304.847C621.715 305.034 621.241 305.128 620.682 305.128C620.161 305.128 619.71 305.044 619.329 304.876C618.95 304.708 618.652 304.473 618.434 304.173C618.219 303.872 618.097 303.523 618.068 303.125H618.977C619.001 303.4 619.093 303.627 619.254 303.807C619.418 303.984 619.624 304.117 619.872 304.205C620.123 304.29 620.393 304.332 620.682 304.332C621.018 304.332 621.32 304.278 621.587 304.169C621.855 304.058 622.067 303.904 622.223 303.707C622.379 303.509 622.457 303.277 622.457 303.011C622.457 302.77 622.39 302.573 622.255 302.422C622.12 302.27 621.942 302.147 621.722 302.053C621.502 301.958 621.264 301.875 621.009 301.804L620.114 301.548C619.545 301.385 619.096 301.152 618.764 300.849C618.433 300.546 618.267 300.149 618.267 299.659C618.267 299.252 618.377 298.897 618.597 298.594C618.82 298.288 619.118 298.052 619.492 297.884C619.869 297.713 620.289 297.628 620.753 297.628C621.222 297.628 621.638 297.712 622.003 297.88C622.367 298.046 622.656 298.273 622.869 298.562C623.085 298.851 623.198 299.179 623.21 299.545H622.358ZM626.931 305.114C626.405 305.114 625.952 304.998 625.571 304.766C625.192 304.531 624.9 304.205 624.694 303.786C624.49 303.364 624.388 302.874 624.388 302.315C624.388 301.757 624.49 301.264 624.694 300.838C624.9 300.41 625.186 300.076 625.553 299.837C625.922 299.595 626.353 299.474 626.846 299.474C627.13 299.474 627.41 299.522 627.687 299.616C627.964 299.711 628.216 299.865 628.444 300.078C628.671 300.289 628.852 300.568 628.987 300.916C629.122 301.264 629.189 301.693 629.189 302.202V302.557H624.985V301.832H628.337C628.337 301.525 628.276 301.25 628.153 301.009C628.032 300.767 627.859 300.576 627.634 300.437C627.412 300.297 627.149 300.227 626.846 300.227C626.512 300.227 626.223 300.31 625.979 300.476C625.738 300.639 625.552 300.852 625.422 301.115C625.291 301.378 625.226 301.66 625.226 301.96V302.443C625.226 302.855 625.297 303.204 625.439 303.491C625.584 303.775 625.784 303.991 626.04 304.141C626.295 304.287 626.592 304.361 626.931 304.361C627.151 304.361 627.35 304.33 627.528 304.268C627.707 304.205 627.863 304.11 627.993 303.984C628.123 303.857 628.224 303.698 628.295 303.509L629.104 303.736C629.019 304.01 628.876 304.252 628.675 304.46C628.473 304.666 628.225 304.827 627.929 304.943C627.633 305.057 627.3 305.114 626.931 305.114ZM632.069 305.128C631.724 305.128 631.41 305.063 631.128 304.933C630.847 304.8 630.623 304.609 630.457 304.361C630.291 304.11 630.209 303.807 630.209 303.452C630.209 303.139 630.27 302.886 630.393 302.692C630.516 302.495 630.681 302.341 630.887 302.23C631.093 302.119 631.32 302.036 631.569 301.982C631.82 301.925 632.072 301.88 632.325 301.847C632.657 301.804 632.925 301.772 633.131 301.751C633.34 301.727 633.491 301.688 633.586 301.634C633.683 301.579 633.731 301.484 633.731 301.349V301.321C633.731 300.971 633.635 300.698 633.444 300.504C633.254 300.31 632.967 300.213 632.581 300.213C632.181 300.213 631.867 300.301 631.64 300.476C631.412 300.651 631.253 300.838 631.16 301.037L630.365 300.753C630.507 300.421 630.696 300.163 630.933 299.979C631.172 299.792 631.433 299.661 631.714 299.588C631.998 299.512 632.278 299.474 632.552 299.474C632.728 299.474 632.929 299.496 633.156 299.538C633.386 299.579 633.607 299.663 633.82 299.79C634.036 299.918 634.214 300.111 634.356 300.369C634.498 300.627 634.569 300.973 634.569 301.406V305H633.731V304.261H633.689C633.632 304.38 633.537 304.506 633.405 304.641C633.272 304.776 633.096 304.891 632.876 304.986C632.655 305.08 632.387 305.128 632.069 305.128ZM632.197 304.375C632.529 304.375 632.808 304.31 633.035 304.18C633.265 304.049 633.438 303.881 633.554 303.675C633.672 303.469 633.731 303.253 633.731 303.026V302.259C633.696 302.301 633.618 302.34 633.497 302.376C633.379 302.409 633.241 302.438 633.085 302.464C632.931 302.488 632.781 302.509 632.634 302.528C632.49 302.545 632.372 302.559 632.282 302.571C632.065 302.599 631.861 302.646 631.672 302.71C631.485 302.771 631.333 302.865 631.217 302.99C631.104 303.113 631.047 303.281 631.047 303.494C631.047 303.786 631.154 304.006 631.37 304.155C631.588 304.302 631.863 304.375 632.197 304.375ZM636.099 305V299.545H636.909V300.369H636.966C637.065 300.099 637.245 299.88 637.505 299.712C637.766 299.544 638.059 299.46 638.386 299.46C638.448 299.46 638.525 299.461 638.617 299.464C638.709 299.466 638.779 299.47 638.826 299.474V300.327C638.798 300.32 638.733 300.309 638.631 300.295C638.532 300.278 638.426 300.27 638.315 300.27C638.05 300.27 637.813 300.326 637.605 300.437C637.399 300.546 637.235 300.697 637.115 300.891C636.996 301.083 636.937 301.302 636.937 301.548V305H636.099ZM641.87 305.114C641.358 305.114 640.918 304.993 640.549 304.751C640.179 304.51 639.895 304.177 639.696 303.754C639.498 303.33 639.398 302.846 639.398 302.301C639.398 301.747 639.5 301.258 639.703 300.835C639.909 300.408 640.196 300.076 640.563 299.837C640.932 299.595 641.363 299.474 641.855 299.474C642.239 299.474 642.585 299.545 642.892 299.688C643.2 299.83 643.452 300.028 643.649 300.284C643.845 300.54 643.967 300.838 644.015 301.179H643.176C643.113 300.93 642.971 300.71 642.75 300.518C642.533 300.324 642.239 300.227 641.87 300.227C641.543 300.227 641.257 300.312 641.01 300.483C640.766 300.651 640.576 300.889 640.439 301.197C640.304 301.502 640.236 301.861 640.236 302.273C640.236 302.694 640.302 303.061 640.435 303.374C640.57 303.686 640.759 303.929 641.003 304.102C641.249 304.274 641.538 304.361 641.87 304.361C642.087 304.361 642.285 304.323 642.463 304.247C642.64 304.171 642.791 304.062 642.914 303.92C643.037 303.778 643.124 303.608 643.176 303.409H644.015C643.967 303.731 643.85 304.021 643.663 304.279C643.478 304.535 643.233 304.738 642.928 304.89C642.625 305.039 642.272 305.114 641.87 305.114ZM646.078 301.719V305H645.24V297.727H646.078V300.398H646.149C646.277 300.116 646.468 299.892 646.724 299.727C646.982 299.558 647.325 299.474 647.754 299.474C648.126 299.474 648.451 299.549 648.73 299.698C649.01 299.845 649.226 300.071 649.38 300.376C649.537 300.679 649.615 301.065 649.615 301.534V305H648.777V301.591C648.777 301.158 648.664 300.823 648.439 300.586C648.217 300.347 647.908 300.227 647.512 300.227C647.238 300.227 646.992 300.285 646.774 300.401C646.558 300.517 646.388 300.687 646.262 300.909C646.139 301.132 646.078 301.402 646.078 301.719Z" fill="#6B80A4"/>
<rect x="187.395" y="292.701" width="68.1035" height="6.30588" rx="3.15294" fill="#C8CDD8"/>
<rect x="345.043" y="292.701" width="68.1035" height="6.30588" rx="3.15294" fill="#C8CDD8"/>
<rect x="187.395" y="304.052" width="94.5882" height="5.0447" rx="2.52235" fill="#C8CDD8"/>
<rect x="345.043" y="304.052" width="94.5882" height="5.0447" rx="2.52235" fill="#C8CDD8"/>
<line x1="334.322" y1="286.395" x2="334.322" y2="316.663" stroke="#D4D8E2" stroke-width="1.26118"/>
<rect x="265.854" y="135" width="323.122" height="15.1463" rx="7.57317" fill="#C8CDD8"/>
<rect x="238.926" y="161.585" width="376.976" height="8.41463" rx="4.20732" fill="#C8CDD8"/>
<circle cx="396.5" cy="212.5" r="19.5" fill="#C8CDD8"/>
<circle cx="427.5" cy="212.5" r="19" fill="#C8CDD8" stroke="#F2F4F8"/>
<circle cx="458.5" cy="212.5" r="19" fill="#C8CDD8" stroke="#F2F4F8"/>
<rect x="171" y="356" width="71" height="8" rx="4" fill="#C8CDD8"/>
<rect x="283" y="356" width="22" height="8" rx="4" fill="#C8CDD8"/>
<g filter="url(#filter5_d_3123_2190)">
<rect x="171" y="376" width="134" height="29" rx="6.61" fill="white"/>
<rect x="171.631" y="376.631" width="132.739" height="27.7388" rx="5.97941" stroke="#D4D8E2" stroke-width="1.26118"/>
</g>
<rect x="286" y="386" width="10" height="10" rx="3" fill="#DDE2EA"/>
<rect x="181" y="388" width="50" height="5" rx="2.5" fill="#C8CDD8"/>
<rect x="171" y="437" width="55" height="8" rx="4" fill="#C8CDD8"/>
<rect x="171" y="457" width="79" height="8" rx="4" fill="#C8CDD8"/>
<rect x="283" y="457" width="22" height="8" rx="4" fill="#C8CDD8"/>
<rect x="171" y="477" width="64" height="8" rx="4" fill="#C8CDD8"/>
<rect x="283" y="477" width="22" height="8" rx="4" fill="#C8CDD8"/>
<rect x="171" y="497" width="93" height="8" rx="4" fill="#C8CDD8"/>
<rect x="283" y="497" width="22" height="8" rx="4" fill="#C8CDD8"/>
<rect x="171" y="517" width="38" height="8" rx="4" fill="#C8CDD8"/>
<rect x="283" y="517" width="22" height="8" rx="4" fill="#C8CDD8"/>
<rect x="171" y="557" width="60" height="8" rx="4" fill="#C8CDD8"/>
<rect x="171" y="577" width="79" height="8" rx="4" fill="#C8CDD8"/>
<rect x="283" y="577" width="22" height="8" rx="4" fill="#C8CDD8"/>
<rect x="171" y="597" width="64" height="8" rx="4" fill="#C8CDD8"/>
<rect x="283" y="597" width="22" height="8" rx="4" fill="#C8CDD8"/>
<rect x="171" y="617" width="93" height="8" rx="4" fill="#C8CDD8"/>
<rect x="283" y="617" width="22" height="8" rx="4" fill="#C8CDD8"/>
<rect x="171" y="637" width="38" height="8" rx="4" fill="#C8CDD8"/>
<rect x="283" y="637" width="22" height="8" rx="4" fill="#C8CDD8"/>
<path d="M768 57C768 54.2386 770.239 52 773 52H823C825.761 52 828 54.2386 828 57V75C828 77.7614 825.761 80 823 80H773C770.239 80 768 77.7614 768 75V57Z" fill="#B0C8F0"/>
<path d="M779.381 70V62.7273H781.838C782.406 62.7273 782.873 62.8243 783.237 63.0185C783.602 63.2102 783.872 63.4742 784.047 63.8104C784.222 64.1465 784.31 64.5289 784.31 64.9574C784.31 65.3859 784.222 65.7659 784.047 66.0973C783.872 66.4287 783.603 66.6892 783.241 66.8786C782.879 67.0656 782.416 67.1591 781.852 67.1591H779.864V66.3636H781.824C782.212 66.3636 782.525 66.3068 782.761 66.1932C783 66.0795 783.173 65.9186 783.28 65.7102C783.389 65.4995 783.443 65.2486 783.443 64.9574C783.443 64.6662 783.389 64.4117 783.28 64.1939C783.171 63.9761 782.997 63.808 782.758 63.6896C782.519 63.5689 782.203 63.5085 781.81 63.5085H780.261V70H779.381ZM782.804 66.733L784.594 70H783.571L781.81 66.733H782.804ZM787.892 70.1136C787.366 70.1136 786.913 69.9976 786.532 69.7656C786.153 69.5312 785.861 69.2045 785.655 68.7855C785.451 68.3641 785.349 67.8741 785.349 67.3153C785.349 66.7566 785.451 66.2642 785.655 65.8381C785.861 65.4096 786.147 65.0758 786.514 64.8366C786.883 64.5952 787.314 64.4744 787.807 64.4744C788.091 64.4744 788.371 64.5218 788.648 64.6165C788.925 64.7112 789.177 64.8651 789.405 65.0781C789.632 65.2888 789.813 65.5682 789.948 65.9162C790.083 66.2642 790.15 66.6927 790.15 67.2017V67.5568H785.946V66.8324H789.298C789.298 66.5246 789.237 66.25 789.113 66.0085C788.993 65.767 788.82 65.5765 788.595 65.4368C788.372 65.2971 788.11 65.2273 787.807 65.2273C787.473 65.2273 787.184 65.3101 786.94 65.4759C786.699 65.6392 786.513 65.8523 786.383 66.1151C786.252 66.3778 786.187 66.6596 786.187 66.9602V67.4432C786.187 67.8551 786.258 68.2043 786.4 68.4908C786.545 68.7749 786.745 68.9915 787.001 69.1406C787.256 69.2874 787.553 69.3608 787.892 69.3608C788.112 69.3608 788.311 69.33 788.488 69.2685C788.668 69.2045 788.823 69.1098 788.954 68.9844C789.084 68.8565 789.184 68.6979 789.256 68.5085L790.065 68.7358C789.98 69.0104 789.837 69.2519 789.635 69.4602C789.434 69.6662 789.186 69.8272 788.89 69.9432C788.594 70.0568 788.261 70.1136 787.892 70.1136ZM793.627 72.1591C793.222 72.1591 792.874 72.107 792.583 72.0028C792.292 71.901 792.049 71.7661 791.855 71.598C791.663 71.4323 791.51 71.2547 791.397 71.0653L792.064 70.5966C792.14 70.696 792.236 70.8097 792.352 70.9375C792.468 71.0677 792.627 71.1802 792.828 71.2749C793.032 71.3719 793.298 71.4205 793.627 71.4205C794.067 71.4205 794.431 71.3139 794.717 71.1009C795.004 70.8878 795.147 70.554 795.147 70.0994V68.9915H795.076C795.014 69.0909 794.927 69.214 794.813 69.3608C794.702 69.5052 794.541 69.6342 794.33 69.7479C794.122 69.8591 793.84 69.9148 793.485 69.9148C793.045 69.9148 792.649 69.8106 792.299 69.6023C791.951 69.3939 791.675 69.0909 791.471 68.6932C791.27 68.2955 791.17 67.8125 791.17 67.2443C791.17 66.6856 791.268 66.1991 791.464 65.7848C791.661 65.3681 791.934 65.0462 792.285 64.8189C792.635 64.5893 793.04 64.4744 793.499 64.4744C793.854 64.4744 794.136 64.5336 794.344 64.652C794.555 64.768 794.716 64.9006 794.827 65.0497C794.941 65.1965 795.028 65.3172 795.09 65.4119H795.175V64.5455H795.985V70.1562C795.985 70.625 795.878 71.0062 795.665 71.2997C795.455 71.5956 795.171 71.8123 794.813 71.9496C794.458 72.0893 794.063 72.1591 793.627 72.1591ZM793.599 69.1619C793.935 69.1619 794.219 69.085 794.451 68.9311C794.683 68.7772 794.859 68.5559 794.98 68.267C795.101 67.9782 795.161 67.6326 795.161 67.2301C795.161 66.8371 795.102 66.4903 794.983 66.1896C794.865 65.889 794.69 65.6534 794.458 65.483C794.226 65.3125 793.939 65.2273 793.599 65.2273C793.243 65.2273 792.948 65.3172 792.711 65.4972C792.476 65.6771 792.3 65.9186 792.182 66.2216C792.066 66.5246 792.008 66.8608 792.008 67.2301C792.008 67.6089 792.067 67.9439 792.185 68.2351C792.306 68.5239 792.483 68.7512 792.718 68.9169C792.955 69.0803 793.248 69.1619 793.599 69.1619ZM797.519 70V64.5455H798.357V70H797.519ZM797.945 63.6364C797.782 63.6364 797.641 63.5807 797.523 63.4695C797.407 63.3582 797.349 63.2244 797.349 63.0682C797.349 62.9119 797.407 62.7782 797.523 62.6669C797.641 62.5556 797.782 62.5 797.945 62.5C798.108 62.5 798.248 62.5556 798.364 62.6669C798.483 62.7782 798.542 62.9119 798.542 63.0682C798.542 63.2244 798.483 63.3582 798.364 63.4695C798.248 63.5807 798.108 63.6364 797.945 63.6364ZM803.756 65.767L803.003 65.9801C802.955 65.8546 802.886 65.7327 802.793 65.6143C802.703 65.4936 802.58 65.3942 802.424 65.3161C802.268 65.2379 802.068 65.1989 801.824 65.1989C801.49 65.1989 801.212 65.2758 800.989 65.4297C800.769 65.5812 800.659 65.7741 800.659 66.0085C800.659 66.2169 800.735 66.3814 800.886 66.5021C801.038 66.6229 801.275 66.7235 801.597 66.804L802.406 67.0028C802.894 67.1212 803.257 67.3023 803.496 67.5462C803.736 67.7876 803.855 68.099 803.855 68.4801C803.855 68.7926 803.765 69.072 803.585 69.3182C803.408 69.5644 803.159 69.7585 802.839 69.9006C802.52 70.0426 802.148 70.1136 801.724 70.1136C801.168 70.1136 800.708 69.9929 800.343 69.7514C799.978 69.5099 799.748 69.1572 799.651 68.6932L800.446 68.4943C800.522 68.7879 800.665 69.008 800.876 69.1548C801.089 69.3016 801.367 69.375 801.71 69.375C802.101 69.375 802.411 69.2921 802.641 69.1264C802.873 68.9583 802.989 68.7571 802.989 68.5227C802.989 68.3333 802.922 68.1747 802.79 68.0469C802.657 67.9167 802.454 67.8196 802.179 67.7557L801.27 67.5426C800.77 67.4242 800.403 67.2408 800.169 66.9922C799.937 66.7412 799.821 66.4276 799.821 66.0511C799.821 65.7434 799.907 65.4711 800.08 65.2344C800.255 64.9976 800.493 64.8118 800.794 64.6768C801.097 64.5419 801.44 64.4744 801.824 64.4744C802.364 64.4744 802.787 64.5928 803.095 64.8295C803.405 65.0663 803.625 65.3788 803.756 65.767ZM807.489 64.5455V65.2557H804.662V64.5455H807.489ZM805.486 63.2386H806.324V68.4375C806.324 68.6742 806.358 68.8518 806.427 68.9702C806.498 69.0862 806.588 69.1643 806.697 69.2045C806.808 69.2424 806.925 69.2614 807.048 69.2614C807.141 69.2614 807.217 69.2566 807.276 69.2472C807.335 69.2353 807.382 69.2259 807.418 69.2188L807.588 69.9716C807.531 69.9929 807.452 70.0142 807.35 70.0355C807.249 70.0592 807.119 70.071 806.963 70.071C806.727 70.071 806.494 70.0201 806.267 69.9183C806.042 69.8165 805.855 69.6615 805.706 69.4531C805.559 69.2448 805.486 68.982 805.486 68.6648V63.2386ZM810.978 70.1136C810.452 70.1136 809.999 69.9976 809.618 69.7656C809.239 69.5312 808.947 69.2045 808.741 68.7855C808.537 68.3641 808.435 67.8741 808.435 67.3153C808.435 66.7566 808.537 66.2642 808.741 65.8381C808.947 65.4096 809.233 65.0758 809.6 64.8366C809.969 64.5952 810.4 64.4744 810.893 64.4744C811.177 64.4744 811.457 64.5218 811.734 64.6165C812.011 64.7112 812.263 64.8651 812.491 65.0781C812.718 65.2888 812.899 65.5682 813.034 65.9162C813.169 66.2642 813.236 66.6927 813.236 67.2017V67.5568H809.032V66.8324H812.384C812.384 66.5246 812.323 66.25 812.199 66.0085C812.079 65.767 811.906 65.5765 811.681 65.4368C811.458 65.2971 811.196 65.2273 810.893 65.2273C810.559 65.2273 810.27 65.3101 810.026 65.4759C809.785 65.6392 809.599 65.8523 809.469 66.1151C809.338 66.3778 809.273 66.6596 809.273 66.9602V67.4432C809.273 67.8551 809.344 68.2043 809.486 68.4908C809.631 68.7749 809.831 68.9915 810.086 69.1406C810.342 69.2874 810.639 69.3608 810.978 69.3608C811.198 69.3608 811.397 69.33 811.574 69.2685C811.754 69.2045 811.909 69.1098 812.04 68.9844C812.17 68.8565 812.27 68.6979 812.341 68.5085L813.151 68.7358C813.066 69.0104 812.923 69.2519 812.721 69.4602C812.52 69.6662 812.272 69.8272 811.976 69.9432C811.68 70.0568 811.347 70.1136 810.978 70.1136ZM814.511 70V64.5455H815.321V65.3693H815.378C815.477 65.0994 815.657 64.8804 815.917 64.7124C816.178 64.5443 816.471 64.4602 816.798 64.4602C816.86 64.4602 816.937 64.4614 817.029 64.4638C817.121 64.4661 817.191 64.4697 817.238 64.4744V65.3267C817.21 65.3196 817.145 65.3089 817.043 65.2947C816.944 65.2782 816.838 65.2699 816.727 65.2699C816.462 65.2699 816.225 65.3255 816.017 65.4368C815.811 65.5457 815.648 65.6972 815.527 65.8913C815.408 66.0831 815.349 66.3021 815.349 66.5483V70H814.511Z" fill="#6B80A4"/>
<rect x="724" y="64" width="28" height="5" rx="2.5" fill="#C8CDD8"/>
<rect x="693" y="58" width="16" height="16" rx="3" fill="#DDE2EA"/>
<rect x="321" y="64" width="32" height="5" rx="2.5" fill="#C8CDD8"/>
<rect x="377" y="64" width="40" height="5" rx="2.5" fill="#C8CDD8"/>
<rect x="441" y="64" width="36" height="5" rx="2.5" fill="#C8CDD8"/>
<rect x="501" y="64" width="28" height="5" rx="2.5" fill="#C8CDD8"/>
<rect x="27" y="55" width="22" height="22" rx="3" fill="#DDE2EA"/>
<rect x="57" y="62.5" width="52" height="7" rx="3.5" fill="#C8CDD8"/>
<rect x="791" y="14" width="20" height="16" rx="4" fill="#C8CDD8"/>
<rect x="817" y="14" width="20" height="16" rx="4" fill="#C8CDD8"/>
<rect x="88.5" y="12.5" width="676" height="19" rx="9.5" fill="#F2F4F8" stroke="#D4D8E2"/>
<circle cx="103" cy="22" r="4" fill="#D4D8E2"/>
<rect x="113" y="16" width="212" height="12" rx="6" fill="#D4D8E2"/>
<circle cx="21" cy="22" r="5" fill="#C8CDD8"/>
<circle cx="39" cy="22" r="5" fill="#C8CDD8"/>
<circle cx="57" cy="22" r="5" fill="#C8CDD8"/>
<g filter="url(#filter6_d_3123_2190)">
<rect x="719" y="290" width="92" height="21" rx="10.5" fill="#45B374" shape-rendering="crispEdges"/>
<path d="M736.789 299.174C736.755 298.871 736.614 298.637 736.367 298.471C736.12 298.303 735.809 298.218 735.434 298.218C735.165 298.218 734.933 298.261 734.737 298.346C734.541 298.429 734.389 298.544 734.28 298.691C734.174 298.836 734.12 299.001 734.12 299.187C734.12 299.342 734.157 299.477 734.229 299.589C734.304 299.702 734.401 299.797 734.52 299.874C734.641 299.949 734.771 300.011 734.91 300.062C735.048 300.112 735.181 300.152 735.309 300.184L735.949 300.35C736.157 300.401 736.371 300.471 736.591 300.558C736.81 300.645 737.014 300.76 737.201 300.903C737.389 301.046 737.54 301.223 737.655 301.434C737.772 301.645 737.831 301.897 737.831 302.191C737.831 302.562 737.735 302.891 737.543 303.179C737.354 303.466 737.078 303.693 736.716 303.859C736.355 304.026 735.92 304.109 735.408 304.109C734.918 304.109 734.494 304.031 734.136 303.875C733.778 303.72 733.498 303.499 733.296 303.214C733.093 302.926 732.982 302.585 732.96 302.191H733.951C733.97 302.428 734.047 302.625 734.181 302.782C734.317 302.938 734.491 303.054 734.702 303.131C734.915 303.205 735.148 303.243 735.402 303.243C735.681 303.243 735.929 303.199 736.147 303.112C736.366 303.022 736.539 302.898 736.664 302.741C736.79 302.581 736.853 302.395 736.853 302.181C736.853 301.988 736.798 301.829 736.687 301.705C736.578 301.582 736.43 301.479 736.243 301.398C736.057 301.317 735.847 301.246 735.613 301.184L734.839 300.973C734.315 300.831 733.9 300.621 733.593 300.344C733.288 300.067 733.136 299.7 733.136 299.244C733.136 298.867 733.238 298.538 733.443 298.257C733.647 297.975 733.924 297.757 734.274 297.602C734.623 297.444 735.017 297.365 735.456 297.365C735.9 297.365 736.29 297.443 736.629 297.598C736.97 297.754 737.239 297.968 737.435 298.241C737.631 298.511 737.733 298.822 737.741 299.174H736.789ZM741.05 304.099C740.566 304.099 740.15 303.996 739.801 303.789C739.453 303.58 739.185 303.287 738.995 302.91C738.808 302.531 738.714 302.087 738.714 301.577C738.714 301.075 738.808 300.631 738.995 300.248C739.185 299.864 739.449 299.565 739.788 299.35C740.129 299.135 740.527 299.027 740.983 299.027C741.26 299.027 741.528 299.073 741.788 299.164C742.048 299.256 742.282 299.4 742.488 299.596C742.695 299.792 742.858 300.047 742.977 300.36C743.097 300.671 743.156 301.049 743.156 301.494V301.833H739.254V301.117H742.22C742.22 300.866 742.169 300.643 742.066 300.449C741.964 300.253 741.82 300.099 741.635 299.986C741.452 299.873 741.237 299.816 740.989 299.816C740.721 299.816 740.487 299.882 740.286 300.015C740.088 300.145 739.935 300.315 739.826 300.526C739.72 300.735 739.666 300.962 739.666 301.207V301.766C739.666 302.094 739.724 302.373 739.839 302.603C739.956 302.833 740.119 303.009 740.328 303.131C740.537 303.25 740.781 303.31 741.06 303.31C741.241 303.31 741.406 303.284 741.555 303.233C741.704 303.18 741.833 303.101 741.942 302.996C742.051 302.892 742.134 302.763 742.191 302.61L743.096 302.773C743.023 303.039 742.893 303.272 742.706 303.473C742.52 303.671 742.287 303.825 742.006 303.936C741.727 304.045 741.408 304.099 741.05 304.099ZM745.645 304.109C745.334 304.109 745.053 304.051 744.801 303.936C744.55 303.819 744.351 303.65 744.204 303.428C744.059 303.206 743.987 302.935 743.987 302.613C743.987 302.336 744.04 302.108 744.146 301.929C744.253 301.75 744.397 301.608 744.578 301.504C744.759 301.4 744.961 301.321 745.185 301.267C745.409 301.214 745.637 301.174 745.869 301.146C746.163 301.112 746.402 301.084 746.585 301.063C746.768 301.039 746.901 301.002 746.984 300.951C747.067 300.9 747.109 300.817 747.109 300.702V300.679C747.109 300.4 747.03 300.184 746.873 300.031C746.717 299.877 746.485 299.8 746.176 299.8C745.854 299.8 745.6 299.872 745.415 300.015C745.232 300.155 745.105 300.312 745.035 300.484L744.137 300.28C744.243 299.982 744.399 299.741 744.603 299.558C744.81 299.372 745.048 299.238 745.316 299.155C745.585 299.07 745.867 299.027 746.163 299.027C746.359 299.027 746.567 299.05 746.786 299.097C747.008 299.142 747.214 299.225 747.406 299.347C747.6 299.468 747.759 299.642 747.882 299.868C748.006 300.091 748.068 300.382 748.068 300.74V304H747.135V303.329H747.096C747.034 303.452 746.942 303.574 746.818 303.693C746.695 303.812 746.536 303.912 746.342 303.99C746.148 304.069 745.916 304.109 745.645 304.109ZM745.853 303.342C746.117 303.342 746.343 303.289 746.531 303.185C746.72 303.081 746.864 302.944 746.962 302.776C747.062 302.605 747.112 302.423 747.112 302.229V301.597C747.078 301.631 747.012 301.663 746.914 301.692C746.818 301.72 746.708 301.745 746.585 301.766C746.461 301.785 746.341 301.803 746.224 301.82C746.107 301.835 746.009 301.848 745.93 301.859C745.744 301.882 745.575 301.922 745.422 301.977C745.27 302.032 745.149 302.112 745.057 302.217C744.968 302.319 744.923 302.455 744.923 302.626C744.923 302.862 745.01 303.041 745.185 303.163C745.36 303.282 745.582 303.342 745.853 303.342ZM749.341 304V299.091H750.264V299.871H750.315C750.405 299.607 750.563 299.399 750.788 299.248C751.016 299.094 751.274 299.017 751.562 299.017C751.622 299.017 751.692 299.02 751.773 299.024C751.856 299.028 751.921 299.033 751.968 299.04V299.954C751.929 299.943 751.861 299.931 751.763 299.919C751.665 299.904 751.567 299.896 751.469 299.896C751.243 299.896 751.042 299.944 750.865 300.04C750.69 300.134 750.552 300.265 750.45 300.433C750.347 300.599 750.296 300.789 750.296 301.002V304H749.341ZM754.687 304.099C754.212 304.099 753.803 303.991 753.46 303.776C753.119 303.559 752.857 303.26 752.673 302.878C752.49 302.497 752.398 302.06 752.398 301.568C752.398 301.069 752.492 300.629 752.68 300.248C752.867 299.864 753.131 299.565 753.472 299.35C753.813 299.135 754.215 299.027 754.677 299.027C755.05 299.027 755.382 299.096 755.674 299.235C755.966 299.371 756.202 299.563 756.381 299.81C756.562 300.057 756.669 300.346 756.703 300.676H755.773C755.722 300.446 755.605 300.248 755.422 300.082C755.241 299.915 754.998 299.832 754.693 299.832C754.427 299.832 754.194 299.903 753.993 300.043C753.795 300.182 753.641 300.38 753.53 300.638C753.419 300.893 753.364 301.196 753.364 301.545C753.364 301.903 753.418 302.212 753.527 302.472C753.635 302.732 753.789 302.934 753.987 303.076C754.187 303.219 754.423 303.29 754.693 303.29C754.874 303.29 755.038 303.257 755.185 303.191C755.335 303.123 755.459 303.026 755.559 302.901C755.662 302.775 755.733 302.624 755.773 302.447H756.703C756.669 302.764 756.566 303.048 756.393 303.297C756.221 303.546 755.99 303.742 755.7 303.885C755.412 304.028 755.075 304.099 754.687 304.099ZM758.681 301.085V304H757.725V297.455H758.668V299.89H758.729C758.844 299.626 759.02 299.416 759.256 299.26C759.493 299.105 759.802 299.027 760.183 299.027C760.52 299.027 760.814 299.096 761.065 299.235C761.319 299.373 761.515 299.58 761.653 299.855C761.794 300.127 761.864 300.468 761.864 300.877V304H760.909V300.993C760.909 300.632 760.816 300.353 760.631 300.155C760.445 299.955 760.187 299.855 759.857 299.855C759.631 299.855 759.429 299.903 759.25 299.999C759.073 300.094 758.934 300.235 758.831 300.42C758.731 300.604 758.681 300.825 758.681 301.085ZM765.521 304V299.091H766.439V299.89H766.499C766.602 299.619 766.769 299.408 767.001 299.257C767.233 299.104 767.511 299.027 767.835 299.027C768.163 299.027 768.438 299.104 768.66 299.257C768.884 299.411 769.049 299.621 769.155 299.89H769.206C769.324 299.628 769.51 299.419 769.766 299.263C770.021 299.106 770.326 299.027 770.68 299.027C771.125 299.027 771.488 299.167 771.77 299.446C772.053 299.725 772.195 300.146 772.195 300.708V304H771.239V300.798C771.239 300.465 771.148 300.224 770.967 300.075C770.786 299.926 770.57 299.852 770.319 299.852C770.007 299.852 769.766 299.947 769.593 300.139C769.42 300.329 769.334 300.573 769.334 300.871V304H768.382V300.737C768.382 300.471 768.299 300.256 768.132 300.094C767.966 299.933 767.75 299.852 767.484 299.852C767.303 299.852 767.135 299.9 766.982 299.995C766.831 300.089 766.708 300.22 766.614 300.388C766.523 300.557 766.477 300.752 766.477 300.973V304H765.521ZM775.543 304.099C775.083 304.099 774.681 303.994 774.338 303.783C773.995 303.572 773.729 303.277 773.539 302.897C773.35 302.518 773.255 302.075 773.255 301.568C773.255 301.059 773.35 300.613 773.539 300.232C773.729 299.85 773.995 299.554 774.338 299.343C774.681 299.132 775.083 299.027 775.543 299.027C776.003 299.027 776.405 299.132 776.748 299.343C777.091 299.554 777.358 299.85 777.547 300.232C777.737 300.613 777.832 301.059 777.832 301.568C777.832 302.075 777.737 302.518 777.547 302.897C777.358 303.277 777.091 303.572 776.748 303.783C776.405 303.994 776.003 304.099 775.543 304.099ZM775.546 303.297C775.845 303.297 776.092 303.218 776.288 303.06C776.484 302.903 776.629 302.693 776.723 302.431C776.818 302.169 776.866 301.88 776.866 301.565C776.866 301.251 776.818 300.964 776.723 300.702C776.629 300.437 776.484 300.225 776.288 300.066C776.092 299.906 775.845 299.826 775.546 299.826C775.246 299.826 774.997 299.906 774.799 300.066C774.603 300.225 774.457 300.437 774.361 300.702C774.267 300.964 774.22 301.251 774.22 301.565C774.22 301.88 774.267 302.169 774.361 302.431C774.457 302.693 774.603 302.903 774.799 303.06C774.997 303.218 775.246 303.297 775.546 303.297ZM780.736 304.096C780.34 304.096 779.986 303.995 779.675 303.792C779.366 303.588 779.123 303.297 778.946 302.92C778.771 302.54 778.684 302.086 778.684 301.555C778.684 301.025 778.773 300.571 778.949 300.194C779.128 299.816 779.373 299.528 779.684 299.327C779.996 299.127 780.348 299.027 780.742 299.027C781.047 299.027 781.292 299.078 781.477 299.18C781.665 299.281 781.81 299.398 781.912 299.532C782.017 299.666 782.097 299.784 782.155 299.887H782.213V297.455H783.168V304H782.235V303.236H782.155C782.097 303.341 782.014 303.46 781.906 303.594C781.799 303.728 781.652 303.846 781.465 303.946C781.277 304.046 781.034 304.096 780.736 304.096ZM780.947 303.281C781.222 303.281 781.454 303.208 781.644 303.064C781.835 302.917 781.98 302.713 782.078 302.453C782.178 302.193 782.229 301.891 782.229 301.545C782.229 301.205 782.18 300.906 782.081 300.651C781.983 300.395 781.84 300.196 781.65 300.053C781.46 299.91 781.226 299.839 780.947 299.839C780.659 299.839 780.42 299.913 780.228 300.062C780.036 300.212 779.891 300.415 779.793 300.673C779.697 300.931 779.649 301.222 779.649 301.545C779.649 301.874 779.698 302.169 779.796 302.431C779.894 302.693 780.039 302.901 780.231 303.054C780.425 303.205 780.664 303.281 780.947 303.281ZM787.642 301.964V299.091H788.601V304H787.661V303.15H787.61C787.497 303.412 787.316 303.63 787.066 303.805C786.819 303.978 786.511 304.064 786.143 304.064C785.828 304.064 785.548 303.995 785.305 303.856C785.065 303.716 784.875 303.508 784.737 303.233C784.6 302.958 784.532 302.618 784.532 302.213V299.091H785.488V302.098C785.488 302.433 785.58 302.699 785.766 302.897C785.951 303.096 786.192 303.195 786.488 303.195C786.667 303.195 786.845 303.15 787.022 303.06C787.201 302.971 787.349 302.836 787.466 302.654C787.585 302.473 787.644 302.243 787.642 301.964ZM790.84 297.455V304H789.885V297.455H790.84ZM794.242 304.099C793.758 304.099 793.341 303.996 792.992 303.789C792.645 303.58 792.376 303.287 792.187 302.91C791.999 302.531 791.905 302.087 791.905 301.577C791.905 301.075 791.999 300.631 792.187 300.248C792.376 299.864 792.64 299.565 792.979 299.35C793.32 299.135 793.718 299.027 794.174 299.027C794.451 299.027 794.72 299.073 794.98 299.164C795.24 299.256 795.473 299.4 795.68 299.596C795.886 299.792 796.049 300.047 796.169 300.36C796.288 300.671 796.348 301.049 796.348 301.494V301.833H792.445V301.117H795.411C795.411 300.866 795.36 300.643 795.258 300.449C795.156 300.253 795.012 300.099 794.826 299.986C794.643 299.873 794.428 299.816 794.181 299.816C793.912 299.816 793.678 299.882 793.478 300.015C793.28 300.145 793.126 300.315 793.017 300.526C792.911 300.735 792.858 300.962 792.858 301.207V301.766C792.858 302.094 792.915 302.373 793.03 302.603C793.147 302.833 793.31 303.009 793.519 303.131C793.728 303.25 793.972 303.31 794.251 303.31C794.432 303.31 794.597 303.284 794.747 303.233C794.896 303.18 795.025 303.101 795.133 302.996C795.242 302.892 795.325 302.763 795.383 302.61L796.287 302.773C796.215 303.039 796.085 303.272 795.897 303.473C795.712 303.671 795.478 303.825 795.197 303.936C794.918 304.045 794.6 304.099 794.242 304.099Z" fill="white"/>
</g>
<g filter="url(#filter7_d_3123_2190)">
<rect x="698" y="621" width="92" height="21" rx="10.5" fill="#45B374" shape-rendering="crispEdges"/>
<path d="M722.263 628.455H723.248V633.095C723.248 633.515 723.164 633.874 722.998 634.172C722.834 634.471 722.603 634.699 722.305 634.856C722.006 635.012 721.657 635.089 721.256 635.089C720.888 635.089 720.556 635.022 720.262 634.888C719.971 634.754 719.739 634.559 719.569 634.303C719.401 634.045 719.316 633.732 719.316 633.364H720.298C720.298 633.545 720.339 633.701 720.422 633.833C720.507 633.966 720.624 634.069 720.771 634.143C720.92 634.216 721.09 634.252 721.282 634.252C721.491 634.252 721.668 634.208 721.812 634.121C721.96 634.032 722.071 633.901 722.148 633.728C722.225 633.555 722.263 633.344 722.263 633.095V628.455ZM726.676 635.099C726.216 635.099 725.814 634.994 725.471 634.783C725.128 634.572 724.862 634.277 724.672 633.897C724.483 633.518 724.388 633.075 724.388 632.568C724.388 632.059 724.483 631.613 724.672 631.232C724.862 630.85 725.128 630.554 725.471 630.343C725.814 630.132 726.216 630.027 726.676 630.027C727.136 630.027 727.538 630.132 727.881 630.343C728.224 630.554 728.49 630.85 728.68 631.232C728.87 631.613 728.964 632.059 728.964 632.568C728.964 633.075 728.87 633.518 728.68 633.897C728.49 634.277 728.224 634.572 727.881 634.783C727.538 634.994 727.136 635.099 726.676 635.099ZM726.679 634.297C726.978 634.297 727.225 634.218 727.421 634.06C727.617 633.903 727.762 633.693 727.855 633.431C727.951 633.169 727.999 632.88 727.999 632.565C727.999 632.251 727.951 631.964 727.855 631.702C727.762 631.437 727.617 631.225 727.421 631.066C727.225 630.906 726.978 630.826 726.679 630.826C726.379 630.826 726.13 630.906 725.931 631.066C725.735 631.225 725.589 631.437 725.494 631.702C725.4 631.964 725.353 632.251 725.353 632.565C725.353 632.88 725.4 633.169 725.494 633.431C725.589 633.693 725.735 633.903 725.931 634.06C726.13 634.218 726.379 634.297 726.679 634.297ZM730.108 635V628.455H731.063V630.887H731.121C731.176 630.784 731.256 630.666 731.361 630.532C731.465 630.398 731.61 630.281 731.795 630.18C731.981 630.078 732.226 630.027 732.53 630.027C732.927 630.027 733.28 630.127 733.591 630.327C733.903 630.528 734.146 630.816 734.323 631.194C734.502 631.571 734.592 632.025 734.592 632.555C734.592 633.086 734.503 633.54 734.327 633.92C734.15 634.297 733.907 634.588 733.598 634.792C733.289 634.995 732.936 635.096 732.54 635.096C732.242 635.096 731.998 635.046 731.808 634.946C731.621 634.846 731.474 634.728 731.367 634.594C731.26 634.46 731.178 634.341 731.121 634.236H731.041V635H730.108ZM731.044 632.545C731.044 632.891 731.094 633.193 731.194 633.453C731.295 633.713 731.439 633.917 731.629 634.064C731.819 634.208 732.051 634.281 732.326 634.281C732.611 634.281 732.85 634.205 733.042 634.054C733.233 633.901 733.378 633.693 733.476 633.431C733.577 633.169 733.627 632.874 733.627 632.545C733.627 632.222 733.578 631.931 733.48 631.673C733.384 631.415 733.239 631.212 733.045 631.062C732.853 630.913 732.613 630.839 732.326 630.839C732.049 630.839 731.814 630.91 731.623 631.053C731.433 631.196 731.289 631.395 731.191 631.651C731.093 631.906 731.044 632.205 731.044 632.545ZM739.343 631.289L738.477 631.443C738.441 631.332 738.384 631.227 738.305 631.126C738.228 631.026 738.124 630.944 737.992 630.88C737.859 630.816 737.694 630.784 737.496 630.784C737.226 630.784 737 630.845 736.819 630.967C736.638 631.086 736.547 631.24 736.547 631.43C736.547 631.594 736.608 631.726 736.729 631.826C736.851 631.926 737.047 632.009 737.317 632.072L738.097 632.251C738.549 632.356 738.885 632.517 739.107 632.734C739.329 632.951 739.439 633.234 739.439 633.581C739.439 633.875 739.354 634.137 739.184 634.367C739.015 634.595 738.78 634.774 738.477 634.904C738.177 635.034 737.829 635.099 737.432 635.099C736.883 635.099 736.434 634.982 736.087 634.748C735.739 634.511 735.526 634.175 735.448 633.741L736.371 633.6C736.429 633.841 736.547 634.023 736.726 634.147C736.905 634.268 737.138 634.329 737.426 634.329C737.739 634.329 737.989 634.264 738.177 634.134C738.364 634.002 738.458 633.841 738.458 633.651C738.458 633.498 738.401 633.369 738.286 633.265C738.173 633.16 737.999 633.081 737.765 633.028L736.934 632.846C736.476 632.741 736.137 632.575 735.917 632.347C735.7 632.119 735.591 631.831 735.591 631.481C735.591 631.191 735.672 630.938 735.834 630.721C735.996 630.503 736.22 630.334 736.505 630.212C736.791 630.089 737.118 630.027 737.487 630.027C738.017 630.027 738.435 630.142 738.739 630.372C739.044 630.6 739.245 630.906 739.343 631.289ZM743.828 628.455V635H742.872V628.455H743.828ZM745.113 635V630.091H746.069V635H745.113ZM745.596 629.333C745.43 629.333 745.287 629.278 745.167 629.167C745.05 629.054 744.992 628.92 744.992 628.765C744.992 628.607 745.05 628.473 745.167 628.362C745.287 628.249 745.43 628.192 745.596 628.192C745.762 628.192 745.904 628.249 746.021 628.362C746.14 628.473 746.2 628.607 746.2 628.765C746.2 628.92 746.14 629.054 746.021 629.167C745.904 629.278 745.762 629.333 745.596 629.333ZM751.033 631.289L750.167 631.443C750.131 631.332 750.073 631.227 749.994 631.126C749.918 631.026 749.813 630.944 749.681 630.88C749.549 630.816 749.384 630.784 749.186 630.784C748.915 630.784 748.689 630.845 748.508 630.967C748.327 631.086 748.236 631.24 748.236 631.43C748.236 631.594 748.297 631.726 748.419 631.826C748.54 631.926 748.736 632.009 749.007 632.072L749.786 632.251C750.238 632.356 750.575 632.517 750.796 632.734C751.018 632.951 751.129 633.234 751.129 633.581C751.129 633.875 751.044 634.137 750.873 634.367C750.705 634.595 750.469 634.774 750.167 634.904C749.866 635.034 749.518 635.099 749.122 635.099C748.572 635.099 748.123 634.982 747.776 634.748C747.429 634.511 747.216 634.175 747.137 633.741L748.061 633.6C748.118 633.841 748.236 634.023 748.415 634.147C748.594 634.268 748.828 634.329 749.115 634.329C749.429 634.329 749.679 634.264 749.866 634.134C750.054 634.002 750.148 633.841 750.148 633.651C750.148 633.498 750.09 633.369 749.975 633.265C749.862 633.16 749.688 633.081 749.454 633.028L748.623 632.846C748.165 632.741 747.826 632.575 747.607 632.347C747.389 632.119 747.281 631.831 747.281 631.481C747.281 631.191 747.362 630.938 747.524 630.721C747.686 630.503 747.909 630.334 748.195 630.212C748.48 630.089 748.807 630.027 749.176 630.027C749.707 630.027 750.124 630.142 750.429 630.372C750.734 630.6 750.935 630.906 751.033 631.289ZM754.471 630.091V630.858H751.79V630.091H754.471ZM752.509 628.915H753.464V633.559C753.464 633.744 753.492 633.884 753.547 633.977C753.603 634.069 753.674 634.132 753.762 634.166C753.851 634.198 753.948 634.214 754.052 634.214C754.129 634.214 754.196 634.208 754.254 634.198C754.311 634.187 754.356 634.179 754.388 634.172L754.561 634.962C754.505 634.983 754.426 635.004 754.324 635.026C754.222 635.049 754.094 635.062 753.941 635.064C753.689 635.068 753.455 635.023 753.237 634.93C753.02 634.836 752.844 634.691 752.71 634.495C752.576 634.299 752.509 634.053 752.509 633.757V628.915ZM755.528 635V630.091H756.484V635H755.528ZM756.011 629.333C755.845 629.333 755.702 629.278 755.582 629.167C755.465 629.054 755.407 628.92 755.407 628.765C755.407 628.607 755.465 628.473 755.582 628.362C755.702 628.249 755.845 628.192 756.011 628.192C756.177 628.192 756.319 628.249 756.436 628.362C756.555 628.473 756.615 628.607 756.615 628.765C756.615 628.92 756.555 629.054 756.436 629.167C756.319 629.278 756.177 629.333 756.011 629.333ZM758.725 632.085V635H757.769V630.091H758.687V630.89H758.747C758.86 630.63 759.037 630.421 759.278 630.263C759.521 630.106 759.827 630.027 760.195 630.027C760.53 630.027 760.823 630.097 761.074 630.238C761.325 630.376 761.52 630.583 761.659 630.858C761.797 631.133 761.867 631.473 761.867 631.877V635H760.911V631.993C760.911 631.637 760.818 631.359 760.633 631.158C760.448 630.956 760.193 630.855 759.869 630.855C759.648 630.855 759.45 630.903 759.278 630.999C759.107 631.094 758.972 631.235 758.872 631.42C758.774 631.604 758.725 631.825 758.725 632.085ZM765.206 636.943C764.817 636.943 764.481 636.892 764.2 636.79C763.921 636.688 763.693 636.552 763.516 636.384C763.339 636.216 763.207 636.031 763.119 635.831L763.941 635.492C763.998 635.586 764.075 635.685 764.171 635.789C764.269 635.896 764.401 635.987 764.567 636.061C764.736 636.136 764.952 636.173 765.216 636.173C765.578 636.173 765.878 636.085 766.114 635.908C766.351 635.733 766.469 635.454 766.469 635.07V634.105H766.408C766.351 634.21 766.268 634.326 766.159 634.453C766.052 634.581 765.905 634.692 765.718 634.786C765.53 634.88 765.286 634.926 764.986 634.926C764.598 634.926 764.249 634.836 763.938 634.655C763.629 634.472 763.384 634.202 763.203 633.846C763.024 633.488 762.934 633.048 762.934 632.526C762.934 632.004 763.023 631.557 763.199 631.184C763.378 630.811 763.623 630.526 763.934 630.327C764.246 630.127 764.598 630.027 764.992 630.027C765.297 630.027 765.543 630.078 765.731 630.18C765.918 630.281 766.064 630.398 766.169 630.532C766.275 630.666 766.357 630.784 766.415 630.887H766.485V630.091H767.421V635.109C767.421 635.531 767.323 635.877 767.127 636.147C766.931 636.418 766.666 636.618 766.331 636.748C765.999 636.878 765.624 636.943 765.206 636.943ZM765.197 634.134C765.472 634.134 765.704 634.07 765.894 633.942C766.085 633.812 766.23 633.627 766.328 633.386C766.428 633.143 766.479 632.852 766.479 632.513C766.479 632.183 766.43 631.892 766.331 631.641C766.233 631.39 766.09 631.194 765.9 631.053C765.71 630.91 765.476 630.839 765.197 630.839C764.909 630.839 764.67 630.913 764.478 631.062C764.286 631.21 764.141 631.41 764.043 631.663C763.947 631.917 763.899 632.2 763.899 632.513C763.899 632.835 763.948 633.118 764.046 633.36C764.144 633.603 764.289 633.793 764.481 633.929C764.675 634.066 764.914 634.134 765.197 634.134Z" fill="white"/>
</g>
<g filter="url(#filter8_d_3123_2190)">
<rect x="83" y="395" width="57" height="21" rx="10.5" fill="#45B374" shape-rendering="crispEdges"/>
<path d="M98.7191 409V402.455H102.778V403.305H99.7067V405.299H102.487V406.146H99.7067V409H98.7191ZM103.916 409V404.091H104.871V409H103.916ZM104.398 403.333C104.232 403.333 104.089 403.278 103.97 403.167C103.853 403.054 103.794 402.92 103.794 402.765C103.794 402.607 103.853 402.473 103.97 402.362C104.089 402.249 104.232 402.192 104.398 402.192C104.565 402.192 104.706 402.249 104.824 402.362C104.943 402.473 105.002 402.607 105.002 402.765C105.002 402.92 104.943 403.054 104.824 403.167C104.706 403.278 104.565 403.333 104.398 403.333ZM107.113 402.455V409H106.157V402.455H107.113ZM110.69 404.091V404.858H108.008V404.091H110.69ZM108.727 402.915H109.683V407.559C109.683 407.744 109.711 407.884 109.766 407.977C109.822 408.069 109.893 408.132 109.98 408.166C110.07 408.198 110.167 408.214 110.271 408.214C110.348 408.214 110.415 408.208 110.472 408.198C110.53 408.187 110.575 408.179 110.607 408.172L110.779 408.962C110.724 408.983 110.645 409.004 110.543 409.026C110.441 409.049 110.313 409.062 110.159 409.064C109.908 409.068 109.673 409.023 109.456 408.93C109.239 408.836 109.063 408.691 108.929 408.495C108.795 408.299 108.727 408.053 108.727 407.757V402.915ZM113.81 409.099C113.326 409.099 112.91 408.996 112.56 408.789C112.213 408.58 111.945 408.287 111.755 407.91C111.567 407.531 111.474 407.087 111.474 406.577C111.474 406.075 111.567 405.631 111.755 405.248C111.945 404.864 112.209 404.565 112.547 404.35C112.888 404.135 113.287 404.027 113.743 404.027C114.02 404.027 114.288 404.073 114.548 404.164C114.808 404.256 115.041 404.4 115.248 404.596C115.455 404.792 115.618 405.047 115.737 405.36C115.856 405.671 115.916 406.049 115.916 406.494V406.833H112.014V406.117H114.98C114.98 405.866 114.929 405.643 114.826 405.449C114.724 405.253 114.58 405.099 114.395 404.986C114.212 404.873 113.996 404.816 113.749 404.816C113.481 404.816 113.246 404.882 113.046 405.015C112.848 405.145 112.695 405.315 112.586 405.526C112.479 405.735 112.426 405.962 112.426 406.207V406.766C112.426 407.094 112.484 407.373 112.599 407.603C112.716 407.833 112.879 408.009 113.088 408.131C113.296 408.25 113.54 408.31 113.82 408.31C114.001 408.31 114.166 408.284 114.315 408.233C114.464 408.18 114.593 408.101 114.702 407.996C114.81 407.892 114.893 407.763 114.951 407.61L115.855 407.773C115.783 408.039 115.653 408.272 115.465 408.473C115.28 408.671 115.047 408.825 114.766 408.936C114.486 409.045 114.168 409.099 113.81 409.099ZM116.976 409V404.091H117.9V404.871H117.951C118.041 404.607 118.198 404.399 118.424 404.248C118.652 404.094 118.91 404.017 119.198 404.017C119.257 404.017 119.328 404.02 119.409 404.024C119.492 404.028 119.557 404.033 119.604 404.04V404.954C119.565 404.943 119.497 404.931 119.399 404.919C119.301 404.904 119.203 404.896 119.105 404.896C118.879 404.896 118.678 404.944 118.501 405.04C118.326 405.134 118.188 405.265 118.085 405.433C117.983 405.599 117.932 405.789 117.932 406.002V409H116.976ZM124.109 405.289L123.243 405.443C123.207 405.332 123.149 405.227 123.07 405.126C122.994 405.026 122.889 404.944 122.757 404.88C122.625 404.816 122.46 404.784 122.262 404.784C121.991 404.784 121.765 404.845 121.584 404.967C121.403 405.086 121.313 405.24 121.313 405.43C121.313 405.594 121.373 405.726 121.495 405.826C121.616 405.926 121.812 406.009 122.083 406.072L122.863 406.251C123.314 406.356 123.651 406.517 123.873 406.734C124.094 406.951 124.205 407.234 124.205 407.581C124.205 407.875 124.12 408.137 123.949 408.367C123.781 408.595 123.546 408.774 123.243 408.904C122.943 409.034 122.594 409.099 122.198 409.099C121.648 409.099 121.2 408.982 120.852 408.748C120.505 408.511 120.292 408.175 120.213 407.741L121.137 407.6C121.194 407.841 121.313 408.023 121.492 408.147C121.671 408.268 121.904 408.329 122.191 408.329C122.505 408.329 122.755 408.264 122.943 408.134C123.13 408.002 123.224 407.841 123.224 407.651C123.224 407.498 123.166 407.369 123.051 407.265C122.938 407.16 122.765 407.081 122.53 407.028L121.699 406.846C121.241 406.741 120.902 406.575 120.683 406.347C120.466 406.119 120.357 405.831 120.357 405.481C120.357 405.191 120.438 404.938 120.6 404.721C120.762 404.503 120.986 404.334 121.271 404.212C121.557 404.089 121.884 404.027 122.252 404.027C122.783 404.027 123.2 404.142 123.505 404.372C123.81 404.6 124.011 404.906 124.109 405.289Z" fill="white"/>
</g>
<rect x="843" y="257" width="162" height="6.00001" rx="3" transform="rotate(-90 843 257)" fill="#C8CDD8"/>
</g>
<defs>
<filter id="filter0_d_3123_2190" x="319.955" y="356" width="184.089" height="185.089" filterUnits="userSpaceOnUse" color-interpolation-filters="sRGB">
<feFlood flood-opacity="0" result="BackgroundImageFix"/>
<feColorMatrix in="SourceAlpha" type="matrix" values="0 0 0 0 0 0 0 0 0 0 0 0 0 0 0 0 0 0 127 0" result="hardAlpha"/>
<feOffset dy="5.0447"/>
<feGaussianBlur stdDeviation="2.52235"/>
<feComposite in2="hardAlpha" operator="out"/>
<feColorMatrix type="matrix" values="0 0 0 0 0 0 0 0 0 0 0 0 0 0 0 0 0 0 0.07 0"/>
<feBlend mode="normal" in2="BackgroundImageFix" result="effect1_dropShadow_3123_2190"/>
<feBlend mode="normal" in="SourceGraphic" in2="effect1_dropShadow_3123_2190" result="shape"/>
</filter>
<filter id="filter1_d_3123_2190" x="503.955" y="356" width="184.089" height="185.089" filterUnits="userSpaceOnUse" color-interpolation-filters="sRGB">
<feFlood flood-opacity="0" result="BackgroundImageFix"/>
<feColorMatrix in="SourceAlpha" type="matrix" values="0 0 0 0 0 0 0 0 0 0 0 0 0 0 0 0 0 0 127 0" result="hardAlpha"/>
<feOffset dy="5.0447"/>
<feGaussianBlur stdDeviation="2.52235"/>
<feComposite in2="hardAlpha" operator="out"/>
<feColorMatrix type="matrix" values="0 0 0 0 0 0 0 0 0 0 0 0 0 0 0 0 0 0 0.07 0"/>
<feBlend mode="normal" in2="BackgroundImageFix" result="effect1_dropShadow_3123_2190"/>
<feBlend mode="normal" in="SourceGraphic" in2="effect1_dropShadow_3123_2190" result="shape"/>
</filter>
<filter id="filter2_d_3123_2190" x="319.955" y="541" width="184.089" height="185.089" filterUnits="userSpaceOnUse" color-interpolation-filters="sRGB">
<feFlood flood-opacity="0" result="BackgroundImageFix"/>
<feColorMatrix in="SourceAlpha" type="matrix" values="0 0 0 0 0 0 0 0 0 0 0 0 0 0 0 0 0 0 127 0" result="hardAlpha"/>
<feOffset dy="5.0447"/>
<feGaussianBlur stdDeviation="2.52235"/>
<feComposite in2="hardAlpha" operator="out"/>
<feColorMatrix type="matrix" values="0 0 0 0 0 0 0 0 0 0 0 0 0 0 0 0 0 0 0.07 0"/>
<feBlend mode="normal" in2="BackgroundImageFix" result="effect1_dropShadow_3123_2190"/>
<feBlend mode="normal" in="SourceGraphic" in2="effect1_dropShadow_3123_2190" result="shape"/>
</filter>
<filter id="filter3_d_3123_2190" x="503.955" y="541" width="184.089" height="185.089" filterUnits="userSpaceOnUse" color-interpolation-filters="sRGB">
<feFlood flood-opacity="0" result="BackgroundImageFix"/>
<feColorMatrix in="SourceAlpha" type="matrix" values="0 0 0 0 0 0 0 0 0 0 0 0 0 0 0 0 0 0 127 0" result="hardAlpha"/>
<feOffset dy="5.0447"/>
<feGaussianBlur stdDeviation="2.52235"/>
<feComposite in2="hardAlpha" operator="out"/>
<feColorMatrix type="matrix" values="0 0 0 0 0 0 0 0 0 0 0 0 0 0 0 0 0 0 0.07 0"/>
<feBlend mode="normal" in2="BackgroundImageFix" result="effect1_dropShadow_3123_2190"/>
<feBlend mode="normal" in="SourceGraphic" in2="effect1_dropShadow_3123_2190" result="shape"/>
</filter>
<filter id="filter4_d_3123_2190" x="165.955" y="270" width="522.127" height="71.887" filterUnits="userSpaceOnUse" color-interpolation-filters="sRGB">
<feFlood flood-opacity="0" result="BackgroundImageFix"/>
<feColorMatrix in="SourceAlpha" type="matrix" values="0 0 0 0 0 0 0 0 0 0 0 0 0 0 0 0 0 0 127 0" result="hardAlpha"/>
<feOffset dy="5.0447"/>
<feGaussianBlur stdDeviation="2.52235"/>
<feComposite in2="hardAlpha" operator="out"/>
<feColorMatrix type="matrix" values="0 0 0 0 0 0 0 0 0 0 0 0 0 0 0 0 0 0 0.07 0"/>
<feBlend mode="normal" in2="BackgroundImageFix" result="effect1_dropShadow_3123_2190"/>
<feBlend mode="normal" in="SourceGraphic" in2="effect1_dropShadow_3123_2190" result="shape"/>
</filter>
<filter id="filter5_d_3123_2190" x="165.955" y="376" width="144.089" height="39.0894" filterUnits="userSpaceOnUse" color-interpolation-filters="sRGB">
<feFlood flood-opacity="0" result="BackgroundImageFix"/>
<feColorMatrix in="SourceAlpha" type="matrix" values="0 0 0 0 0 0 0 0 0 0 0 0 0 0 0 0 0 0 127 0" result="hardAlpha"/>
<feOffset dy="5.0447"/>
<feGaussianBlur stdDeviation="2.52235"/>
<feComposite in2="hardAlpha" operator="out"/>
<feColorMatrix type="matrix" values="0 0 0 0 0 0 0 0 0 0 0 0 0 0 0 0 0 0 0.07 0"/>
<feBlend mode="normal" in2="BackgroundImageFix" result="effect1_dropShadow_3123_2190"/>
<feBlend mode="normal" in="SourceGraphic" in2="effect1_dropShadow_3123_2190" result="shape"/>
</filter>
<filter id="filter6_d_3123_2190" x="715" y="290" width="100" height="29" filterUnits="userSpaceOnUse" color-interpolation-filters="sRGB">
<feFlood flood-opacity="0" result="BackgroundImageFix"/>
<feColorMatrix in="SourceAlpha" type="matrix" values="0 0 0 0 0 0 0 0 0 0 0 0 0 0 0 0 0 0 127 0" result="hardAlpha"/>
<feOffset dy="4"/>
<feGaussianBlur stdDeviation="2"/>
<feComposite in2="hardAlpha" operator="out"/>
<feColorMatrix type="matrix" values="0 0 0 0 0 0 0 0 0 0 0 0 0 0 0 0 0 0 0.07 0"/>
<feBlend mode="normal" in2="BackgroundImageFix" result="effect1_dropShadow_3123_2190"/>
<feBlend mode="normal" in="SourceGraphic" in2="effect1_dropShadow_3123_2190" result="shape"/>
</filter>
<filter id="filter7_d_3123_2190" x="694" y="621" width="100" height="29" filterUnits="userSpaceOnUse" color-interpolation-filters="sRGB">
<feFlood flood-opacity="0" result="BackgroundImageFix"/>
<feColorMatrix in="SourceAlpha" type="matrix" values="0 0 0 0 0 0 0 0 0 0 0 0 0 0 0 0 0 0 127 0" result="hardAlpha"/>
<feOffset dy="4"/>
<feGaussianBlur stdDeviation="2"/>
<feComposite in2="hardAlpha" operator="out"/>
<feColorMatrix type="matrix" values="0 0 0 0 0 0 0 0 0 0 0 0 0 0 0 0 0 0 0.07 0"/>
<feBlend mode="normal" in2="BackgroundImageFix" result="effect1_dropShadow_3123_2190"/>
<feBlend mode="normal" in="SourceGraphic" in2="effect1_dropShadow_3123_2190" result="shape"/>
</filter>
<filter id="filter8_d_3123_2190" x="79" y="395" width="65" height="29" filterUnits="userSpaceOnUse" color-interpolation-filters="sRGB">
<feFlood flood-opacity="0" result="BackgroundImageFix"/>
<feColorMatrix in="SourceAlpha" type="matrix" values="0 0 0 0 0 0 0 0 0 0 0 0 0 0 0 0 0 0 127 0" result="hardAlpha"/>
<feOffset dy="4"/>
<feGaussianBlur stdDeviation="2"/>
<feComposite in2="hardAlpha" operator="out"/>
<feColorMatrix type="matrix" values="0 0 0 0 0 0 0 0 0 0 0 0 0 0 0 0 0 0 0.07 0"/>
<feBlend mode="normal" in2="BackgroundImageFix" result="effect1_dropShadow_3123_2190"/>
<feBlend mode="normal" in="SourceGraphic" in2="effect1_dropShadow_3123_2190" result="shape"/>
</filter>
</defs>
</svg>
