<svg width="855" height="667" viewBox="0 0 855 667" fill="none" xmlns="http://www.w3.org/2000/svg">
<rect x="1" y="1" width="853" height="665" rx="16" fill="#F2F4F8" stroke="#D4D8E2" stroke-width="2"/>
<mask id="mask0_3036_1949" style="mask-type:alpha" maskUnits="userSpaceOnUse" x="2" y="2" width="851" height="663">
<rect x="2" y="2" width="851" height="663" rx="15" fill="#F2F4F8"/>
</mask>
<g mask="url(#mask0_3036_1949)">
<line x1="61.5" y1="-1" x2="61.5" y2="857" stroke="#E0E3EB"/>
<line x1="122.5" y1="-1" x2="122.5" y2="857" stroke="#E0E3EB"/>
<line x1="183.5" y1="-1" x2="183.5" y2="857" stroke="#E0E3EB"/>
<line x1="244.5" y1="-1" x2="244.5" y2="857" stroke="#E0E3EB"/>
<line x1="305.5" y1="-1" x2="305.5" y2="857" stroke="#E0E3EB"/>
<line x1="366.5" y1="-1" x2="366.5" y2="857" stroke="#E0E3EB"/>
<line x1="427.5" y1="-1" x2="427.5" y2="857" stroke="#E0E3EB"/>
<line x1="488.5" y1="-1" x2="488.5" y2="857" stroke="#E0E3EB"/>
<line x1="549.5" y1="-1" x2="549.5" y2="857" stroke="#E0E3EB"/>
<line x1="610.5" y1="-1" x2="610.5" y2="857" stroke="#E0E3EB"/>
<line x1="671.5" y1="-1" x2="671.5" y2="857" stroke="#E0E3EB"/>
<line x1="732.5" y1="-1" x2="732.5" y2="857" stroke="#E0E3EB"/>
<line x1="793.5" y1="-1" x2="793.5" y2="857" stroke="#E0E3EB"/>
<line x1="856" y1="40.5" x2="-2" y2="40.4999" stroke="#E0E3EB"/>
<line x1="856" y1="101.5" x2="-2" y2="101.5" stroke="#E0E3EB"/>
<line x1="856" y1="162.5" x2="-2" y2="162.5" stroke="#E0E3EB"/>
<line x1="856" y1="223.5" x2="-2" y2="223.5" stroke="#E0E3EB"/>
<line x1="856" y1="284.5" x2="-2" y2="284.5" stroke="#E0E3EB"/>
<line x1="856" y1="345.5" x2="-2" y2="345.5" stroke="#E0E3EB"/>
<line x1="856" y1="406.5" x2="-2" y2="406.5" stroke="#E0E3EB"/>
<line x1="856" y1="467.5" x2="-2" y2="467.5" stroke="#E0E3EB"/>
<line x1="856" y1="528.5" x2="-2" y2="528.5" stroke="#E0E3EB"/>
<line x1="856" y1="589.5" x2="-2" y2="589.5" stroke="#E0E3EB"/>
<line x1="856" y1="650.5" x2="-2" y2="650.5" stroke="#E0E3EB"/>
<rect y="2" width="853" height="40" fill="#E8EBF0"/>
<rect x="0.5" y="41.5" width="855" height="49" fill="white" stroke="#E0E3EB"/>
<rect x="137.5" y="345.42" width="182.723" height="91" rx="4.58929" fill="#E8EBF0" stroke="#C8CDD8"/>
<line x1="319.217" y1="347.37" x2="138.217" y2="434.451" stroke="#C8CDD8"/>
<line x1="138.217" y1="347.549" x2="319.217" y2="434.549" stroke="#C8CDD8"/>
<path d="M218.465 386.545V396H217.039V386.545H218.465ZM220.543 386.545H222.274L225.284 393.895H225.395L228.404 386.545H230.136V396H228.778V389.158H228.691L225.902 395.986H224.776L221.988 389.154H221.9V396H220.543V386.545ZM238.608 389.532C238.519 389.252 238.399 389.001 238.248 388.78C238.1 388.555 237.923 388.364 237.717 388.207C237.511 388.047 237.275 387.926 237.011 387.843C236.749 387.76 236.461 387.718 236.147 387.718C235.615 387.718 235.135 387.855 234.707 388.129C234.279 388.403 233.941 388.804 233.691 389.334C233.445 389.86 233.322 390.505 233.322 391.268C233.322 392.034 233.447 392.682 233.696 393.212C233.945 393.741 234.287 394.143 234.721 394.417C235.155 394.69 235.649 394.827 236.203 394.827C236.717 394.827 237.165 394.723 237.546 394.513C237.931 394.304 238.228 394.009 238.437 393.627C238.65 393.242 238.756 392.79 238.756 392.27L239.125 392.339H236.42V391.162H240.136V392.238C240.136 393.032 239.967 393.721 239.628 394.306C239.293 394.887 238.828 395.337 238.234 395.654C237.643 395.971 236.966 396.129 236.203 396.129C235.347 396.129 234.596 395.932 233.95 395.538C233.307 395.144 232.805 394.586 232.445 393.863C232.085 393.136 231.905 392.275 231.905 391.277C231.905 390.523 232.01 389.846 232.219 389.246C232.428 388.646 232.722 388.137 233.101 387.718C233.482 387.296 233.93 386.975 234.444 386.753C234.961 386.529 235.526 386.416 236.138 386.416C236.649 386.416 237.125 386.492 237.565 386.642C238.008 386.793 238.402 387.007 238.747 387.284C239.094 387.561 239.382 387.89 239.61 388.272C239.838 388.651 239.991 389.071 240.071 389.532H238.608Z" fill="#9FA9BA"/>
<rect x="137.5" y="447.598" width="183" height="156" rx="4.58929" fill="#E8EBF0" stroke="#C8CDD8"/>
<line x1="319.323" y1="449.676" x2="139.323" y2="602.381" stroke="#C8CDD8"/>
<line x1="138.321" y1="449.991" x2="319.321" y2="601.617" stroke="#C8CDD8"/>
<path d="M219.465 521.545V531H218.039V521.545H219.465ZM221.543 521.545H223.274L226.284 528.895H226.395L229.404 521.545H231.136V531H229.778V524.158H229.691L226.902 530.986H225.776L222.988 524.154H222.9V531H221.543V521.545ZM239.608 524.532C239.519 524.252 239.399 524.001 239.248 523.78C239.1 523.555 238.923 523.364 238.717 523.207C238.511 523.047 238.275 522.926 238.011 522.843C237.749 522.76 237.461 522.718 237.147 522.718C236.615 522.718 236.135 522.855 235.707 523.129C235.279 523.403 234.941 523.804 234.691 524.334C234.445 524.86 234.322 525.505 234.322 526.268C234.322 527.034 234.447 527.682 234.696 528.212C234.945 528.741 235.287 529.143 235.721 529.417C236.155 529.69 236.649 529.827 237.203 529.827C237.717 529.827 238.165 529.723 238.546 529.513C238.931 529.304 239.228 529.009 239.437 528.627C239.65 528.242 239.756 527.79 239.756 527.27L240.125 527.339H237.42V526.162H241.136V527.238C241.136 528.032 240.967 528.721 240.628 529.306C240.293 529.887 239.828 530.337 239.234 530.654C238.643 530.971 237.966 531.129 237.203 531.129C236.347 531.129 235.596 530.932 234.95 530.538C234.307 530.144 233.805 529.586 233.445 528.863C233.085 528.136 232.905 527.275 232.905 526.277C232.905 525.523 233.01 524.846 233.219 524.246C233.428 523.646 233.722 523.137 234.101 522.718C234.482 522.296 234.93 521.975 235.444 521.753C235.961 521.529 236.526 521.416 237.138 521.416C237.649 521.416 238.125 521.492 238.565 521.642C239.008 521.793 239.402 522.007 239.747 522.284C240.094 522.561 240.382 522.89 240.61 523.272C240.838 523.651 240.991 524.071 241.071 524.532H239.608Z" fill="#9FA9BA"/>
<rect x="331.402" y="345.42" width="229.799" height="258.045" rx="4.58929" fill="#E8EBF0" stroke="#C8CDD8"/>
<line x1="559.375" y1="346.331" x2="333.441" y2="602.389" stroke="#C8CDD8"/>
<line x1="332.372" y1="347.666" x2="560.372" y2="601.666" stroke="#C8CDD8"/>
<path d="M436.465 469.545V479H435.039V469.545H436.465ZM438.543 469.545H440.274L443.284 476.895H443.395L446.404 469.545H448.136V479H446.778V472.158H446.691L443.902 478.986H442.776L439.988 472.154H439.9V479H438.543V469.545ZM456.608 472.532C456.519 472.252 456.399 472.001 456.248 471.78C456.1 471.555 455.923 471.364 455.717 471.207C455.511 471.047 455.275 470.926 455.011 470.843C454.749 470.76 454.461 470.718 454.147 470.718C453.615 470.718 453.135 470.855 452.707 471.129C452.279 471.403 451.941 471.804 451.691 472.334C451.445 472.86 451.322 473.505 451.322 474.268C451.322 475.034 451.447 475.682 451.696 476.212C451.945 476.741 452.287 477.143 452.721 477.417C453.155 477.69 453.649 477.827 454.203 477.827C454.717 477.827 455.165 477.723 455.546 477.513C455.931 477.304 456.228 477.009 456.437 476.627C456.65 476.242 456.756 475.79 456.756 475.27L457.125 475.339H454.42V474.162H458.136V475.238C458.136 476.032 457.967 476.721 457.628 477.306C457.293 477.887 456.828 478.337 456.234 478.654C455.643 478.971 454.966 479.129 454.203 479.129C453.347 479.129 452.596 478.932 451.95 478.538C451.307 478.144 450.805 477.586 450.445 476.863C450.085 476.136 449.905 475.275 449.905 474.277C449.905 473.523 450.01 472.846 450.219 472.246C450.428 471.646 450.722 471.137 451.101 470.718C451.482 470.296 451.93 469.975 452.444 469.753C452.961 469.529 453.526 469.416 454.138 469.416C454.649 469.416 455.125 469.492 455.565 469.642C456.008 469.793 456.402 470.007 456.747 470.284C457.094 470.561 457.382 470.89 457.61 471.272C457.838 471.651 457.991 472.071 458.071 472.532H456.608Z" fill="#9FA9BA"/>
<rect x="572.379" y="345.42" width="144.299" height="152.696" rx="4.58929" fill="#E8EBF0" stroke="#C8CDD8"/>
<line x1="715.362" y1="347.344" x2="573.773" y2="496.344" stroke="#C8CDD8"/>
<line x1="573.838" y1="346.657" x2="715.364" y2="496.657" stroke="#C8CDD8"/>
<path d="M634.465 417.545V427H633.039V417.545H634.465ZM636.543 417.545H638.274L641.284 424.895H641.395L644.404 417.545H646.136V427H644.778V420.158H644.691L641.902 426.986H640.776L637.988 420.154H637.9V427H636.543V417.545ZM654.608 420.532C654.519 420.252 654.399 420.001 654.248 419.78C654.1 419.555 653.923 419.364 653.717 419.207C653.511 419.047 653.275 418.926 653.011 418.843C652.749 418.76 652.461 418.718 652.147 418.718C651.615 418.718 651.135 418.855 650.707 419.129C650.279 419.403 649.941 419.804 649.691 420.334C649.445 420.86 649.322 421.505 649.322 422.268C649.322 423.034 649.447 423.682 649.696 424.212C649.945 424.741 650.287 425.143 650.721 425.417C651.155 425.69 651.649 425.827 652.203 425.827C652.717 425.827 653.165 425.723 653.546 425.513C653.931 425.304 654.228 425.009 654.437 424.627C654.65 424.242 654.756 423.79 654.756 423.27L655.125 423.339H652.42V422.162H656.136V423.238C656.136 424.032 655.967 424.721 655.628 425.306C655.293 425.887 654.828 426.337 654.234 426.654C653.643 426.971 652.966 427.129 652.203 427.129C651.347 427.129 650.596 426.932 649.95 426.538C649.307 426.144 648.805 425.586 648.445 424.863C648.085 424.136 647.905 423.275 647.905 422.277C647.905 421.523 648.01 420.846 648.219 420.246C648.428 419.646 648.722 419.137 649.101 418.718C649.482 418.296 649.93 417.975 650.444 417.753C650.961 417.529 651.526 417.416 652.138 417.416C652.649 417.416 653.125 417.492 653.565 417.642C654.008 417.793 654.402 418.007 654.747 418.284C655.094 418.561 655.382 418.89 655.61 419.272C655.838 419.651 655.991 420.071 656.071 420.532H654.608Z" fill="#9FA9BA"/>
<rect x="572.379" y="509.295" width="144.299" height="94.1696" rx="4.58929" fill="#E8EBF0" stroke="#C8CDD8"/>
<line x1="715.273" y1="510.419" x2="574.273" y2="602.419" stroke="#C8CDD8"/>
<line y1="-0.5" x2="168.36" y2="-0.5" transform="matrix(0.837492 0.546449 0.546449 -0.837492 574 510)" stroke="#C8CDD8"/>
<path d="M634.465 551.545V561H633.039V551.545H634.465ZM636.543 551.545H638.274L641.284 558.895H641.395L644.404 551.545H646.136V561H644.778V554.158H644.691L641.902 560.986H640.776L637.988 554.154H637.9V561H636.543V551.545ZM654.608 554.532C654.519 554.252 654.399 554.001 654.248 553.78C654.1 553.555 653.923 553.364 653.717 553.207C653.511 553.047 653.275 552.926 653.011 552.843C652.749 552.76 652.461 552.718 652.147 552.718C651.615 552.718 651.135 552.855 650.707 553.129C650.279 553.403 649.941 553.804 649.691 554.334C649.445 554.86 649.322 555.505 649.322 556.268C649.322 557.034 649.447 557.682 649.696 558.212C649.945 558.741 650.287 559.143 650.721 559.417C651.155 559.69 651.649 559.827 652.203 559.827C652.717 559.827 653.165 559.723 653.546 559.513C653.931 559.304 654.228 559.009 654.437 558.627C654.65 558.242 654.756 557.79 654.756 557.27L655.125 557.339H652.42V556.162H656.136V557.238C656.136 558.032 655.967 558.721 655.628 559.306C655.293 559.887 654.828 560.337 654.234 560.654C653.643 560.971 652.966 561.129 652.203 561.129C651.347 561.129 650.596 560.932 649.95 560.538C649.307 560.144 648.805 559.586 648.445 558.863C648.085 558.136 647.905 557.275 647.905 556.277C647.905 555.523 648.01 554.846 648.219 554.246C648.428 553.646 648.722 553.137 649.101 552.718C649.482 552.296 649.93 551.975 650.444 551.753C650.961 551.529 651.526 551.416 652.138 551.416C652.649 551.416 653.125 551.492 653.565 551.642C654.008 551.793 654.402 552.007 654.747 552.284C655.094 552.561 655.382 552.89 655.61 553.272C655.838 553.651 655.991 554.071 656.071 554.532H654.608Z" fill="#9FA9BA"/>
<g filter="url(#filter0_d_3036_1949)">
<rect x="171" y="241" width="512.037" height="61.7976" rx="12.6118" fill="white"/>
<rect x="171.631" y="241.631" width="510.776" height="60.5364" rx="11.9812" stroke="#D4D8E2" stroke-width="1.26118"/>
</g>
<path d="M604 263C604 260.239 606.239 258 609 258H659C661.761 258 664 260.239 664 263V281C664 283.761 661.761 286 659 286H609C606.239 286 604 283.761 604 281V263Z" fill="#B0C8F0"/>
<path d="M622.358 270.545C622.315 270.186 622.143 269.906 621.839 269.707C621.536 269.509 621.165 269.409 620.724 269.409C620.402 269.409 620.121 269.461 619.879 269.565C619.64 269.67 619.453 269.813 619.318 269.995C619.186 270.177 619.119 270.384 619.119 270.616C619.119 270.811 619.165 270.978 619.258 271.117C619.353 271.254 619.473 271.369 619.62 271.462C619.767 271.552 619.921 271.626 620.082 271.685C620.243 271.742 620.391 271.788 620.526 271.824L621.264 272.023C621.454 272.072 621.664 272.141 621.896 272.229C622.131 272.316 622.354 272.436 622.567 272.587C622.783 272.737 622.96 272.928 623.1 273.163C623.24 273.397 623.31 273.685 623.31 274.026C623.31 274.419 623.207 274.774 623.001 275.091C622.797 275.408 622.499 275.66 622.106 275.847C621.715 276.034 621.241 276.128 620.682 276.128C620.161 276.128 619.71 276.044 619.329 275.876C618.95 275.708 618.652 275.473 618.434 275.173C618.219 274.872 618.097 274.523 618.068 274.125H618.977C619.001 274.4 619.093 274.627 619.254 274.807C619.418 274.984 619.624 275.117 619.872 275.205C620.123 275.29 620.393 275.332 620.682 275.332C621.018 275.332 621.32 275.278 621.587 275.169C621.855 275.058 622.067 274.904 622.223 274.707C622.379 274.509 622.457 274.277 622.457 274.011C622.457 273.77 622.39 273.573 622.255 273.422C622.12 273.27 621.942 273.147 621.722 273.053C621.502 272.958 621.264 272.875 621.009 272.804L620.114 272.548C619.545 272.385 619.096 272.152 618.764 271.849C618.433 271.546 618.267 271.149 618.267 270.659C618.267 270.252 618.377 269.897 618.597 269.594C618.82 269.288 619.118 269.052 619.492 268.884C619.869 268.713 620.289 268.628 620.753 268.628C621.222 268.628 621.638 268.712 622.003 268.88C622.367 269.046 622.656 269.273 622.869 269.562C623.085 269.851 623.198 270.179 623.21 270.545H622.358ZM626.931 276.114C626.405 276.114 625.952 275.998 625.571 275.766C625.192 275.531 624.9 275.205 624.694 274.786C624.49 274.364 624.388 273.874 624.388 273.315C624.388 272.757 624.49 272.264 624.694 271.838C624.9 271.41 625.186 271.076 625.553 270.837C625.922 270.595 626.353 270.474 626.846 270.474C627.13 270.474 627.41 270.522 627.687 270.616C627.964 270.711 628.216 270.865 628.444 271.078C628.671 271.289 628.852 271.568 628.987 271.916C629.122 272.264 629.189 272.693 629.189 273.202V273.557H624.985V272.832H628.337C628.337 272.525 628.276 272.25 628.153 272.009C628.032 271.767 627.859 271.576 627.634 271.437C627.412 271.297 627.149 271.227 626.846 271.227C626.512 271.227 626.223 271.31 625.979 271.476C625.738 271.639 625.552 271.852 625.422 272.115C625.291 272.378 625.226 272.66 625.226 272.96V273.443C625.226 273.855 625.297 274.204 625.439 274.491C625.584 274.775 625.784 274.991 626.04 275.141C626.295 275.287 626.592 275.361 626.931 275.361C627.151 275.361 627.35 275.33 627.528 275.268C627.707 275.205 627.863 275.11 627.993 274.984C628.123 274.857 628.224 274.698 628.295 274.509L629.104 274.736C629.019 275.01 628.876 275.252 628.675 275.46C628.473 275.666 628.225 275.827 627.929 275.943C627.633 276.057 627.3 276.114 626.931 276.114ZM632.069 276.128C631.724 276.128 631.41 276.063 631.128 275.933C630.847 275.8 630.623 275.609 630.457 275.361C630.291 275.11 630.209 274.807 630.209 274.452C630.209 274.139 630.27 273.886 630.393 273.692C630.516 273.495 630.681 273.341 630.887 273.23C631.093 273.119 631.32 273.036 631.569 272.982C631.82 272.925 632.072 272.88 632.325 272.847C632.657 272.804 632.925 272.772 633.131 272.751C633.34 272.727 633.491 272.688 633.586 272.634C633.683 272.579 633.731 272.484 633.731 272.349V272.321C633.731 271.971 633.635 271.698 633.444 271.504C633.254 271.31 632.967 271.213 632.581 271.213C632.181 271.213 631.867 271.301 631.64 271.476C631.412 271.651 631.253 271.838 631.16 272.037L630.365 271.753C630.507 271.421 630.696 271.163 630.933 270.979C631.172 270.792 631.433 270.661 631.714 270.588C631.998 270.512 632.278 270.474 632.552 270.474C632.728 270.474 632.929 270.496 633.156 270.538C633.386 270.579 633.607 270.663 633.82 270.79C634.036 270.918 634.214 271.111 634.356 271.369C634.498 271.627 634.569 271.973 634.569 272.406V276H633.731V275.261H633.689C633.632 275.38 633.537 275.506 633.405 275.641C633.272 275.776 633.096 275.891 632.876 275.986C632.655 276.08 632.387 276.128 632.069 276.128ZM632.197 275.375C632.529 275.375 632.808 275.31 633.035 275.18C633.265 275.049 633.438 274.881 633.554 274.675C633.672 274.469 633.731 274.253 633.731 274.026V273.259C633.696 273.301 633.618 273.34 633.497 273.376C633.379 273.409 633.241 273.438 633.085 273.464C632.931 273.488 632.781 273.509 632.634 273.528C632.49 273.545 632.372 273.559 632.282 273.571C632.065 273.599 631.861 273.646 631.672 273.71C631.485 273.771 631.333 273.865 631.217 273.99C631.104 274.113 631.047 274.281 631.047 274.494C631.047 274.786 631.154 275.006 631.37 275.155C631.588 275.302 631.863 275.375 632.197 275.375ZM636.099 276V270.545H636.909V271.369H636.966C637.065 271.099 637.245 270.88 637.505 270.712C637.766 270.544 638.059 270.46 638.386 270.46C638.448 270.46 638.525 270.461 638.617 270.464C638.709 270.466 638.779 270.47 638.826 270.474V271.327C638.798 271.32 638.733 271.309 638.631 271.295C638.532 271.278 638.426 271.27 638.315 271.27C638.05 271.27 637.813 271.326 637.605 271.437C637.399 271.546 637.235 271.697 637.115 271.891C636.996 272.083 636.937 272.302 636.937 272.548V276H636.099ZM641.87 276.114C641.358 276.114 640.918 275.993 640.549 275.751C640.179 275.51 639.895 275.177 639.696 274.754C639.498 274.33 639.398 273.846 639.398 273.301C639.398 272.747 639.5 272.258 639.703 271.835C639.909 271.408 640.196 271.076 640.563 270.837C640.932 270.595 641.363 270.474 641.855 270.474C642.239 270.474 642.585 270.545 642.892 270.688C643.2 270.83 643.452 271.028 643.649 271.284C643.845 271.54 643.967 271.838 644.015 272.179H643.176C643.113 271.93 642.971 271.71 642.75 271.518C642.533 271.324 642.239 271.227 641.87 271.227C641.543 271.227 641.257 271.312 641.01 271.483C640.766 271.651 640.576 271.889 640.439 272.197C640.304 272.502 640.236 272.861 640.236 273.273C640.236 273.694 640.302 274.061 640.435 274.374C640.57 274.686 640.759 274.929 641.003 275.102C641.249 275.274 641.538 275.361 641.87 275.361C642.087 275.361 642.285 275.323 642.463 275.247C642.64 275.171 642.791 275.062 642.914 274.92C643.037 274.778 643.124 274.608 643.176 274.409H644.015C643.967 274.731 643.85 275.021 643.663 275.279C643.478 275.535 643.233 275.738 642.928 275.89C642.625 276.039 642.272 276.114 641.87 276.114ZM646.078 272.719V276H645.24V268.727H646.078V271.398H646.149C646.277 271.116 646.468 270.892 646.724 270.727C646.982 270.558 647.325 270.474 647.754 270.474C648.126 270.474 648.451 270.549 648.73 270.698C649.01 270.845 649.226 271.071 649.38 271.376C649.537 271.679 649.615 272.065 649.615 272.534V276H648.777V272.591C648.777 272.158 648.664 271.823 648.439 271.586C648.217 271.347 647.908 271.227 647.512 271.227C647.238 271.227 646.992 271.285 646.774 271.401C646.558 271.517 646.388 271.687 646.262 271.909C646.139 272.132 646.078 272.402 646.078 272.719Z" fill="#6B80A4"/>
<rect x="187.395" y="263.701" width="68.1035" height="6.30588" rx="3.15294" fill="#C8CDD8"/>
<rect x="345.043" y="263.701" width="68.1035" height="6.30588" rx="3.15294" fill="#C8CDD8"/>
<rect x="187.395" y="275.052" width="94.5882" height="5.0447" rx="2.52235" fill="#C8CDD8"/>
<rect x="345.043" y="275.052" width="94.5882" height="5.0447" rx="2.52235" fill="#C8CDD8"/>
<line x1="334.322" y1="257.395" x2="334.322" y2="287.663" stroke="#D4D8E2" stroke-width="1.26118"/>
<rect x="265.854" y="135" width="323.122" height="15.1463" rx="7.57317" fill="#C8CDD8"/>
<rect x="265.854" y="646" width="323.122" height="15.1463" rx="7.57317" fill="#C8CDD8"/>
<rect x="212" y="162.244" width="430.829" height="15.1463" rx="7.57317" fill="#C8CDD8"/>
<rect x="238.926" y="200.585" width="376.976" height="8.41463" rx="4.20732" fill="#C8CDD8"/>
<rect x="843" y="257" width="162" height="6.00001" rx="3" transform="rotate(-90 843 257)" fill="#C8CDD8"/>
<path d="M768 57C768 54.2386 770.239 52 773 52H823C825.761 52 828 54.2386 828 57V75C828 77.7614 825.761 80 823 80H773C770.239 80 768 77.7614 768 75V57Z" fill="#B0C8F0"/>
<path d="M779.381 70V62.7273H781.838C782.406 62.7273 782.873 62.8243 783.237 63.0185C783.602 63.2102 783.872 63.4742 784.047 63.8104C784.222 64.1465 784.31 64.5289 784.31 64.9574C784.31 65.3859 784.222 65.7659 784.047 66.0973C783.872 66.4287 783.603 66.6892 783.241 66.8786C782.879 67.0656 782.416 67.1591 781.852 67.1591H779.864V66.3636H781.824C782.212 66.3636 782.525 66.3068 782.761 66.1932C783 66.0795 783.173 65.9186 783.28 65.7102C783.389 65.4995 783.443 65.2486 783.443 64.9574C783.443 64.6662 783.389 64.4117 783.28 64.1939C783.171 63.9761 782.997 63.808 782.758 63.6896C782.519 63.5689 782.203 63.5085 781.81 63.5085H780.261V70H779.381ZM782.804 66.733L784.594 70H783.571L781.81 66.733H782.804ZM787.892 70.1136C787.366 70.1136 786.913 69.9976 786.532 69.7656C786.153 69.5312 785.861 69.2045 785.655 68.7855C785.451 68.3641 785.349 67.8741 785.349 67.3153C785.349 66.7566 785.451 66.2642 785.655 65.8381C785.861 65.4096 786.147 65.0758 786.514 64.8366C786.883 64.5952 787.314 64.4744 787.807 64.4744C788.091 64.4744 788.371 64.5218 788.648 64.6165C788.925 64.7112 789.177 64.8651 789.405 65.0781C789.632 65.2888 789.813 65.5682 789.948 65.9162C790.083 66.2642 790.15 66.6927 790.15 67.2017V67.5568H785.946V66.8324H789.298C789.298 66.5246 789.237 66.25 789.113 66.0085C788.993 65.767 788.82 65.5765 788.595 65.4368C788.372 65.2971 788.11 65.2273 787.807 65.2273C787.473 65.2273 787.184 65.3101 786.94 65.4759C786.699 65.6392 786.513 65.8523 786.383 66.1151C786.252 66.3778 786.187 66.6596 786.187 66.9602V67.4432C786.187 67.8551 786.258 68.2043 786.4 68.4908C786.545 68.7749 786.745 68.9915 787.001 69.1406C787.256 69.2874 787.553 69.3608 787.892 69.3608C788.112 69.3608 788.311 69.33 788.488 69.2685C788.668 69.2045 788.823 69.1098 788.954 68.9844C789.084 68.8565 789.184 68.6979 789.256 68.5085L790.065 68.7358C789.98 69.0104 789.837 69.2519 789.635 69.4602C789.434 69.6662 789.186 69.8272 788.89 69.9432C788.594 70.0568 788.261 70.1136 787.892 70.1136ZM793.627 72.1591C793.222 72.1591 792.874 72.107 792.583 72.0028C792.292 71.901 792.049 71.7661 791.855 71.598C791.663 71.4323 791.51 71.2547 791.397 71.0653L792.064 70.5966C792.14 70.696 792.236 70.8097 792.352 70.9375C792.468 71.0677 792.627 71.1802 792.828 71.2749C793.032 71.3719 793.298 71.4205 793.627 71.4205C794.067 71.4205 794.431 71.3139 794.717 71.1009C795.004 70.8878 795.147 70.554 795.147 70.0994V68.9915H795.076C795.014 69.0909 794.927 69.214 794.813 69.3608C794.702 69.5052 794.541 69.6342 794.33 69.7479C794.122 69.8591 793.84 69.9148 793.485 69.9148C793.045 69.9148 792.649 69.8106 792.299 69.6023C791.951 69.3939 791.675 69.0909 791.471 68.6932C791.27 68.2955 791.17 67.8125 791.17 67.2443C791.17 66.6856 791.268 66.1991 791.464 65.7848C791.661 65.3681 791.934 65.0462 792.285 64.8189C792.635 64.5893 793.04 64.4744 793.499 64.4744C793.854 64.4744 794.136 64.5336 794.344 64.652C794.555 64.768 794.716 64.9006 794.827 65.0497C794.941 65.1965 795.028 65.3172 795.09 65.4119H795.175V64.5455H795.985V70.1562C795.985 70.625 795.878 71.0062 795.665 71.2997C795.455 71.5956 795.171 71.8123 794.813 71.9496C794.458 72.0893 794.063 72.1591 793.627 72.1591ZM793.599 69.1619C793.935 69.1619 794.219 69.085 794.451 68.9311C794.683 68.7772 794.859 68.5559 794.98 68.267C795.101 67.9782 795.161 67.6326 795.161 67.2301C795.161 66.8371 795.102 66.4903 794.983 66.1896C794.865 65.889 794.69 65.6534 794.458 65.483C794.226 65.3125 793.939 65.2273 793.599 65.2273C793.243 65.2273 792.948 65.3172 792.711 65.4972C792.476 65.6771 792.3 65.9186 792.182 66.2216C792.066 66.5246 792.008 66.8608 792.008 67.2301C792.008 67.6089 792.067 67.9439 792.185 68.2351C792.306 68.5239 792.483 68.7512 792.718 68.9169C792.955 69.0803 793.248 69.1619 793.599 69.1619ZM797.519 70V64.5455H798.357V70H797.519ZM797.945 63.6364C797.782 63.6364 797.641 63.5807 797.523 63.4695C797.407 63.3582 797.349 63.2244 797.349 63.0682C797.349 62.9119 797.407 62.7782 797.523 62.6669C797.641 62.5556 797.782 62.5 797.945 62.5C798.108 62.5 798.248 62.5556 798.364 62.6669C798.483 62.7782 798.542 62.9119 798.542 63.0682C798.542 63.2244 798.483 63.3582 798.364 63.4695C798.248 63.5807 798.108 63.6364 797.945 63.6364ZM803.756 65.767L803.003 65.9801C802.955 65.8546 802.886 65.7327 802.793 65.6143C802.703 65.4936 802.58 65.3942 802.424 65.3161C802.268 65.2379 802.068 65.1989 801.824 65.1989C801.49 65.1989 801.212 65.2758 800.989 65.4297C800.769 65.5812 800.659 65.7741 800.659 66.0085C800.659 66.2169 800.735 66.3814 800.886 66.5021C801.038 66.6229 801.275 66.7235 801.597 66.804L802.406 67.0028C802.894 67.1212 803.257 67.3023 803.496 67.5462C803.736 67.7876 803.855 68.099 803.855 68.4801C803.855 68.7926 803.765 69.072 803.585 69.3182C803.408 69.5644 803.159 69.7585 802.839 69.9006C802.52 70.0426 802.148 70.1136 801.724 70.1136C801.168 70.1136 800.708 69.9929 800.343 69.7514C799.978 69.5099 799.748 69.1572 799.651 68.6932L800.446 68.4943C800.522 68.7879 800.665 69.008 800.876 69.1548C801.089 69.3016 801.367 69.375 801.71 69.375C802.101 69.375 802.411 69.2921 802.641 69.1264C802.873 68.9583 802.989 68.7571 802.989 68.5227C802.989 68.3333 802.922 68.1747 802.79 68.0469C802.657 67.9167 802.454 67.8196 802.179 67.7557L801.27 67.5426C800.77 67.4242 800.403 67.2408 800.169 66.9922C799.937 66.7412 799.821 66.4276 799.821 66.0511C799.821 65.7434 799.907 65.4711 800.08 65.2344C800.255 64.9976 800.493 64.8118 800.794 64.6768C801.097 64.5419 801.44 64.4744 801.824 64.4744C802.364 64.4744 802.787 64.5928 803.095 64.8295C803.405 65.0663 803.625 65.3788 803.756 65.767ZM807.489 64.5455V65.2557H804.662V64.5455H807.489ZM805.486 63.2386H806.324V68.4375C806.324 68.6742 806.358 68.8518 806.427 68.9702C806.498 69.0862 806.588 69.1643 806.697 69.2045C806.808 69.2424 806.925 69.2614 807.048 69.2614C807.141 69.2614 807.217 69.2566 807.276 69.2472C807.335 69.2353 807.382 69.2259 807.418 69.2188L807.588 69.9716C807.531 69.9929 807.452 70.0142 807.35 70.0355C807.249 70.0592 807.119 70.071 806.963 70.071C806.727 70.071 806.494 70.0201 806.267 69.9183C806.042 69.8165 805.855 69.6615 805.706 69.4531C805.559 69.2448 805.486 68.982 805.486 68.6648V63.2386ZM810.978 70.1136C810.452 70.1136 809.999 69.9976 809.618 69.7656C809.239 69.5312 808.947 69.2045 808.741 68.7855C808.537 68.3641 808.435 67.8741 808.435 67.3153C808.435 66.7566 808.537 66.2642 808.741 65.8381C808.947 65.4096 809.233 65.0758 809.6 64.8366C809.969 64.5952 810.4 64.4744 810.893 64.4744C811.177 64.4744 811.457 64.5218 811.734 64.6165C812.011 64.7112 812.263 64.8651 812.491 65.0781C812.718 65.2888 812.899 65.5682 813.034 65.9162C813.169 66.2642 813.236 66.6927 813.236 67.2017V67.5568H809.032V66.8324H812.384C812.384 66.5246 812.323 66.25 812.199 66.0085C812.079 65.767 811.906 65.5765 811.681 65.4368C811.458 65.2971 811.196 65.2273 810.893 65.2273C810.559 65.2273 810.27 65.3101 810.026 65.4759C809.785 65.6392 809.599 65.8523 809.469 66.1151C809.338 66.3778 809.273 66.6596 809.273 66.9602V67.4432C809.273 67.8551 809.344 68.2043 809.486 68.4908C809.631 68.7749 809.831 68.9915 810.086 69.1406C810.342 69.2874 810.639 69.3608 810.978 69.3608C811.198 69.3608 811.397 69.33 811.574 69.2685C811.754 69.2045 811.909 69.1098 812.04 68.9844C812.17 68.8565 812.27 68.6979 812.341 68.5085L813.151 68.7358C813.066 69.0104 812.923 69.2519 812.721 69.4602C812.52 69.6662 812.272 69.8272 811.976 69.9432C811.68 70.0568 811.347 70.1136 810.978 70.1136ZM814.511 70V64.5455H815.321V65.3693H815.378C815.477 65.0994 815.657 64.8804 815.917 64.7124C816.178 64.5443 816.471 64.4602 816.798 64.4602C816.86 64.4602 816.937 64.4614 817.029 64.4638C817.121 64.4661 817.191 64.4697 817.238 64.4744V65.3267C817.21 65.3196 817.145 65.3089 817.043 65.2947C816.944 65.2782 816.838 65.2699 816.727 65.2699C816.462 65.2699 816.225 65.3255 816.017 65.4368C815.811 65.5457 815.648 65.6972 815.527 65.8913C815.408 66.0831 815.349 66.3021 815.349 66.5483V70H814.511Z" fill="#6B80A4"/>
<rect x="724" y="64" width="28" height="5" rx="2.5" fill="#C8CDD8"/>
<rect x="693" y="58" width="16" height="16" rx="3" fill="#DDE2EA"/>
<rect x="321" y="64" width="32" height="5" rx="2.5" fill="#C8CDD8"/>
<rect x="377" y="64" width="40" height="5" rx="2.5" fill="#C8CDD8"/>
<rect x="441" y="64" width="36" height="5" rx="2.5" fill="#C8CDD8"/>
<rect x="501" y="64" width="28" height="5" rx="2.5" fill="#C8CDD8"/>
<rect x="27" y="55" width="22" height="22" rx="3" fill="#DDE2EA"/>
<rect x="57" y="62.5" width="52" height="7" rx="3.5" fill="#C8CDD8"/>
<rect x="791" y="14" width="20" height="16" rx="4" fill="#C8CDD8"/>
<rect x="817" y="14" width="20" height="16" rx="4" fill="#C8CDD8"/>
<rect x="88.5" y="12.5" width="676" height="19" rx="9.5" fill="#F2F4F8" stroke="#D4D8E2"/>
<circle cx="103" cy="22" r="4" fill="#D4D8E2"/>
<rect x="113" y="16" width="212" height="12" rx="6" fill="#D4D8E2"/>
<circle cx="21" cy="22" r="5" fill="#C8CDD8"/>
<circle cx="39" cy="22" r="5" fill="#C8CDD8"/>
<circle cx="57" cy="22" r="5" fill="#C8CDD8"/>
<g filter="url(#filter1_d_3036_1949)">
<rect x="43" y="152" width="92" height="21" rx="10.5" fill="#2D82FF" shape-rendering="crispEdges"/>
<path d="M58.1488 161.522C58.087 161.328 58.0039 161.155 57.8995 161.001C57.7972 160.846 57.6747 160.714 57.532 160.605C57.3892 160.494 57.2262 160.41 57.043 160.353C56.8619 160.295 56.6626 160.266 56.4453 160.266C56.0767 160.266 55.7443 160.361 55.4482 160.551C55.152 160.74 54.9176 161.018 54.745 161.385C54.5746 161.749 54.4893 162.196 54.4893 162.724C54.4893 163.255 54.5756 163.703 54.7482 164.07C54.9208 164.436 55.1573 164.714 55.4577 164.904C55.7582 165.093 56.1001 165.188 56.4837 165.188C56.8395 165.188 57.1495 165.116 57.4137 164.971C57.68 164.826 57.8857 164.621 58.0305 164.357C58.1776 164.091 58.2511 163.778 58.2511 163.418L58.5067 163.466H56.6339V162.651H59.2067V163.395C59.2067 163.945 59.0895 164.422 58.8551 164.827C58.6229 165.23 58.3011 165.541 57.8899 165.76C57.4808 165.98 57.0121 166.089 56.4837 166.089C55.8913 166.089 55.3714 165.953 54.924 165.68C54.4787 165.408 54.1314 165.021 53.8821 164.52C53.6328 164.017 53.5082 163.421 53.5082 162.73C53.5082 162.208 53.5806 161.74 53.7255 161.324C53.8704 160.909 54.0739 160.556 54.3359 160.266C54.6001 159.974 54.9102 159.752 55.266 159.598C55.6239 159.443 56.0149 159.365 56.4389 159.365C56.7926 159.365 57.1218 159.417 57.4265 159.522C57.7333 159.626 58.006 159.774 58.2447 159.966C58.4854 160.158 58.6847 160.386 58.8423 160.65C59 160.912 59.1065 161.203 59.1619 161.522H58.1488ZM60.3836 166V161.091H61.3073V161.871H61.3584C61.4479 161.607 61.6056 161.399 61.8314 161.248C62.0594 161.094 62.3172 161.017 62.6048 161.017C62.6645 161.017 62.7348 161.02 62.8158 161.024C62.8989 161.028 62.9639 161.033 63.0107 161.04V161.954C62.9724 161.943 62.9042 161.931 62.8062 161.919C62.7082 161.904 62.6102 161.896 62.5122 161.896C62.2863 161.896 62.085 161.944 61.9081 162.04C61.7334 162.134 61.5949 162.265 61.4926 162.433C61.3904 162.599 61.3392 162.789 61.3392 163.002V166H60.3836ZM63.8377 166V161.091H64.7933V166H63.8377ZM64.3203 160.333C64.1541 160.333 64.0114 160.278 63.892 160.167C63.7749 160.054 63.7163 159.92 63.7163 159.765C63.7163 159.607 63.7749 159.473 63.892 159.362C64.0114 159.249 64.1541 159.192 64.3203 159.192C64.4865 159.192 64.6282 159.249 64.7454 159.362C64.8647 159.473 64.9244 159.607 64.9244 159.765C64.9244 159.92 64.8647 160.054 64.7454 160.167C64.6282 160.278 64.4865 160.333 64.3203 160.333ZM67.9166 166.096C67.5203 166.096 67.1666 165.995 66.8556 165.792C66.5466 165.588 66.3037 165.297 66.1269 164.92C65.9521 164.54 65.8648 164.086 65.8648 163.555C65.8648 163.025 65.9532 162.571 66.1301 162.194C66.309 161.816 66.5541 161.528 66.8651 161.327C67.1762 161.127 67.5289 161.027 67.923 161.027C68.2277 161.027 68.4727 161.078 68.6581 161.18C68.8456 161.281 68.9905 161.398 69.0928 161.532C69.1972 161.666 69.2781 161.784 69.3357 161.887H69.3932V159.455H70.3488V166H69.4156V165.236H69.3357C69.2781 165.341 69.195 165.46 69.0864 165.594C68.9798 165.728 68.8328 165.846 68.6453 165.946C68.4578 166.046 68.2149 166.096 67.9166 166.096ZM68.1276 165.281C68.4024 165.281 68.6347 165.208 68.8243 165.064C69.0161 164.917 69.161 164.713 69.259 164.453C69.3591 164.193 69.4092 163.891 69.4092 163.545C69.4092 163.205 69.3602 162.906 69.2622 162.651C69.1642 162.395 69.0203 162.196 68.8307 162.053C68.6411 161.91 68.4067 161.839 68.1276 161.839C67.8399 161.839 67.6002 161.913 67.4085 162.062C67.2167 162.212 67.0718 162.415 66.9738 162.673C66.8779 162.931 66.83 163.222 66.83 163.545C66.83 163.874 66.879 164.169 66.977 164.431C67.075 164.693 67.2199 164.901 67.4117 165.054C67.6056 165.205 67.8442 165.281 68.1276 165.281ZM74.1713 166V159.455H75.1269V161.887H75.1844C75.2398 161.784 75.3197 161.666 75.4241 161.532C75.5285 161.398 75.6734 161.281 75.8588 161.18C76.0441 161.078 76.2892 161.027 76.5938 161.027C76.9901 161.027 77.3438 161.127 77.6549 161.327C77.966 161.528 78.21 161.816 78.3868 162.194C78.5658 162.571 78.6553 163.025 78.6553 163.555C78.6553 164.086 78.5669 164.54 78.39 164.92C78.2132 165.297 77.9703 165.588 77.6613 165.792C77.3524 165.995 76.9997 166.096 76.6034 166.096C76.3051 166.096 76.0612 166.046 75.8715 165.946C75.684 165.846 75.537 165.728 75.4305 165.594C75.324 165.46 75.2419 165.341 75.1844 165.236H75.1045V166H74.1713ZM75.1077 163.545C75.1077 163.891 75.1578 164.193 75.2579 164.453C75.358 164.713 75.5029 164.917 75.6926 165.064C75.8822 165.208 76.1144 165.281 76.3893 165.281C76.6748 165.281 76.9134 165.205 77.1052 165.054C77.297 164.901 77.4419 164.693 77.5399 164.431C77.64 164.169 77.6901 163.874 77.6901 163.545C77.6901 163.222 77.6411 162.931 77.5431 162.673C77.4472 162.415 77.3023 162.212 77.1084 162.062C76.9166 161.913 76.6769 161.839 76.3893 161.839C76.1123 161.839 75.8779 161.91 75.6862 162.053C75.4965 162.196 75.3527 162.395 75.2547 162.651C75.1567 162.906 75.1077 163.205 75.1077 163.545ZM81.157 166.109C80.8459 166.109 80.5646 166.051 80.3132 165.936C80.0618 165.819 79.8626 165.65 79.7156 165.428C79.5707 165.206 79.4982 164.935 79.4982 164.613C79.4982 164.336 79.5515 164.108 79.658 163.929C79.7646 163.75 79.9084 163.608 80.0895 163.504C80.2706 163.4 80.473 163.321 80.6967 163.267C80.9205 163.214 81.1484 163.174 81.3807 163.146C81.6747 163.112 81.9134 163.084 82.0966 163.063C82.2798 163.039 82.413 163.002 82.4961 162.951C82.5792 162.9 82.6207 162.817 82.6207 162.702V162.679C82.6207 162.4 82.5419 162.184 82.3842 162.031C82.2287 161.877 81.9964 161.8 81.6875 161.8C81.3658 161.8 81.1122 161.872 80.9268 162.015C80.7436 162.155 80.6168 162.312 80.5465 162.484L79.6484 162.28C79.755 161.982 79.9105 161.741 80.1151 161.558C80.3217 161.372 80.5593 161.238 80.8278 161.155C81.0962 161.07 81.3786 161.027 81.6747 161.027C81.8707 161.027 82.0785 161.05 82.2979 161.097C82.5195 161.142 82.7262 161.225 82.918 161.347C83.1119 161.468 83.2706 161.642 83.3942 161.868C83.5178 162.091 83.5795 162.382 83.5795 162.74V166H82.6463V165.329H82.608C82.5462 165.452 82.4535 165.574 82.3299 165.693C82.2063 165.812 82.0476 165.912 81.8537 165.99C81.6598 166.069 81.4276 166.109 81.157 166.109ZM81.3647 165.342C81.6289 165.342 81.8548 165.289 82.0423 165.185C82.2319 165.081 82.3757 164.944 82.4737 164.776C82.5739 164.605 82.6239 164.423 82.6239 164.229V163.597C82.5898 163.631 82.5238 163.663 82.4258 163.692C82.3299 163.72 82.2202 163.745 82.0966 163.766C81.973 163.785 81.8526 163.803 81.7354 163.82C81.6183 163.835 81.5202 163.848 81.4414 163.859C81.256 163.882 81.0866 163.922 80.9332 163.977C80.782 164.032 80.6605 164.112 80.5689 164.217C80.4794 164.319 80.4347 164.455 80.4347 164.626C80.4347 164.862 80.522 165.041 80.6967 165.163C80.8714 165.282 81.0941 165.342 81.3647 165.342ZM86.9202 166.099C86.445 166.099 86.036 165.991 85.6929 165.776C85.352 165.559 85.0899 165.26 84.9067 164.878C84.7235 164.497 84.6318 164.06 84.6318 163.568C84.6318 163.069 84.7256 162.629 84.9131 162.248C85.1006 161.864 85.3648 161.565 85.7057 161.35C86.0466 161.135 86.4482 161.027 86.9106 161.027C87.2835 161.027 87.6159 161.096 87.9078 161.235C88.1997 161.371 88.4351 161.563 88.6141 161.81C88.7952 162.057 88.9028 162.346 88.9369 162.676H88.0068C87.9557 162.446 87.8385 162.248 87.6553 162.082C87.4742 161.915 87.2313 161.832 86.9266 161.832C86.6602 161.832 86.4269 161.903 86.2267 162.043C86.0285 162.182 85.874 162.38 85.7632 162.638C85.6524 162.893 85.597 163.196 85.597 163.545C85.597 163.903 85.6514 164.212 85.76 164.472C85.8687 164.732 86.0221 164.934 86.2203 165.076C86.4205 165.219 86.656 165.29 86.9266 165.29C87.1077 165.29 87.2718 165.257 87.4188 165.191C87.5679 165.123 87.6926 165.026 87.7927 164.901C87.895 164.775 87.9664 164.624 88.0068 164.447H88.9369C88.9028 164.764 88.7994 165.048 88.6269 165.297C88.4543 165.546 88.2231 165.742 87.9333 165.885C87.6457 166.028 87.308 166.099 86.9202 166.099ZM90.8377 164.335L90.8313 163.168H90.9975L92.9535 161.091H94.0977L91.8668 163.456H91.7166L90.8377 164.335ZM89.9588 166V159.455H90.9144V166H89.9588ZM93.0589 166L91.3011 163.667L91.9595 162.999L94.2319 166H93.0589ZM96.8247 167.943C96.4347 167.943 96.0992 167.892 95.8179 167.79C95.5388 167.688 95.3108 167.552 95.134 167.384C94.9571 167.216 94.825 167.031 94.7377 166.831L95.559 166.492C95.6166 166.586 95.6933 166.685 95.7892 166.789C95.8872 166.896 96.0193 166.987 96.1855 167.061C96.3538 167.136 96.57 167.173 96.8343 167.173C97.1965 167.173 97.4958 167.085 97.7323 166.908C97.9688 166.733 98.0871 166.454 98.0871 166.07V165.105H98.0264C97.9688 165.21 97.8857 165.326 97.7771 165.453C97.6705 165.581 97.5235 165.692 97.336 165.786C97.1485 165.88 96.9046 165.926 96.6041 165.926C96.2164 165.926 95.8669 165.836 95.5558 165.655C95.2469 165.472 95.0019 165.202 94.8208 164.846C94.6418 164.488 94.5523 164.048 94.5523 163.526C94.5523 163.004 94.6407 162.557 94.8176 162.184C94.9965 161.811 95.2416 161.526 95.5526 161.327C95.8637 161.127 96.2164 161.027 96.6105 161.027C96.9152 161.027 97.1613 161.078 97.3488 161.18C97.5363 161.281 97.6823 161.398 97.7867 161.532C97.8932 161.666 97.9752 161.784 98.0328 161.887H98.1031V161.091H99.0395V166.109C99.0395 166.531 98.9415 166.877 98.7455 167.147C98.5494 167.418 98.2842 167.618 97.9497 167.748C97.6173 167.878 97.2423 167.943 96.8247 167.943ZM96.8151 165.134C97.0899 165.134 97.3222 165.07 97.5118 164.942C97.7036 164.812 97.8485 164.627 97.9465 164.386C98.0466 164.143 98.0967 163.852 98.0967 163.513C98.0967 163.183 98.0477 162.892 97.9497 162.641C97.8517 162.39 97.7078 162.194 97.5182 162.053C97.3286 161.91 97.0942 161.839 96.8151 161.839C96.5274 161.839 96.2877 161.913 96.096 162.062C95.9042 162.21 95.7593 162.41 95.6613 162.663C95.5654 162.917 95.5175 163.2 95.5175 163.513C95.5175 163.835 95.5665 164.118 95.6645 164.36C95.7625 164.603 95.9074 164.793 96.0992 164.929C96.2931 165.066 96.5317 165.134 96.8151 165.134ZM100.321 166V161.091H101.245V161.871H101.296C101.385 161.607 101.543 161.399 101.769 161.248C101.997 161.094 102.255 161.017 102.542 161.017C102.602 161.017 102.672 161.02 102.753 161.024C102.836 161.028 102.901 161.033 102.948 161.04V161.954C102.91 161.943 102.842 161.931 102.744 161.919C102.646 161.904 102.548 161.896 102.45 161.896C102.224 161.896 102.022 161.944 101.846 162.04C101.671 162.134 101.532 162.265 101.43 162.433C101.328 162.599 101.277 162.789 101.277 163.002V166H100.321ZM105.667 166.099C105.207 166.099 104.805 165.994 104.462 165.783C104.119 165.572 103.853 165.277 103.663 164.897C103.474 164.518 103.379 164.075 103.379 163.568C103.379 163.059 103.474 162.613 103.663 162.232C103.853 161.85 104.119 161.554 104.462 161.343C104.805 161.132 105.207 161.027 105.667 161.027C106.127 161.027 106.529 161.132 106.872 161.343C107.215 161.554 107.482 161.85 107.671 162.232C107.861 162.613 107.956 163.059 107.956 163.568C107.956 164.075 107.861 164.518 107.671 164.897C107.482 165.277 107.215 165.572 106.872 165.783C106.529 165.994 106.127 166.099 105.667 166.099ZM105.67 165.297C105.969 165.297 106.216 165.218 106.412 165.06C106.608 164.903 106.753 164.693 106.847 164.431C106.942 164.169 106.99 163.88 106.99 163.565C106.99 163.251 106.942 162.964 106.847 162.702C106.753 162.437 106.608 162.225 106.412 162.066C106.216 161.906 105.969 161.826 105.67 161.826C105.37 161.826 105.121 161.906 104.923 162.066C104.727 162.225 104.581 162.437 104.485 162.702C104.391 162.964 104.344 163.251 104.344 163.565C104.344 163.88 104.391 164.169 104.485 164.431C104.581 164.693 104.727 164.903 104.923 165.06C105.121 165.218 105.37 165.297 105.67 165.297ZM112.132 163.964V161.091H113.091V166H112.151V165.15H112.1C111.987 165.412 111.806 165.63 111.557 165.805C111.31 165.978 111.002 166.064 110.633 166.064C110.318 166.064 110.039 165.995 109.796 165.856C109.555 165.716 109.365 165.508 109.227 165.233C109.09 164.958 109.022 164.618 109.022 164.213V161.091H109.978V164.098C109.978 164.433 110.071 164.699 110.256 164.897C110.441 165.096 110.682 165.195 110.978 165.195C111.157 165.195 111.335 165.15 111.512 165.06C111.691 164.971 111.839 164.836 111.956 164.654C112.076 164.473 112.134 164.243 112.132 163.964ZM115.33 163.085V166H114.375V161.091H115.292V161.89H115.353C115.466 161.63 115.643 161.421 115.883 161.263C116.126 161.106 116.432 161.027 116.801 161.027C117.135 161.027 117.428 161.097 117.68 161.238C117.931 161.376 118.126 161.583 118.264 161.858C118.403 162.133 118.472 162.473 118.472 162.877V166H117.517V162.993C117.517 162.637 117.424 162.359 117.238 162.158C117.053 161.956 116.798 161.855 116.475 161.855C116.253 161.855 116.056 161.903 115.883 161.999C115.713 162.094 115.578 162.235 115.477 162.42C115.379 162.604 115.33 162.825 115.33 163.085ZM121.591 166.096C121.195 166.096 120.841 165.995 120.53 165.792C120.221 165.588 119.979 165.297 119.802 164.92C119.627 164.54 119.54 164.086 119.54 163.555C119.54 163.025 119.628 162.571 119.805 162.194C119.984 161.816 120.229 161.528 120.54 161.327C120.851 161.127 121.204 161.027 121.598 161.027C121.903 161.027 122.148 161.078 122.333 161.18C122.52 161.281 122.665 161.398 122.768 161.532C122.872 161.666 122.953 161.784 123.01 161.887H123.068V159.455H124.024V166H123.09V165.236H123.01C122.953 165.341 122.87 165.46 122.761 165.594C122.655 165.728 122.508 165.846 122.32 165.946C122.133 166.046 121.89 166.096 121.591 166.096ZM121.802 165.281C122.077 165.281 122.309 165.208 122.499 165.064C122.691 164.917 122.836 164.713 122.934 164.453C123.034 164.193 123.084 163.891 123.084 163.545C123.084 163.205 123.035 162.906 122.937 162.651C122.839 162.395 122.695 162.196 122.506 162.053C122.316 161.91 122.081 161.839 121.802 161.839C121.515 161.839 121.275 161.913 121.083 162.062C120.892 162.212 120.747 162.415 120.649 162.673C120.553 162.931 120.505 163.222 120.505 163.545C120.505 163.874 120.554 164.169 120.652 164.431C120.75 164.693 120.895 164.901 121.086 165.054C121.28 165.205 121.519 165.281 121.802 165.281Z" fill="white"/>
</g>
<g filter="url(#filter2_d_3036_1949)">
<rect x="113" y="630" width="92" height="21" rx="10.5" fill="#2D82FF" shape-rendering="crispEdges"/>
<path d="M123.719 644V637.455H127.778V638.305H124.707V640.299H127.487V641.146H124.707V644H123.719ZM129.871 637.455V644H128.916V637.455H129.871ZM133.225 644.099C132.765 644.099 132.363 643.994 132.02 643.783C131.677 643.572 131.411 643.277 131.221 642.897C131.031 642.518 130.937 642.075 130.937 641.568C130.937 641.059 131.031 640.613 131.221 640.232C131.411 639.85 131.677 639.554 132.02 639.343C132.363 639.132 132.765 639.027 133.225 639.027C133.685 639.027 134.087 639.132 134.43 639.343C134.773 639.554 135.039 639.85 135.229 640.232C135.418 640.613 135.513 641.059 135.513 641.568C135.513 642.075 135.418 642.518 135.229 642.897C135.039 643.277 134.773 643.572 134.43 643.783C134.087 643.994 133.685 644.099 133.225 644.099ZM133.228 643.297C133.526 643.297 133.774 643.218 133.97 643.06C134.166 642.903 134.31 642.693 134.404 642.431C134.5 642.169 134.548 641.88 134.548 641.565C134.548 641.251 134.5 640.964 134.404 640.702C134.31 640.437 134.166 640.225 133.97 640.066C133.774 639.906 133.526 639.826 133.228 639.826C132.928 639.826 132.678 639.906 132.48 640.066C132.284 640.225 132.138 640.437 132.042 640.702C131.949 640.964 131.902 641.251 131.902 641.565C131.902 641.88 131.949 642.169 132.042 642.431C132.138 642.693 132.284 642.903 132.48 643.06C132.678 643.218 132.928 643.297 133.228 643.297ZM138.009 644.109C137.697 644.109 137.416 644.051 137.165 643.936C136.913 643.819 136.714 643.65 136.567 643.428C136.422 643.206 136.35 642.935 136.35 642.613C136.35 642.336 136.403 642.108 136.51 641.929C136.616 641.75 136.76 641.608 136.941 641.504C137.122 641.4 137.325 641.321 137.548 641.267C137.772 641.214 138 641.174 138.232 641.146C138.526 641.112 138.765 641.084 138.948 641.063C139.131 641.039 139.265 641.002 139.348 640.951C139.431 640.9 139.472 640.817 139.472 640.702V640.679C139.472 640.4 139.393 640.184 139.236 640.031C139.08 639.877 138.848 639.8 138.539 639.8C138.217 639.8 137.964 639.872 137.778 640.015C137.595 640.155 137.468 640.312 137.398 640.484L136.5 640.28C136.607 639.982 136.762 639.741 136.967 639.558C137.173 639.372 137.411 639.238 137.679 639.155C137.948 639.07 138.23 639.027 138.526 639.027C138.722 639.027 138.93 639.05 139.15 639.097C139.371 639.142 139.578 639.225 139.77 639.347C139.963 639.468 140.122 639.642 140.246 639.868C140.369 640.091 140.431 640.382 140.431 640.74V644H139.498V643.329H139.46C139.398 643.452 139.305 643.574 139.181 643.693C139.058 643.812 138.899 643.912 138.705 643.99C138.511 644.069 138.279 644.109 138.009 644.109ZM138.216 643.342C138.48 643.342 138.706 643.289 138.894 643.185C139.083 643.081 139.227 642.944 139.325 642.776C139.425 642.605 139.475 642.423 139.475 642.229V641.597C139.441 641.631 139.375 641.663 139.277 641.692C139.181 641.72 139.072 641.745 138.948 641.766C138.825 641.785 138.704 641.803 138.587 641.82C138.47 641.835 138.372 641.848 138.293 641.859C138.108 641.882 137.938 641.922 137.785 641.977C137.634 642.032 137.512 642.112 137.42 642.217C137.331 642.319 137.286 642.455 137.286 642.626C137.286 642.862 137.374 643.041 137.548 643.163C137.723 643.282 137.946 643.342 138.216 643.342ZM143.995 639.091V639.858H141.314V639.091H143.995ZM142.033 637.915H142.989V642.559C142.989 642.744 143.016 642.884 143.072 642.977C143.127 643.069 143.199 643.132 143.286 643.166C143.375 643.198 143.472 643.214 143.577 643.214C143.653 643.214 143.721 643.208 143.778 643.198C143.836 643.187 143.88 643.179 143.912 643.172L144.085 643.962C144.03 643.983 143.951 644.004 143.848 644.026C143.746 644.049 143.618 644.062 143.465 644.064C143.214 644.068 142.979 644.023 142.762 643.93C142.544 643.836 142.369 643.691 142.234 643.495C142.1 643.299 142.033 643.053 142.033 642.757V637.915ZM145.053 644V639.091H146.008V644H145.053ZM145.535 638.333C145.369 638.333 145.226 638.278 145.107 638.167C144.99 638.054 144.931 637.92 144.931 637.765C144.931 637.607 144.99 637.473 145.107 637.362C145.226 637.249 145.369 637.192 145.535 637.192C145.701 637.192 145.843 637.249 145.96 637.362C146.08 637.473 146.139 637.607 146.139 637.765C146.139 637.92 146.08 638.054 145.96 638.167C145.843 638.278 145.701 638.333 145.535 638.333ZM148.249 641.085V644H147.294V639.091H148.211V639.89H148.272C148.385 639.63 148.562 639.421 148.802 639.263C149.045 639.106 149.351 639.027 149.72 639.027C150.054 639.027 150.347 639.097 150.598 639.238C150.85 639.376 151.045 639.583 151.183 639.858C151.322 640.133 151.391 640.473 151.391 640.877V644H150.435V640.993C150.435 640.637 150.343 640.359 150.157 640.158C149.972 639.956 149.717 639.855 149.394 639.855C149.172 639.855 148.975 639.903 148.802 639.999C148.632 640.094 148.497 640.235 148.396 640.42C148.298 640.604 148.249 640.825 148.249 641.085ZM154.731 645.943C154.341 645.943 154.005 645.892 153.724 645.79C153.445 645.688 153.217 645.552 153.04 645.384C152.863 645.216 152.731 645.031 152.644 644.831L153.465 644.492C153.523 644.586 153.6 644.685 153.695 644.789C153.793 644.896 153.926 644.987 154.092 645.061C154.26 645.136 154.476 645.173 154.741 645.173C155.103 645.173 155.402 645.085 155.639 644.908C155.875 644.733 155.993 644.454 155.993 644.07V643.105H155.933C155.875 643.21 155.792 643.326 155.683 643.453C155.577 643.581 155.43 643.692 155.242 643.786C155.055 643.88 154.811 643.926 154.51 643.926C154.123 643.926 153.773 643.836 153.462 643.655C153.153 643.472 152.908 643.202 152.727 642.846C152.548 642.488 152.459 642.048 152.459 641.526C152.459 641.004 152.547 640.557 152.724 640.184C152.903 639.811 153.148 639.526 153.459 639.327C153.77 639.127 154.123 639.027 154.517 639.027C154.821 639.027 155.068 639.078 155.255 639.18C155.443 639.281 155.589 639.398 155.693 639.532C155.799 639.666 155.881 639.784 155.939 639.887H156.009V639.091H156.946V644.109C156.946 644.531 156.848 644.877 156.652 645.147C156.456 645.418 156.19 645.618 155.856 645.748C155.524 645.878 155.149 645.943 154.731 645.943ZM154.721 643.134C154.996 643.134 155.228 643.07 155.418 642.942C155.61 642.812 155.755 642.627 155.853 642.386C155.953 642.143 156.003 641.852 156.003 641.513C156.003 641.183 155.954 640.892 155.856 640.641C155.758 640.39 155.614 640.194 155.424 640.053C155.235 639.91 155 639.839 154.721 639.839C154.434 639.839 154.194 639.913 154.002 640.062C153.81 640.21 153.666 640.41 153.568 640.663C153.472 640.917 153.424 641.2 153.424 641.513C153.424 641.835 153.473 642.118 153.571 642.36C153.669 642.603 153.814 642.793 154.005 642.929C154.199 643.066 154.438 643.134 154.721 643.134ZM161.673 644L160.229 639.091H161.216L162.178 642.696H162.226L163.192 639.091H164.179L165.138 642.68H165.186L166.142 639.091H167.129L165.688 644H164.713L163.716 640.456H163.642L162.645 644H161.673ZM168.036 644V639.091H168.992V644H168.036ZM168.519 638.333C168.352 638.333 168.21 638.278 168.09 638.167C167.973 638.054 167.915 637.92 167.915 637.765C167.915 637.607 167.973 637.473 168.09 637.362C168.21 637.249 168.352 637.192 168.519 637.192C168.685 637.192 168.826 637.249 168.944 637.362C169.063 637.473 169.123 637.607 169.123 637.765C169.123 637.92 169.063 638.054 168.944 638.167C168.826 638.278 168.685 638.333 168.519 638.333ZM172.115 644.096C171.719 644.096 171.365 643.995 171.054 643.792C170.745 643.588 170.502 643.297 170.325 642.92C170.15 642.54 170.063 642.086 170.063 641.555C170.063 641.025 170.151 640.571 170.328 640.194C170.507 639.816 170.752 639.528 171.063 639.327C171.374 639.127 171.727 639.027 172.121 639.027C172.426 639.027 172.671 639.078 172.856 639.18C173.044 639.281 173.189 639.398 173.291 639.532C173.395 639.666 173.476 639.784 173.534 639.887H173.591V637.455H174.547V644H173.614V643.236H173.534C173.476 643.341 173.393 643.46 173.285 643.594C173.178 643.728 173.031 643.846 172.844 643.946C172.656 644.046 172.413 644.096 172.115 644.096ZM172.326 643.281C172.601 643.281 172.833 643.208 173.023 643.064C173.214 642.917 173.359 642.713 173.457 642.453C173.557 642.193 173.607 641.891 173.607 641.545C173.607 641.205 173.558 640.906 173.46 640.651C173.362 640.395 173.219 640.196 173.029 640.053C172.839 639.91 172.605 639.839 172.326 639.839C172.038 639.839 171.798 639.913 171.607 640.062C171.415 640.212 171.27 640.415 171.172 640.673C171.076 640.931 171.028 641.222 171.028 641.545C171.028 641.874 171.077 642.169 171.175 642.431C171.273 642.693 171.418 642.901 171.61 643.054C171.804 643.205 172.042 643.281 172.326 643.281ZM177.969 645.943C177.579 645.943 177.244 645.892 176.962 645.79C176.683 645.688 176.455 645.552 176.278 645.384C176.102 645.216 175.97 645.031 175.882 644.831L176.704 644.492C176.761 644.586 176.838 644.685 176.934 644.789C177.032 644.896 177.164 644.987 177.33 645.061C177.498 645.136 177.715 645.173 177.979 645.173C178.341 645.173 178.64 645.085 178.877 644.908C179.113 644.733 179.232 644.454 179.232 644.07V643.105H179.171C179.113 643.21 179.03 643.326 178.922 643.453C178.815 643.581 178.668 643.692 178.481 643.786C178.293 643.88 178.049 643.926 177.749 643.926C177.361 643.926 177.011 643.836 176.7 643.655C176.391 643.472 176.146 643.202 175.965 642.846C175.786 642.488 175.697 642.048 175.697 641.526C175.697 641.004 175.785 640.557 175.962 640.184C176.141 639.811 176.386 639.526 176.697 639.327C177.008 639.127 177.361 639.027 177.755 639.027C178.06 639.027 178.306 639.078 178.493 639.18C178.681 639.281 178.827 639.398 178.931 639.532C179.038 639.666 179.12 639.784 179.177 639.887H179.248V639.091H180.184V644.109C180.184 644.531 180.086 644.877 179.89 645.147C179.694 645.418 179.429 645.618 179.094 645.748C178.762 645.878 178.387 645.943 177.969 645.943ZM177.96 643.134C178.234 643.134 178.467 643.07 178.656 642.942C178.848 642.812 178.993 642.627 179.091 642.386C179.191 642.143 179.241 641.852 179.241 641.513C179.241 641.183 179.192 640.892 179.094 640.641C178.996 640.39 178.852 640.194 178.663 640.053C178.473 639.91 178.239 639.839 177.96 639.839C177.672 639.839 177.432 639.913 177.241 640.062C177.049 640.21 176.904 640.41 176.806 640.663C176.71 640.917 176.662 641.2 176.662 641.513C176.662 641.835 176.711 642.118 176.809 642.36C176.907 642.603 177.052 642.793 177.244 642.929C177.438 643.066 177.676 643.134 177.96 643.134ZM183.581 644.099C183.098 644.099 182.681 643.996 182.332 643.789C181.984 643.58 181.716 643.287 181.526 642.91C181.339 642.531 181.245 642.087 181.245 641.577C181.245 641.075 181.339 640.631 181.526 640.248C181.716 639.864 181.98 639.565 182.319 639.35C182.66 639.135 183.058 639.027 183.514 639.027C183.791 639.027 184.06 639.073 184.32 639.164C184.58 639.256 184.813 639.4 185.02 639.596C185.226 639.792 185.389 640.047 185.509 640.36C185.628 640.671 185.688 641.049 185.688 641.494V641.833H181.785V641.117H184.751C184.751 640.866 184.7 640.643 184.598 640.449C184.495 640.253 184.352 640.099 184.166 639.986C183.983 639.873 183.768 639.816 183.521 639.816C183.252 639.816 183.018 639.882 182.818 640.015C182.619 640.145 182.466 640.315 182.357 640.526C182.251 640.735 182.198 640.962 182.198 641.207V641.766C182.198 642.094 182.255 642.373 182.37 642.603C182.487 642.833 182.65 643.009 182.859 643.131C183.068 643.25 183.312 643.31 183.591 643.31C183.772 643.31 183.937 643.284 184.086 643.233C184.236 643.18 184.364 643.101 184.473 642.996C184.582 642.892 184.665 642.763 184.722 642.61L185.627 642.773C185.554 643.039 185.424 643.272 185.237 643.473C185.052 643.671 184.818 643.825 184.537 643.936C184.258 644.045 183.939 644.099 183.581 644.099ZM189.039 639.091V639.858H186.358V639.091H189.039ZM187.077 637.915H188.033V642.559C188.033 642.744 188.06 642.884 188.116 642.977C188.171 643.069 188.243 643.132 188.33 643.166C188.419 643.198 188.516 643.214 188.621 643.214C188.697 643.214 188.765 643.208 188.822 643.198C188.88 643.187 188.924 643.179 188.956 643.172L189.129 643.962C189.074 643.983 188.995 644.004 188.892 644.026C188.79 644.049 188.662 644.062 188.509 644.064C188.257 644.068 188.023 644.023 187.806 643.93C187.588 643.836 187.413 643.691 187.278 643.495C187.144 643.299 187.077 643.053 187.077 642.757V637.915ZM193.696 640.289L192.83 640.443C192.794 640.332 192.736 640.227 192.657 640.126C192.581 640.026 192.476 639.944 192.344 639.88C192.212 639.816 192.047 639.784 191.849 639.784C191.578 639.784 191.352 639.845 191.171 639.967C190.99 640.086 190.9 640.24 190.9 640.43C190.9 640.594 190.96 640.726 191.082 640.826C191.203 640.926 191.399 641.009 191.67 641.072L192.45 641.251C192.901 641.356 193.238 641.517 193.46 641.734C193.681 641.951 193.792 642.234 193.792 642.581C193.792 642.875 193.707 643.137 193.536 643.367C193.368 643.595 193.132 643.774 192.83 643.904C192.529 644.034 192.181 644.099 191.785 644.099C191.235 644.099 190.787 643.982 190.439 643.748C190.092 643.511 189.879 643.175 189.8 642.741L190.724 642.6C190.781 642.841 190.9 643.023 191.078 643.147C191.257 643.268 191.491 643.329 191.778 643.329C192.092 643.329 192.342 643.264 192.529 643.134C192.717 643.002 192.811 642.841 192.811 642.651C192.811 642.498 192.753 642.369 192.638 642.265C192.525 642.16 192.352 642.081 192.117 642.028L191.286 641.846C190.828 641.741 190.489 641.575 190.27 641.347C190.053 641.119 189.944 640.831 189.944 640.481C189.944 640.191 190.025 639.938 190.187 639.721C190.349 639.503 190.572 639.334 190.858 639.212C191.143 639.089 191.471 639.027 191.839 639.027C192.37 639.027 192.787 639.142 193.092 639.372C193.397 639.6 193.598 639.906 193.696 640.289Z" fill="white"/>
</g>
<g filter="url(#filter3_d_3036_1949)">
<rect x="709" y="261" width="92" height="21" rx="10.5" fill="#2D82FF" shape-rendering="crispEdges"/>
<path d="M726.789 270.174C726.755 269.871 726.614 269.637 726.367 269.471C726.12 269.303 725.809 269.218 725.434 269.218C725.165 269.218 724.933 269.261 724.737 269.346C724.541 269.429 724.389 269.544 724.28 269.691C724.174 269.836 724.12 270.001 724.12 270.187C724.12 270.342 724.157 270.477 724.229 270.589C724.304 270.702 724.401 270.797 724.52 270.874C724.641 270.949 724.771 271.011 724.91 271.062C725.048 271.112 725.181 271.152 725.309 271.184L725.949 271.35C726.157 271.401 726.371 271.471 726.591 271.558C726.81 271.645 727.014 271.76 727.201 271.903C727.389 272.046 727.54 272.223 727.655 272.434C727.772 272.645 727.831 272.897 727.831 273.191C727.831 273.562 727.735 273.891 727.543 274.179C727.354 274.466 727.078 274.693 726.716 274.859C726.355 275.026 725.92 275.109 725.408 275.109C724.918 275.109 724.494 275.031 724.136 274.875C723.778 274.72 723.498 274.499 723.296 274.214C723.093 273.926 722.982 273.585 722.96 273.191H723.951C723.97 273.428 724.047 273.625 724.181 273.782C724.317 273.938 724.491 274.054 724.702 274.131C724.915 274.205 725.148 274.243 725.402 274.243C725.681 274.243 725.929 274.199 726.147 274.112C726.366 274.022 726.539 273.898 726.664 273.741C726.79 273.581 726.853 273.395 726.853 273.181C726.853 272.988 726.798 272.829 726.687 272.705C726.578 272.582 726.43 272.479 726.243 272.398C726.057 272.317 725.847 272.246 725.613 272.184L724.839 271.973C724.315 271.831 723.9 271.621 723.593 271.344C723.288 271.067 723.136 270.7 723.136 270.244C723.136 269.867 723.238 269.538 723.443 269.257C723.647 268.975 723.924 268.757 724.274 268.602C724.623 268.444 725.017 268.365 725.456 268.365C725.9 268.365 726.29 268.443 726.629 268.598C726.97 268.754 727.239 268.968 727.435 269.241C727.631 269.511 727.733 269.822 727.741 270.174H726.789ZM731.05 275.099C730.566 275.099 730.15 274.996 729.801 274.789C729.453 274.58 729.185 274.287 728.995 273.91C728.808 273.531 728.714 273.087 728.714 272.577C728.714 272.075 728.808 271.631 728.995 271.248C729.185 270.864 729.449 270.565 729.788 270.35C730.129 270.135 730.527 270.027 730.983 270.027C731.26 270.027 731.528 270.073 731.788 270.164C732.048 270.256 732.282 270.4 732.488 270.596C732.695 270.792 732.858 271.047 732.977 271.36C733.097 271.671 733.156 272.049 733.156 272.494V272.833H729.254V272.117H732.22C732.22 271.866 732.169 271.643 732.066 271.449C731.964 271.253 731.82 271.099 731.635 270.986C731.452 270.873 731.237 270.816 730.989 270.816C730.721 270.816 730.487 270.882 730.286 271.015C730.088 271.145 729.935 271.315 729.826 271.526C729.72 271.735 729.666 271.962 729.666 272.207V272.766C729.666 273.094 729.724 273.373 729.839 273.603C729.956 273.833 730.119 274.009 730.328 274.131C730.537 274.25 730.781 274.31 731.06 274.31C731.241 274.31 731.406 274.284 731.555 274.233C731.704 274.18 731.833 274.101 731.942 273.996C732.051 273.892 732.134 273.763 732.191 273.61L733.096 273.773C733.023 274.039 732.893 274.272 732.706 274.473C732.52 274.671 732.287 274.825 732.006 274.936C731.727 275.045 731.408 275.099 731.05 275.099ZM735.645 275.109C735.334 275.109 735.053 275.051 734.801 274.936C734.55 274.819 734.351 274.65 734.204 274.428C734.059 274.206 733.987 273.935 733.987 273.613C733.987 273.336 734.04 273.108 734.146 272.929C734.253 272.75 734.397 272.608 734.578 272.504C734.759 272.4 734.961 272.321 735.185 272.267C735.409 272.214 735.637 272.174 735.869 272.146C736.163 272.112 736.402 272.084 736.585 272.063C736.768 272.039 736.901 272.002 736.984 271.951C737.067 271.9 737.109 271.817 737.109 271.702V271.679C737.109 271.4 737.03 271.184 736.873 271.031C736.717 270.877 736.485 270.8 736.176 270.8C735.854 270.8 735.6 270.872 735.415 271.015C735.232 271.155 735.105 271.312 735.035 271.484L734.137 271.28C734.243 270.982 734.399 270.741 734.603 270.558C734.81 270.372 735.048 270.238 735.316 270.155C735.585 270.07 735.867 270.027 736.163 270.027C736.359 270.027 736.567 270.05 736.786 270.097C737.008 270.142 737.214 270.225 737.406 270.347C737.6 270.468 737.759 270.642 737.882 270.868C738.006 271.091 738.068 271.382 738.068 271.74V275H737.135V274.329H737.096C737.034 274.452 736.942 274.574 736.818 274.693C736.695 274.812 736.536 274.912 736.342 274.99C736.148 275.069 735.916 275.109 735.645 275.109ZM735.853 274.342C736.117 274.342 736.343 274.289 736.531 274.185C736.72 274.081 736.864 273.944 736.962 273.776C737.062 273.605 737.112 273.423 737.112 273.229V272.597C737.078 272.631 737.012 272.663 736.914 272.692C736.818 272.72 736.708 272.745 736.585 272.766C736.461 272.785 736.341 272.803 736.224 272.82C736.107 272.835 736.009 272.848 735.93 272.859C735.744 272.882 735.575 272.922 735.422 272.977C735.27 273.032 735.149 273.112 735.057 273.217C734.968 273.319 734.923 273.455 734.923 273.626C734.923 273.862 735.01 274.041 735.185 274.163C735.36 274.282 735.582 274.342 735.853 274.342ZM739.341 275V270.091H740.264V270.871H740.315C740.405 270.607 740.563 270.399 740.788 270.248C741.016 270.094 741.274 270.017 741.562 270.017C741.622 270.017 741.692 270.02 741.773 270.024C741.856 270.028 741.921 270.033 741.968 270.04V270.954C741.929 270.943 741.861 270.931 741.763 270.919C741.665 270.904 741.567 270.896 741.469 270.896C741.243 270.896 741.042 270.944 740.865 271.04C740.69 271.134 740.552 271.265 740.45 271.433C740.347 271.599 740.296 271.789 740.296 272.002V275H739.341ZM744.687 275.099C744.212 275.099 743.803 274.991 743.46 274.776C743.119 274.559 742.857 274.26 742.673 273.878C742.49 273.497 742.398 273.06 742.398 272.568C742.398 272.069 742.492 271.629 742.68 271.248C742.867 270.864 743.131 270.565 743.472 270.35C743.813 270.135 744.215 270.027 744.677 270.027C745.05 270.027 745.382 270.096 745.674 270.235C745.966 270.371 746.202 270.563 746.381 270.81C746.562 271.057 746.669 271.346 746.703 271.676H745.773C745.722 271.446 745.605 271.248 745.422 271.082C745.241 270.915 744.998 270.832 744.693 270.832C744.427 270.832 744.194 270.903 743.993 271.043C743.795 271.182 743.641 271.38 743.53 271.638C743.419 271.893 743.364 272.196 743.364 272.545C743.364 272.903 743.418 273.212 743.527 273.472C743.635 273.732 743.789 273.934 743.987 274.076C744.187 274.219 744.423 274.29 744.693 274.29C744.874 274.29 745.038 274.257 745.185 274.191C745.335 274.123 745.459 274.026 745.559 273.901C745.662 273.775 745.733 273.624 745.773 273.447H746.703C746.669 273.764 746.566 274.048 746.393 274.297C746.221 274.546 745.99 274.742 745.7 274.885C745.412 275.028 745.075 275.099 744.687 275.099ZM748.681 272.085V275H747.725V268.455H748.668V270.89H748.729C748.844 270.626 749.02 270.416 749.256 270.26C749.493 270.105 749.802 270.027 750.183 270.027C750.52 270.027 750.814 270.096 751.065 270.235C751.319 270.373 751.515 270.58 751.653 270.855C751.794 271.127 751.864 271.468 751.864 271.877V275H750.909V271.993C750.909 271.632 750.816 271.353 750.631 271.155C750.445 270.955 750.187 270.855 749.857 270.855C749.631 270.855 749.429 270.903 749.25 270.999C749.073 271.094 748.934 271.235 748.831 271.42C748.731 271.604 748.681 271.825 748.681 272.085ZM755.521 275V270.091H756.439V270.89H756.499C756.602 270.619 756.769 270.408 757.001 270.257C757.233 270.104 757.511 270.027 757.835 270.027C758.163 270.027 758.438 270.104 758.66 270.257C758.884 270.411 759.049 270.621 759.155 270.89H759.206C759.324 270.628 759.51 270.419 759.766 270.263C760.021 270.106 760.326 270.027 760.68 270.027C761.125 270.027 761.488 270.167 761.77 270.446C762.053 270.725 762.195 271.146 762.195 271.708V275H761.239V271.798C761.239 271.465 761.148 271.224 760.967 271.075C760.786 270.926 760.57 270.852 760.319 270.852C760.007 270.852 759.766 270.947 759.593 271.139C759.42 271.329 759.334 271.573 759.334 271.871V275H758.382V271.737C758.382 271.471 758.299 271.256 758.132 271.094C757.966 270.933 757.75 270.852 757.484 270.852C757.303 270.852 757.135 270.9 756.982 270.995C756.831 271.089 756.708 271.22 756.614 271.388C756.523 271.557 756.477 271.752 756.477 271.973V275H755.521ZM765.543 275.099C765.083 275.099 764.681 274.994 764.338 274.783C763.995 274.572 763.729 274.277 763.539 273.897C763.35 273.518 763.255 273.075 763.255 272.568C763.255 272.059 763.35 271.613 763.539 271.232C763.729 270.85 763.995 270.554 764.338 270.343C764.681 270.132 765.083 270.027 765.543 270.027C766.003 270.027 766.405 270.132 766.748 270.343C767.091 270.554 767.358 270.85 767.547 271.232C767.737 271.613 767.832 272.059 767.832 272.568C767.832 273.075 767.737 273.518 767.547 273.897C767.358 274.277 767.091 274.572 766.748 274.783C766.405 274.994 766.003 275.099 765.543 275.099ZM765.546 274.297C765.845 274.297 766.092 274.218 766.288 274.06C766.484 273.903 766.629 273.693 766.723 273.431C766.818 273.169 766.866 272.88 766.866 272.565C766.866 272.251 766.818 271.964 766.723 271.702C766.629 271.437 766.484 271.225 766.288 271.066C766.092 270.906 765.845 270.826 765.546 270.826C765.246 270.826 764.997 270.906 764.799 271.066C764.603 271.225 764.457 271.437 764.361 271.702C764.267 271.964 764.22 272.251 764.22 272.565C764.22 272.88 764.267 273.169 764.361 273.431C764.457 273.693 764.603 273.903 764.799 274.06C764.997 274.218 765.246 274.297 765.546 274.297ZM770.736 275.096C770.34 275.096 769.986 274.995 769.675 274.792C769.366 274.588 769.123 274.297 768.946 273.92C768.771 273.54 768.684 273.086 768.684 272.555C768.684 272.025 768.773 271.571 768.949 271.194C769.128 270.816 769.373 270.528 769.684 270.327C769.996 270.127 770.348 270.027 770.742 270.027C771.047 270.027 771.292 270.078 771.477 270.18C771.665 270.281 771.81 270.398 771.912 270.532C772.017 270.666 772.097 270.784 772.155 270.887H772.213V268.455H773.168V275H772.235V274.236H772.155C772.097 274.341 772.014 274.46 771.906 274.594C771.799 274.728 771.652 274.846 771.465 274.946C771.277 275.046 771.034 275.096 770.736 275.096ZM770.947 274.281C771.222 274.281 771.454 274.208 771.644 274.064C771.835 273.917 771.98 273.713 772.078 273.453C772.178 273.193 772.229 272.891 772.229 272.545C772.229 272.205 772.18 271.906 772.081 271.651C771.983 271.395 771.84 271.196 771.65 271.053C771.46 270.91 771.226 270.839 770.947 270.839C770.659 270.839 770.42 270.913 770.228 271.062C770.036 271.212 769.891 271.415 769.793 271.673C769.697 271.931 769.649 272.222 769.649 272.545C769.649 272.874 769.698 273.169 769.796 273.431C769.894 273.693 770.039 273.901 770.231 274.054C770.425 274.205 770.664 274.281 770.947 274.281ZM777.642 272.964V270.091H778.601V275H777.661V274.15H777.61C777.497 274.412 777.316 274.63 777.066 274.805C776.819 274.978 776.511 275.064 776.143 275.064C775.828 275.064 775.548 274.995 775.305 274.856C775.065 274.716 774.875 274.508 774.737 274.233C774.6 273.958 774.532 273.618 774.532 273.213V270.091H775.488V273.098C775.488 273.433 775.58 273.699 775.766 273.897C775.951 274.096 776.192 274.195 776.488 274.195C776.667 274.195 776.845 274.15 777.022 274.06C777.201 273.971 777.349 273.836 777.466 273.654C777.585 273.473 777.644 273.243 777.642 272.964ZM780.84 268.455V275H779.885V268.455H780.84ZM784.242 275.099C783.758 275.099 783.341 274.996 782.992 274.789C782.645 274.58 782.376 274.287 782.187 273.91C781.999 273.531 781.905 273.087 781.905 272.577C781.905 272.075 781.999 271.631 782.187 271.248C782.376 270.864 782.64 270.565 782.979 270.35C783.32 270.135 783.718 270.027 784.174 270.027C784.451 270.027 784.72 270.073 784.98 270.164C785.24 270.256 785.473 270.4 785.68 270.596C785.886 270.792 786.049 271.047 786.169 271.36C786.288 271.671 786.348 272.049 786.348 272.494V272.833H782.445V272.117H785.411C785.411 271.866 785.36 271.643 785.258 271.449C785.156 271.253 785.012 271.099 784.826 270.986C784.643 270.873 784.428 270.816 784.181 270.816C783.912 270.816 783.678 270.882 783.478 271.015C783.28 271.145 783.126 271.315 783.017 271.526C782.911 271.735 782.858 271.962 782.858 272.207V272.766C782.858 273.094 782.915 273.373 783.03 273.603C783.147 273.833 783.31 274.009 783.519 274.131C783.728 274.25 783.972 274.31 784.251 274.31C784.432 274.31 784.597 274.284 784.747 274.233C784.896 274.18 785.025 274.101 785.133 273.996C785.242 273.892 785.325 273.763 785.383 273.61L786.287 273.773C786.215 274.039 786.085 274.272 785.897 274.473C785.712 274.671 785.478 274.825 785.197 274.936C784.918 275.045 784.6 275.099 784.242 275.099Z" fill="white"/>
</g>
</g>
<defs>
<filter id="filter0_d_3036_1949" x="165.955" y="241" width="522.127" height="71.887" filterUnits="userSpaceOnUse" color-interpolation-filters="sRGB">
<feFlood flood-opacity="0" result="BackgroundImageFix"/>
<feColorMatrix in="SourceAlpha" type="matrix" values="0 0 0 0 0 0 0 0 0 0 0 0 0 0 0 0 0 0 127 0" result="hardAlpha"/>
<feOffset dy="5.0447"/>
<feGaussianBlur stdDeviation="2.52235"/>
<feComposite in2="hardAlpha" operator="out"/>
<feColorMatrix type="matrix" values="0 0 0 0 0 0 0 0 0 0 0 0 0 0 0 0 0 0 0.07 0"/>
<feBlend mode="normal" in2="BackgroundImageFix" result="effect1_dropShadow_3036_1949"/>
<feBlend mode="normal" in="SourceGraphic" in2="effect1_dropShadow_3036_1949" result="shape"/>
</filter>
<filter id="filter1_d_3036_1949" x="39" y="152" width="100" height="29" filterUnits="userSpaceOnUse" color-interpolation-filters="sRGB">
<feFlood flood-opacity="0" result="BackgroundImageFix"/>
<feColorMatrix in="SourceAlpha" type="matrix" values="0 0 0 0 0 0 0 0 0 0 0 0 0 0 0 0 0 0 127 0" result="hardAlpha"/>
<feOffset dy="4"/>
<feGaussianBlur stdDeviation="2"/>
<feComposite in2="hardAlpha" operator="out"/>
<feColorMatrix type="matrix" values="0 0 0 0 0 0 0 0 0 0 0 0 0 0 0 0 0 0 0.07 0"/>
<feBlend mode="normal" in2="BackgroundImageFix" result="effect1_dropShadow_3036_1949"/>
<feBlend mode="normal" in="SourceGraphic" in2="effect1_dropShadow_3036_1949" result="shape"/>
</filter>
<filter id="filter2_d_3036_1949" x="109" y="630" width="100" height="29" filterUnits="userSpaceOnUse" color-interpolation-filters="sRGB">
<feFlood flood-opacity="0" result="BackgroundImageFix"/>
<feColorMatrix in="SourceAlpha" type="matrix" values="0 0 0 0 0 0 0 0 0 0 0 0 0 0 0 0 0 0 127 0" result="hardAlpha"/>
<feOffset dy="4"/>
<feGaussianBlur stdDeviation="2"/>
<feComposite in2="hardAlpha" operator="out"/>
<feColorMatrix type="matrix" values="0 0 0 0 0 0 0 0 0 0 0 0 0 0 0 0 0 0 0.07 0"/>
<feBlend mode="normal" in2="BackgroundImageFix" result="effect1_dropShadow_3036_1949"/>
<feBlend mode="normal" in="SourceGraphic" in2="effect1_dropShadow_3036_1949" result="shape"/>
</filter>
<filter id="filter3_d_3036_1949" x="705" y="261" width="100" height="29" filterUnits="userSpaceOnUse" color-interpolation-filters="sRGB">
<feFlood flood-opacity="0" result="BackgroundImageFix"/>
<feColorMatrix in="SourceAlpha" type="matrix" values="0 0 0 0 0 0 0 0 0 0 0 0 0 0 0 0 0 0 127 0" result="hardAlpha"/>
<feOffset dy="4"/>
<feGaussianBlur stdDeviation="2"/>
<feComposite in2="hardAlpha" operator="out"/>
<feColorMatrix type="matrix" values="0 0 0 0 0 0 0 0 0 0 0 0 0 0 0 0 0 0 0.07 0"/>
<feBlend mode="normal" in2="BackgroundImageFix" result="effect1_dropShadow_3036_1949"/>
<feBlend mode="normal" in="SourceGraphic" in2="effect1_dropShadow_3036_1949" result="shape"/>
</filter>
</defs>
</svg>
