<svg width="348" height="667" viewBox="0 0 348 667" fill="none" xmlns="http://www.w3.org/2000/svg">
<rect x="52" width="261" height="667" rx="33" fill="#1E2533"/>
<g clip-path="url(#clip0_3184_1924)">
<rect x="57" y="28" width="252" height="612" fill="white"/>
<rect x="71" y="279" width="125" height="10" rx="5" fill="#C8CDD8"/>
<rect x="57" y="28" width="252" height="94" fill="#F2F4F8"/>
<g filter="url(#filter0_d_3184_1924)">
<rect x="71" y="102" width="225" height="38" rx="8" fill="white"/>
<rect x="71.6306" y="102.631" width="223.739" height="36.7388" rx="7.36941" stroke="#D4D8E2" stroke-width="1.26118"/>
</g>
<rect x="270" y="113" width="16" height="16" rx="3" fill="#DDE2EA"/>
<rect x="84" y="119" width="68" height="4" rx="2" fill="#C8CDD8"/>
<rect x="71" y="63" width="30" height="30" rx="15" fill="#C8CDD8"/>
<rect x="109" y="81" width="89" height="4" rx="2" fill="#C8CDD8"/>
<rect x="109" y="71" width="71" height="5" rx="2.5" fill="#C8CDD8"/>
<path d="M73.8988 39.3651C74.2354 39.3651 74.5593 39.4215 74.8704 39.5344C75.1836 39.6474 75.4627 39.8274 75.7077 40.0746C75.9549 40.3217 76.1499 40.6499 76.2926 41.0589C76.4375 41.4659 76.511 41.9656 76.5131 42.5579C76.5131 43.114 76.4503 43.6104 76.3246 44.0472C76.201 44.4819 76.0231 44.8516 75.7908 45.1562C75.5586 45.4609 75.2784 45.6932 74.9503 45.853C74.6222 46.0107 74.2557 46.0895 73.8509 46.0895C73.4141 46.0895 73.0284 46.0053 72.6939 45.837C72.3594 45.6665 72.0898 45.4354 71.8853 45.1435C71.6829 44.8494 71.5604 44.5192 71.5178 44.1527H72.8825C72.9357 44.3913 73.0476 44.5767 73.218 44.7088C73.3885 44.8388 73.5994 44.9038 73.8509 44.9038C74.277 44.9038 74.6009 44.7184 74.8224 44.3477C75.044 43.9748 75.1559 43.4645 75.158 42.8168H75.1133C75.0153 43.0085 74.8832 43.1737 74.717 43.3121C74.5508 43.4485 74.3601 43.554 74.1449 43.6286C73.9318 43.7031 73.7049 43.7404 73.4641 43.7404C73.0785 43.7404 72.7344 43.6499 72.4318 43.4688C72.1293 43.2876 71.8906 43.0384 71.7159 42.7209C71.5412 42.4034 71.4538 42.0412 71.4538 41.6342C71.4517 41.1953 71.5529 40.8043 71.7575 40.4613C71.962 40.1183 72.2475 39.8498 72.614 39.6559C72.9826 39.4599 73.4109 39.3629 73.8988 39.3651ZM73.9084 40.4517C73.6932 40.4517 73.5014 40.5028 73.3331 40.6051C73.1669 40.7074 73.0348 40.8448 72.9368 41.0174C72.8409 41.19 72.794 41.3828 72.7962 41.5959C72.7962 41.8111 72.843 42.005 72.9368 42.1776C73.0327 42.348 73.1626 42.4844 73.3267 42.5866C73.4929 42.6868 73.6825 42.7369 73.8956 42.7369C74.0554 42.7369 74.2035 42.707 74.3398 42.6474C74.4762 42.5877 74.5945 42.5057 74.6946 42.4013C74.7969 42.2947 74.8768 42.1722 74.9343 42.0337C74.9918 41.8952 75.0206 41.7482 75.0206 41.5927C75.0185 41.386 74.9695 41.1964 74.8736 41.0238C74.7777 40.8512 74.6456 40.7127 74.4773 40.6083C74.3089 40.5039 74.1193 40.4517 73.9084 40.4517ZM78.2805 45.2393C78.0696 45.2393 77.8885 45.1648 77.7372 45.0156C77.5881 44.8665 77.5135 44.6854 77.5135 44.4723C77.5135 44.2635 77.5881 44.0845 77.7372 43.9354C77.8885 43.7862 78.0696 43.7116 78.2805 43.7116C78.4851 43.7116 78.6641 43.7862 78.8175 43.9354C78.9709 44.0845 79.0476 44.2635 79.0476 44.4723C79.0476 44.6129 79.0114 44.7418 78.9389 44.859C78.8686 44.9741 78.7759 45.0668 78.6609 45.1371C78.5458 45.2053 78.419 45.2393 78.2805 45.2393ZM78.2805 42.0273C78.0696 42.0273 77.8885 41.9528 77.7372 41.8036C77.5881 41.6545 77.5135 41.4734 77.5135 41.2603C77.5135 41.0515 77.5881 40.8736 77.7372 40.7266C77.8885 40.5774 78.0696 40.5028 78.2805 40.5028C78.4851 40.5028 78.6641 40.5774 78.8175 40.7266C78.9709 40.8736 79.0476 41.0515 79.0476 41.2603C79.0476 41.4031 79.0114 41.533 78.9389 41.6502C78.8686 41.7653 78.7759 41.8569 78.6609 41.9251C78.5458 41.9933 78.419 42.0273 78.2805 42.0273ZM80.0535 44.8494V43.7596L82.7861 39.4545H83.7258V40.9631H83.1697L81.447 43.6893V43.7404H85.3302V44.8494H80.0535ZM83.1952 46V44.517L83.2208 44.0344V39.4545H84.5184V46H83.1952ZM89.012 39.4545V46H87.6281V40.7681H87.5898L86.0908 41.7077V40.4805L87.7112 39.4545H89.012Z" fill="#9BA5B7"/>
<rect x="272" y="40" width="12" height="5" rx="2.5" fill="#C8CDD8"/>
<rect x="288" y="40" width="8" height="5" rx="2.5" fill="#C8CDD8"/>
<g filter="url(#filter1_d_3184_1924)">
<rect x="71" y="156" width="110" height="100" rx="8" fill="white"/>
<rect x="71.6306" y="156.631" width="108.739" height="98.7388" rx="7.36941" stroke="#D4D8E2" stroke-width="1.26118"/>
</g>
<rect x="81" y="239" width="33" height="4" rx="2" fill="#C8CDD8"/>
<rect x="81" y="229" width="81" height="5" rx="2.5" fill="#C8CDD8"/>
<rect x="81" y="168" width="22" height="22" rx="3" fill="#DDE2EA"/>
<g filter="url(#filter2_d_3184_1924)">
<rect x="186" y="156" width="110" height="100" rx="8" fill="white"/>
<rect x="186.631" y="156.631" width="108.739" height="98.7388" rx="7.36941" stroke="#D4D8E2" stroke-width="1.26118"/>
</g>
<rect x="196" y="239" width="33" height="4" rx="2" fill="#C8CDD8"/>
<rect x="196" y="229" width="81" height="5" rx="2.5" fill="#C8CDD8"/>
<rect x="196" y="168" width="22" height="22" rx="3" fill="#DDE2EA"/>
<rect x="263" y="282" width="33" height="4" rx="2" fill="#C8CDD8"/>
<rect x="71" y="361" width="125" height="10" rx="5" fill="#C8CDD8"/>
<g filter="url(#filter3_d_3184_1924)">
<rect x="71" y="380" width="150" height="145" rx="8" fill="white"/>
<rect x="71.6306" y="380.631" width="148.739" height="143.739" rx="7.36941" stroke="#D4D8E2" stroke-width="1.26118"/>
</g>
<path d="M81 494C81 491.239 83.2386 489 86 489H124C126.761 489 129 491.239 129 494V508C129 510.761 126.761 513 124 513H86C83.2386 513 81 510.761 81 508V494Z" fill="#B0C8F0"/>
<path d="M92.679 505H91.7557L94.4261 497.727H95.3352L98.0057 505H97.0824L94.9091 498.878H94.8523L92.679 505ZM93.0199 502.159H96.7415V502.94H93.0199V502.159ZM99.0249 507.045V499.545H99.8345V500.412H99.9339C99.9955 500.317 100.081 500.196 100.19 500.05C100.301 499.901 100.46 499.768 100.665 499.652C100.874 499.534 101.156 499.474 101.511 499.474C101.97 499.474 102.375 499.589 102.725 499.819C103.076 500.049 103.349 500.374 103.545 500.795C103.742 501.217 103.84 501.714 103.84 502.287C103.84 502.865 103.742 503.365 103.545 503.789C103.349 504.21 103.077 504.537 102.729 504.769C102.381 504.999 101.979 505.114 101.525 505.114C101.174 505.114 100.894 505.056 100.683 504.94C100.473 504.821 100.31 504.687 100.197 504.538C100.083 504.387 99.9955 504.261 99.9339 504.162H99.8629V507.045H99.0249ZM99.8487 502.273C99.8487 502.685 99.9091 503.048 100.03 503.363C100.151 503.675 100.327 503.92 100.559 504.098C100.791 504.273 101.075 504.361 101.411 504.361C101.762 504.361 102.054 504.268 102.288 504.084C102.525 503.897 102.703 503.646 102.821 503.331C102.942 503.014 103.002 502.661 103.002 502.273C103.002 501.889 102.943 501.544 102.825 501.236C102.709 500.926 102.532 500.681 102.295 500.501C102.061 500.318 101.766 500.227 101.411 500.227C101.07 500.227 100.784 500.314 100.552 500.487C100.32 500.657 100.145 500.896 100.026 501.204C99.9079 501.509 99.8487 501.866 99.8487 502.273ZM105.119 507.045V499.545H105.928V500.412H106.028C106.089 500.317 106.174 500.196 106.283 500.05C106.395 499.901 106.553 499.768 106.759 499.652C106.968 499.534 107.249 499.474 107.604 499.474C108.064 499.474 108.469 499.589 108.819 499.819C109.169 500.049 109.443 500.374 109.639 500.795C109.836 501.217 109.934 501.714 109.934 502.287C109.934 502.865 109.836 503.365 109.639 503.789C109.443 504.21 109.17 504.537 108.822 504.769C108.474 504.999 108.073 505.114 107.619 505.114C107.268 505.114 106.988 505.056 106.777 504.94C106.566 504.821 106.404 504.687 106.29 504.538C106.177 504.387 106.089 504.261 106.028 504.162H105.957V507.045H105.119ZM105.942 502.273C105.942 502.685 106.003 503.048 106.124 503.363C106.244 503.675 106.421 503.92 106.653 504.098C106.885 504.273 107.169 504.361 107.505 504.361C107.855 504.361 108.148 504.268 108.382 504.084C108.619 503.897 108.796 503.646 108.915 503.331C109.036 503.014 109.096 502.661 109.096 502.273C109.096 501.889 109.037 501.544 108.918 501.236C108.802 500.926 108.626 500.681 108.389 500.501C108.155 500.318 107.86 500.227 107.505 500.227C107.164 500.227 106.878 500.314 106.646 500.487C106.414 500.657 106.238 500.896 106.12 501.204C106.002 501.509 105.942 501.866 105.942 502.273ZM112.05 497.727V505H111.212V497.727H112.05ZM114.125 507.045C113.983 507.045 113.856 507.034 113.745 507.01C113.634 506.989 113.557 506.967 113.514 506.946L113.727 506.207C113.931 506.259 114.111 506.278 114.267 506.264C114.423 506.25 114.562 506.18 114.683 506.055C114.806 505.932 114.918 505.732 115.02 505.455L115.176 505.028L113.159 499.545H114.068L115.574 503.892H115.631L117.137 499.545H118.046L115.73 505.795C115.626 506.077 115.497 506.31 115.343 506.495C115.189 506.682 115.011 506.821 114.807 506.911C114.606 507 114.378 507.045 114.125 507.045Z" fill="#6B80A4"/>
<rect x="109" y="406" width="33" height="4" rx="2" fill="#C8CDD8"/>
<rect x="109" y="396" width="61" height="5" rx="2.5" fill="#C8CDD8"/>
<rect x="81" y="423" width="126" height="4" rx="2" fill="#C8CDD8"/>
<rect x="81" y="431" width="112" height="4" rx="2" fill="#C8CDD8"/>
<rect x="81" y="439" width="59" height="4" rx="2" fill="#C8CDD8"/>
<rect x="81" y="457" width="9" height="4" rx="2" fill="#C8CDD8"/>
<rect x="81" y="466" width="9" height="4" rx="2" fill="#C8CDD8"/>
<rect x="93" y="457" width="36" height="4" rx="2" fill="#C8CDD8"/>
<rect x="93" y="466" width="49" height="4" rx="2" fill="#C8CDD8"/>
<rect x="81" y="392" width="22" height="22" rx="3" fill="#DDE2EA"/>
<g filter="url(#filter4_d_3184_1924)">
<rect x="226" y="380" width="150" height="145" rx="8" fill="white"/>
<rect x="226.631" y="380.631" width="148.739" height="143.739" rx="7.36941" stroke="#D4D8E2" stroke-width="1.26118"/>
</g>
<path d="M236 494C236 491.239 238.239 489 241 489H279C281.761 489 284 491.239 284 494V508C284 510.761 281.761 513 279 513H241C238.239 513 236 510.761 236 508V494Z" fill="#B0C8F0"/>
<path d="M247.679 505H246.756L249.426 497.727H250.335L253.006 505H252.082L249.909 498.878H249.852L247.679 505ZM248.02 502.159H251.741V502.94H248.02V502.159ZM254.025 507.045V499.545H254.835V500.412H254.934C254.996 500.317 255.081 500.196 255.19 500.05C255.301 499.901 255.46 499.768 255.665 499.652C255.874 499.534 256.156 499.474 256.511 499.474C256.97 499.474 257.375 499.589 257.725 499.819C258.076 500.049 258.349 500.374 258.545 500.795C258.742 501.217 258.84 501.714 258.84 502.287C258.84 502.865 258.742 503.365 258.545 503.789C258.349 504.21 258.077 504.537 257.729 504.769C257.381 504.999 256.979 505.114 256.525 505.114C256.174 505.114 255.894 505.056 255.683 504.94C255.473 504.821 255.31 504.687 255.197 504.538C255.083 504.387 254.996 504.261 254.934 504.162H254.863V507.045H254.025ZM254.849 502.273C254.849 502.685 254.909 503.048 255.03 503.363C255.151 503.675 255.327 503.92 255.559 504.098C255.791 504.273 256.075 504.361 256.411 504.361C256.762 504.361 257.054 504.268 257.288 504.084C257.525 503.897 257.703 503.646 257.821 503.331C257.942 503.014 258.002 502.661 258.002 502.273C258.002 501.889 257.943 501.544 257.825 501.236C257.709 500.926 257.532 500.681 257.295 500.501C257.061 500.318 256.766 500.227 256.411 500.227C256.07 500.227 255.784 500.314 255.552 500.487C255.32 500.657 255.145 500.896 255.026 501.204C254.908 501.509 254.849 501.866 254.849 502.273ZM260.119 507.045V499.545H260.928V500.412H261.028C261.089 500.317 261.174 500.196 261.283 500.05C261.395 499.901 261.553 499.768 261.759 499.652C261.968 499.534 262.249 499.474 262.604 499.474C263.064 499.474 263.469 499.589 263.819 499.819C264.169 500.049 264.443 500.374 264.639 500.795C264.836 501.217 264.934 501.714 264.934 502.287C264.934 502.865 264.836 503.365 264.639 503.789C264.443 504.21 264.17 504.537 263.822 504.769C263.474 504.999 263.073 505.114 262.619 505.114C262.268 505.114 261.988 505.056 261.777 504.94C261.566 504.821 261.404 504.687 261.29 504.538C261.177 504.387 261.089 504.261 261.028 504.162H260.957V507.045H260.119ZM260.942 502.273C260.942 502.685 261.003 503.048 261.124 503.363C261.244 503.675 261.421 503.92 261.653 504.098C261.885 504.273 262.169 504.361 262.505 504.361C262.855 504.361 263.148 504.268 263.382 504.084C263.619 503.897 263.796 503.646 263.915 503.331C264.036 503.014 264.096 502.661 264.096 502.273C264.096 501.889 264.037 501.544 263.918 501.236C263.802 500.926 263.626 500.681 263.389 500.501C263.155 500.318 262.86 500.227 262.505 500.227C262.164 500.227 261.878 500.314 261.646 500.487C261.414 500.657 261.238 500.896 261.12 501.204C261.002 501.509 260.942 501.866 260.942 502.273ZM267.05 497.727V505H266.212V497.727H267.05ZM269.125 507.045C268.983 507.045 268.856 507.034 268.745 507.01C268.634 506.989 268.557 506.967 268.514 506.946L268.727 506.207C268.931 506.259 269.111 506.278 269.267 506.264C269.423 506.25 269.562 506.18 269.683 506.055C269.806 505.932 269.918 505.732 270.02 505.455L270.176 505.028L268.159 499.545H269.068L270.574 503.892H270.631L272.137 499.545H273.046L270.73 505.795C270.626 506.077 270.497 506.31 270.343 506.495C270.189 506.682 270.011 506.821 269.807 506.911C269.606 507 269.378 507.045 269.125 507.045Z" fill="#6B80A4"/>
<rect x="264" y="406" width="33" height="4" rx="2" fill="#C8CDD8"/>
<rect x="264" y="396" width="61" height="5" rx="2.5" fill="#C8CDD8"/>
<rect x="236" y="423" width="126" height="4" rx="2" fill="#C8CDD8"/>
<rect x="236" y="431" width="112" height="4" rx="2" fill="#C8CDD8"/>
<rect x="236" y="439" width="59" height="4" rx="2" fill="#C8CDD8"/>
<rect x="236" y="457" width="9" height="4" rx="2" fill="#C8CDD8"/>
<rect x="236" y="466" width="9" height="4" rx="2" fill="#C8CDD8"/>
<rect x="248" y="457" width="36" height="4" rx="2" fill="#C8CDD8"/>
<rect x="248" y="466" width="49" height="4" rx="2" fill="#C8CDD8"/>
<rect x="236" y="392" width="22" height="22" rx="3" fill="#DDE2EA"/>
<rect x="263" y="364" width="33" height="4" rx="2" fill="#C8CDD8"/>
<rect x="71" y="548" width="125" height="10" rx="5" fill="#C8CDD8"/>
<g filter="url(#filter5_d_3184_1924)">
<rect x="71" y="567" width="150" height="145" rx="8" fill="white"/>
<rect x="71.6306" y="567.631" width="148.739" height="143.739" rx="7.36941" stroke="#D4D8E2" stroke-width="1.26118"/>
</g>
<rect x="109" y="593" width="33" height="4" rx="2" fill="#C8CDD8"/>
<rect x="109" y="583" width="61" height="5" rx="2.5" fill="#C8CDD8"/>
<rect x="81" y="610" width="126" height="4" rx="2" fill="#C8CDD8"/>
<rect x="81" y="618" width="112" height="4" rx="2" fill="#C8CDD8"/>
<rect x="81" y="626" width="59" height="4" rx="2" fill="#C8CDD8"/>
<rect x="81" y="579" width="22" height="22" rx="3" fill="#DDE2EA"/>
<g filter="url(#filter6_d_3184_1924)">
<rect x="226" y="567" width="150" height="145" rx="8" fill="white"/>
<rect x="226.631" y="567.631" width="148.739" height="143.739" rx="7.36941" stroke="#D4D8E2" stroke-width="1.26118"/>
</g>
<rect x="264" y="593" width="33" height="4" rx="2" fill="#C8CDD8"/>
<rect x="264" y="583" width="61" height="5" rx="2.5" fill="#C8CDD8"/>
<rect x="236" y="610" width="126" height="4" rx="2" fill="#C8CDD8"/>
<rect x="236" y="618" width="112" height="4" rx="2" fill="#C8CDD8"/>
<rect x="236" y="626" width="59" height="4" rx="2" fill="#C8CDD8"/>
<rect x="236" y="579" width="22" height="22" rx="3" fill="#DDE2EA"/>
<rect x="263" y="551" width="33" height="4" rx="2" fill="#C8CDD8"/>
<rect x="71.5" y="298.5" width="109" height="39" rx="7.5" fill="#F2F4F8" stroke="#D4D8E2"/>
<rect x="81" y="307" width="22" height="22" rx="3" fill="#C8CDD8"/>
<rect x="109" y="321" width="33" height="4" rx="2" fill="#C8CDD8"/>
<rect x="109" y="311" width="56" height="5" rx="2.5" fill="#C8CDD8"/>
<rect x="186.5" y="298.5" width="109" height="39" rx="7.5" fill="#F2F4F8" stroke="#D4D8E2"/>
<rect x="196" y="307" width="22" height="22" rx="3" fill="#C8CDD8"/>
<rect x="224" y="321" width="33" height="4" rx="2" fill="#C8CDD8"/>
<rect x="224" y="311" width="56" height="5" rx="2.5" fill="#C8CDD8"/>
<rect x="71" y="593" width="225" height="35" rx="17.5" fill="#1E2533"/>
<g opacity="0.4">
<rect x="86" y="607" width="39" height="7" rx="3.5" fill="#C8CDD8"/>
<rect x="138" y="607" width="39" height="7" rx="3.5" fill="#C8CDD8"/>
<rect x="190" y="607" width="39" height="7" rx="3.5" fill="#C8CDD8"/>
<rect x="242" y="607" width="39" height="7" rx="3.5" fill="#C8CDD8"/>
</g>
</g>
<rect x="143" y="6" width="80" height="16" rx="8" fill="#2E3A50"/>
<rect x="151" y="650" width="64" height="4" rx="2" fill="#626670"/>
<g filter="url(#filter7_d_3184_1924)">
<rect x="283" y="89" width="54" height="21" rx="10.5" fill="#FBBC09" shape-rendering="crispEdges"/>
<path d="M299.289 98.174C299.255 97.8714 299.114 97.6371 298.867 97.4709C298.62 97.3026 298.309 97.2184 297.934 97.2184C297.665 97.2184 297.433 97.261 297.237 97.3462C297.041 97.4293 296.889 97.5444 296.78 97.6914C296.674 97.8363 296.62 98.0014 296.62 98.1868C296.62 98.3423 296.657 98.4766 296.729 98.5895C296.804 98.7024 296.901 98.7972 297.02 98.8739C297.141 98.9485 297.271 99.0114 297.41 99.0625C297.548 99.1115 297.681 99.152 297.809 99.1839L298.449 99.3501C298.657 99.4013 298.871 99.4705 299.091 99.5579C299.31 99.6452 299.514 99.7603 299.701 99.9031C299.889 100.046 300.04 100.223 300.155 100.434C300.272 100.645 300.331 100.897 300.331 101.191C300.331 101.562 300.235 101.891 300.043 102.179C299.854 102.466 299.578 102.693 299.216 102.859C298.855 103.026 298.42 103.109 297.908 103.109C297.418 103.109 296.994 103.031 296.636 102.875C296.278 102.72 295.998 102.499 295.796 102.214C295.593 101.926 295.482 101.585 295.46 101.191H296.451C296.47 101.428 296.547 101.625 296.681 101.782C296.817 101.938 296.991 102.054 297.202 102.131C297.415 102.205 297.648 102.243 297.902 102.243C298.181 102.243 298.429 102.199 298.647 102.112C298.866 102.022 299.039 101.898 299.164 101.741C299.29 101.581 299.353 101.395 299.353 101.181C299.353 100.988 299.298 100.829 299.187 100.705C299.078 100.582 298.93 100.479 298.743 100.398C298.557 100.317 298.347 100.246 298.113 100.184L297.339 99.9734C296.815 99.8306 296.4 99.6207 296.093 99.3438C295.788 99.0668 295.636 98.7003 295.636 98.2443C295.636 97.8672 295.738 97.538 295.943 97.2567C296.147 96.9755 296.424 96.7571 296.774 96.6016C297.123 96.4439 297.517 96.3651 297.956 96.3651C298.4 96.3651 298.79 96.4428 299.129 96.5984C299.47 96.7539 299.739 96.968 299.935 97.2408C300.131 97.5114 300.233 97.8224 300.241 98.174H299.289ZM303.55 103.099C303.066 103.099 302.65 102.996 302.301 102.789C301.953 102.58 301.685 102.287 301.495 101.91C301.308 101.531 301.214 101.087 301.214 100.577C301.214 100.075 301.308 99.6314 301.495 99.2479C301.685 98.8643 301.949 98.565 302.288 98.3498C302.629 98.1346 303.027 98.027 303.483 98.027C303.76 98.027 304.028 98.0728 304.288 98.1644C304.548 98.256 304.782 98.3999 304.988 98.5959C305.195 98.7919 305.358 99.0465 305.477 99.3597C305.597 99.6708 305.656 100.049 305.656 100.494V100.833H301.754V100.117H304.72C304.72 99.8658 304.669 99.6431 304.566 99.4492C304.464 99.2532 304.32 99.0987 304.135 98.9858C303.952 98.8729 303.737 98.8164 303.489 98.8164C303.221 98.8164 302.987 98.8825 302.786 99.0146C302.588 99.1445 302.435 99.315 302.326 99.5259C302.22 99.7347 302.166 99.9616 302.166 100.207V100.766C302.166 101.094 302.224 101.373 302.339 101.603C302.456 101.833 302.619 102.009 302.828 102.131C303.037 102.25 303.281 102.31 303.56 102.31C303.741 102.31 303.906 102.284 304.055 102.233C304.204 102.18 304.333 102.101 304.442 101.996C304.551 101.892 304.634 101.763 304.691 101.61L305.596 101.773C305.523 102.039 305.393 102.272 305.206 102.473C305.02 102.671 304.787 102.825 304.506 102.936C304.227 103.045 303.908 103.099 303.55 103.099ZM308.145 103.109C307.834 103.109 307.553 103.051 307.301 102.936C307.05 102.819 306.851 102.65 306.704 102.428C306.559 102.206 306.487 101.935 306.487 101.613C306.487 101.336 306.54 101.108 306.646 100.929C306.753 100.75 306.897 100.608 307.078 100.504C307.259 100.4 307.461 100.321 307.685 100.267C307.909 100.214 308.137 100.174 308.369 100.146C308.663 100.112 308.902 100.084 309.085 100.063C309.268 100.039 309.401 100.002 309.484 99.951C309.567 99.8999 309.609 99.8168 309.609 99.7017V99.6793C309.609 99.4002 309.53 99.1839 309.373 99.0305C309.217 98.8771 308.985 98.8004 308.676 98.8004C308.354 98.8004 308.1 98.8718 307.915 99.0146C307.732 99.1552 307.605 99.3118 307.535 99.4844L306.637 99.2798C306.743 98.9815 306.899 98.7408 307.103 98.5575C307.31 98.3722 307.548 98.2379 307.816 98.1548C308.085 98.0696 308.367 98.027 308.663 98.027C308.859 98.027 309.067 98.0504 309.286 98.0973C309.508 98.142 309.714 98.2251 309.906 98.3466C310.1 98.468 310.259 98.6417 310.382 98.8675C310.506 99.0913 310.568 99.3821 310.568 99.7401V103H309.635V102.329H309.596C309.534 102.452 309.442 102.574 309.318 102.693C309.195 102.812 309.036 102.912 308.842 102.99C308.648 103.069 308.416 103.109 308.145 103.109ZM308.353 102.342C308.617 102.342 308.843 102.289 309.031 102.185C309.22 102.081 309.364 101.944 309.462 101.776C309.562 101.605 309.612 101.423 309.612 101.229V100.597C309.578 100.631 309.512 100.663 309.414 100.692C309.318 100.72 309.208 100.745 309.085 100.766C308.961 100.785 308.841 100.803 308.724 100.82C308.607 100.835 308.509 100.848 308.43 100.859C308.244 100.882 308.075 100.922 307.922 100.977C307.77 101.032 307.649 101.112 307.557 101.217C307.468 101.319 307.423 101.455 307.423 101.626C307.423 101.862 307.51 102.041 307.685 102.163C307.86 102.282 308.082 102.342 308.353 102.342ZM311.841 103V98.0909H312.764V98.8707H312.815C312.905 98.6065 313.063 98.3988 313.288 98.2475C313.516 98.0941 313.774 98.0174 314.062 98.0174C314.122 98.0174 314.192 98.0195 314.273 98.0238C314.356 98.0281 314.421 98.0334 314.468 98.0398V98.9538C314.429 98.9432 314.361 98.9315 314.263 98.9187C314.165 98.9038 314.067 98.8963 313.969 98.8963C313.743 98.8963 313.542 98.9442 313.365 99.0401C313.19 99.1339 313.052 99.2649 312.95 99.4332C312.847 99.5994 312.796 99.7891 312.796 100.002V103H311.841ZM317.187 103.099C316.712 103.099 316.303 102.991 315.96 102.776C315.619 102.559 315.357 102.26 315.173 101.878C314.99 101.497 314.898 101.06 314.898 100.568C314.898 100.069 314.992 99.6293 315.18 99.2479C315.367 98.8643 315.631 98.565 315.972 98.3498C316.313 98.1346 316.715 98.027 317.177 98.027C317.55 98.027 317.882 98.0962 318.174 98.2347C318.466 98.3711 318.702 98.5629 318.881 98.81C319.062 99.0572 319.169 99.3459 319.203 99.6761H318.273C318.222 99.446 318.105 99.2479 317.922 99.0817C317.741 98.9155 317.498 98.8324 317.193 98.8324C316.927 98.8324 316.694 98.9027 316.493 99.0433C316.295 99.1818 316.141 99.38 316.03 99.6378C315.919 99.8935 315.864 100.196 315.864 100.545C315.864 100.903 315.918 101.212 316.027 101.472C316.135 101.732 316.289 101.934 316.487 102.076C316.687 102.219 316.923 102.29 317.193 102.29C317.374 102.29 317.538 102.257 317.685 102.191C317.835 102.123 317.959 102.026 318.059 101.901C318.162 101.775 318.233 101.624 318.273 101.447H319.203C319.169 101.764 319.066 102.048 318.893 102.297C318.721 102.546 318.49 102.742 318.2 102.885C317.912 103.028 317.575 103.099 317.187 103.099ZM321.181 100.085V103H320.225V96.4545H321.168V98.8899H321.229C321.344 98.6257 321.52 98.4158 321.756 98.2603C321.993 98.1048 322.302 98.027 322.683 98.027C323.02 98.027 323.314 98.0962 323.565 98.2347C323.819 98.3732 324.015 98.5799 324.153 98.8548C324.294 99.1275 324.364 99.4684 324.364 99.8775V103H323.409V99.9925C323.409 99.6325 323.316 99.3533 323.131 99.1552C322.945 98.9549 322.687 98.8548 322.357 98.8548C322.131 98.8548 321.929 98.9027 321.75 98.9986C321.573 99.0945 321.434 99.2351 321.331 99.4205C321.231 99.6037 321.181 99.8253 321.181 100.085Z" fill="white"/>
</g>
<g filter="url(#filter8_d_3184_1924)">
<rect x="11" y="199" width="88" height="21" rx="10.5" fill="#FBBC09" shape-rendering="crispEdges"/>
<path d="M22.2191 213V206.455H26.2781V207.305H23.2067V209.299H25.9872V210.146H23.2067V213H22.2191ZM28.3714 206.455V213H27.4158V206.455H28.3714ZM31.7249 213.099C31.2646 213.099 30.863 212.994 30.52 212.783C30.1769 212.572 29.9106 212.277 29.721 211.897C29.5313 211.518 29.4365 211.075 29.4365 210.568C29.4365 210.059 29.5313 209.613 29.721 209.232C29.9106 208.85 30.1769 208.554 30.52 208.343C30.863 208.132 31.2646 208.027 31.7249 208.027C32.1851 208.027 32.5867 208.132 32.9298 208.343C33.2728 208.554 33.5392 208.85 33.7288 209.232C33.9184 209.613 34.0132 210.059 34.0132 210.568C34.0132 211.075 33.9184 211.518 33.7288 211.897C33.5392 212.277 33.2728 212.572 32.9298 212.783C32.5867 212.994 32.1851 213.099 31.7249 213.099ZM31.7281 212.297C32.0264 212.297 32.2735 212.218 32.4695 212.06C32.6656 211.903 32.8105 211.693 32.9042 211.431C33.0001 211.169 33.048 210.88 33.048 210.565C33.048 210.251 33.0001 209.964 32.9042 209.702C32.8105 209.437 32.6656 209.225 32.4695 209.066C32.2735 208.906 32.0264 208.826 31.7281 208.826C31.4276 208.826 31.1784 208.906 30.9802 209.066C30.7842 209.225 30.6382 209.437 30.5423 209.702C30.4486 209.964 30.4017 210.251 30.4017 210.565C30.4017 210.88 30.4486 211.169 30.5423 211.431C30.6382 211.693 30.7842 211.903 30.9802 212.06C31.1784 212.218 31.4276 212.297 31.7281 212.297ZM36.5085 213.109C36.1974 213.109 35.9162 213.051 35.6648 212.936C35.4134 212.819 35.2141 212.65 35.0671 212.428C34.9222 212.206 34.8498 211.935 34.8498 211.613C34.8498 211.336 34.9031 211.108 35.0096 210.929C35.1161 210.75 35.2599 210.608 35.4411 210.504C35.6222 210.4 35.8246 210.321 36.0483 210.267C36.272 210.214 36.5 210.174 36.7322 210.146C37.0263 210.112 37.2649 210.084 37.4482 210.063C37.6314 210.039 37.7646 210.002 37.8477 209.951C37.9308 209.9 37.9723 209.817 37.9723 209.702V209.679C37.9723 209.4 37.8935 209.184 37.7358 209.031C37.5803 208.877 37.348 208.8 37.0391 208.8C36.7173 208.8 36.4638 208.872 36.2784 209.015C36.0952 209.155 35.9684 209.312 35.8981 209.484L35 209.28C35.1065 208.982 35.2621 208.741 35.4666 208.558C35.6733 208.372 35.9109 208.238 36.1793 208.155C36.4478 208.07 36.7301 208.027 37.0263 208.027C37.2223 208.027 37.43 208.05 37.6495 208.097C37.8711 208.142 38.0778 208.225 38.2695 208.347C38.4634 208.468 38.6222 208.642 38.7457 208.868C38.8693 209.091 38.9311 209.382 38.9311 209.74V213H37.9979V212.329H37.9595C37.8977 212.452 37.805 212.574 37.6815 212.693C37.5579 212.812 37.3991 212.912 37.2053 212.99C37.0114 213.069 36.7791 213.109 36.5085 213.109ZM36.7163 212.342C36.9805 212.342 37.2063 212.289 37.3938 212.185C37.5835 212.081 37.7273 211.944 37.8253 211.776C37.9254 211.605 37.9755 211.423 37.9755 211.229V210.597C37.9414 210.631 37.8754 210.663 37.7773 210.692C37.6815 210.72 37.5717 210.745 37.4482 210.766C37.3246 210.785 37.2042 210.803 37.087 210.82C36.9698 210.835 36.8718 210.848 36.793 210.859C36.6076 210.882 36.4382 210.922 36.2848 210.977C36.1335 211.032 36.0121 211.112 35.9205 211.217C35.831 211.319 35.7862 211.455 35.7862 211.626C35.7862 211.862 35.8736 212.041 36.0483 212.163C36.223 212.282 36.4457 212.342 36.7163 212.342ZM42.4955 208.091V208.858H39.814V208.091H42.4955ZM40.5331 206.915H41.4887V211.559C41.4887 211.744 41.5164 211.884 41.5718 211.977C41.6272 212.069 41.6986 212.132 41.786 212.166C41.8754 212.198 41.9724 212.214 42.0768 212.214C42.1535 212.214 42.2206 212.208 42.2781 212.198C42.3357 212.187 42.3804 212.179 42.4124 212.172L42.585 212.962C42.5296 212.983 42.4507 213.004 42.3485 213.026C42.2462 213.049 42.1183 213.062 41.9649 213.064C41.7135 213.068 41.4791 213.023 41.2618 212.93C41.0445 212.836 40.8687 212.691 40.7345 212.495C40.6002 212.299 40.5331 212.053 40.5331 211.757V206.915ZM43.5526 213V208.091H44.5082V213H43.5526ZM44.0352 207.333C43.869 207.333 43.7262 207.278 43.6069 207.167C43.4897 207.054 43.4311 206.92 43.4311 206.765C43.4311 206.607 43.4897 206.473 43.6069 206.362C43.7262 206.249 43.869 206.192 44.0352 206.192C44.2013 206.192 44.343 206.249 44.4602 206.362C44.5795 206.473 44.6392 206.607 44.6392 206.765C44.6392 206.92 44.5795 207.054 44.4602 207.167C44.343 207.278 44.2013 207.333 44.0352 207.333ZM46.7494 210.085V213H45.7938V208.091H46.711V208.89H46.7718C46.8847 208.63 47.0615 208.421 47.3023 208.263C47.5452 208.106 47.8509 208.027 48.2195 208.027C48.5541 208.027 48.847 208.097 49.0985 208.238C49.3499 208.376 49.5448 208.583 49.6833 208.858C49.8218 209.133 49.8911 209.473 49.8911 209.877V213H48.9355V209.993C48.9355 209.637 48.8428 209.359 48.6574 209.158C48.472 208.956 48.2174 208.855 47.8936 208.855C47.672 208.855 47.4749 208.903 47.3023 208.999C47.1318 209.094 46.9965 209.235 46.8964 209.42C46.7984 209.604 46.7494 209.825 46.7494 210.085ZM53.2309 214.943C52.841 214.943 52.5054 214.892 52.2242 214.79C51.945 214.688 51.7171 214.552 51.5402 214.384C51.3634 214.216 51.2313 214.031 51.1439 213.831L51.9653 213.492C52.0228 213.586 52.0995 213.685 52.1954 213.789C52.2934 213.896 52.4255 213.987 52.5917 214.061C52.76 214.136 52.9763 214.173 53.2405 214.173C53.6027 214.173 53.9021 214.085 54.1386 213.908C54.3751 213.733 54.4933 213.454 54.4933 213.07V212.105H54.4326C54.3751 212.21 54.292 212.326 54.1833 212.453C54.0768 212.581 53.9298 212.692 53.7423 212.786C53.5548 212.88 53.3108 212.926 53.0104 212.926C52.6226 212.926 52.2732 212.836 51.9621 212.655C51.6531 212.472 51.4081 212.202 51.227 211.846C51.048 211.488 50.9585 211.048 50.9585 210.526C50.9585 210.004 51.047 209.557 51.2238 209.184C51.4028 208.811 51.6478 208.526 51.9589 208.327C52.27 208.127 52.6226 208.027 53.0168 208.027C53.3215 208.027 53.5676 208.078 53.7551 208.18C53.9426 208.281 54.0885 208.398 54.1929 208.532C54.2994 208.666 54.3815 208.784 54.439 208.887H54.5093V208.091H55.4458V213.109C55.4458 213.531 55.3477 213.877 55.1517 214.147C54.9557 214.418 54.6904 214.618 54.3559 214.748C54.0235 214.878 53.6485 214.943 53.2309 214.943ZM53.2213 212.134C53.4962 212.134 53.7284 212.07 53.9181 211.942C54.1098 211.812 54.2547 211.627 54.3527 211.386C54.4529 211.143 54.5029 210.852 54.5029 210.513C54.5029 210.183 54.4539 209.892 54.3559 209.641C54.2579 209.39 54.1141 209.194 53.9244 209.053C53.7348 208.91 53.5004 208.839 53.2213 208.839C52.9337 208.839 52.694 208.913 52.5022 209.062C52.3105 209.21 52.1656 209.41 52.0676 209.663C51.9717 209.917 51.9237 210.2 51.9237 210.513C51.9237 210.835 51.9727 211.118 52.0708 211.36C52.1688 211.603 52.3137 211.793 52.5054 211.929C52.6993 212.066 52.9379 212.134 53.2213 212.134ZM60.1735 213L58.7289 208.091H59.7164L60.6784 211.696H60.7264L61.6916 208.091H62.6792L63.638 211.68H63.6859L64.6415 208.091H65.6291L64.1877 213H63.2129L62.2157 209.456H62.1422L61.1451 213H60.1735ZM66.536 213V208.091H67.4916V213H66.536ZM67.0186 207.333C66.8524 207.333 66.7096 207.278 66.5903 207.167C66.4731 207.054 66.4145 206.92 66.4145 206.765C66.4145 206.607 66.4731 206.473 66.5903 206.362C66.7096 206.249 66.8524 206.192 67.0186 206.192C67.1847 206.192 67.3264 206.249 67.4436 206.362C67.5629 206.473 67.6226 206.607 67.6226 206.765C67.6226 206.92 67.5629 207.054 67.4436 207.167C67.3264 207.278 67.1847 207.333 67.0186 207.333ZM70.6149 213.096C70.2186 213.096 69.8649 212.995 69.5538 212.792C69.2449 212.588 69.002 212.297 68.8251 211.92C68.6504 211.54 68.563 211.086 68.563 210.555C68.563 210.025 68.6515 209.571 68.8283 209.194C69.0073 208.816 69.2523 208.528 69.5634 208.327C69.8745 208.127 70.2271 208.027 70.6213 208.027C70.926 208.027 71.171 208.078 71.3564 208.18C71.5439 208.281 71.6887 208.398 71.791 208.532C71.8954 208.666 71.9764 208.784 72.0339 208.887H72.0914V206.455H73.0471V213H72.1138V212.236H72.0339C71.9764 212.341 71.8933 212.46 71.7846 212.594C71.6781 212.728 71.5311 212.846 71.3436 212.946C71.1561 213.046 70.9132 213.096 70.6149 213.096ZM70.8258 212.281C71.1007 212.281 71.3329 212.208 71.5225 212.064C71.7143 211.917 71.8592 211.713 71.9572 211.453C72.0574 211.193 72.1074 210.891 72.1074 210.545C72.1074 210.205 72.0584 209.906 71.9604 209.651C71.8624 209.395 71.7186 209.196 71.5289 209.053C71.3393 208.91 71.1049 208.839 70.8258 208.839C70.5382 208.839 70.2985 208.913 70.1067 209.062C69.915 209.212 69.7701 209.415 69.6721 209.673C69.5762 209.931 69.5282 210.222 69.5282 210.545C69.5282 210.874 69.5772 211.169 69.6752 211.431C69.7733 211.693 69.9181 211.901 70.1099 212.054C70.3038 212.205 70.5424 212.281 70.8258 212.281ZM76.4692 214.943C76.0793 214.943 75.7437 214.892 75.4624 214.79C75.1833 214.688 74.9553 214.552 74.7785 214.384C74.6017 214.216 74.4695 214.031 74.3822 213.831L75.2036 213.492C75.2611 213.586 75.3378 213.685 75.4337 213.789C75.5317 213.896 75.6638 213.987 75.83 214.061C75.9983 214.136 76.2146 214.173 76.4788 214.173C76.841 214.173 77.1404 214.085 77.3769 213.908C77.6134 213.733 77.7316 213.454 77.7316 213.07V212.105H77.6709C77.6134 212.21 77.5303 212.326 77.4216 212.453C77.3151 212.581 77.1681 212.692 76.9806 212.786C76.7931 212.88 76.5491 212.926 76.2487 212.926C75.8609 212.926 75.5115 212.836 75.2004 212.655C74.8914 212.472 74.6464 212.202 74.4653 211.846C74.2863 211.488 74.1968 211.048 74.1968 210.526C74.1968 210.004 74.2852 209.557 74.4621 209.184C74.6411 208.811 74.8861 208.526 75.1972 208.327C75.5083 208.127 75.8609 208.027 76.2551 208.027C76.5597 208.027 76.8058 208.078 76.9933 208.18C77.1808 208.281 77.3268 208.398 77.4312 208.532C77.5377 208.666 77.6198 208.784 77.6773 208.887H77.7476V208.091H78.684V213.109C78.684 213.531 78.586 213.877 78.39 214.147C78.194 214.418 77.9287 214.618 77.5942 214.748C77.2618 214.878 76.8868 214.943 76.4692 214.943ZM76.4596 212.134C76.7345 212.134 76.9667 212.07 77.1563 211.942C77.3481 211.812 77.493 211.627 77.591 211.386C77.6911 211.143 77.7412 210.852 77.7412 210.513C77.7412 210.183 77.6922 209.892 77.5942 209.641C77.4962 209.39 77.3524 209.194 77.1627 209.053C76.9731 208.91 76.7387 208.839 76.4596 208.839C76.172 208.839 75.9323 208.913 75.7405 209.062C75.5487 209.21 75.4039 209.41 75.3058 209.663C75.21 209.917 75.162 210.2 75.162 210.513C75.162 210.835 75.211 211.118 75.309 211.36C75.407 211.603 75.5519 211.793 75.7437 211.929C75.9376 212.066 76.1762 212.134 76.4596 212.134ZM82.0814 213.099C81.5977 213.099 81.1812 212.996 80.8318 212.789C80.4845 212.58 80.216 212.287 80.0264 211.91C79.8389 211.531 79.7451 211.087 79.7451 210.577C79.7451 210.075 79.8389 209.631 80.0264 209.248C80.216 208.864 80.4802 208.565 80.819 208.35C81.1599 208.135 81.5583 208.027 82.0143 208.027C82.2913 208.027 82.5597 208.073 82.8197 208.164C83.0796 208.256 83.3129 208.4 83.5196 208.596C83.7263 208.792 83.8893 209.047 84.0086 209.36C84.1279 209.671 84.1876 210.049 84.1876 210.494V210.833H80.2852V210.117H83.2512C83.2512 209.866 83.2 209.643 83.0977 209.449C82.9955 209.253 82.8517 209.099 82.6663 208.986C82.483 208.873 82.2678 208.816 82.0207 208.816C81.7522 208.816 81.5178 208.882 81.3176 209.015C81.1194 209.145 80.966 209.315 80.8573 209.526C80.7508 209.735 80.6975 209.962 80.6975 210.207V210.766C80.6975 211.094 80.7551 211.373 80.8701 211.603C80.9873 211.833 81.1503 212.009 81.3591 212.131C81.5679 212.25 81.8119 212.31 82.091 212.31C82.2721 212.31 82.4372 212.284 82.5864 212.233C82.7355 212.18 82.8644 212.101 82.9731 211.996C83.0818 211.892 83.1649 211.763 83.2224 211.61L84.1269 211.773C84.0544 212.039 83.9244 212.272 83.7369 212.473C83.5516 212.671 83.3183 212.825 83.037 212.936C82.7579 213.045 82.4394 213.099 82.0814 213.099ZM87.5394 208.091V208.858H84.858V208.091H87.5394ZM85.5771 206.915H86.5327V211.559C86.5327 211.744 86.5604 211.884 86.6158 211.977C86.6712 212.069 86.7425 212.132 86.8299 212.166C86.9194 212.198 87.0163 212.214 87.1207 212.214C87.1974 212.214 87.2646 212.208 87.3221 212.198C87.3796 212.187 87.4244 212.179 87.4563 212.172L87.6289 212.962C87.5735 212.983 87.4947 213.004 87.3924 213.026C87.2901 213.049 87.1623 213.062 87.0089 213.064C86.7575 213.068 86.5231 213.023 86.3058 212.93C86.0884 212.836 85.9126 212.691 85.7784 212.495C85.6442 212.299 85.5771 212.053 85.5771 211.757V206.915Z" fill="white"/>
</g>
<g filter="url(#filter9_d_3184_1924)">
<rect x="277" y="429" width="54" height="21" rx="10.5" fill="#FBBC09" shape-rendering="crispEdges"/>
<path d="M290.219 443V436.455H291.207V442.15H294.173V443H290.219ZM295.222 443V438.091H296.178V443H295.222ZM295.705 437.333C295.539 437.333 295.396 437.278 295.277 437.167C295.16 437.054 295.101 436.92 295.101 436.765C295.101 436.607 295.16 436.473 295.277 436.362C295.396 436.249 295.539 436.192 295.705 436.192C295.871 436.192 296.013 436.249 296.13 436.362C296.249 436.473 296.309 436.607 296.309 436.765C296.309 436.92 296.249 437.054 296.13 437.167C296.013 437.278 295.871 437.333 295.705 437.333ZM301.142 439.289L300.276 439.443C300.24 439.332 300.182 439.227 300.104 439.126C300.027 439.026 299.922 438.944 299.79 438.88C299.658 438.816 299.493 438.784 299.295 438.784C299.024 438.784 298.799 438.845 298.617 438.967C298.436 439.086 298.346 439.24 298.346 439.43C298.346 439.594 298.407 439.726 298.528 439.826C298.649 439.926 298.845 440.009 299.116 440.072L299.896 440.251C300.348 440.356 300.684 440.517 300.906 440.734C301.127 440.951 301.238 441.234 301.238 441.581C301.238 441.875 301.153 442.137 300.983 442.367C300.814 442.595 300.579 442.774 300.276 442.904C299.976 443.034 299.627 443.099 299.231 443.099C298.681 443.099 298.233 442.982 297.886 442.748C297.538 442.511 297.325 442.175 297.246 441.741L298.17 441.6C298.228 441.841 298.346 442.023 298.525 442.147C298.704 442.268 298.937 442.329 299.225 442.329C299.538 442.329 299.788 442.264 299.976 442.134C300.163 442.002 300.257 441.841 300.257 441.651C300.257 441.498 300.199 441.369 300.084 441.265C299.972 441.16 299.798 441.081 299.563 441.028L298.733 440.846C298.274 440.741 297.936 440.575 297.716 440.347C297.499 440.119 297.39 439.831 297.39 439.481C297.39 439.191 297.471 438.938 297.633 438.721C297.795 438.503 298.019 438.334 298.304 438.212C298.59 438.089 298.917 438.027 299.285 438.027C299.816 438.027 300.234 438.142 300.538 438.372C300.843 438.6 301.044 438.906 301.142 439.289ZM304.58 438.091V438.858H301.899V438.091H304.58ZM302.618 436.915H303.574V441.559C303.574 441.744 303.601 441.884 303.657 441.977C303.712 442.069 303.784 442.132 303.871 442.166C303.96 442.198 304.057 442.214 304.162 442.214C304.238 442.214 304.306 442.208 304.363 442.198C304.421 442.187 304.465 442.179 304.497 442.172L304.67 442.962C304.615 442.983 304.536 443.004 304.433 443.026C304.331 443.049 304.203 443.062 304.05 443.064C303.798 443.068 303.564 443.023 303.347 442.93C303.129 442.836 302.954 442.691 302.819 442.495C302.685 442.299 302.618 442.053 302.618 441.757V436.915ZM305.638 443V438.091H306.593V443H305.638ZM306.12 437.333C305.954 437.333 305.811 437.278 305.692 437.167C305.575 437.054 305.516 436.92 305.516 436.765C305.516 436.607 305.575 436.473 305.692 436.362C305.811 436.249 305.954 436.192 306.12 436.192C306.286 436.192 306.428 436.249 306.545 436.362C306.665 436.473 306.724 436.607 306.724 436.765C306.724 436.92 306.665 437.054 306.545 437.167C306.428 437.278 306.286 437.333 306.12 437.333ZM308.834 440.085V443H307.879V438.091H308.796V438.89H308.857C308.97 438.63 309.146 438.421 309.387 438.263C309.63 438.106 309.936 438.027 310.305 438.027C310.639 438.027 310.932 438.097 311.183 438.238C311.435 438.376 311.63 438.583 311.768 438.858C311.907 439.133 311.976 439.473 311.976 439.877V443H311.02V439.993C311.02 439.637 310.928 439.359 310.742 439.158C310.557 438.956 310.302 438.855 309.979 438.855C309.757 438.855 309.56 438.903 309.387 438.999C309.217 439.094 309.081 439.235 308.981 439.42C308.883 439.604 308.834 439.825 308.834 440.085ZM315.316 444.943C314.926 444.943 314.59 444.892 314.309 444.79C314.03 444.688 313.802 444.552 313.625 444.384C313.448 444.216 313.316 444.031 313.229 443.831L314.05 443.492C314.108 443.586 314.184 443.685 314.28 443.789C314.378 443.896 314.51 443.987 314.677 444.061C314.845 444.136 315.061 444.173 315.325 444.173C315.688 444.173 315.987 444.085 316.224 443.908C316.46 443.733 316.578 443.454 316.578 443.07V442.105H316.518C316.46 442.21 316.377 442.326 316.268 442.453C316.162 442.581 316.015 442.692 315.827 442.786C315.64 442.88 315.396 442.926 315.095 442.926C314.708 442.926 314.358 442.836 314.047 442.655C313.738 442.472 313.493 442.202 313.312 441.846C313.133 441.488 313.044 441.048 313.044 440.526C313.044 440.004 313.132 439.557 313.309 439.184C313.488 438.811 313.733 438.526 314.044 438.327C314.355 438.127 314.708 438.027 315.102 438.027C315.406 438.027 315.653 438.078 315.84 438.18C316.028 438.281 316.173 438.398 316.278 438.532C316.384 438.666 316.466 438.784 316.524 438.887H316.594V438.091H317.531V443.109C317.531 443.531 317.433 443.877 317.237 444.147C317.041 444.418 316.775 444.618 316.441 444.748C316.108 444.878 315.733 444.943 315.316 444.943ZM315.306 442.134C315.581 442.134 315.813 442.07 316.003 441.942C316.195 441.812 316.34 441.627 316.438 441.386C316.538 441.143 316.588 440.852 316.588 440.513C316.588 440.183 316.539 439.892 316.441 439.641C316.343 439.39 316.199 439.194 316.009 439.053C315.82 438.91 315.585 438.839 315.306 438.839C315.019 438.839 314.779 438.913 314.587 439.062C314.395 439.21 314.251 439.41 314.153 439.663C314.057 439.917 314.009 440.2 314.009 440.513C314.009 440.835 314.058 441.118 314.156 441.36C314.254 441.603 314.399 441.793 314.59 441.929C314.784 442.066 315.023 442.134 315.306 442.134Z" fill="white"/>
</g>
<g filter="url(#filter10_d_3184_1924)">
<rect x="149" y="619" width="70" height="21" rx="10.5" fill="#FBBC09" shape-rendering="crispEdges"/>
<path d="M159.719 633V626.455H162.116C162.581 626.455 162.965 626.531 163.27 626.685C163.575 626.836 163.803 627.042 163.954 627.301C164.105 627.559 164.181 627.85 164.181 628.174C164.181 628.447 164.131 628.677 164.031 628.864C163.93 629.05 163.796 629.199 163.628 629.312C163.462 629.423 163.278 629.504 163.078 629.555V629.619C163.295 629.629 163.507 629.7 163.714 629.83C163.923 629.957 164.096 630.14 164.232 630.376C164.368 630.613 164.436 630.9 164.436 631.239C164.436 631.574 164.358 631.874 164.2 632.14C164.044 632.404 163.804 632.614 163.478 632.77C163.152 632.923 162.735 633 162.228 633H159.719ZM160.707 632.153H162.132C162.605 632.153 162.944 632.061 163.148 631.878C163.353 631.695 163.455 631.466 163.455 631.191C163.455 630.984 163.403 630.795 163.299 630.622C163.194 630.45 163.045 630.312 162.851 630.21C162.659 630.108 162.431 630.056 162.167 630.056H160.707V632.153ZM160.707 629.286H162.03C162.251 629.286 162.451 629.244 162.627 629.158C162.806 629.073 162.948 628.954 163.053 628.8C163.159 628.645 163.212 628.462 163.212 628.251C163.212 627.98 163.118 627.753 162.928 627.57C162.738 627.387 162.447 627.295 162.055 627.295H160.707V629.286ZM167.599 633.099C167.139 633.099 166.737 632.994 166.394 632.783C166.051 632.572 165.785 632.277 165.595 631.897C165.405 631.518 165.311 631.075 165.311 630.568C165.311 630.059 165.405 629.613 165.595 629.232C165.785 628.85 166.051 628.554 166.394 628.343C166.737 628.132 167.139 628.027 167.599 628.027C168.059 628.027 168.461 628.132 168.804 628.343C169.147 628.554 169.413 628.85 169.603 629.232C169.792 629.613 169.887 630.059 169.887 630.568C169.887 631.075 169.792 631.518 169.603 631.897C169.413 632.277 169.147 632.572 168.804 632.783C168.461 632.994 168.059 633.099 167.599 633.099ZM167.602 632.297C167.9 632.297 168.148 632.218 168.344 632.06C168.54 631.903 168.684 631.693 168.778 631.431C168.874 631.169 168.922 630.88 168.922 630.565C168.922 630.251 168.874 629.964 168.778 629.702C168.684 629.437 168.54 629.225 168.344 629.066C168.148 628.906 167.9 628.826 167.602 628.826C167.302 628.826 167.052 628.906 166.854 629.066C166.658 629.225 166.512 629.437 166.416 629.702C166.323 629.964 166.276 630.251 166.276 630.565C166.276 630.88 166.323 631.169 166.416 631.431C166.512 631.693 166.658 631.903 166.854 632.06C167.052 632.218 167.302 632.297 167.602 632.297ZM173.245 628.091V628.858H170.564V628.091H173.245ZM171.283 626.915H172.239V631.559C172.239 631.744 172.266 631.884 172.322 631.977C172.377 632.069 172.449 632.132 172.536 632.166C172.625 632.198 172.722 632.214 172.827 632.214C172.903 632.214 172.971 632.208 173.028 632.198C173.086 632.187 173.13 632.179 173.162 632.172L173.335 632.962C173.28 632.983 173.201 633.004 173.098 633.026C172.996 633.049 172.868 633.062 172.715 633.064C172.464 633.068 172.229 633.023 172.012 632.93C171.794 632.836 171.619 632.691 171.484 632.495C171.35 632.299 171.283 632.053 171.283 631.757V626.915ZM176.594 628.091V628.858H173.913V628.091H176.594ZM174.632 626.915H175.587V631.559C175.587 631.744 175.615 631.884 175.67 631.977C175.726 632.069 175.797 632.132 175.885 632.166C175.974 632.198 176.071 632.214 176.175 632.214C176.252 632.214 176.319 632.208 176.377 632.198C176.434 632.187 176.479 632.179 176.511 632.172L176.684 632.962C176.628 632.983 176.549 633.004 176.447 633.026C176.345 633.049 176.217 633.062 176.064 633.064C175.812 633.068 175.578 633.023 175.36 632.93C175.143 632.836 174.967 632.691 174.833 632.495C174.699 632.299 174.632 632.053 174.632 631.757V626.915ZM179.666 633.099C179.206 633.099 178.804 632.994 178.461 632.783C178.118 632.572 177.852 632.277 177.662 631.897C177.473 631.518 177.378 631.075 177.378 630.568C177.378 630.059 177.473 629.613 177.662 629.232C177.852 628.85 178.118 628.554 178.461 628.343C178.804 628.132 179.206 628.027 179.666 628.027C180.127 628.027 180.528 628.132 180.871 628.343C181.214 628.554 181.481 628.85 181.67 629.232C181.86 629.613 181.955 630.059 181.955 630.568C181.955 631.075 181.86 631.518 181.67 631.897C181.481 632.277 181.214 632.572 180.871 632.783C180.528 632.994 180.127 633.099 179.666 633.099ZM179.669 632.297C179.968 632.297 180.215 632.218 180.411 632.06C180.607 631.903 180.752 631.693 180.846 631.431C180.941 631.169 180.989 630.88 180.989 630.565C180.989 630.251 180.941 629.964 180.846 629.702C180.752 629.437 180.607 629.225 180.411 629.066C180.215 628.906 179.968 628.826 179.669 628.826C179.369 628.826 179.12 628.906 178.922 629.066C178.726 629.225 178.58 629.437 178.484 629.702C178.39 629.964 178.343 630.251 178.343 630.565C178.343 630.88 178.39 631.169 178.484 631.431C178.58 631.693 178.726 631.903 178.922 632.06C179.12 632.218 179.369 632.297 179.669 632.297ZM183.021 633V628.091H183.939V628.89H183.999C184.102 628.619 184.269 628.408 184.501 628.257C184.733 628.104 185.011 628.027 185.335 628.027C185.663 628.027 185.938 628.104 186.16 628.257C186.384 628.411 186.549 628.621 186.655 628.89H186.706C186.824 628.628 187.01 628.419 187.266 628.263C187.521 628.106 187.826 628.027 188.18 628.027C188.625 628.027 188.988 628.167 189.27 628.446C189.553 628.725 189.695 629.146 189.695 629.708V633H188.739V629.798C188.739 629.465 188.648 629.224 188.467 629.075C188.286 628.926 188.07 628.852 187.819 628.852C187.507 628.852 187.266 628.947 187.093 629.139C186.92 629.329 186.834 629.573 186.834 629.871V633H185.882V629.737C185.882 629.471 185.799 629.256 185.632 629.094C185.466 628.933 185.25 628.852 184.984 628.852C184.803 628.852 184.635 628.9 184.482 628.995C184.331 629.089 184.208 629.22 184.114 629.388C184.023 629.557 183.977 629.752 183.977 629.973V633H183.021ZM194.313 630.085V633H193.357V628.091H194.275V628.89H194.335C194.448 628.63 194.625 628.421 194.866 628.263C195.109 628.106 195.414 628.027 195.783 628.027C196.118 628.027 196.411 628.097 196.662 628.238C196.913 628.376 197.108 628.583 197.247 628.858C197.385 629.133 197.455 629.473 197.455 629.877V633H196.499V629.993C196.499 629.637 196.406 629.359 196.221 629.158C196.036 628.956 195.781 628.855 195.457 628.855C195.235 628.855 195.038 628.903 194.866 628.999C194.695 629.094 194.56 629.235 194.46 629.42C194.362 629.604 194.313 629.825 194.313 630.085ZM200.165 633.109C199.854 633.109 199.572 633.051 199.321 632.936C199.07 632.819 198.87 632.65 198.723 632.428C198.578 632.206 198.506 631.935 198.506 631.613C198.506 631.336 198.559 631.108 198.666 630.929C198.772 630.75 198.916 630.608 199.097 630.504C199.278 630.4 199.481 630.321 199.705 630.267C199.928 630.214 200.156 630.174 200.388 630.146C200.683 630.112 200.921 630.084 201.104 630.063C201.288 630.039 201.421 630.002 201.504 629.951C201.587 629.9 201.629 629.817 201.629 629.702V629.679C201.629 629.4 201.55 629.184 201.392 629.031C201.237 628.877 201.004 628.8 200.695 628.8C200.374 628.8 200.12 628.872 199.935 629.015C199.751 629.155 199.625 629.312 199.554 629.484L198.656 629.28C198.763 628.982 198.918 628.741 199.123 628.558C199.33 628.372 199.567 628.238 199.836 628.155C200.104 628.07 200.386 628.027 200.683 628.027C200.879 628.027 201.086 628.05 201.306 628.097C201.527 628.142 201.734 628.225 201.926 628.347C202.12 628.468 202.278 628.642 202.402 628.868C202.526 629.091 202.587 629.382 202.587 629.74V633H201.654V632.329H201.616C201.554 632.452 201.461 632.574 201.338 632.693C201.214 632.812 201.055 632.912 200.862 632.99C200.668 633.069 200.435 633.109 200.165 633.109ZM200.373 632.342C200.637 632.342 200.863 632.289 201.05 632.185C201.24 632.081 201.384 631.944 201.482 631.776C201.582 631.605 201.632 631.423 201.632 631.229V630.597C201.598 630.631 201.532 630.663 201.434 630.692C201.338 630.72 201.228 630.745 201.104 630.766C200.981 630.785 200.86 630.803 200.743 630.82C200.626 630.835 200.528 630.848 200.449 630.859C200.264 630.882 200.094 630.922 199.941 630.977C199.79 631.032 199.668 631.112 199.577 631.217C199.487 631.319 199.442 631.455 199.442 631.626C199.442 631.862 199.53 632.041 199.705 632.163C199.879 632.282 200.102 632.342 200.373 632.342ZM207.884 628.091L206.104 633H205.081L203.298 628.091H204.324L205.567 631.869H205.618L206.858 628.091H207.884Z" fill="white"/>
</g>
<defs>
<filter id="filter0_d_3184_1924" x="65.9553" y="102" width="235.089" height="48.0894" filterUnits="userSpaceOnUse" color-interpolation-filters="sRGB">
<feFlood flood-opacity="0" result="BackgroundImageFix"/>
<feColorMatrix in="SourceAlpha" type="matrix" values="0 0 0 0 0 0 0 0 0 0 0 0 0 0 0 0 0 0 127 0" result="hardAlpha"/>
<feOffset dy="5.0447"/>
<feGaussianBlur stdDeviation="2.52235"/>
<feComposite in2="hardAlpha" operator="out"/>
<feColorMatrix type="matrix" values="0 0 0 0 0 0 0 0 0 0 0 0 0 0 0 0 0 0 0.07 0"/>
<feBlend mode="normal" in2="BackgroundImageFix" result="effect1_dropShadow_3184_1924"/>
<feBlend mode="normal" in="SourceGraphic" in2="effect1_dropShadow_3184_1924" result="shape"/>
</filter>
<filter id="filter1_d_3184_1924" x="65.9553" y="156" width="120.089" height="110.089" filterUnits="userSpaceOnUse" color-interpolation-filters="sRGB">
<feFlood flood-opacity="0" result="BackgroundImageFix"/>
<feColorMatrix in="SourceAlpha" type="matrix" values="0 0 0 0 0 0 0 0 0 0 0 0 0 0 0 0 0 0 127 0" result="hardAlpha"/>
<feOffset dy="5.0447"/>
<feGaussianBlur stdDeviation="2.52235"/>
<feComposite in2="hardAlpha" operator="out"/>
<feColorMatrix type="matrix" values="0 0 0 0 0 0 0 0 0 0 0 0 0 0 0 0 0 0 0.07 0"/>
<feBlend mode="normal" in2="BackgroundImageFix" result="effect1_dropShadow_3184_1924"/>
<feBlend mode="normal" in="SourceGraphic" in2="effect1_dropShadow_3184_1924" result="shape"/>
</filter>
<filter id="filter2_d_3184_1924" x="180.955" y="156" width="120.089" height="110.089" filterUnits="userSpaceOnUse" color-interpolation-filters="sRGB">
<feFlood flood-opacity="0" result="BackgroundImageFix"/>
<feColorMatrix in="SourceAlpha" type="matrix" values="0 0 0 0 0 0 0 0 0 0 0 0 0 0 0 0 0 0 127 0" result="hardAlpha"/>
<feOffset dy="5.0447"/>
<feGaussianBlur stdDeviation="2.52235"/>
<feComposite in2="hardAlpha" operator="out"/>
<feColorMatrix type="matrix" values="0 0 0 0 0 0 0 0 0 0 0 0 0 0 0 0 0 0 0.07 0"/>
<feBlend mode="normal" in2="BackgroundImageFix" result="effect1_dropShadow_3184_1924"/>
<feBlend mode="normal" in="SourceGraphic" in2="effect1_dropShadow_3184_1924" result="shape"/>
</filter>
<filter id="filter3_d_3184_1924" x="65.9553" y="380" width="160.089" height="155.089" filterUnits="userSpaceOnUse" color-interpolation-filters="sRGB">
<feFlood flood-opacity="0" result="BackgroundImageFix"/>
<feColorMatrix in="SourceAlpha" type="matrix" values="0 0 0 0 0 0 0 0 0 0 0 0 0 0 0 0 0 0 127 0" result="hardAlpha"/>
<feOffset dy="5.0447"/>
<feGaussianBlur stdDeviation="2.52235"/>
<feComposite in2="hardAlpha" operator="out"/>
<feColorMatrix type="matrix" values="0 0 0 0 0 0 0 0 0 0 0 0 0 0 0 0 0 0 0.07 0"/>
<feBlend mode="normal" in2="BackgroundImageFix" result="effect1_dropShadow_3184_1924"/>
<feBlend mode="normal" in="SourceGraphic" in2="effect1_dropShadow_3184_1924" result="shape"/>
</filter>
<filter id="filter4_d_3184_1924" x="220.955" y="380" width="160.089" height="155.089" filterUnits="userSpaceOnUse" color-interpolation-filters="sRGB">
<feFlood flood-opacity="0" result="BackgroundImageFix"/>
<feColorMatrix in="SourceAlpha" type="matrix" values="0 0 0 0 0 0 0 0 0 0 0 0 0 0 0 0 0 0 127 0" result="hardAlpha"/>
<feOffset dy="5.0447"/>
<feGaussianBlur stdDeviation="2.52235"/>
<feComposite in2="hardAlpha" operator="out"/>
<feColorMatrix type="matrix" values="0 0 0 0 0 0 0 0 0 0 0 0 0 0 0 0 0 0 0.07 0"/>
<feBlend mode="normal" in2="BackgroundImageFix" result="effect1_dropShadow_3184_1924"/>
<feBlend mode="normal" in="SourceGraphic" in2="effect1_dropShadow_3184_1924" result="shape"/>
</filter>
<filter id="filter5_d_3184_1924" x="65.9553" y="567" width="160.089" height="155.089" filterUnits="userSpaceOnUse" color-interpolation-filters="sRGB">
<feFlood flood-opacity="0" result="BackgroundImageFix"/>
<feColorMatrix in="SourceAlpha" type="matrix" values="0 0 0 0 0 0 0 0 0 0 0 0 0 0 0 0 0 0 127 0" result="hardAlpha"/>
<feOffset dy="5.0447"/>
<feGaussianBlur stdDeviation="2.52235"/>
<feComposite in2="hardAlpha" operator="out"/>
<feColorMatrix type="matrix" values="0 0 0 0 0 0 0 0 0 0 0 0 0 0 0 0 0 0 0.07 0"/>
<feBlend mode="normal" in2="BackgroundImageFix" result="effect1_dropShadow_3184_1924"/>
<feBlend mode="normal" in="SourceGraphic" in2="effect1_dropShadow_3184_1924" result="shape"/>
</filter>
<filter id="filter6_d_3184_1924" x="220.955" y="567" width="160.089" height="155.089" filterUnits="userSpaceOnUse" color-interpolation-filters="sRGB">
<feFlood flood-opacity="0" result="BackgroundImageFix"/>
<feColorMatrix in="SourceAlpha" type="matrix" values="0 0 0 0 0 0 0 0 0 0 0 0 0 0 0 0 0 0 127 0" result="hardAlpha"/>
<feOffset dy="5.0447"/>
<feGaussianBlur stdDeviation="2.52235"/>
<feComposite in2="hardAlpha" operator="out"/>
<feColorMatrix type="matrix" values="0 0 0 0 0 0 0 0 0 0 0 0 0 0 0 0 0 0 0.07 0"/>
<feBlend mode="normal" in2="BackgroundImageFix" result="effect1_dropShadow_3184_1924"/>
<feBlend mode="normal" in="SourceGraphic" in2="effect1_dropShadow_3184_1924" result="shape"/>
</filter>
<filter id="filter7_d_3184_1924" x="279" y="89" width="62" height="29" filterUnits="userSpaceOnUse" color-interpolation-filters="sRGB">
<feFlood flood-opacity="0" result="BackgroundImageFix"/>
<feColorMatrix in="SourceAlpha" type="matrix" values="0 0 0 0 0 0 0 0 0 0 0 0 0 0 0 0 0 0 127 0" result="hardAlpha"/>
<feOffset dy="4"/>
<feGaussianBlur stdDeviation="2"/>
<feComposite in2="hardAlpha" operator="out"/>
<feColorMatrix type="matrix" values="0 0 0 0 0 0 0 0 0 0 0 0 0 0 0 0 0 0 0.07 0"/>
<feBlend mode="normal" in2="BackgroundImageFix" result="effect1_dropShadow_3184_1924"/>
<feBlend mode="normal" in="SourceGraphic" in2="effect1_dropShadow_3184_1924" result="shape"/>
</filter>
<filter id="filter8_d_3184_1924" x="7" y="199" width="96" height="29" filterUnits="userSpaceOnUse" color-interpolation-filters="sRGB">
<feFlood flood-opacity="0" result="BackgroundImageFix"/>
<feColorMatrix in="SourceAlpha" type="matrix" values="0 0 0 0 0 0 0 0 0 0 0 0 0 0 0 0 0 0 127 0" result="hardAlpha"/>
<feOffset dy="4"/>
<feGaussianBlur stdDeviation="2"/>
<feComposite in2="hardAlpha" operator="out"/>
<feColorMatrix type="matrix" values="0 0 0 0 0 0 0 0 0 0 0 0 0 0 0 0 0 0 0.07 0"/>
<feBlend mode="normal" in2="BackgroundImageFix" result="effect1_dropShadow_3184_1924"/>
<feBlend mode="normal" in="SourceGraphic" in2="effect1_dropShadow_3184_1924" result="shape"/>
</filter>
<filter id="filter9_d_3184_1924" x="273" y="429" width="62" height="29" filterUnits="userSpaceOnUse" color-interpolation-filters="sRGB">
<feFlood flood-opacity="0" result="BackgroundImageFix"/>
<feColorMatrix in="SourceAlpha" type="matrix" values="0 0 0 0 0 0 0 0 0 0 0 0 0 0 0 0 0 0 127 0" result="hardAlpha"/>
<feOffset dy="4"/>
<feGaussianBlur stdDeviation="2"/>
<feComposite in2="hardAlpha" operator="out"/>
<feColorMatrix type="matrix" values="0 0 0 0 0 0 0 0 0 0 0 0 0 0 0 0 0 0 0.07 0"/>
<feBlend mode="normal" in2="BackgroundImageFix" result="effect1_dropShadow_3184_1924"/>
<feBlend mode="normal" in="SourceGraphic" in2="effect1_dropShadow_3184_1924" result="shape"/>
</filter>
<filter id="filter10_d_3184_1924" x="145" y="619" width="78" height="29" filterUnits="userSpaceOnUse" color-interpolation-filters="sRGB">
<feFlood flood-opacity="0" result="BackgroundImageFix"/>
<feColorMatrix in="SourceAlpha" type="matrix" values="0 0 0 0 0 0 0 0 0 0 0 0 0 0 0 0 0 0 127 0" result="hardAlpha"/>
<feOffset dy="4"/>
<feGaussianBlur stdDeviation="2"/>
<feComposite in2="hardAlpha" operator="out"/>
<feColorMatrix type="matrix" values="0 0 0 0 0 0 0 0 0 0 0 0 0 0 0 0 0 0 0.07 0"/>
<feBlend mode="normal" in2="BackgroundImageFix" result="effect1_dropShadow_3184_1924"/>
<feBlend mode="normal" in="SourceGraphic" in2="effect1_dropShadow_3184_1924" result="shape"/>
</filter>
<clipPath id="clip0_3184_1924">
<rect width="252" height="612" fill="white" transform="translate(57 28)"/>
</clipPath>
</defs>
</svg>
