<svg width="855" height="667" viewBox="0 0 855 667" fill="none" xmlns="http://www.w3.org/2000/svg">
<rect x="1" y="1" width="853" height="665" rx="16" fill="#F2F4F8" stroke="#D4D8E2" stroke-width="2"/>
<mask id="mask0_3162_1916" style="mask-type:alpha" maskUnits="userSpaceOnUse" x="2" y="2" width="851" height="663">
<rect x="2" y="2" width="851" height="663" rx="15" fill="#F2F4F8"/>
</mask>
<g mask="url(#mask0_3162_1916)">
<line x1="61.5" y1="-1" x2="61.5" y2="857" stroke="#E0E3EB"/>
<line x1="122.5" y1="-1" x2="122.5" y2="857" stroke="#E0E3EB"/>
<line x1="183.5" y1="-1" x2="183.5" y2="857" stroke="#E0E3EB"/>
<line x1="244.5" y1="-1" x2="244.5" y2="857" stroke="#E0E3EB"/>
<line x1="305.5" y1="-1" x2="305.5" y2="857" stroke="#E0E3EB"/>
<line x1="366.5" y1="-1" x2="366.5" y2="857" stroke="#E0E3EB"/>
<line x1="427.5" y1="-1" x2="427.5" y2="857" stroke="#E0E3EB"/>
<line x1="488.5" y1="-1" x2="488.5" y2="857" stroke="#E0E3EB"/>
<line x1="549.5" y1="-1" x2="549.5" y2="857" stroke="#E0E3EB"/>
<line x1="610.5" y1="-1" x2="610.5" y2="857" stroke="#E0E3EB"/>
<line x1="671.5" y1="-1" x2="671.5" y2="857" stroke="#E0E3EB"/>
<line x1="732.5" y1="-1" x2="732.5" y2="857" stroke="#E0E3EB"/>
<line x1="793.5" y1="-1" x2="793.5" y2="857" stroke="#E0E3EB"/>
<line x1="856" y1="40.5" x2="-2" y2="40.4999" stroke="#E0E3EB"/>
<line x1="856" y1="101.5" x2="-2" y2="101.5" stroke="#E0E3EB"/>
<line x1="856" y1="162.5" x2="-2" y2="162.5" stroke="#E0E3EB"/>
<line x1="856" y1="223.5" x2="-2" y2="223.5" stroke="#E0E3EB"/>
<line x1="856" y1="284.5" x2="-2" y2="284.5" stroke="#E0E3EB"/>
<line x1="856" y1="345.5" x2="-2" y2="345.5" stroke="#E0E3EB"/>
<line x1="856" y1="406.5" x2="-2" y2="406.5" stroke="#E0E3EB"/>
<line x1="856" y1="467.5" x2="-2" y2="467.5" stroke="#E0E3EB"/>
<line x1="856" y1="528.5" x2="-2" y2="528.5" stroke="#E0E3EB"/>
<line x1="856" y1="589.5" x2="-2" y2="589.5" stroke="#E0E3EB"/>
<line x1="856" y1="650.5" x2="-2" y2="650.5" stroke="#E0E3EB"/>
<rect y="2" width="853" height="40" fill="#E8EBF0"/>
<rect x="0.5" y="41.5" width="855" height="49" fill="white" stroke="#E0E3EB"/>
<g filter="url(#filter0_d_3162_1916)">
<rect x="171" y="332" width="341" height="157" rx="12.6118" fill="white"/>
<rect x="171.631" y="332.631" width="339.739" height="155.739" rx="11.9812" stroke="#D4D8E2" stroke-width="1.26118"/>
</g>
<rect x="285" y="382" width="40" height="8" rx="4" fill="#C8CDD8"/>
<rect x="191" y="382" width="82" height="8" rx="4" fill="#C8CDD8"/>
<rect x="453" y="382" width="39" height="8" rx="4" fill="#C8CDD8"/>
<rect x="362" y="382" width="69" height="8" rx="4" fill="#C8CDD8"/>
<rect x="301" y="401" width="24" height="8" rx="4" fill="#C8CDD8"/>
<rect x="191" y="401" width="61" height="8" rx="4" fill="#C8CDD8"/>
<rect x="472" y="401" width="20" height="8" rx="4" fill="#C8CDD8"/>
<rect x="362" y="401" width="82" height="8" rx="4" fill="#C8CDD8"/>
<rect x="308" y="420" width="17" height="8" rx="4" fill="#C8CDD8"/>
<rect x="191" y="420" width="94" height="8" rx="4" fill="#C8CDD8"/>
<rect x="453" y="420" width="39" height="8" rx="4" fill="#C8CDD8"/>
<rect x="362" y="420" width="53" height="8" rx="4" fill="#C8CDD8"/>
<rect x="301" y="439" width="24" height="8" rx="4" fill="#C8CDD8"/>
<rect x="191" y="439" width="61" height="8" rx="4" fill="#C8CDD8"/>
<rect x="472" y="439" width="20" height="8" rx="4" fill="#C8CDD8"/>
<rect x="362" y="439" width="82" height="8" rx="4" fill="#C8CDD8"/>
<rect x="285" y="458" width="40" height="8" rx="4" fill="#C8CDD8"/>
<rect x="191" y="458" width="82" height="8" rx="4" fill="#C8CDD8"/>
<rect x="453" y="458" width="39" height="8" rx="4" fill="#C8CDD8"/>
<rect x="362" y="458" width="69" height="8" rx="4" fill="#C8CDD8"/>
<rect x="191" y="353" width="166" height="10" rx="5" fill="#C8CDD8"/>
<rect x="170" y="513" width="166" height="10" rx="5" fill="#C8CDD8"/>
<rect x="170" y="537" width="342" height="5" rx="2.5" fill="#C8CDD8"/>
<rect x="170" y="549" width="283" height="5" rx="2.5" fill="#C8CDD8"/>
<rect x="170" y="561" width="314" height="5" rx="2.5" fill="#C8CDD8"/>
<rect x="170" y="573" width="187" height="5" rx="2.5" fill="#C8CDD8"/>
<rect x="170" y="593" width="342" height="5" rx="2.5" fill="#C8CDD8"/>
<rect x="170" y="605" width="283" height="5" rx="2.5" fill="#C8CDD8"/>
<rect x="170" y="617" width="314" height="5" rx="2.5" fill="#C8CDD8"/>
<rect x="170" y="629" width="187" height="5" rx="2.5" fill="#C8CDD8"/>
<rect x="61.5" y="111.5" width="732" height="122" rx="4.58929" fill="#E8EBF0" stroke="#C8CDD8"/>
<line x1="792.081" y1="112.493" x2="62.1065" y2="231.652" stroke="#C8CDD8"/>
<line x1="62.0798" y1="113.506" x2="793.054" y2="231.664" stroke="#C8CDD8"/>
<path d="M417.465 168.545V178H416.039V168.545H417.465ZM419.543 168.545H421.274L424.284 175.895H424.395L427.404 168.545H429.136V178H427.778V171.158H427.691L424.902 177.986H423.776L420.988 171.154H420.9V178H419.543V168.545ZM437.608 171.532C437.519 171.252 437.399 171.001 437.248 170.78C437.1 170.555 436.923 170.364 436.717 170.207C436.511 170.047 436.275 169.926 436.011 169.843C435.749 169.76 435.461 169.718 435.147 169.718C434.615 169.718 434.135 169.855 433.707 170.129C433.279 170.403 432.941 170.804 432.691 171.334C432.445 171.86 432.322 172.505 432.322 173.268C432.322 174.034 432.447 174.682 432.696 175.212C432.945 175.741 433.287 176.143 433.721 176.417C434.155 176.69 434.649 176.827 435.203 176.827C435.717 176.827 436.165 176.723 436.546 176.513C436.931 176.304 437.228 176.009 437.437 175.627C437.65 175.242 437.756 174.79 437.756 174.27L438.125 174.339H435.42V173.162H439.136V174.238C439.136 175.032 438.967 175.721 438.628 176.306C438.293 176.887 437.828 177.337 437.234 177.654C436.643 177.971 435.966 178.129 435.203 178.129C434.347 178.129 433.596 177.932 432.95 177.538C432.307 177.144 431.805 176.586 431.445 175.863C431.085 175.136 430.905 174.275 430.905 173.277C430.905 172.523 431.01 171.846 431.219 171.246C431.428 170.646 431.722 170.137 432.101 169.718C432.482 169.296 432.93 168.975 433.444 168.753C433.961 168.529 434.526 168.416 435.138 168.416C435.649 168.416 436.125 168.492 436.565 168.642C437.008 168.793 437.402 169.007 437.747 169.284C438.094 169.561 438.382 169.89 438.61 170.272C438.838 170.651 438.991 171.071 439.071 171.532H437.608Z" fill="#9FA9BA"/>
<path d="M768 57C768 54.2386 770.239 52 773 52H823C825.761 52 828 54.2386 828 57V75C828 77.7614 825.761 80 823 80H773C770.239 80 768 77.7614 768 75V57Z" fill="#B0C8F0"/>
<path d="M779.381 70V62.7273H781.838C782.406 62.7273 782.873 62.8243 783.237 63.0185C783.602 63.2102 783.872 63.4742 784.047 63.8104C784.222 64.1465 784.31 64.5289 784.31 64.9574C784.31 65.3859 784.222 65.7659 784.047 66.0973C783.872 66.4287 783.603 66.6892 783.241 66.8786C782.879 67.0656 782.416 67.1591 781.852 67.1591H779.864V66.3636H781.824C782.212 66.3636 782.525 66.3068 782.761 66.1932C783 66.0795 783.173 65.9186 783.28 65.7102C783.389 65.4995 783.443 65.2486 783.443 64.9574C783.443 64.6662 783.389 64.4117 783.28 64.1939C783.171 63.9761 782.997 63.808 782.758 63.6896C782.519 63.5689 782.203 63.5085 781.81 63.5085H780.261V70H779.381ZM782.804 66.733L784.594 70H783.571L781.81 66.733H782.804ZM787.892 70.1136C787.366 70.1136 786.913 69.9976 786.532 69.7656C786.153 69.5312 785.861 69.2045 785.655 68.7855C785.451 68.3641 785.349 67.8741 785.349 67.3153C785.349 66.7566 785.451 66.2642 785.655 65.8381C785.861 65.4096 786.147 65.0758 786.514 64.8366C786.883 64.5952 787.314 64.4744 787.807 64.4744C788.091 64.4744 788.371 64.5218 788.648 64.6165C788.925 64.7112 789.177 64.8651 789.405 65.0781C789.632 65.2888 789.813 65.5682 789.948 65.9162C790.083 66.2642 790.15 66.6927 790.15 67.2017V67.5568H785.946V66.8324H789.298C789.298 66.5246 789.237 66.25 789.113 66.0085C788.993 65.767 788.82 65.5765 788.595 65.4368C788.372 65.2971 788.11 65.2273 787.807 65.2273C787.473 65.2273 787.184 65.3101 786.94 65.4759C786.699 65.6392 786.513 65.8523 786.383 66.1151C786.252 66.3778 786.187 66.6596 786.187 66.9602V67.4432C786.187 67.8551 786.258 68.2043 786.4 68.4908C786.545 68.7749 786.745 68.9915 787.001 69.1406C787.256 69.2874 787.553 69.3608 787.892 69.3608C788.112 69.3608 788.311 69.33 788.488 69.2685C788.668 69.2045 788.823 69.1098 788.954 68.9844C789.084 68.8565 789.184 68.6979 789.256 68.5085L790.065 68.7358C789.98 69.0104 789.837 69.2519 789.635 69.4602C789.434 69.6662 789.186 69.8272 788.89 69.9432C788.594 70.0568 788.261 70.1136 787.892 70.1136ZM793.627 72.1591C793.222 72.1591 792.874 72.107 792.583 72.0028C792.292 71.901 792.049 71.7661 791.855 71.598C791.663 71.4323 791.51 71.2547 791.397 71.0653L792.064 70.5966C792.14 70.696 792.236 70.8097 792.352 70.9375C792.468 71.0677 792.627 71.1802 792.828 71.2749C793.032 71.3719 793.298 71.4205 793.627 71.4205C794.067 71.4205 794.431 71.3139 794.717 71.1009C795.004 70.8878 795.147 70.554 795.147 70.0994V68.9915H795.076C795.014 69.0909 794.927 69.214 794.813 69.3608C794.702 69.5052 794.541 69.6342 794.33 69.7479C794.122 69.8591 793.84 69.9148 793.485 69.9148C793.045 69.9148 792.649 69.8106 792.299 69.6023C791.951 69.3939 791.675 69.0909 791.471 68.6932C791.27 68.2955 791.17 67.8125 791.17 67.2443C791.17 66.6856 791.268 66.1991 791.464 65.7848C791.661 65.3681 791.934 65.0462 792.285 64.8189C792.635 64.5893 793.04 64.4744 793.499 64.4744C793.854 64.4744 794.136 64.5336 794.344 64.652C794.555 64.768 794.716 64.9006 794.827 65.0497C794.941 65.1965 795.028 65.3172 795.09 65.4119H795.175V64.5455H795.985V70.1562C795.985 70.625 795.878 71.0062 795.665 71.2997C795.455 71.5956 795.171 71.8123 794.813 71.9496C794.458 72.0893 794.063 72.1591 793.627 72.1591ZM793.599 69.1619C793.935 69.1619 794.219 69.085 794.451 68.9311C794.683 68.7772 794.859 68.5559 794.98 68.267C795.101 67.9782 795.161 67.6326 795.161 67.2301C795.161 66.8371 795.102 66.4903 794.983 66.1896C794.865 65.889 794.69 65.6534 794.458 65.483C794.226 65.3125 793.939 65.2273 793.599 65.2273C793.243 65.2273 792.948 65.3172 792.711 65.4972C792.476 65.6771 792.3 65.9186 792.182 66.2216C792.066 66.5246 792.008 66.8608 792.008 67.2301C792.008 67.6089 792.067 67.9439 792.185 68.2351C792.306 68.5239 792.483 68.7512 792.718 68.9169C792.955 69.0803 793.248 69.1619 793.599 69.1619ZM797.519 70V64.5455H798.357V70H797.519ZM797.945 63.6364C797.782 63.6364 797.641 63.5807 797.523 63.4695C797.407 63.3582 797.349 63.2244 797.349 63.0682C797.349 62.9119 797.407 62.7782 797.523 62.6669C797.641 62.5556 797.782 62.5 797.945 62.5C798.108 62.5 798.248 62.5556 798.364 62.6669C798.483 62.7782 798.542 62.9119 798.542 63.0682C798.542 63.2244 798.483 63.3582 798.364 63.4695C798.248 63.5807 798.108 63.6364 797.945 63.6364ZM803.756 65.767L803.003 65.9801C802.955 65.8546 802.886 65.7327 802.793 65.6143C802.703 65.4936 802.58 65.3942 802.424 65.3161C802.268 65.2379 802.068 65.1989 801.824 65.1989C801.49 65.1989 801.212 65.2758 800.989 65.4297C800.769 65.5812 800.659 65.7741 800.659 66.0085C800.659 66.2169 800.735 66.3814 800.886 66.5021C801.038 66.6229 801.275 66.7235 801.597 66.804L802.406 67.0028C802.894 67.1212 803.257 67.3023 803.496 67.5462C803.736 67.7876 803.855 68.099 803.855 68.4801C803.855 68.7926 803.765 69.072 803.585 69.3182C803.408 69.5644 803.159 69.7585 802.839 69.9006C802.52 70.0426 802.148 70.1136 801.724 70.1136C801.168 70.1136 800.708 69.9929 800.343 69.7514C799.978 69.5099 799.748 69.1572 799.651 68.6932L800.446 68.4943C800.522 68.7879 800.665 69.008 800.876 69.1548C801.089 69.3016 801.367 69.375 801.71 69.375C802.101 69.375 802.411 69.2921 802.641 69.1264C802.873 68.9583 802.989 68.7571 802.989 68.5227C802.989 68.3333 802.922 68.1747 802.79 68.0469C802.657 67.9167 802.454 67.8196 802.179 67.7557L801.27 67.5426C800.77 67.4242 800.403 67.2408 800.169 66.9922C799.937 66.7412 799.821 66.4276 799.821 66.0511C799.821 65.7434 799.907 65.4711 800.08 65.2344C800.255 64.9976 800.493 64.8118 800.794 64.6768C801.097 64.5419 801.44 64.4744 801.824 64.4744C802.364 64.4744 802.787 64.5928 803.095 64.8295C803.405 65.0663 803.625 65.3788 803.756 65.767ZM807.489 64.5455V65.2557H804.662V64.5455H807.489ZM805.486 63.2386H806.324V68.4375C806.324 68.6742 806.358 68.8518 806.427 68.9702C806.498 69.0862 806.588 69.1643 806.697 69.2045C806.808 69.2424 806.925 69.2614 807.048 69.2614C807.141 69.2614 807.217 69.2566 807.276 69.2472C807.335 69.2353 807.382 69.2259 807.418 69.2188L807.588 69.9716C807.531 69.9929 807.452 70.0142 807.35 70.0355C807.249 70.0592 807.119 70.071 806.963 70.071C806.727 70.071 806.494 70.0201 806.267 69.9183C806.042 69.8165 805.855 69.6615 805.706 69.4531C805.559 69.2448 805.486 68.982 805.486 68.6648V63.2386ZM810.978 70.1136C810.452 70.1136 809.999 69.9976 809.618 69.7656C809.239 69.5312 808.947 69.2045 808.741 68.7855C808.537 68.3641 808.435 67.8741 808.435 67.3153C808.435 66.7566 808.537 66.2642 808.741 65.8381C808.947 65.4096 809.233 65.0758 809.6 64.8366C809.969 64.5952 810.4 64.4744 810.893 64.4744C811.177 64.4744 811.457 64.5218 811.734 64.6165C812.011 64.7112 812.263 64.8651 812.491 65.0781C812.718 65.2888 812.899 65.5682 813.034 65.9162C813.169 66.2642 813.236 66.6927 813.236 67.2017V67.5568H809.032V66.8324H812.384C812.384 66.5246 812.323 66.25 812.199 66.0085C812.079 65.767 811.906 65.5765 811.681 65.4368C811.458 65.2971 811.196 65.2273 810.893 65.2273C810.559 65.2273 810.27 65.3101 810.026 65.4759C809.785 65.6392 809.599 65.8523 809.469 66.1151C809.338 66.3778 809.273 66.6596 809.273 66.9602V67.4432C809.273 67.8551 809.344 68.2043 809.486 68.4908C809.631 68.7749 809.831 68.9915 810.086 69.1406C810.342 69.2874 810.639 69.3608 810.978 69.3608C811.198 69.3608 811.397 69.33 811.574 69.2685C811.754 69.2045 811.909 69.1098 812.04 68.9844C812.17 68.8565 812.27 68.6979 812.341 68.5085L813.151 68.7358C813.066 69.0104 812.923 69.2519 812.721 69.4602C812.52 69.6662 812.272 69.8272 811.976 69.9432C811.68 70.0568 811.347 70.1136 810.978 70.1136ZM814.511 70V64.5455H815.321V65.3693H815.378C815.477 65.0994 815.657 64.8804 815.917 64.7124C816.178 64.5443 816.471 64.4602 816.798 64.4602C816.86 64.4602 816.937 64.4614 817.029 64.4638C817.121 64.4661 817.191 64.4697 817.238 64.4744V65.3267C817.21 65.3196 817.145 65.3089 817.043 65.2947C816.944 65.2782 816.838 65.2699 816.727 65.2699C816.462 65.2699 816.225 65.3255 816.017 65.4368C815.811 65.5457 815.648 65.6972 815.527 65.8913C815.408 66.0831 815.349 66.3021 815.349 66.5483V70H814.511Z" fill="#6B80A4"/>
<rect x="724" y="64" width="28" height="5" rx="2.5" fill="#C8CDD8"/>
<rect x="693" y="58" width="16" height="16" rx="3" fill="#DDE2EA"/>
<rect x="321" y="64" width="32" height="5" rx="2.5" fill="#C8CDD8"/>
<rect x="377" y="64" width="40" height="5" rx="2.5" fill="#C8CDD8"/>
<rect x="441" y="64" width="36" height="5" rx="2.5" fill="#C8CDD8"/>
<rect x="501" y="64" width="28" height="5" rx="2.5" fill="#C8CDD8"/>
<rect x="27" y="55" width="22" height="22" rx="3" fill="#DDE2EA"/>
<rect x="57" y="62.5" width="52" height="7" rx="3.5" fill="#C8CDD8"/>
<rect x="791" y="14" width="20" height="16" rx="4" fill="#C8CDD8"/>
<rect x="817" y="14" width="20" height="16" rx="4" fill="#C8CDD8"/>
<rect x="88.5" y="12.5" width="676" height="19" rx="9.5" fill="#F2F4F8" stroke="#D4D8E2"/>
<circle cx="190.5" cy="233.5" r="19" fill="#C8CDD8" stroke="#F2F4F8"/>
<circle cx="103" cy="22" r="4" fill="#D4D8E2"/>
<rect x="113" y="16" width="212" height="12" rx="6" fill="#D4D8E2"/>
<circle cx="21" cy="22" r="5" fill="#C8CDD8"/>
<circle cx="39" cy="22" r="5" fill="#C8CDD8"/>
<circle cx="57" cy="22" r="5" fill="#C8CDD8"/>
<g filter="url(#filter1_d_3162_1916)">
<rect x="712" y="157" width="116" height="21" rx="10.5" fill="#6A38C2" shape-rendering="crispEdges"/>
<path d="M728.156 166.583H727.158C727.12 166.37 727.049 166.183 726.944 166.021C726.84 165.859 726.712 165.721 726.561 165.608C726.409 165.495 726.24 165.41 726.053 165.353C725.867 165.295 725.67 165.266 725.461 165.266C725.084 165.266 724.746 165.361 724.448 165.551C724.152 165.74 723.918 166.018 723.745 166.385C723.575 166.751 723.489 167.199 723.489 167.727C723.489 168.26 723.575 168.71 723.745 169.076C723.918 169.442 724.153 169.719 724.451 169.907C724.75 170.094 725.085 170.188 725.458 170.188C725.665 170.188 725.861 170.161 726.046 170.105C726.234 170.048 726.403 169.963 726.554 169.853C726.706 169.742 726.833 169.607 726.938 169.447C727.044 169.285 727.118 169.099 727.158 168.891L728.156 168.894C728.102 169.216 727.999 169.512 727.846 169.782C727.694 170.051 727.499 170.283 727.261 170.479C727.024 170.673 726.754 170.823 726.449 170.93C726.144 171.036 725.812 171.089 725.452 171.089C724.885 171.089 724.38 170.955 723.937 170.687C723.494 170.416 723.144 170.029 722.888 169.527C722.635 169.024 722.508 168.424 722.508 167.727C722.508 167.028 722.636 166.429 722.892 165.928C723.147 165.425 723.497 165.039 723.94 164.771C724.383 164.5 724.887 164.365 725.452 164.365C725.799 164.365 726.123 164.415 726.423 164.515C726.726 164.613 726.998 164.758 727.238 164.95C727.479 165.14 727.678 165.372 727.836 165.647C727.994 165.919 728.1 166.232 728.156 166.583ZM731.328 171.099C730.868 171.099 730.467 170.994 730.123 170.783C729.78 170.572 729.514 170.277 729.324 169.897C729.135 169.518 729.04 169.075 729.04 168.568C729.04 168.059 729.135 167.613 729.324 167.232C729.514 166.85 729.78 166.554 730.123 166.343C730.467 166.132 730.868 166.027 731.328 166.027C731.789 166.027 732.19 166.132 732.533 166.343C732.876 166.554 733.143 166.85 733.332 167.232C733.522 167.613 733.617 168.059 733.617 168.568C733.617 169.075 733.522 169.518 733.332 169.897C733.143 170.277 732.876 170.572 732.533 170.783C732.19 170.994 731.789 171.099 731.328 171.099ZM731.332 170.297C731.63 170.297 731.877 170.218 732.073 170.06C732.269 169.903 732.414 169.693 732.508 169.431C732.604 169.169 732.652 168.88 732.652 168.565C732.652 168.251 732.604 167.964 732.508 167.702C732.414 167.437 732.269 167.225 732.073 167.066C731.877 166.906 731.63 166.826 731.332 166.826C731.031 166.826 730.782 166.906 730.584 167.066C730.388 167.225 730.242 167.437 730.146 167.702C730.052 167.964 730.005 168.251 730.005 168.565C730.005 168.88 730.052 169.169 730.146 169.431C730.242 169.693 730.388 169.903 730.584 170.06C730.782 170.218 731.031 170.297 731.332 170.297ZM734.683 171V166.091H735.601V166.89H735.661C735.764 166.619 735.931 166.408 736.163 166.257C736.395 166.104 736.673 166.027 736.997 166.027C737.325 166.027 737.6 166.104 737.822 166.257C738.046 166.411 738.211 166.621 738.317 166.89H738.368C738.486 166.628 738.672 166.419 738.928 166.263C739.183 166.106 739.488 166.027 739.842 166.027C740.287 166.027 740.65 166.167 740.932 166.446C741.215 166.725 741.357 167.146 741.357 167.708V171H740.401V167.798C740.401 167.465 740.311 167.224 740.129 167.075C739.948 166.926 739.732 166.852 739.481 166.852C739.17 166.852 738.928 166.947 738.755 167.139C738.583 167.329 738.496 167.573 738.496 167.871V171H737.544V167.737C737.544 167.471 737.461 167.256 737.295 167.094C737.128 166.933 736.912 166.852 736.646 166.852C736.465 166.852 736.297 166.9 736.144 166.995C735.993 167.089 735.87 167.22 735.776 167.388C735.685 167.557 735.639 167.752 735.639 167.973V171H734.683ZM742.638 172.841V166.091H743.571V166.887H743.651C743.706 166.784 743.786 166.666 743.89 166.532C743.995 166.398 744.14 166.281 744.325 166.18C744.51 166.078 744.755 166.027 745.06 166.027C745.456 166.027 745.81 166.127 746.121 166.327C746.432 166.528 746.676 166.816 746.853 167.194C747.032 167.571 747.122 168.025 747.122 168.555C747.122 169.086 747.033 169.54 746.856 169.92C746.679 170.297 746.437 170.588 746.128 170.792C745.819 170.995 745.466 171.096 745.07 171.096C744.771 171.096 744.527 171.046 744.338 170.946C744.15 170.846 744.003 170.728 743.897 170.594C743.79 170.46 743.708 170.341 743.651 170.236H743.593V172.841H742.638ZM743.574 168.545C743.574 168.891 743.624 169.193 743.724 169.453C743.824 169.713 743.969 169.917 744.159 170.064C744.348 170.208 744.581 170.281 744.856 170.281C745.141 170.281 745.38 170.205 745.571 170.054C745.763 169.901 745.908 169.693 746.006 169.431C746.106 169.169 746.156 168.874 746.156 168.545C746.156 168.222 746.107 167.931 746.009 167.673C745.913 167.415 745.769 167.212 745.575 167.062C745.383 166.913 745.143 166.839 744.856 166.839C744.579 166.839 744.344 166.91 744.152 167.053C743.963 167.196 743.819 167.395 743.721 167.651C743.623 167.906 743.574 168.205 743.574 168.545ZM749.621 171.109C749.31 171.109 749.028 171.051 748.777 170.936C748.526 170.819 748.326 170.65 748.179 170.428C748.035 170.206 747.962 169.935 747.962 169.613C747.962 169.336 748.015 169.108 748.122 168.929C748.228 168.75 748.372 168.608 748.553 168.504C748.734 168.4 748.937 168.321 749.161 168.267C749.384 168.214 749.612 168.174 749.845 168.146C750.139 168.112 750.377 168.084 750.56 168.063C750.744 168.039 750.877 168.002 750.96 167.951C751.043 167.9 751.085 167.817 751.085 167.702V167.679C751.085 167.4 751.006 167.184 750.848 167.031C750.693 166.877 750.46 166.8 750.151 166.8C749.83 166.8 749.576 166.872 749.391 167.015C749.207 167.155 749.081 167.312 749.01 167.484L748.112 167.28C748.219 166.982 748.374 166.741 748.579 166.558C748.786 166.372 749.023 166.238 749.292 166.155C749.56 166.07 749.842 166.027 750.139 166.027C750.335 166.027 750.542 166.05 750.762 166.097C750.983 166.142 751.19 166.225 751.382 166.347C751.576 166.468 751.734 166.642 751.858 166.868C751.982 167.091 752.043 167.382 752.043 167.74V171H751.11V170.329H751.072C751.01 170.452 750.917 170.574 750.794 170.693C750.67 170.812 750.511 170.912 750.318 170.99C750.124 171.069 749.891 171.109 749.621 171.109ZM749.829 170.342C750.093 170.342 750.319 170.289 750.506 170.185C750.696 170.081 750.84 169.944 750.938 169.776C751.038 169.605 751.088 169.423 751.088 169.229V168.597C751.054 168.631 750.988 168.663 750.89 168.692C750.794 168.72 750.684 168.745 750.56 168.766C750.437 168.785 750.316 168.803 750.199 168.82C750.082 168.835 749.984 168.848 749.905 168.859C749.72 168.882 749.551 168.922 749.397 168.977C749.246 169.032 749.124 169.112 749.033 169.217C748.943 169.319 748.899 169.455 748.899 169.626C748.899 169.862 748.986 170.041 749.161 170.163C749.335 170.282 749.558 170.342 749.829 170.342ZM754.272 168.085V171H753.316V166.091H754.233V166.89H754.294C754.407 166.63 754.584 166.421 754.825 166.263C755.068 166.106 755.373 166.027 755.742 166.027C756.077 166.027 756.369 166.097 756.621 166.238C756.872 166.376 757.067 166.583 757.206 166.858C757.344 167.133 757.414 167.473 757.414 167.877V171H756.458V167.993C756.458 167.637 756.365 167.359 756.18 167.158C755.994 166.956 755.74 166.855 755.416 166.855C755.194 166.855 754.997 166.903 754.825 166.999C754.654 167.094 754.519 167.235 754.419 167.42C754.321 167.604 754.272 167.825 754.272 168.085ZM759.123 172.841C758.981 172.841 758.851 172.829 758.733 172.806C758.616 172.784 758.529 172.761 758.471 172.735L758.702 171.952C758.876 171.999 759.032 172.02 759.168 172.013C759.305 172.007 759.425 171.956 759.529 171.86C759.636 171.764 759.73 171.607 759.811 171.39L759.929 171.064L758.133 166.091H759.155L760.399 169.901H760.45L761.693 166.091H762.719L760.696 171.655C760.602 171.911 760.483 172.127 760.338 172.304C760.193 172.483 760.02 172.617 759.82 172.707C759.62 172.796 759.388 172.841 759.123 172.841ZM768.067 171.099C767.592 171.099 767.182 170.991 766.839 170.776C766.498 170.559 766.236 170.26 766.053 169.878C765.87 169.497 765.778 169.06 765.778 168.568C765.778 168.069 765.872 167.629 766.06 167.248C766.247 166.864 766.511 166.565 766.852 166.35C767.193 166.135 767.595 166.027 768.057 166.027C768.43 166.027 768.762 166.096 769.054 166.235C769.346 166.371 769.582 166.563 769.761 166.81C769.942 167.057 770.049 167.346 770.083 167.676H769.153C769.102 167.446 768.985 167.248 768.802 167.082C768.621 166.915 768.378 166.832 768.073 166.832C767.807 166.832 767.573 166.903 767.373 167.043C767.175 167.182 767.021 167.38 766.91 167.638C766.799 167.893 766.744 168.196 766.744 168.545C766.744 168.903 766.798 169.212 766.907 169.472C767.015 169.732 767.169 169.934 767.367 170.076C767.567 170.219 767.802 170.29 768.073 170.29C768.254 170.29 768.418 170.257 768.565 170.191C768.714 170.123 768.839 170.026 768.939 169.901C769.041 169.775 769.113 169.624 769.153 169.447H770.083C770.049 169.764 769.946 170.048 769.773 170.297C769.601 170.546 769.37 170.742 769.08 170.885C768.792 171.028 768.454 171.099 768.067 171.099ZM773.173 171.099C772.713 171.099 772.311 170.994 771.968 170.783C771.625 170.572 771.359 170.277 771.169 169.897C770.98 169.518 770.885 169.075 770.885 168.568C770.885 168.059 770.98 167.613 771.169 167.232C771.359 166.85 771.625 166.554 771.968 166.343C772.311 166.132 772.713 166.027 773.173 166.027C773.633 166.027 774.035 166.132 774.378 166.343C774.721 166.554 774.987 166.85 775.177 167.232C775.367 167.613 775.461 168.059 775.461 168.568C775.461 169.075 775.367 169.518 775.177 169.897C774.987 170.277 774.721 170.572 774.378 170.783C774.035 170.994 773.633 171.099 773.173 171.099ZM773.176 170.297C773.475 170.297 773.722 170.218 773.918 170.06C774.114 169.903 774.259 169.693 774.352 169.431C774.448 169.169 774.496 168.88 774.496 168.565C774.496 168.251 774.448 167.964 774.352 167.702C774.259 167.437 774.114 167.225 773.918 167.066C773.722 166.906 773.475 166.826 773.176 166.826C772.876 166.826 772.627 166.906 772.428 167.066C772.232 167.225 772.086 167.437 771.991 167.702C771.897 167.964 771.85 168.251 771.85 168.565C771.85 168.88 771.897 169.169 771.991 169.431C772.086 169.693 772.232 169.903 772.428 170.06C772.627 170.218 772.876 170.297 773.176 170.297ZM780.561 166.091L778.781 171H777.758L775.974 166.091H777L778.244 169.869H778.295L779.535 166.091H780.561ZM783.408 171.099C782.924 171.099 782.507 170.996 782.158 170.789C781.811 170.58 781.542 170.287 781.353 169.91C781.165 169.531 781.071 169.087 781.071 168.577C781.071 168.075 781.165 167.631 781.353 167.248C781.542 166.864 781.806 166.565 782.145 166.35C782.486 166.135 782.884 166.027 783.34 166.027C783.617 166.027 783.886 166.073 784.146 166.164C784.406 166.256 784.639 166.4 784.846 166.596C785.052 166.792 785.215 167.047 785.335 167.36C785.454 167.671 785.514 168.049 785.514 168.494V168.833H781.611V168.117H784.577C784.577 167.866 784.526 167.643 784.424 167.449C784.322 167.253 784.178 167.099 783.992 166.986C783.809 166.873 783.594 166.816 783.347 166.816C783.078 166.816 782.844 166.882 782.644 167.015C782.446 167.145 782.292 167.315 782.184 167.526C782.077 167.735 782.024 167.962 782.024 168.207V168.766C782.024 169.094 782.081 169.373 782.196 169.603C782.313 169.833 782.476 170.009 782.685 170.131C782.894 170.25 783.138 170.31 783.417 170.31C783.598 170.31 783.763 170.284 783.913 170.233C784.062 170.18 784.191 170.101 784.299 169.996C784.408 169.892 784.491 169.763 784.549 169.61L785.453 169.773C785.381 170.039 785.251 170.272 785.063 170.473C784.878 170.671 784.644 170.825 784.363 170.936C784.084 171.045 783.766 171.099 783.408 171.099ZM786.574 171V166.091H787.498V166.871H787.549C787.638 166.607 787.796 166.399 788.022 166.248C788.25 166.094 788.508 166.017 788.795 166.017C788.855 166.017 788.925 166.02 789.006 166.024C789.089 166.028 789.154 166.033 789.201 166.04V166.954C789.163 166.943 789.095 166.931 788.997 166.919C788.899 166.904 788.801 166.896 788.703 166.896C788.477 166.896 788.275 166.944 788.099 167.04C787.924 167.134 787.785 167.265 787.683 167.433C787.581 167.599 787.53 167.789 787.53 168.002V171H786.574ZM792.41 171V166.091H793.366V171H792.41ZM792.893 165.333C792.726 165.333 792.584 165.278 792.464 165.167C792.347 165.054 792.289 164.92 792.289 164.765C792.289 164.607 792.347 164.473 792.464 164.362C792.584 164.249 792.726 164.192 792.893 164.192C793.059 164.192 793.2 164.249 793.318 164.362C793.437 164.473 793.497 164.607 793.497 164.765C793.497 164.92 793.437 165.054 793.318 165.167C793.2 165.278 793.059 165.333 792.893 165.333ZM794.651 171V166.091H795.568V166.89H795.629C795.731 166.619 795.899 166.408 796.131 166.257C796.363 166.104 796.641 166.027 796.965 166.027C797.293 166.027 797.568 166.104 797.79 166.257C798.013 166.411 798.179 166.621 798.285 166.89H798.336C798.453 166.628 798.64 166.419 798.896 166.263C799.151 166.106 799.456 166.027 799.81 166.027C800.255 166.027 800.618 166.167 800.899 166.446C801.183 166.725 801.324 167.146 801.324 167.708V171H800.369V167.798C800.369 167.465 800.278 167.224 800.097 167.075C799.916 166.926 799.7 166.852 799.448 166.852C799.137 166.852 798.896 166.947 798.723 167.139C798.55 167.329 798.464 167.573 798.464 167.871V171H797.512V167.737C797.512 167.471 797.429 167.256 797.262 167.094C797.096 166.933 796.88 166.852 796.614 166.852C796.432 166.852 796.265 166.9 796.112 166.995C795.96 167.089 795.838 167.22 795.744 167.388C795.653 167.557 795.607 167.752 795.607 167.973V171H794.651ZM804.034 171.109C803.723 171.109 803.442 171.051 803.19 170.936C802.939 170.819 802.74 170.65 802.593 170.428C802.448 170.206 802.375 169.935 802.375 169.613C802.375 169.336 802.428 169.108 802.535 168.929C802.642 168.75 802.785 168.608 802.966 168.504C803.148 168.4 803.35 168.321 803.574 168.267C803.797 168.214 804.025 168.174 804.258 168.146C804.552 168.112 804.79 168.084 804.974 168.063C805.157 168.039 805.29 168.002 805.373 167.951C805.456 167.9 805.498 167.817 805.498 167.702V167.679C805.498 167.4 805.419 167.184 805.261 167.031C805.106 166.877 804.873 166.8 804.564 166.8C804.243 166.8 803.989 166.872 803.804 167.015C803.621 167.155 803.494 167.312 803.423 167.484L802.525 167.28C802.632 166.982 802.787 166.741 802.992 166.558C803.199 166.372 803.436 166.238 803.705 166.155C803.973 166.07 804.256 166.027 804.552 166.027C804.748 166.027 804.955 166.05 805.175 166.097C805.396 166.142 805.603 166.225 805.795 166.347C805.989 166.468 806.148 166.642 806.271 166.868C806.395 167.091 806.456 167.382 806.456 167.74V171H805.523V170.329H805.485C805.423 170.452 805.33 170.574 805.207 170.693C805.083 170.812 804.925 170.912 804.731 170.99C804.537 171.069 804.305 171.109 804.034 171.109ZM804.242 170.342C804.506 170.342 804.732 170.289 804.919 170.185C805.109 170.081 805.253 169.944 805.351 169.776C805.451 169.605 805.501 169.423 805.501 169.229V168.597C805.467 168.631 805.401 168.663 805.303 168.692C805.207 168.72 805.097 168.745 804.974 168.766C804.85 168.785 804.73 168.803 804.612 168.82C804.495 168.835 804.397 168.848 804.318 168.859C804.133 168.882 803.964 168.922 803.81 168.977C803.659 169.032 803.537 169.112 803.446 169.217C803.356 169.319 803.312 169.455 803.312 169.626C803.312 169.862 803.399 170.041 803.574 170.163C803.748 170.282 803.971 170.342 804.242 170.342ZM809.788 172.943C809.398 172.943 809.062 172.892 808.781 172.79C808.502 172.688 808.274 172.552 808.097 172.384C807.92 172.216 807.788 172.031 807.701 171.831L808.522 171.492C808.579 171.586 808.656 171.685 808.752 171.789C808.85 171.896 808.982 171.987 809.148 172.061C809.317 172.136 809.533 172.173 809.797 172.173C810.159 172.173 810.459 172.085 810.695 171.908C810.932 171.733 811.05 171.454 811.05 171.07V170.105H810.989C810.932 170.21 810.849 170.326 810.74 170.453C810.633 170.581 810.486 170.692 810.299 170.786C810.111 170.88 809.867 170.926 809.567 170.926C809.179 170.926 808.83 170.836 808.519 170.655C808.21 170.472 807.965 170.202 807.784 169.846C807.605 169.488 807.515 169.048 807.515 168.526C807.515 168.004 807.604 167.557 807.78 167.184C807.959 166.811 808.204 166.526 808.516 166.327C808.827 166.127 809.179 166.027 809.573 166.027C809.878 166.027 810.124 166.078 810.312 166.18C810.499 166.281 810.645 166.398 810.75 166.532C810.856 166.666 810.938 166.784 810.996 166.887H811.066V166.091H812.002V171.109C812.002 171.531 811.904 171.877 811.708 172.147C811.512 172.418 811.247 172.618 810.913 172.748C810.58 172.878 810.205 172.943 809.788 172.943ZM809.778 170.134C810.053 170.134 810.285 170.07 810.475 169.942C810.666 169.812 810.811 169.627 810.909 169.386C811.009 169.143 811.06 168.852 811.06 168.513C811.06 168.183 811.011 167.892 810.913 167.641C810.815 167.39 810.671 167.194 810.481 167.053C810.291 166.91 810.057 166.839 809.778 166.839C809.49 166.839 809.251 166.913 809.059 167.062C808.867 167.21 808.722 167.41 808.624 167.663C808.528 167.917 808.48 168.2 808.48 168.513C808.48 168.835 808.529 169.118 808.627 169.36C808.725 169.603 808.87 169.793 809.062 169.929C809.256 170.066 809.495 170.134 809.778 170.134ZM815.4 171.099C814.916 171.099 814.5 170.996 814.15 170.789C813.803 170.58 813.534 170.287 813.345 169.91C813.157 169.531 813.063 169.087 813.063 168.577C813.063 168.075 813.157 167.631 813.345 167.248C813.534 166.864 813.799 166.565 814.137 166.35C814.478 166.135 814.877 166.027 815.333 166.027C815.61 166.027 815.878 166.073 816.138 166.164C816.398 166.256 816.631 166.4 816.838 166.596C817.045 166.792 817.208 167.047 817.327 167.36C817.446 167.671 817.506 168.049 817.506 168.494V168.833H813.604V168.117H816.57C816.57 167.866 816.518 167.643 816.416 167.449C816.314 167.253 816.17 167.099 815.985 166.986C815.801 166.873 815.586 166.816 815.339 166.816C815.071 166.816 814.836 166.882 814.636 167.015C814.438 167.145 814.284 167.315 814.176 167.526C814.069 167.735 814.016 167.962 814.016 168.207V168.766C814.016 169.094 814.073 169.373 814.188 169.603C814.306 169.833 814.469 170.009 814.677 170.131C814.886 170.25 815.13 170.31 815.409 170.31C815.59 170.31 815.756 170.284 815.905 170.233C816.054 170.18 816.183 170.101 816.291 169.996C816.4 169.892 816.483 169.763 816.541 169.61L817.445 169.773C817.373 170.039 817.243 170.272 817.055 170.473C816.87 170.671 816.637 170.825 816.355 170.936C816.076 171.045 815.758 171.099 815.4 171.099Z" fill="white"/>
</g>
<g filter="url(#filter2_d_3162_1916)">
<rect x="701" y="417" width="91" height="21" rx="10.5" fill="#6A38C2" shape-rendering="crispEdges"/>
<path d="M713.719 431V424.455H717.778V425.305H714.707V427.299H717.487V428.146H714.707V431H713.719ZM719.871 424.455V431H718.916V424.455H719.871ZM723.225 431.099C722.765 431.099 722.363 430.994 722.02 430.783C721.677 430.572 721.411 430.277 721.221 429.897C721.031 429.518 720.937 429.075 720.937 428.568C720.937 428.059 721.031 427.613 721.221 427.232C721.411 426.85 721.677 426.554 722.02 426.343C722.363 426.132 722.765 426.027 723.225 426.027C723.685 426.027 724.087 426.132 724.43 426.343C724.773 426.554 725.039 426.85 725.229 427.232C725.418 427.613 725.513 428.059 725.513 428.568C725.513 429.075 725.418 429.518 725.229 429.897C725.039 430.277 724.773 430.572 724.43 430.783C724.087 430.994 723.685 431.099 723.225 431.099ZM723.228 430.297C723.526 430.297 723.774 430.218 723.97 430.06C724.166 429.903 724.31 429.693 724.404 429.431C724.5 429.169 724.548 428.88 724.548 428.565C724.548 428.251 724.5 427.964 724.404 427.702C724.31 427.437 724.166 427.225 723.97 427.066C723.774 426.906 723.526 426.826 723.228 426.826C722.928 426.826 722.678 426.906 722.48 427.066C722.284 427.225 722.138 427.437 722.042 427.702C721.949 427.964 721.902 428.251 721.902 428.565C721.902 428.88 721.949 429.169 722.042 429.431C722.138 429.693 722.284 429.903 722.48 430.06C722.678 430.218 722.928 430.297 723.228 430.297ZM728.009 431.109C727.697 431.109 727.416 431.051 727.165 430.936C726.913 430.819 726.714 430.65 726.567 430.428C726.422 430.206 726.35 429.935 726.35 429.613C726.35 429.336 726.403 429.108 726.51 428.929C726.616 428.75 726.76 428.608 726.941 428.504C727.122 428.4 727.325 428.321 727.548 428.267C727.772 428.214 728 428.174 728.232 428.146C728.526 428.112 728.765 428.084 728.948 428.063C729.131 428.039 729.265 428.002 729.348 427.951C729.431 427.9 729.472 427.817 729.472 427.702V427.679C729.472 427.4 729.393 427.184 729.236 427.031C729.08 426.877 728.848 426.8 728.539 426.8C728.217 426.8 727.964 426.872 727.778 427.015C727.595 427.155 727.468 427.312 727.398 427.484L726.5 427.28C726.607 426.982 726.762 426.741 726.967 426.558C727.173 426.372 727.411 426.238 727.679 426.155C727.948 426.07 728.23 426.027 728.526 426.027C728.722 426.027 728.93 426.05 729.15 426.097C729.371 426.142 729.578 426.225 729.77 426.347C729.963 426.468 730.122 426.642 730.246 426.868C730.369 427.091 730.431 427.382 730.431 427.74V431H729.498V430.329H729.46C729.398 430.452 729.305 430.574 729.181 430.693C729.058 430.812 728.899 430.912 728.705 430.99C728.511 431.069 728.279 431.109 728.009 431.109ZM728.216 430.342C728.48 430.342 728.706 430.289 728.894 430.185C729.083 430.081 729.227 429.944 729.325 429.776C729.425 429.605 729.475 429.423 729.475 429.229V428.597C729.441 428.631 729.375 428.663 729.277 428.692C729.181 428.72 729.072 428.745 728.948 428.766C728.825 428.785 728.704 428.803 728.587 428.82C728.47 428.835 728.372 428.848 728.293 428.859C728.108 428.882 727.938 428.922 727.785 428.977C727.634 429.032 727.512 429.112 727.42 429.217C727.331 429.319 727.286 429.455 727.286 429.626C727.286 429.862 727.374 430.041 727.548 430.163C727.723 430.282 727.946 430.342 728.216 430.342ZM733.995 426.091V426.858H731.314V426.091H733.995ZM732.033 424.915H732.989V429.559C732.989 429.744 733.016 429.884 733.072 429.977C733.127 430.069 733.199 430.132 733.286 430.166C733.375 430.198 733.472 430.214 733.577 430.214C733.653 430.214 733.721 430.208 733.778 430.198C733.836 430.187 733.88 430.179 733.912 430.172L734.085 430.962C734.03 430.983 733.951 431.004 733.848 431.026C733.746 431.049 733.618 431.062 733.465 431.064C733.214 431.068 732.979 431.023 732.762 430.93C732.544 430.836 732.369 430.691 732.234 430.495C732.1 430.299 732.033 430.053 732.033 429.757V424.915ZM735.053 431V426.091H736.008V431H735.053ZM735.535 425.333C735.369 425.333 735.226 425.278 735.107 425.167C734.99 425.054 734.931 424.92 734.931 424.765C734.931 424.607 734.99 424.473 735.107 424.362C735.226 424.249 735.369 424.192 735.535 424.192C735.701 424.192 735.843 424.249 735.96 424.362C736.08 424.473 736.139 424.607 736.139 424.765C736.139 424.92 736.08 425.054 735.96 425.167C735.843 425.278 735.701 425.333 735.535 425.333ZM738.249 428.085V431H737.294V426.091H738.211V426.89H738.272C738.385 426.63 738.562 426.421 738.802 426.263C739.045 426.106 739.351 426.027 739.72 426.027C740.054 426.027 740.347 426.097 740.598 426.238C740.85 426.376 741.045 426.583 741.183 426.858C741.322 427.133 741.391 427.473 741.391 427.877V431H740.435V427.993C740.435 427.637 740.343 427.359 740.157 427.158C739.972 426.956 739.717 426.855 739.394 426.855C739.172 426.855 738.975 426.903 738.802 426.999C738.632 427.094 738.497 427.235 738.396 427.42C738.298 427.604 738.249 427.825 738.249 428.085ZM744.731 432.943C744.341 432.943 744.005 432.892 743.724 432.79C743.445 432.688 743.217 432.552 743.04 432.384C742.863 432.216 742.731 432.031 742.644 431.831L743.465 431.492C743.523 431.586 743.6 431.685 743.695 431.789C743.793 431.896 743.926 431.987 744.092 432.061C744.26 432.136 744.476 432.173 744.741 432.173C745.103 432.173 745.402 432.085 745.639 431.908C745.875 431.733 745.993 431.454 745.993 431.07V430.105H745.933C745.875 430.21 745.792 430.326 745.683 430.453C745.577 430.581 745.43 430.692 745.242 430.786C745.055 430.88 744.811 430.926 744.51 430.926C744.123 430.926 743.773 430.836 743.462 430.655C743.153 430.472 742.908 430.202 742.727 429.846C742.548 429.488 742.459 429.048 742.459 428.526C742.459 428.004 742.547 427.557 742.724 427.184C742.903 426.811 743.148 426.526 743.459 426.327C743.77 426.127 744.123 426.027 744.517 426.027C744.821 426.027 745.068 426.078 745.255 426.18C745.443 426.281 745.589 426.398 745.693 426.532C745.799 426.666 745.881 426.784 745.939 426.887H746.009V426.091H746.946V431.109C746.946 431.531 746.848 431.877 746.652 432.147C746.456 432.418 746.19 432.618 745.856 432.748C745.524 432.878 745.149 432.943 744.731 432.943ZM744.721 430.134C744.996 430.134 745.228 430.07 745.418 429.942C745.61 429.812 745.755 429.627 745.853 429.386C745.953 429.143 746.003 428.852 746.003 428.513C746.003 428.183 745.954 427.892 745.856 427.641C745.758 427.39 745.614 427.194 745.424 427.053C745.235 426.91 745 426.839 744.721 426.839C744.434 426.839 744.194 426.913 744.002 427.062C743.81 427.21 743.666 427.41 743.568 427.663C743.472 427.917 743.424 428.2 743.424 428.513C743.424 428.835 743.473 429.118 743.571 429.36C743.669 429.603 743.814 429.793 744.005 429.929C744.199 430.066 744.438 430.134 744.721 430.134ZM751.673 431L750.229 426.091H751.216L752.178 429.696H752.226L753.192 426.091H754.179L755.138 429.68H755.186L756.142 426.091H757.129L755.688 431H754.713L753.716 427.456H753.642L752.645 431H751.673ZM758.036 431V426.091H758.992V431H758.036ZM758.519 425.333C758.352 425.333 758.21 425.278 758.09 425.167C757.973 425.054 757.915 424.92 757.915 424.765C757.915 424.607 757.973 424.473 758.09 424.362C758.21 424.249 758.352 424.192 758.519 424.192C758.685 424.192 758.826 424.249 758.944 424.362C759.063 424.473 759.123 424.607 759.123 424.765C759.123 424.92 759.063 425.054 758.944 425.167C758.826 425.278 758.685 425.333 758.519 425.333ZM762.115 431.096C761.719 431.096 761.365 430.995 761.054 430.792C760.745 430.588 760.502 430.297 760.325 429.92C760.15 429.54 760.063 429.086 760.063 428.555C760.063 428.025 760.151 427.571 760.328 427.194C760.507 426.816 760.752 426.528 761.063 426.327C761.374 426.127 761.727 426.027 762.121 426.027C762.426 426.027 762.671 426.078 762.856 426.18C763.044 426.281 763.189 426.398 763.291 426.532C763.395 426.666 763.476 426.784 763.534 426.887H763.591V424.455H764.547V431H763.614V430.236H763.534C763.476 430.341 763.393 430.46 763.285 430.594C763.178 430.728 763.031 430.846 762.844 430.946C762.656 431.046 762.413 431.096 762.115 431.096ZM762.326 430.281C762.601 430.281 762.833 430.208 763.023 430.064C763.214 429.917 763.359 429.713 763.457 429.453C763.557 429.193 763.607 428.891 763.607 428.545C763.607 428.205 763.558 427.906 763.46 427.651C763.362 427.395 763.219 427.196 763.029 427.053C762.839 426.91 762.605 426.839 762.326 426.839C762.038 426.839 761.798 426.913 761.607 427.062C761.415 427.212 761.27 427.415 761.172 427.673C761.076 427.931 761.028 428.222 761.028 428.545C761.028 428.874 761.077 429.169 761.175 429.431C761.273 429.693 761.418 429.901 761.61 430.054C761.804 430.205 762.042 430.281 762.326 430.281ZM767.969 432.943C767.579 432.943 767.244 432.892 766.962 432.79C766.683 432.688 766.455 432.552 766.278 432.384C766.102 432.216 765.97 432.031 765.882 431.831L766.704 431.492C766.761 431.586 766.838 431.685 766.934 431.789C767.032 431.896 767.164 431.987 767.33 432.061C767.498 432.136 767.715 432.173 767.979 432.173C768.341 432.173 768.64 432.085 768.877 431.908C769.113 431.733 769.232 431.454 769.232 431.07V430.105H769.171C769.113 430.21 769.03 430.326 768.922 430.453C768.815 430.581 768.668 430.692 768.481 430.786C768.293 430.88 768.049 430.926 767.749 430.926C767.361 430.926 767.011 430.836 766.7 430.655C766.391 430.472 766.146 430.202 765.965 429.846C765.786 429.488 765.697 429.048 765.697 428.526C765.697 428.004 765.785 427.557 765.962 427.184C766.141 426.811 766.386 426.526 766.697 426.327C767.008 426.127 767.361 426.027 767.755 426.027C768.06 426.027 768.306 426.078 768.493 426.18C768.681 426.281 768.827 426.398 768.931 426.532C769.038 426.666 769.12 426.784 769.177 426.887H769.248V426.091H770.184V431.109C770.184 431.531 770.086 431.877 769.89 432.147C769.694 432.418 769.429 432.618 769.094 432.748C768.762 432.878 768.387 432.943 767.969 432.943ZM767.96 430.134C768.234 430.134 768.467 430.07 768.656 429.942C768.848 429.812 768.993 429.627 769.091 429.386C769.191 429.143 769.241 428.852 769.241 428.513C769.241 428.183 769.192 427.892 769.094 427.641C768.996 427.39 768.852 427.194 768.663 427.053C768.473 426.91 768.239 426.839 767.96 426.839C767.672 426.839 767.432 426.913 767.241 427.062C767.049 427.21 766.904 427.41 766.806 427.663C766.71 427.917 766.662 428.2 766.662 428.513C766.662 428.835 766.711 429.118 766.809 429.36C766.907 429.603 767.052 429.793 767.244 429.929C767.438 430.066 767.676 430.134 767.96 430.134ZM773.581 431.099C773.098 431.099 772.681 430.996 772.332 430.789C771.984 430.58 771.716 430.287 771.526 429.91C771.339 429.531 771.245 429.087 771.245 428.577C771.245 428.075 771.339 427.631 771.526 427.248C771.716 426.864 771.98 426.565 772.319 426.35C772.66 426.135 773.058 426.027 773.514 426.027C773.791 426.027 774.06 426.073 774.32 426.164C774.58 426.256 774.813 426.4 775.02 426.596C775.226 426.792 775.389 427.047 775.509 427.36C775.628 427.671 775.688 428.049 775.688 428.494V428.833H771.785V428.117H774.751C774.751 427.866 774.7 427.643 774.598 427.449C774.495 427.253 774.352 427.099 774.166 426.986C773.983 426.873 773.768 426.816 773.521 426.816C773.252 426.816 773.018 426.882 772.818 427.015C772.619 427.145 772.466 427.315 772.357 427.526C772.251 427.735 772.198 427.962 772.198 428.207V428.766C772.198 429.094 772.255 429.373 772.37 429.603C772.487 429.833 772.65 430.009 772.859 430.131C773.068 430.25 773.312 430.31 773.591 430.31C773.772 430.31 773.937 430.284 774.086 430.233C774.236 430.18 774.364 430.101 774.473 429.996C774.582 429.892 774.665 429.763 774.722 429.61L775.627 429.773C775.554 430.039 775.424 430.272 775.237 430.473C775.052 430.671 774.818 430.825 774.537 430.936C774.258 431.045 773.939 431.099 773.581 431.099ZM779.039 426.091V426.858H776.358V426.091H779.039ZM777.077 424.915H778.033V429.559C778.033 429.744 778.06 429.884 778.116 429.977C778.171 430.069 778.243 430.132 778.33 430.166C778.419 430.198 778.516 430.214 778.621 430.214C778.697 430.214 778.765 430.208 778.822 430.198C778.88 430.187 778.924 430.179 778.956 430.172L779.129 430.962C779.074 430.983 778.995 431.004 778.892 431.026C778.79 431.049 778.662 431.062 778.509 431.064C778.257 431.068 778.023 431.023 777.806 430.93C777.588 430.836 777.413 430.691 777.278 430.495C777.144 430.299 777.077 430.053 777.077 429.757V424.915Z" fill="white"/>
</g>
<g filter="url(#filter3_d_3162_1916)">
<rect x="62" y="555" width="78" height="21" rx="10.5" fill="#6A38C2" shape-rendering="crispEdges"/>
<path d="M78.8381 569H76.7191V562.455H78.9052C79.5465 562.455 80.0973 562.586 80.5575 562.848C81.0178 563.108 81.3704 563.482 81.6154 563.969C81.8626 564.455 81.9862 565.038 81.9862 565.718C81.9862 566.4 81.8615 566.985 81.6122 567.475C81.3651 567.966 81.0071 568.343 80.5384 568.607C80.0696 568.869 79.5028 569 78.8381 569ZM77.7067 568.137H78.7837C79.2823 568.137 79.6967 568.043 80.027 567.856C80.3572 567.666 80.6044 567.392 80.7685 567.034C80.9325 566.674 81.0146 566.235 81.0146 565.718C81.0146 565.204 80.9325 564.768 80.7685 564.411C80.6065 564.053 80.3647 563.781 80.043 563.596C79.7212 563.41 79.3217 563.317 78.8445 563.317H77.7067V568.137ZM85.2533 569.099C84.7696 569.099 84.3531 568.996 84.0036 568.789C83.6563 568.58 83.3879 568.287 83.1982 567.91C83.0107 567.531 82.917 567.087 82.917 566.577C82.917 566.075 83.0107 565.631 83.1982 565.248C83.3879 564.864 83.6521 564.565 83.9909 564.35C84.3318 564.135 84.7302 564.027 85.1862 564.027C85.4632 564.027 85.7316 564.073 85.9916 564.164C86.2515 564.256 86.4848 564.4 86.6915 564.596C86.8982 564.792 87.0612 565.047 87.1805 565.36C87.2998 565.671 87.3595 566.049 87.3595 566.494V566.833H83.4571V566.117H86.423C86.423 565.866 86.3719 565.643 86.2696 565.449C86.1673 565.253 86.0235 565.099 85.8382 564.986C85.6549 564.873 85.4397 564.816 85.1926 564.816C84.9241 564.816 84.6897 564.882 84.4894 565.015C84.2913 565.145 84.1379 565.315 84.0292 565.526C83.9227 565.735 83.8694 565.962 83.8694 566.207V566.766C83.8694 567.094 83.9269 567.373 84.042 567.603C84.1592 567.833 84.3222 568.009 84.531 568.131C84.7398 568.25 84.9838 568.31 85.2629 568.31C85.444 568.31 85.6091 568.284 85.7583 568.233C85.9074 568.18 86.0363 568.101 86.145 567.996C86.2536 567.892 86.3367 567.763 86.3943 567.61L87.2987 567.773C87.2263 568.039 87.0963 568.272 86.9088 568.473C86.7235 568.671 86.4901 568.825 86.2089 568.936C85.9298 569.045 85.6112 569.099 85.2533 569.099ZM92.0984 565.289L91.2322 565.443C91.196 565.332 91.1385 565.227 91.0597 565.126C90.983 565.026 90.8786 564.944 90.7464 564.88C90.6143 564.816 90.4492 564.784 90.2511 564.784C89.9805 564.784 89.7546 564.845 89.5735 564.967C89.3924 565.086 89.3018 565.24 89.3018 565.43C89.3018 565.594 89.3626 565.726 89.484 565.826C89.6055 565.926 89.8015 566.009 90.0721 566.072L90.8519 566.251C91.3036 566.356 91.6403 566.517 91.8619 566.734C92.0835 566.951 92.1942 567.234 92.1942 567.581C92.1942 567.875 92.109 568.137 91.9386 568.367C91.7702 568.595 91.5348 568.774 91.2322 568.904C90.9318 569.034 90.5835 569.099 90.1871 569.099C89.6374 569.099 89.1889 568.982 88.8416 568.748C88.4943 568.511 88.2813 568.175 88.2024 567.741L89.1261 567.6C89.1836 567.841 89.3018 568.023 89.4808 568.147C89.6598 568.268 89.8931 568.329 90.1808 568.329C90.494 568.329 90.7443 568.264 90.9318 568.134C91.1193 568.002 91.2131 567.841 91.2131 567.651C91.2131 567.498 91.1555 567.369 91.0405 567.265C90.9276 567.16 90.7539 567.081 90.5195 567.028L89.6886 566.846C89.2305 566.741 88.8917 566.575 88.6722 566.347C88.4549 566.119 88.3462 565.831 88.3462 565.481C88.3462 565.191 88.4272 564.938 88.5891 564.721C88.7511 564.503 88.9748 564.334 89.2603 564.212C89.5458 564.089 89.8729 564.027 90.2415 564.027C90.772 564.027 91.1896 564.142 91.4943 564.372C91.799 564.6 92.0004 564.906 92.0984 565.289ZM95.3128 569.099C94.8376 569.099 94.4285 568.991 94.0855 568.776C93.7446 568.559 93.4825 568.26 93.2993 567.878C93.116 567.497 93.0244 567.06 93.0244 566.568C93.0244 566.069 93.1182 565.629 93.3057 565.248C93.4932 564.864 93.7574 564.565 94.0983 564.35C94.4392 564.135 94.8408 564.027 95.3032 564.027C95.676 564.027 96.0084 564.096 96.3003 564.235C96.5922 564.371 96.8277 564.563 97.0067 564.81C97.1878 565.057 97.2954 565.346 97.3295 565.676H96.3994C96.3483 565.446 96.2311 565.248 96.0479 565.082C95.8667 564.915 95.6238 564.832 95.3192 564.832C95.0528 564.832 94.8195 564.903 94.6192 565.043C94.4211 565.182 94.2666 565.38 94.1558 565.638C94.045 565.893 93.9896 566.196 93.9896 566.545C93.9896 566.903 94.0439 567.212 94.1526 567.472C94.2613 567.732 94.4147 567.934 94.6128 568.076C94.8131 568.219 95.0486 568.29 95.3192 568.29C95.5003 568.29 95.6643 568.257 95.8113 568.191C95.9605 568.123 96.0851 568.026 96.1853 567.901C96.2876 567.775 96.3589 567.624 96.3994 567.447H97.3295C97.2954 567.764 97.192 568.048 97.0194 568.297C96.8469 568.546 96.6157 568.742 96.3259 568.885C96.0383 569.028 95.7006 569.099 95.3128 569.099ZM98.3514 569V564.091H99.275V564.871H99.3262C99.4157 564.607 99.5733 564.399 99.7992 564.248C100.027 564.094 100.285 564.017 100.573 564.017C100.632 564.017 100.703 564.02 100.784 564.024C100.867 564.028 100.932 564.033 100.979 564.04V564.954C100.94 564.943 100.872 564.931 100.774 564.919C100.676 564.904 100.578 564.896 100.48 564.896C100.254 564.896 100.053 564.944 99.8759 565.04C99.7012 565.134 99.5627 565.265 99.4604 565.433C99.3581 565.599 99.307 565.789 99.307 566.002V569H98.3514ZM101.805 569V564.091H102.761V569H101.805ZM102.288 563.333C102.122 563.333 101.979 563.278 101.86 563.167C101.743 563.054 101.684 562.92 101.684 562.765C101.684 562.607 101.743 562.473 101.86 562.362C101.979 562.249 102.122 562.192 102.288 562.192C102.454 562.192 102.596 562.249 102.713 562.362C102.832 562.473 102.892 562.607 102.892 562.765C102.892 562.92 102.832 563.054 102.713 563.167C102.596 563.278 102.454 563.333 102.288 563.333ZM104.047 570.841V564.091H104.98V564.887H105.06C105.115 564.784 105.195 564.666 105.3 564.532C105.404 564.398 105.549 564.281 105.734 564.18C105.92 564.078 106.165 564.027 106.469 564.027C106.866 564.027 107.219 564.127 107.53 564.327C107.841 564.528 108.085 564.816 108.262 565.194C108.441 565.571 108.531 566.025 108.531 566.555C108.531 567.086 108.442 567.54 108.265 567.92C108.089 568.297 107.846 568.588 107.537 568.792C107.228 568.995 106.875 569.096 106.479 569.096C106.181 569.096 105.937 569.046 105.747 568.946C105.559 568.846 105.412 568.728 105.306 568.594C105.199 568.46 105.117 568.341 105.06 568.236H105.002V570.841H104.047ZM104.983 566.545C104.983 566.891 105.033 567.193 105.133 567.453C105.233 567.713 105.378 567.917 105.568 568.064C105.758 568.208 105.99 568.281 106.265 568.281C106.55 568.281 106.789 568.205 106.981 568.054C107.172 567.901 107.317 567.693 107.415 567.431C107.515 567.169 107.566 566.874 107.566 566.545C107.566 566.222 107.517 565.931 107.419 565.673C107.323 565.415 107.178 565.212 106.984 565.062C106.792 564.913 106.552 564.839 106.265 564.839C105.988 564.839 105.753 564.91 105.562 565.053C105.372 565.196 105.228 565.395 105.13 565.651C105.032 565.906 104.983 566.205 104.983 566.545ZM111.893 564.091V564.858H109.211V564.091H111.893ZM109.931 562.915H110.886V567.559C110.886 567.744 110.914 567.884 110.969 567.977C111.025 568.069 111.096 568.132 111.183 568.166C111.273 568.198 111.37 568.214 111.474 568.214C111.551 568.214 111.618 568.208 111.676 568.198C111.733 568.187 111.778 568.179 111.81 568.172L111.982 568.962C111.927 568.983 111.848 569.004 111.746 569.026C111.644 569.049 111.516 569.062 111.362 569.064C111.111 569.068 110.877 569.023 110.659 568.93C110.442 568.836 110.266 568.691 110.132 568.495C109.998 568.299 109.931 568.053 109.931 567.757V562.915ZM112.95 569V564.091H113.906V569H112.95ZM113.433 563.333C113.266 563.333 113.124 563.278 113.004 563.167C112.887 563.054 112.829 562.92 112.829 562.765C112.829 562.607 112.887 562.473 113.004 562.362C113.124 562.249 113.266 562.192 113.433 562.192C113.599 562.192 113.741 562.249 113.858 562.362C113.977 562.473 114.037 562.607 114.037 562.765C114.037 562.92 113.977 563.054 113.858 563.167C113.741 563.278 113.599 563.333 113.433 563.333ZM117.259 569.099C116.799 569.099 116.397 568.994 116.054 568.783C115.711 568.572 115.445 568.277 115.255 567.897C115.066 567.518 114.971 567.075 114.971 566.568C114.971 566.059 115.066 565.613 115.255 565.232C115.445 564.85 115.711 564.554 116.054 564.343C116.397 564.132 116.799 564.027 117.259 564.027C117.719 564.027 118.121 564.132 118.464 564.343C118.807 564.554 119.073 564.85 119.263 565.232C119.453 565.613 119.547 566.059 119.547 566.568C119.547 567.075 119.453 567.518 119.263 567.897C119.073 568.277 118.807 568.572 118.464 568.783C118.121 568.994 117.719 569.099 117.259 569.099ZM117.262 568.297C117.561 568.297 117.808 568.218 118.004 568.06C118.2 567.903 118.345 567.693 118.438 567.431C118.534 567.169 118.582 566.88 118.582 566.565C118.582 566.251 118.534 565.964 118.438 565.702C118.345 565.437 118.2 565.225 118.004 565.066C117.808 564.906 117.561 564.826 117.262 564.826C116.962 564.826 116.713 564.906 116.514 565.066C116.318 565.225 116.172 565.437 116.077 565.702C115.983 565.964 115.936 566.251 115.936 566.565C115.936 566.88 115.983 567.169 116.077 567.431C116.172 567.693 116.318 567.903 116.514 568.06C116.713 568.218 116.962 568.297 117.262 568.297ZM121.57 566.085V569H120.614V564.091H121.531V564.89H121.592C121.705 564.63 121.882 564.421 122.123 564.263C122.366 564.106 122.671 564.027 123.04 564.027C123.374 564.027 123.667 564.097 123.919 564.238C124.17 564.376 124.365 564.583 124.504 564.858C124.642 565.133 124.711 565.473 124.711 565.877V569H123.756V565.993C123.756 565.637 123.663 565.359 123.478 565.158C123.292 564.956 123.038 564.855 122.714 564.855C122.492 564.855 122.295 564.903 122.123 564.999C121.952 565.094 121.817 565.235 121.717 565.42C121.619 565.604 121.57 565.825 121.57 566.085Z" fill="white"/>
</g>
<rect x="843" y="257" width="162" height="6.00001" rx="3" transform="rotate(-90 843 257)" fill="#C8CDD8"/>
<rect x="171" y="272" width="196" height="15" rx="7.5" fill="#C8CDD8"/>
<path d="M623 277C623 274.239 625.239 272 628 272H678C680.761 272 683 274.239 683 277V295C683 297.761 680.761 300 678 300H628C625.239 300 623 297.761 623 295V277Z" fill="#B0C8F0"/>
<path d="M640.679 290H639.756L642.426 282.727H643.335L646.006 290H645.082L642.909 283.878H642.852L640.679 290ZM641.02 287.159H644.741V287.94H641.02V287.159ZM647.025 292.045V284.545H647.835V285.412H647.934C647.996 285.317 648.081 285.196 648.19 285.05C648.301 284.901 648.46 284.768 648.665 284.652C648.874 284.534 649.156 284.474 649.511 284.474C649.97 284.474 650.375 284.589 650.725 284.819C651.076 285.049 651.349 285.374 651.545 285.795C651.742 286.217 651.84 286.714 651.84 287.287C651.84 287.865 651.742 288.365 651.545 288.789C651.349 289.21 651.077 289.537 650.729 289.769C650.381 289.999 649.979 290.114 649.525 290.114C649.174 290.114 648.894 290.056 648.683 289.94C648.473 289.821 648.31 289.687 648.197 289.538C648.083 289.387 647.996 289.261 647.934 289.162H647.863V292.045H647.025ZM647.849 287.273C647.849 287.685 647.909 288.048 648.03 288.363C648.151 288.675 648.327 288.92 648.559 289.098C648.791 289.273 649.075 289.361 649.411 289.361C649.762 289.361 650.054 289.268 650.288 289.084C650.525 288.897 650.703 288.646 650.821 288.331C650.942 288.014 651.002 287.661 651.002 287.273C651.002 286.889 650.943 286.544 650.825 286.236C650.709 285.926 650.532 285.681 650.295 285.501C650.061 285.318 649.766 285.227 649.411 285.227C649.07 285.227 648.784 285.314 648.552 285.487C648.32 285.657 648.145 285.896 648.026 286.204C647.908 286.509 647.849 286.866 647.849 287.273ZM653.119 292.045V284.545H653.928V285.412H654.028C654.089 285.317 654.174 285.196 654.283 285.05C654.395 284.901 654.553 284.768 654.759 284.652C654.968 284.534 655.249 284.474 655.604 284.474C656.064 284.474 656.469 284.589 656.819 284.819C657.169 285.049 657.443 285.374 657.639 285.795C657.836 286.217 657.934 286.714 657.934 287.287C657.934 287.865 657.836 288.365 657.639 288.789C657.443 289.21 657.17 289.537 656.822 289.769C656.474 289.999 656.073 290.114 655.619 290.114C655.268 290.114 654.988 290.056 654.777 289.94C654.566 289.821 654.404 289.687 654.29 289.538C654.177 289.387 654.089 289.261 654.028 289.162H653.957V292.045H653.119ZM653.942 287.273C653.942 287.685 654.003 288.048 654.124 288.363C654.244 288.675 654.421 288.92 654.653 289.098C654.885 289.273 655.169 289.361 655.505 289.361C655.855 289.361 656.148 289.268 656.382 289.084C656.619 288.897 656.796 288.646 656.915 288.331C657.036 288.014 657.096 287.661 657.096 287.273C657.096 286.889 657.037 286.544 656.918 286.236C656.802 285.926 656.626 285.681 656.389 285.501C656.155 285.318 655.86 285.227 655.505 285.227C655.164 285.227 654.878 285.314 654.646 285.487C654.414 285.657 654.238 285.896 654.12 286.204C654.002 286.509 653.942 286.866 653.942 287.273ZM660.05 282.727V290H659.212V282.727H660.05ZM662.125 292.045C661.983 292.045 661.856 292.034 661.745 292.01C661.634 291.989 661.557 291.967 661.514 291.946L661.727 291.207C661.931 291.259 662.111 291.278 662.267 291.264C662.423 291.25 662.562 291.18 662.683 291.055C662.806 290.932 662.918 290.732 663.02 290.455L663.176 290.028L661.159 284.545H662.068L663.574 288.892H663.631L665.137 284.545H666.046L663.73 290.795C663.626 291.077 663.497 291.31 663.343 291.495C663.189 291.682 663.011 291.821 662.807 291.911C662.606 292 662.378 292.045 662.125 292.045Z" fill="#6B80A4"/>
<rect x="171" y="299" width="229" height="8" rx="4" fill="#C8CDD8"/>
<g filter="url(#filter4_d_3162_1916)">
<rect x="530" y="332" width="153" height="177" rx="12.6118" fill="white"/>
<rect x="530.631" y="332.631" width="151.739" height="175.739" rx="11.9812" stroke="#D4D8E2" stroke-width="1.26118"/>
</g>
<rect x="543" y="444" width="126" height="5" rx="2.5" fill="#C8CDD8"/>
<rect x="543" y="456" width="104" height="5" rx="2.5" fill="#C8CDD8"/>
<rect x="543" y="468" width="116" height="5" rx="2.5" fill="#C8CDD8"/>
<rect x="543" y="480" width="69" height="5" rx="2.5" fill="#C8CDD8"/>
<circle cx="562.5" cy="390.5" r="19.5" fill="#C8CDD8"/>
<rect x="588" y="379" width="65" height="8" rx="4" fill="#C8CDD8"/>
<rect x="543" y="427" width="65" height="8" rx="4" fill="#C8CDD8"/>
<rect x="588" y="394" width="47" height="8" rx="4" fill="#C8CDD8"/>
<rect x="543" y="349" width="109" height="10" rx="5" fill="#C8CDD8"/>
<rect x="530.404" y="526.525" width="151.569" height="98.9142" rx="4.82051" fill="#E8EBF0" stroke="#C8CDD8" stroke-width="1.05038"/>
<line x1="680.498" y1="527.705" x2="532.394" y2="624.341" stroke="#C8CDD8" stroke-width="1.05038"/>
<line y1="-0.525191" x2="176.842" y2="-0.525191" transform="matrix(0.837492 0.546449 0.546449 -0.837492 532.107 527.266)" stroke="#C8CDD8" stroke-width="1.05038"/>
<path d="M596.465 571.545V581H595.039V571.545H596.465ZM598.543 571.545H600.274L603.284 578.895H603.395L606.404 571.545H608.136V581H606.778V574.158H606.691L603.902 580.986H602.776L599.988 574.154H599.9V581H598.543V571.545ZM616.608 574.532C616.519 574.252 616.399 574.001 616.248 573.78C616.1 573.555 615.923 573.364 615.717 573.207C615.511 573.047 615.275 572.926 615.011 572.843C614.749 572.76 614.461 572.718 614.147 572.718C613.615 572.718 613.135 572.855 612.707 573.129C612.279 573.403 611.941 573.804 611.691 574.334C611.445 574.86 611.322 575.505 611.322 576.268C611.322 577.034 611.447 577.682 611.696 578.212C611.945 578.741 612.287 579.143 612.721 579.417C613.155 579.69 613.649 579.827 614.203 579.827C614.717 579.827 615.165 579.723 615.546 579.513C615.931 579.304 616.228 579.009 616.437 578.627C616.65 578.242 616.756 577.79 616.756 577.27L617.125 577.339H614.42V576.162H618.136V577.238C618.136 578.032 617.967 578.721 617.628 579.306C617.293 579.887 616.828 580.337 616.234 580.654C615.643 580.971 614.966 581.129 614.203 581.129C613.347 581.129 612.596 580.932 611.95 580.538C611.307 580.144 610.805 579.586 610.445 578.863C610.085 578.136 609.905 577.275 609.905 576.277C609.905 575.523 610.01 574.846 610.219 574.246C610.428 573.646 610.722 573.137 611.101 572.718C611.482 572.296 611.93 571.975 612.444 571.753C612.961 571.529 613.526 571.416 614.138 571.416C614.649 571.416 615.125 571.492 615.565 571.642C616.008 571.793 616.402 572.007 616.747 572.284C617.094 572.561 617.382 572.89 617.61 573.272C617.838 573.651 617.991 574.071 618.071 574.532H616.608Z" fill="#9FA9BA"/>
</g>
<defs>
<filter id="filter0_d_3162_1916" x="165.955" y="332" width="351.089" height="167.089" filterUnits="userSpaceOnUse" color-interpolation-filters="sRGB">
<feFlood flood-opacity="0" result="BackgroundImageFix"/>
<feColorMatrix in="SourceAlpha" type="matrix" values="0 0 0 0 0 0 0 0 0 0 0 0 0 0 0 0 0 0 127 0" result="hardAlpha"/>
<feOffset dy="5.0447"/>
<feGaussianBlur stdDeviation="2.52235"/>
<feComposite in2="hardAlpha" operator="out"/>
<feColorMatrix type="matrix" values="0 0 0 0 0 0 0 0 0 0 0 0 0 0 0 0 0 0 0.07 0"/>
<feBlend mode="normal" in2="BackgroundImageFix" result="effect1_dropShadow_3162_1916"/>
<feBlend mode="normal" in="SourceGraphic" in2="effect1_dropShadow_3162_1916" result="shape"/>
</filter>
<filter id="filter1_d_3162_1916" x="708" y="157" width="124" height="29" filterUnits="userSpaceOnUse" color-interpolation-filters="sRGB">
<feFlood flood-opacity="0" result="BackgroundImageFix"/>
<feColorMatrix in="SourceAlpha" type="matrix" values="0 0 0 0 0 0 0 0 0 0 0 0 0 0 0 0 0 0 127 0" result="hardAlpha"/>
<feOffset dy="4"/>
<feGaussianBlur stdDeviation="2"/>
<feComposite in2="hardAlpha" operator="out"/>
<feColorMatrix type="matrix" values="0 0 0 0 0 0 0 0 0 0 0 0 0 0 0 0 0 0 0.07 0"/>
<feBlend mode="normal" in2="BackgroundImageFix" result="effect1_dropShadow_3162_1916"/>
<feBlend mode="normal" in="SourceGraphic" in2="effect1_dropShadow_3162_1916" result="shape"/>
</filter>
<filter id="filter2_d_3162_1916" x="697" y="417" width="99" height="29" filterUnits="userSpaceOnUse" color-interpolation-filters="sRGB">
<feFlood flood-opacity="0" result="BackgroundImageFix"/>
<feColorMatrix in="SourceAlpha" type="matrix" values="0 0 0 0 0 0 0 0 0 0 0 0 0 0 0 0 0 0 127 0" result="hardAlpha"/>
<feOffset dy="4"/>
<feGaussianBlur stdDeviation="2"/>
<feComposite in2="hardAlpha" operator="out"/>
<feColorMatrix type="matrix" values="0 0 0 0 0 0 0 0 0 0 0 0 0 0 0 0 0 0 0.07 0"/>
<feBlend mode="normal" in2="BackgroundImageFix" result="effect1_dropShadow_3162_1916"/>
<feBlend mode="normal" in="SourceGraphic" in2="effect1_dropShadow_3162_1916" result="shape"/>
</filter>
<filter id="filter3_d_3162_1916" x="58" y="555" width="86" height="29" filterUnits="userSpaceOnUse" color-interpolation-filters="sRGB">
<feFlood flood-opacity="0" result="BackgroundImageFix"/>
<feColorMatrix in="SourceAlpha" type="matrix" values="0 0 0 0 0 0 0 0 0 0 0 0 0 0 0 0 0 0 127 0" result="hardAlpha"/>
<feOffset dy="4"/>
<feGaussianBlur stdDeviation="2"/>
<feComposite in2="hardAlpha" operator="out"/>
<feColorMatrix type="matrix" values="0 0 0 0 0 0 0 0 0 0 0 0 0 0 0 0 0 0 0.07 0"/>
<feBlend mode="normal" in2="BackgroundImageFix" result="effect1_dropShadow_3162_1916"/>
<feBlend mode="normal" in="SourceGraphic" in2="effect1_dropShadow_3162_1916" result="shape"/>
</filter>
<filter id="filter4_d_3162_1916" x="524.955" y="332" width="163.089" height="187.089" filterUnits="userSpaceOnUse" color-interpolation-filters="sRGB">
<feFlood flood-opacity="0" result="BackgroundImageFix"/>
<feColorMatrix in="SourceAlpha" type="matrix" values="0 0 0 0 0 0 0 0 0 0 0 0 0 0 0 0 0 0 127 0" result="hardAlpha"/>
<feOffset dy="5.0447"/>
<feGaussianBlur stdDeviation="2.52235"/>
<feComposite in2="hardAlpha" operator="out"/>
<feColorMatrix type="matrix" values="0 0 0 0 0 0 0 0 0 0 0 0 0 0 0 0 0 0 0.07 0"/>
<feBlend mode="normal" in2="BackgroundImageFix" result="effect1_dropShadow_3162_1916"/>
<feBlend mode="normal" in="SourceGraphic" in2="effect1_dropShadow_3162_1916" result="shape"/>
</filter>
</defs>
</svg>
