<svg width="1297" height="1159" viewBox="0 0 1297 1159" fill="none" xmlns="http://www.w3.org/2000/svg">
<g clip-path="url(#clip0_31_1214)">
<path d="M1296.57 319.174C1339.99 264.932 1379.32 207.084 1431.11 159.889C1458.8 134.652 1488.46 111.874 1526.48 104.827C1541.56 102.041 1538.44 97.127 1531.73 89.259C1468.63 15.844 1373.92 -18.57 1276.74 27.642C1217.58 55.828 1171.37 99.583 1130.4 149.236C1079.76 210.689 1031.69 274.836 982.039 336.936C977.287 342.836 972.916 355.057 962.264 339.816C929.326 292.784 895.564 246.408 862.629 199.376C776.104 76.143 689.578 -47.418 571.261 -144.104C519.969 -186.056 465.561 -222.436 401.161 -241.604C381.982 -247.34 366.798 -251.196 343.25 -254.526C320.532 -255.476 302.412 -255.107 279.566 -252.42C226.799 -245.21 182.066 -220.956 141.748 -187.69C124.989 -173.958 110.595 -157.572 99.1362 -139.183C164.358 -147.213 210.736 -137.544 267.107 -105.753C347.897 -60.196 412.955 3.715 472.441 73.197C592.561 213.637 691.049 370.137 800.841 518.278C814.606 536.96 814.565 547.797 799.87 566.772C797.837 569.046 795.433 571.372 793.47 573.831C734.639 647.738 676.464 722.301 616.814 795.716C558.147 867.816 493.414 934.026 415.085 985.482C358.549 1022.68 298.243 1049.23 228.433 1046.28C217.781 1045.79 206.802 1043 196.314 1046.45C195.986 1048.09 195.658 1048.9 195.822 1049.23C293.655 1161.16 440.322 1190.16 574.535 1124.45C666.96 1079.22 741.359 1011.71 807.235 934.356C856.235 876.836 902.282 817.022 948.658 757.372C958.491 744.754 963.079 746.392 970.781 758.191C981.433 774.579 993.395 790.147 1004.7 806.042C1051.4 871.592 1101.39 934.191 1165.79 983.681C1277.23 1069.39 1384.89 1071.52 1485.51 989.744C1504.85 974.012 1522.05 955.986 1536.31 930.913C1496.98 934.354 1463.88 926.652 1432.09 910.92C1387.02 888.633 1350.48 855.531 1316.06 819.97C1270.18 772.611 1232.49 718.696 1193.81 665.765C1170.54 632.665 1147.6 599.396 1123.67 566.785C1115.48 555.642 1114.5 548.267 1123.84 536.632C1182.02 464.364 1238.88 391.44 1296.57 319.174Z" fill="#0E0D2F"/>
<path d="M131.747 -65.764C61.4451 -42.006 18.0221 55.663 3.10612 222.323C-2.62888 288.036 0.812117 457.646 8.84212 518.443C36.5371 719.352 80.6221 844.879 147.479 912.068C176.979 942.057 202.379 955.822 240.068 963.852C261.208 968.113 266.943 967.621 295.785 960.411C332.657 951.562 377.885 929.275 413.285 903.547C439.341 884.374 442.455 879.294 429.017 879.294C414.76 879.294 381.33 861.594 362.648 844.389C301.522 788.015 253.178 641.676 233.185 453.057C225.811 381.936 227.122 206.591 235.151 153.987C247.442 75.987 268.909 25.018 297.751 7.32C305.125 3.059 310.861 -1.85699 310.861 -3.49599C310.861 -6.60999 258.261 -41.842 239.74 -51.183C222.533 -59.704 184.853 -72.475 164.096 -71.003C157.869 -71.003 142.399 -69.701 131.747 -65.764Z" fill="#0E0D2F"/>
</g>
<defs>
<clipPath id="clip0_31_1214">
<rect width="1297" height="1159" fill="white"/>
</clipPath>
</defs>
</svg>
