<svg width="74" height="25" viewBox="0 0 74 25" fill="none" xmlns="http://www.w3.org/2000/svg">
<g clip-path="url(#clip0_3192_1923)">
<path d="M29.4551 3.91141H32.5146V20.5979H29.4551C29.4551 15.0346 29.4551 9.47246 29.4551 3.91141Z" fill="#242161"/>
<path d="M63.2466 8.56591V9.75426C63.6747 9.42883 64.1195 9.12603 64.5793 8.84712C65.6798 8.26829 66.9475 8.09088 68.1646 8.34538C69.3817 8.59987 70.4721 9.27038 71.2484 10.2416C71.806 10.9353 72.2197 11.7332 72.4653 12.5885C72.711 13.4439 72.7837 14.3397 72.6793 15.2235C72.6343 16.1709 72.3679 17.0945 71.9015 17.9203C71.435 18.7461 70.7815 19.451 69.9933 19.9786C69.053 20.6486 67.9162 20.9863 66.7626 20.9384C65.609 20.8905 64.5042 20.4596 63.6227 19.7139C63.5147 19.624 63.4041 19.5341 63.2573 19.4128V24.9967H60.2061V8.56838C61.2072 8.56591 62.1976 8.56591 63.2466 8.56591ZM66.3705 18.109C66.8182 18.119 67.2627 18.0311 67.6729 17.8515C68.0831 17.6718 68.4492 17.4049 68.7456 17.0691C69.1213 16.6461 69.3938 16.1416 69.5415 15.5954C69.6892 15.0492 69.708 14.4761 69.5966 13.9213C69.5435 13.3175 69.3129 12.743 68.9338 12.27C68.5547 11.797 68.0442 11.4468 67.4665 11.2634C66.8853 11.0423 66.2519 10.9976 65.6454 11.1349C65.039 11.2722 64.4865 11.5854 64.0573 12.0353C63.6905 12.4251 63.4158 12.8921 63.2532 13.402C63.0907 13.9119 63.0445 14.4518 63.118 14.9819C63.1506 15.8222 63.5074 16.6173 64.1135 17.2003C64.7195 17.7834 65.5278 18.109 66.3688 18.109H66.3705Z" fill="#242161"/>
<path d="M39.6778 20.9294C38.4236 20.9172 37.2011 20.5338 36.1645 19.8276C35.128 19.1215 34.3237 18.1242 33.8533 16.9615C33.3828 15.7988 33.2672 14.5229 33.5211 13.2946C33.7749 12.0663 34.3868 10.9407 35.2796 10.0597C36.1723 9.17879 37.306 8.58196 38.5376 8.34452C39.7691 8.10709 41.0434 8.2397 42.1997 8.72561C43.356 9.21153 44.3425 10.029 45.0348 11.0749C45.7271 12.1208 46.0941 13.3483 46.0896 14.6025C46.0926 15.4414 45.9281 16.2724 45.6059 17.0469C45.2836 17.8214 44.8101 18.5239 44.213 19.1131C43.6159 19.7023 42.9072 20.1664 42.1284 20.4783C41.3497 20.7902 40.5165 20.9435 39.6778 20.9294ZM36.4483 14.6511C36.4558 14.7641 36.4582 14.939 36.4788 15.1121C36.5104 15.7012 36.7095 16.2691 37.0526 16.749C37.3958 17.2289 37.8688 17.6008 38.416 17.8212C38.963 18.0711 39.5703 18.1586 40.1656 18.0734C40.7609 17.9882 41.3192 17.7337 41.7741 17.3404C42.2097 16.9688 42.5467 16.4952 42.7551 15.9618C42.9634 15.4285 43.0366 14.8519 42.9682 14.2833C42.9569 13.7746 42.8259 13.2758 42.5858 12.8271C42.3457 12.3785 42.0032 11.9928 41.5862 11.7013C41.1691 11.4098 40.6892 11.2207 40.1854 11.1494C39.6816 11.078 39.1681 11.1264 38.6865 11.2906C37.9983 11.5304 37.4072 11.9885 37.0032 12.5951C36.5992 13.2017 36.4043 13.9236 36.4483 14.6511Z" fill="#242161"/>
<path d="M53.0095 20.9294C52.1794 20.9332 51.3568 20.7722 50.5894 20.4558C49.8219 20.1394 49.1249 19.6737 48.5388 19.0859C47.9527 18.4981 47.489 17.7997 47.1748 17.0314C46.8606 16.2631 46.702 15.44 46.7082 14.6099C46.707 13.776 46.8701 12.95 47.1881 12.1792C47.5061 11.4083 47.9728 10.7076 48.5616 10.1171C49.1504 9.52662 49.8498 9.05789 50.6197 8.73767C51.3897 8.41745 52.2152 8.25202 53.0491 8.25083C53.883 8.24964 54.709 8.41271 55.4798 8.73073C56.2507 9.04874 56.9514 9.51548 57.5419 10.1043C58.1324 10.6931 58.6011 11.3924 58.9213 12.1624C59.2415 12.9324 59.407 13.7579 59.4082 14.5918C59.4134 15.4307 59.2511 16.2621 58.9306 17.0374C58.6101 17.8127 58.138 18.5162 57.542 19.1066C56.946 19.6969 56.238 20.1623 55.4597 20.4753C54.6813 20.7883 53.8483 20.9427 53.0095 20.9294ZM49.7677 14.6561C49.7751 14.7715 49.7776 14.9472 49.7982 15.1195C49.8469 15.7108 50.057 16.2773 50.4058 16.7572C50.7545 17.2371 51.2283 17.612 51.7756 17.8409C52.3229 18.0698 52.9226 18.144 53.5091 18.0553C54.0957 17.9666 54.6466 17.7184 55.1017 17.3379C55.5361 16.965 55.8719 16.4907 56.0791 15.957C56.2864 15.4233 56.3589 14.8468 56.2901 14.2784C56.2779 13.7726 56.1472 13.2766 55.9087 12.8305C55.6701 12.3843 55.3302 12.0003 54.9163 11.7092C54.5024 11.4182 54.0261 11.2283 53.5255 11.1547C53.0249 11.0811 52.514 11.126 52.0339 11.2856C51.338 11.5201 50.7387 11.9775 50.3289 12.5869C49.9191 13.1964 49.7216 13.9239 49.7669 14.6569L49.7677 14.6561Z" fill="#242161"/>
<path d="M20.3555 9.02606C20.9928 8.13852 21.699 7.30248 22.4675 6.52565C22.8745 6.10121 23.3939 5.80143 23.9651 5.66139C24.2017 5.61768 24.1531 5.54016 24.0475 5.41399C23.5931 4.81707 22.9468 4.39498 22.2175 4.21879C21.4883 4.0426 20.7206 4.12307 20.0437 4.44664C19.1444 4.90553 18.3583 5.55845 17.7421 6.35824C16.9471 7.32311 16.1851 8.31602 15.4058 9.2916C15.3315 9.38397 15.2697 9.59014 15.1023 9.35098C14.5852 8.60877 14.0549 7.88471 13.5354 7.1458C12.2655 5.14619 10.7259 3.3313 8.96011 1.75243C8.18334 1.06883 7.27728 0.548077 6.29559 0.221013C5.99458 0.131123 5.68615 0.0717467 5.38185 0H4.45821C4.43512 0.0181428 4.41203 0.0461817 4.38647 0.0511297C3.58343 0.17783 2.83295 0.53019 2.22252 1.06713C1.95944 1.28287 1.73351 1.54029 1.55371 1.82913C2.46786 1.68423 3.4037 1.87052 4.19267 2.35444C5.42407 3.09416 6.51534 4.04529 7.41632 5.16411C9.30235 7.36929 10.8486 9.82682 12.573 12.1524C12.7891 12.446 12.8402 12.6645 12.573 12.9218C12.5324 12.9528 12.4946 12.9873 12.46 13.0249C11.5364 14.1852 10.6227 15.3563 9.68665 16.5092C8.79046 17.6595 7.72201 18.6645 6.51907 19.4887C5.67047 20.1144 4.6425 20.4493 3.58818 20.4437C3.42137 20.4127 3.25029 20.4127 3.08348 20.4437C3.07853 20.4692 3.07359 20.4824 3.07606 20.4874C3.78338 21.3321 4.75792 21.9101 5.8384 22.1255C6.91889 22.341 8.04057 22.1812 9.01784 21.6724C10.4297 20.9417 11.674 19.9254 12.672 18.6879C13.4414 17.7808 14.1646 16.8456 14.8928 15.9088C15.047 15.7109 15.1196 15.7364 15.24 15.922C15.4049 16.1793 15.5954 16.4234 15.7727 16.6733C16.4722 17.7238 17.3247 18.6638 18.302 19.4623C20.052 20.8082 21.7426 20.8412 23.3218 19.5571C23.6444 19.3032 23.9151 18.9897 24.1193 18.6335C23.5551 18.6871 22.9873 18.5781 22.4831 18.3193C21.7979 17.9514 21.1815 17.4676 20.6614 16.8893C19.9662 16.1277 19.3247 15.3186 18.7416 14.4681C18.3762 13.9485 18.0159 13.4257 17.6406 12.9136C17.6081 12.8833 17.5822 12.8467 17.5644 12.806C17.5467 12.7652 17.5376 12.7213 17.5376 12.6769C17.5376 12.6325 17.5467 12.5885 17.5644 12.5478C17.5822 12.5071 17.6081 12.4705 17.6406 12.4402C18.5568 11.3063 19.4491 10.1608 20.3555 9.02606Z" fill="url(#paint0_linear_3192_1923)"/>
<path d="M2.06543 2.98199C0.961189 3.35475 0.280008 4.88864 0.0458004 7.50533C-0.0331016 9.05564 -0.00306463 10.6096 0.13569 12.1557C0.570293 15.31 1.26302 17.281 2.31283 18.3358C2.6956 18.7584 3.20627 19.044 3.76673 19.1489C4.0573 19.2183 4.36198 19.1993 4.64171 19.0945C5.30543 18.9114 5.93028 18.6091 6.48568 18.2022C6.89802 17.9012 6.94338 17.8212 6.73308 17.8212C6.34297 17.7345 5.9831 17.5452 5.6907 17.2728C4.73077 16.3879 3.97207 14.0904 3.65787 11.1298C3.54564 9.56449 3.55584 7.99283 3.68839 6.42913C3.88136 5.20449 4.21865 4.40373 4.6714 4.12664C4.78685 4.05984 4.87757 3.98232 4.87757 3.95676C4.53011 3.67512 4.15743 3.42612 3.76426 3.2129C3.37791 3.04438 2.96985 2.93084 2.55199 2.87561C2.38565 2.8883 2.22189 2.92411 2.06543 2.98199Z" fill="#242161"/>
<path d="M23.6619 6.85963C23.0819 7.29384 22.5641 7.8055 22.123 8.38033L21.7371 8.85617L21.8319 9.22892C22.0298 10.1495 22.0992 11.0931 22.0381 12.0328C22.0812 13.2692 21.8676 14.5011 21.4105 15.6507L21.2588 15.9212L21.6752 16.3022C22.1671 16.8529 22.8327 17.2187 23.5613 17.3388C23.8628 17.3018 24.1482 17.1827 24.3865 16.9943C24.6248 16.8059 24.8066 16.5556 24.9121 16.2708C25.8407 14.431 25.8588 9.4087 24.9426 7.47319C24.6144 6.77552 24.1971 6.57595 23.6619 6.85963Z" fill="#242161"/>
<path d="M71.274 5.51968V5.74564H70.9673V6.67752H70.6852V5.74564H70.3785V5.51968H71.274ZM72.7268 5.51968V6.67752H72.4448V5.98314L72.1858 6.67752H71.9582L71.6976 5.9815V6.67752H71.4156V5.51968H71.7488L72.0737 6.32126L72.3953 5.51968H72.7268Z" fill="#242161"/>
</g>
<defs>
<linearGradient id="paint0_linear_3192_1923" x1="12.8217" y1="0.622131" x2="13.0404" y2="51.7036" gradientUnits="userSpaceOnUse">
<stop offset="0.015" stop-color="#55C2B4"/>
<stop offset="0.098" stop-color="#57C2B1"/>
<stop offset="0.216" stop-color="#00AED4"/>
<stop offset="0.427" stop-color="#3E67B1"/>
</linearGradient>
<clipPath id="clip0_3192_1923">
<rect width="73.6376" height="25" fill="white"/>
</clipPath>
</defs>
</svg>
