<svg width="40" height="40" viewBox="0 0 40 40" fill="none" xmlns="http://www.w3.org/2000/svg">
<circle cx="19.8418" cy="19.7017" r="19.5" fill="black"/>
<path d="M27.1262 12.4172H12.5574C11.5558 12.4172 10.7454 13.2367 10.7454 14.2383L10.7363 25.1649C10.7363 26.1665 11.5558 26.986 12.5574 26.986H27.1262C28.1278 26.986 28.9473 26.1665 28.9473 25.1649V14.2383C28.9473 13.2367 28.1278 12.4172 27.1262 12.4172ZM26.762 16.2871L20.3244 20.3117C20.033 20.4938 19.6506 20.4938 19.3592 20.3117L12.9216 16.2871C12.8303 16.2358 12.7504 16.1666 12.6866 16.0835C12.6229 16.0005 12.5766 15.9053 12.5507 15.8039C12.5247 15.7025 12.5196 15.5968 12.5357 15.4933C12.5518 15.3899 12.5887 15.2908 12.6442 15.202C12.6997 15.1132 12.7726 15.0366 12.8586 14.9768C12.9445 14.917 13.0417 14.8753 13.1443 14.8541C13.2468 14.833 13.3526 14.8329 13.4552 14.8538C13.5578 14.8747 13.6551 14.9163 13.7411 14.9759L19.8418 18.7911L25.9425 14.9759C26.0285 14.9163 26.1258 14.8747 26.2284 14.8538C26.331 14.8329 26.4368 14.833 26.5393 14.8541C26.6419 14.8753 26.7391 14.917 26.825 14.9768C26.911 15.0366 26.9839 15.1132 27.0394 15.202C27.0949 15.2908 27.1318 15.3899 27.1479 15.4933C27.164 15.5968 27.1589 15.7025 27.1329 15.8039C27.107 15.9053 27.0607 16.0005 26.997 16.0835C26.9332 16.1666 26.8533 16.2358 26.762 16.2871Z" fill="white"/>
</svg>
