<svg width="40" height="40" viewBox="0 0 40 40" fill="none" xmlns="http://www.w3.org/2000/svg">
<circle cx="19.5918" cy="19.7017" r="19.5" fill="black"/>
<path fill-rule="evenodd" clip-rule="evenodd" d="M19.5918 10.7212C14.6319 10.7212 10.6113 14.7417 10.6113 19.7017C10.6113 21.399 11.0828 22.9885 11.9027 24.3428L11.1017 27.0656C11.0557 27.222 11.0526 27.3878 11.0929 27.5457C11.1332 27.7036 11.2152 27.8478 11.3304 27.963C11.4457 28.0782 11.5898 28.1603 11.7477 28.2006C11.9056 28.2408 12.0715 28.2378 12.2278 28.1918L14.9507 27.3907C16.3505 28.2377 17.9558 28.6844 19.5918 28.6821C24.5517 28.6821 28.5723 24.6616 28.5723 19.7017C28.5723 14.7417 24.5517 10.7212 19.5918 10.7212ZM17.5604 21.7339C19.3772 23.5498 21.1113 23.7896 21.7238 23.812C22.655 23.8461 23.5621 23.1349 23.915 22.3096C23.9596 22.2069 23.9757 22.0942 23.9618 21.9831C23.9479 21.8721 23.9045 21.7668 23.836 21.6783C23.3438 21.0496 22.6784 20.5979 22.0282 20.1489C21.8924 20.055 21.7256 20.0174 21.5627 20.0438C21.3998 20.0703 21.2535 20.1588 21.1544 20.2908L20.6156 21.1125C20.5872 21.1567 20.5431 21.1883 20.4922 21.201C20.4413 21.2137 20.3874 21.2065 20.3417 21.1807C19.9762 20.9715 19.4436 20.6159 19.0611 20.2333C18.6785 19.8507 18.3444 19.3424 18.1567 19.0003C18.1334 18.9568 18.1267 18.9064 18.1378 18.8583C18.1488 18.8103 18.1769 18.7679 18.2169 18.739L19.0467 18.1229C19.1651 18.0199 19.2415 17.877 19.2614 17.7213C19.2813 17.5657 19.2432 17.4081 19.1544 17.2787C18.7521 16.6896 18.2833 15.9406 17.6035 15.444C17.5158 15.3804 17.413 15.3408 17.3053 15.329C17.1976 15.3172 17.0887 15.3336 16.9893 15.3767C16.1631 15.7305 15.4482 16.6375 15.4823 17.5706C15.5048 18.1831 15.7446 19.9172 17.5604 21.7339Z" fill="white"/>
</svg>
