<svg width="40" height="40" viewBox="0 0 40 40" fill="none" xmlns="http://www.w3.org/2000/svg">
<circle cx="20.0918" cy="19.7017" r="19.5" fill="black"/>
<path d="M15.8405 13.5969C16.4272 13.5969 16.9697 13.6405 17.4654 13.7696C17.9621 13.8559 18.3688 14.0286 18.7295 14.244C19.0912 14.4603 19.3621 14.7621 19.542 15.1502C19.7228 15.5382 19.8137 16.0136 19.8137 16.5307C19.8137 17.1351 19.6778 17.6523 19.3621 18.0403C19.0912 18.4293 18.6396 18.7738 18.0979 19.0328C18.8654 19.2491 19.452 19.6372 19.8137 20.1552C20.1745 20.6724 20.4003 21.3195 20.4003 22.0529C20.4003 22.6573 20.2645 23.1745 20.0386 23.6062C19.8137 24.0379 19.452 24.426 19.0453 24.685C18.6036 24.9626 18.1152 25.1667 17.6013 25.2885C17.0597 25.4184 16.518 25.5048 15.9764 25.5048H9.92578V13.5969H15.8405ZM15.4788 18.4284C15.9755 18.4284 16.3822 18.2994 16.698 18.0839C17.0138 17.8685 17.1496 17.4796 17.1496 17.0051C17.1496 16.7461 17.1037 16.488 17.0138 16.3153C16.9238 16.1426 16.7879 16.0127 16.608 15.8836C16.4272 15.7973 16.2463 15.7109 16.0205 15.6682C15.7946 15.6246 15.5697 15.6246 15.298 15.6246H12.6798V18.4293H15.4798L15.4788 18.4284ZM15.6147 23.5198C15.8855 23.5198 16.1563 23.4762 16.3822 23.4335C16.608 23.3899 16.8338 23.3044 17.0138 23.1745C17.1977 23.0482 17.3516 22.8866 17.4654 22.7C17.5554 22.4846 17.6463 22.2256 17.6463 21.9239C17.6463 21.3195 17.4654 20.8878 17.1047 20.586C16.743 20.327 16.2463 20.198 15.6597 20.198H12.6798V23.5207L15.6147 23.5198ZM24.3285 23.4762C24.6893 23.8216 25.2309 23.9943 25.9534 23.9943C26.45 23.9943 26.9017 23.8652 27.2625 23.6498C27.6242 23.3908 27.85 23.1317 27.94 22.8736H30.1524C29.7907 23.9079 29.2491 24.6414 28.5275 25.1167C27.8041 25.5475 26.9467 25.8065 25.9084 25.8065C25.2441 25.8085 24.5854 25.6913 23.9668 25.4612C23.4102 25.2629 22.9138 24.9369 22.5219 24.5123C22.1026 24.1151 21.7927 23.626 21.6194 23.0881C21.3936 22.5274 21.3027 21.9239 21.3027 21.2332C21.3027 20.586 21.3936 19.9825 21.6194 19.4209C21.837 18.8805 22.1585 18.3833 22.5678 17.9549C22.98 17.5527 23.4704 17.2302 24.0118 17.0051C24.6147 16.775 25.2587 16.6577 25.9084 16.6598C26.6759 16.6598 27.3534 16.7897 27.94 17.0915C28.5275 17.3932 28.9782 17.7386 29.339 18.2566C29.7007 18.7311 29.9725 19.2918 30.1524 19.8962C30.2424 20.4997 30.2873 21.1041 30.2424 21.7939H23.696C23.696 22.4846 23.9668 23.1317 24.3285 23.4771V23.4762ZM27.1725 18.9465C26.8567 18.6447 26.3601 18.472 25.7725 18.472C25.3668 18.472 25.0501 18.5592 24.7793 18.6883C24.5084 18.8174 24.3285 18.9901 24.1477 19.1628C23.9812 19.3295 23.8709 19.5396 23.8309 19.7663C23.786 19.9825 23.741 20.1552 23.741 20.327H27.8041C27.7141 19.6799 27.4883 19.2491 27.1725 18.9465ZM23.1993 14.4167H28.2558V15.5819H23.2003V14.4167H23.1993Z" fill="white"/>
</svg>
