<?xml version="1.0" encoding="utf-8"?>
<!-- Generator: Adobe Illustrator 16.0.0, SVG Export Plug-In . SVG Version: 6.00 Build 0)  -->
<!DOCTYPE svg PUBLIC "-//W3C//DTD SVG 1.1//EN" "http://www.w3.org/Graphics/SVG/1.1/DTD/svg11.dtd">
<svg version="1.1" id="Layer_1" xmlns="http://www.w3.org/2000/svg" xmlns:xlink="http://www.w3.org/1999/xlink" x="0px" y="0px"
	 width="100px" height="100px" viewBox="0 0 100 100" enable-background="new 0 0 100 100" xml:space="preserve">
<path fill="#00ADEE" d="M99.362,50.167H99.36c0-0.463,0.002-0.927,0.002-1.39v-2.039h0.002c0.006-9.577,0.035-19.154-0.016-28.73
	c-0.059-10.7-6.273-17.271-16.832-17.34c-21.699-0.139-43.4-0.152-65.098,0.008C7.056,0.755,0.796,7.339,0.753,17.736
	c-0.092,21.583-0.135,43.166-0.131,64.75C0.624,92.844,7.038,99.355,17.36,99.391c21.701,0.068,43.4,0.061,65.098,0.006
	c9.836-0.025,16.018-5.561,16.904-14.797V50.167z"/>
<g>
	<defs>
		<path id="SVGID_1_" d="M27.803,20.109v56.053H56.3c2.996,0,5.703-0.461,8.113-1.387c2.41-0.924,4.467-2.242,6.174-3.949
			c1.709-1.705,3.023-3.771,3.947-6.197c0.928-2.42,1.389-5.119,1.389-8.088V39.73c0-2.972-0.461-5.667-1.389-8.09
			c-0.924-2.424-2.238-4.49-3.947-6.195v-0.253h-0.268c-1.654-1.583-3.621-2.817-5.906-3.695c-2.41-0.925-5.117-1.387-8.113-1.387
			H27.803z"/>
	</defs>
	<clipPath id="SVGID_2_">
		<use xlink:href="#SVGID_1_"  overflow="visible"/>
	</clipPath>
	<rect x="16.711" y="53.121" clip-path="url(#SVGID_2_)" fill="#F9FCFC" width="32.541" height="47.557"/>
	<rect x="53.181" y="41.451" clip-path="url(#SVGID_2_)" fill="#F9FCFC" width="23.297" height="53.072"/>
	<rect x="9.277" y="5.071" clip-path="url(#SVGID_2_)" fill="#F9FCFC" width="39.975" height="44.113"/>
	<rect x="53.153" y="-3.395" clip-path="url(#SVGID_2_)" fill="#F9FCFC" width="39.975" height="41.297"/>
</g>
</svg>
