<svg width="40" height="40" viewBox="0 0 40 40" fill="none" xmlns="http://www.w3.org/2000/svg">
<circle cx="20.3418" cy="19.7017" r="19.5" fill="black"/>
<path d="M15.7715 13.9149C15.7713 14.3534 15.5969 14.7739 15.2867 15.0838C14.9765 15.3937 14.5559 15.5677 14.1174 15.5674C13.6789 15.5672 13.2584 15.3928 12.9485 15.0826C12.6386 14.7724 12.4646 14.3518 12.4648 13.9133C12.4651 13.4748 12.6395 13.0543 12.9497 12.7444C13.2599 12.4345 13.6805 12.2605 14.119 12.2607C14.5575 12.261 14.978 12.4354 15.2879 12.7456C15.5978 13.0558 15.7718 13.4764 15.7715 13.9149ZM15.8211 16.7917H12.5144V27.1417H15.8211V16.7917ZM21.0457 16.7917H17.7556V27.1417H21.0127V21.7105C21.0127 18.6848 24.9559 18.4038 24.9559 21.7105V27.1417H28.2213V20.5862C28.2213 15.4856 22.3849 15.6757 21.0127 18.1806L21.0457 16.7917Z" fill="white"/>
</svg>
