<svg xmlns="http://www.w3.org/2000/svg" width="107.924" height="40" viewBox="0 0 107.924 40">
  <g id="Group_855" data-name="Group 855" transform="translate(-230 -94)">
    <path id="Path_2934" data-name="Path 2934" d="M11.935,0h15.9A11.935,11.935,0,0,1,39.767,11.935V35.524A4.476,4.476,0,0,1,35.292,40H11.935A11.935,11.935,0,0,1,0,28.065V11.935A11.935,11.935,0,0,1,11.935,0Z" transform="translate(230 94)"/>
    <path id="Path_2935" data-name="Path 2935" d="M6.82.264c4.18,0,6.072-3.806,6.072-7.59S11-14.894,6.82-14.894c-4.2,0-6.072,3.784-6.072,7.568S2.618.264,6.82.264Zm0-2.772c-2.112,0-2.9-2.112-2.9-4.818s.792-4.8,2.9-4.8c2.09,0,2.882,2.09,2.882,4.8S8.91-2.508,6.82-2.508ZM21.23,0V-14.674H18.5l-4.62,4.642,1.782,1.87,2.442-2.486V0Z" transform="translate(238.423 120.502)" fill="#fff"/>
    <text id="HIRE" transform="translate(276.924 119.97)" font-size="22" font-family="ProximaNova-Bold, Proxima Nova" font-weight="700" letter-spacing="0.17em"><tspan x="0" y="0">HIRE</tspan></text>
  </g>
</svg>
