<svg id="_6482d3298266c54a989e8f7e_logo_1_" data-name="6482d3298266c54a989e8f7e_logo (1)" xmlns="http://www.w3.org/2000/svg" width="71.874" height="66.5" viewBox="0 0 71.874 66.5">
  <path id="Path_2947" data-name="Path 2947" d="M73.154,11.458c.1-.6.181-1.2.3-1.788a1.187,1.187,0,0,1,1.265-1.1,1.216,1.216,0,0,1,1.274,1.255,26.822,26.822,0,0,1-.689,5.749c-.176.855-.942,1.114-1.768,1.021-1.573-.186-3.146-.371-4.709-.611-.84-.127-1.578-.537-1.495-1.524s.874-1.182,1.753-1.148c.327,0,.777.21.977-.176s-.244-.62-.488-.85a31.184,31.184,0,0,0-50.343,8.02,4.664,4.664,0,0,1-.542.9,1.314,1.314,0,0,1-1.758.42,1.26,1.26,0,0,1-.63-1.685,17.726,17.726,0,0,1,1.206-2.491C23.607,7.111,32.579,1.123,44.595.131,55.55-.778,64.777,3.062,72.363,10.965a4.737,4.737,0,0,1,.44.664Z" transform="translate(-10.429 0)" fill="#ff4081"/>
  <path id="Path_2948" data-name="Path 2948" d="M49.948,149.23c-11.849-.518-21.491-5.6-28.085-16.089a15.4,15.4,0,0,1-.816-1.509,1.207,1.207,0,0,1,.4-1.636,1.265,1.265,0,0,1,1.783.186,4.454,4.454,0,0,1,.689.977c9.28,16.3,30.728,19.777,44.848,9.158a30.211,30.211,0,0,0,8.513-9.94c.166-.313.308-.635.488-.943.449-.8,1.055-1.382,2.022-.884s.9,1.275.488,2.144a32.556,32.556,0,0,1-11.815,13.188C62.057,147.964,56.279,148.986,49.948,149.23Z" transform="translate(-13.457 -82.73)" fill="#ff4081"/>
  <path id="Path_2949" data-name="Path 2949" d="M77.535,73.859c-1.246,1.641-2.486,3.282-3.742,4.914-1.035,1.343-1.9,1.363-2.931,0-1.255-1.612-2.467-3.268-3.732-4.948a1.789,1.789,0,0,0-.254,1.377c0,2.9,0,5.8-.024,8.709,0,1.324-.64,2.149-1.548,2.037-1.158-.141-1.431-.977-1.431-2.008V69.556c0-.84.122-1.607,1.045-1.92s1.465.283,1.954.948c1.578,2.115,3.185,4.21,4.733,6.35.532.733.85.811,1.421,0,1.548-2.139,3.18-4.215,4.757-6.35.488-.664,1.021-1.275,1.954-1s1.094,1.07,1.094,1.9V83.867c0,1.036-.259,2.066-1.539,2.027s-1.431-1.06-1.431-2.105V73.923Z" transform="translate(-41.166 -43.513)" fill="#ff4081"/>
  <path id="Path_2950" data-name="Path 2950" d="M59.248,142.311A28.314,28.314,0,0,1,36.726,130.33a7.026,7.026,0,0,1-.64-.977,1.089,1.089,0,0,1,.317-1.421,1.075,1.075,0,0,1,1.465,0,5.377,5.377,0,0,1,.855.977,26.106,26.106,0,0,0,39.5,3.419,24.454,24.454,0,0,0,3.512-4.279,9.12,9.12,0,0,1,.591-.874,1.281,1.281,0,0,1,1.856-.386c.694.488.488,1.128.142,1.754a27.542,27.542,0,0,1-5.588,6.643C73.33,139.874,67.039,142.2,59.248,142.311Z" transform="translate(-23.167 -81.55)" fill="#ff4081"/>
  <path id="Path_2951" data-name="Path 2951" d="M0,84.461c.088-.269.186-.654.332-1.016Q3.165,76.353,6.018,69.28a2.491,2.491,0,0,1,.894-1.27c.83-.542,1.7-.215,2.178.923.889,2.105,1.719,4.23,2.564,6.35,1.109,2.774,2.222,5.544,3.317,8.3.488,1.265.273,2.184-.63,2.442A1.551,1.551,0,0,1,12.3,84.676c-.488-2.178-1.793-2.789-3.81-2.442a3.422,3.422,0,0,1-1.05,0c-2.32-.337-4.132.054-4.65,2.794A1.348,1.348,0,0,1,1.06,86.068,1.453,1.453,0,0,1,0,84.461ZM7.649,73.129c-.835,2.105-1.534,3.839-2.213,5.583-.215.552.107.7.591.694h3.16c.586,0,.816-.235.591-.816C9.114,76.89,8.455,75.19,7.649,73.129Z" transform="translate(0 -43.668)" fill="#ff4081"/>
  <path id="Path_2952" data-name="Path 2952" d="M117.277,76.778V69.652c0-1.675.445-2.188,2.061-2.213,2.726-.039,5.456,0,8.186,0,1.021,0,1.954.342,1.954,1.5s-.918,1.465-1.954,1.465c-1.983,0-3.961.034-5.939,0-.977-.024-1.338.332-1.324,1.3.078,4.3-.488,3.487,3.395,3.575H126.3a1.448,1.448,0,0,1,1.607,1.407,1.425,1.425,0,0,1-1.524,1.49c-1.465.068-2.9.039-4.357.054-1.7,0-1.744.054-1.754,1.807v3.961c0,1.006-.347,1.929-1.543,1.89s-1.426-.953-1.421-1.978C117.292,81.53,117.277,79.157,117.277,76.778Z" transform="translate(-75.584 -43.453)" fill="#ff4081"/>
  <path id="Path_2953" data-name="Path 2953" d="M56.652,14.465c.884,0,1.656.254,1.739,1.216.093,1.075-.747,1.382-1.641,1.49a29.57,29.57,0,0,0-16.431,7.41,30.125,30.125,0,0,0-4.884,5.69,5.021,5.021,0,0,1-.821,1.016,1.187,1.187,0,0,1-1.675,0,1.265,1.265,0,0,1-.181-1.685,25.525,25.525,0,0,1,3.111-4.4A30.772,30.772,0,0,1,56.246,14.494,4.059,4.059,0,0,1,56.652,14.465Z" transform="translate(-20.957 -9.322)" fill="#ff4081"/>
  <path id="Path_2954" data-name="Path 2954" d="M172.6,77.822c0-2.071-.039-4.137,0-6.2.025-.977-.347-1.363-1.309-1.28a15.525,15.525,0,0,1-1.846,0A1.412,1.412,0,0,1,167.919,69a1.314,1.314,0,0,1,1.319-1.514,86.625,86.625,0,0,1,9.49,0,1.328,1.328,0,0,1,1.348,1.495,1.419,1.419,0,0,1-1.5,1.368h-.528c-2.6.029-2.5-.41-2.5,2.618v10.3c0,1.812-.488,2.628-1.543,2.613s-1.412-.709-1.412-2.638Z" transform="translate(-108.213 -43.408)" fill="#ff4081"/>
  <path id="Path_2955" data-name="Path 2955" d="M52.023,76.967v7.112a1.836,1.836,0,0,1-1.06,1.954c-1,.4-1.91-.42-1.924-1.8-.029-2.594,0-5.182,0-7.771V69.743c0-.977.225-1.885,1.421-2.012.928-.1,1.548.689,1.563,2.007Z" transform="translate(-31.597 -43.646)" fill="#ff4081"/>
  <path id="Path_2956" data-name="Path 2956" d="M155.953,76.888V69.757c0-1.006.186-1.9,1.412-1.993.977-.073,1.568.694,1.573,2.012q.029,7.131,0,14.258c0,1.04-.254,2.081-1.514,2.066s-1.465-1.016-1.465-2.081C155.963,81.641,155.953,79.271,155.953,76.888Z" transform="translate(-100.51 -43.67)" fill="#ff4081"/>
</svg>
