<svg xmlns="http://www.w3.org/2000/svg" width="93.398" height="79.545" viewBox="0 0 93.398 79.545">
  <g id="Exclusion_7" data-name="Exclusion 7" transform="translate(-608 348.634)" fill="#1a1a1a">
    <path d="M 648.2277221679688 -270.0892028808594 L 647.773193359375 -270.0892028808594 C 642.538330078125 -270.0892028808594 637.4606323242188 -271.1141967773438 632.6812133789062 -273.1356811523438 C 628.064208984375 -275.0885009765625 623.9176025390625 -277.8842468261719 620.3565063476562 -281.4453430175781 C 616.7954711914062 -285.0064697265625 613.9996948242188 -289.153076171875 612.0469360351562 -293.77001953125 C 610.025390625 -298.5495910644531 609.0004272460938 -303.6272583007812 609.0004272460938 -308.8619995117188 C 609.0004272460938 -314.0965270996094 610.025390625 -319.1740417480469 612.0469360351562 -323.9534606933594 C 613.9995727539062 -328.5701599121094 616.7953491210938 -332.7167053222656 620.3565063476562 -336.2778625488281 C 623.9175415039062 -339.8388977050781 628.064208984375 -342.6346435546875 632.6812133789062 -344.58740234375 C 637.4606323242188 -346.6089172363281 642.538330078125 -347.6339111328125 647.773193359375 -347.6339111328125 L 648.2277221679688 -347.6339111328125 C 653.7814331054688 -347.6339111328125 659.14306640625 -346.484619140625 664.1637573242188 -344.2179870605469 C 666.572998046875 -343.1303100585938 668.88134765625 -341.78759765625 671.0245971679688 -340.2272033691406 C 672.8914184570312 -338.8680114746094 674.64306640625 -337.3365783691406 676.242431640625 -335.6660461425781 L 647.4747314453125 -307.4161987304688 L 630.0809936523438 -324.5557250976562 L 629.3739624023438 -325.25244140625 L 628.6719970703125 -324.5505981445312 L 616.8414306640625 -312.720947265625 L 616.13427734375 -312.0138244628906 L 616.8414306640625 -311.3066711425781 L 646.7664184570312 -281.3816833496094 L 647.4735107421875 -280.6745910644531 L 648.1806030273438 -281.3816833496094 L 685.6907958984375 -318.8918762207031 C 686.5604858398438 -315.6345520019531 687.00048828125 -312.2685852050781 687.00048828125 -308.8619995117188 C 687.00048828125 -303.6271057128906 685.9754638671875 -298.5494079589844 683.953857421875 -293.77001953125 C 682.0010375976562 -289.1531066894531 679.2052001953125 -285.0065002441406 675.64404296875 -281.4453735351562 C 672.082763671875 -277.8841857910156 667.9361572265625 -275.0884094238281 663.3193359375 -273.1356811523438 C 658.5399169921875 -271.1141967773438 653.4623413085938 -270.0892028808594 648.2277221679688 -270.0892028808594 Z M 686.6122436523438 -322.6417236328125 C 685.7947387695312 -324.91845703125 684.7708740234375 -327.1267395019531 683.5590209960938 -329.2249450683594 C 682.2561645507812 -331.4805603027344 680.7312622070312 -333.6176147460938 679.0186157226562 -335.5892028808594 L 689.8112182617188 -346.1874694824219 L 699.9846801757812 -336.0140991210938 L 686.6122436523438 -322.6417236328125 Z" stroke="none"/>
    <path d="M 648.2277221679688 -271.0892028808594 C 653.3278198242188 -271.0892028808594 658.2742919921875 -272.0876159667969 662.9297485351562 -274.0567016601562 C 667.4274291992188 -275.9590454101562 671.4672241210938 -278.682861328125 674.9369506835938 -282.1524658203125 C 678.4066162109375 -285.6220703125 681.1304931640625 -289.661865234375 683.0328979492188 -294.1595764160156 C 685.0020751953125 -298.8150634765625 686.00048828125 -303.7616577148438 686.00048828125 -308.8619995117188 C 686.00048828125 -311.5888671875 685.711181640625 -314.2887573242188 685.13818359375 -316.925048828125 L 647.4735107421875 -279.2603759765625 L 614.7200317382812 -312.0138549804688 L 629.3687744140625 -326.6614379882812 L 647.4759521484375 -308.8189392089844 L 674.828125 -335.6787109375 C 673.4609375 -337.0343322753906 671.9893188476562 -338.287841796875 670.4359741210938 -339.4187622070312 C 668.3480224609375 -340.9389343261719 666.0993041992188 -342.2469787597656 663.7523193359375 -343.3065490722656 C 658.86181640625 -345.5144348144531 653.6385498046875 -346.6339111328125 648.2277221679688 -346.6339111328125 L 647.773193359375 -346.6339111328125 C 642.6728515625 -346.6339111328125 637.7262573242188 -345.635498046875 633.0707397460938 -343.6664123535156 C 628.5729370117188 -341.7640380859375 624.5331420898438 -339.040283203125 621.0636596679688 -335.5707702636719 C 617.593994140625 -332.1011047363281 614.8701782226562 -328.0614318847656 612.9678955078125 -323.5639038085938 C 610.9988403320312 -318.9083862304688 610.0004272460938 -313.9619445800781 610.0004272460938 -308.8619995117188 C 610.0004272460938 -303.7618408203125 610.9988403320312 -298.8152160644531 612.9678955078125 -294.1595458984375 C 614.8703002929688 -289.6618347167969 617.5940551757812 -285.6220703125 621.0636596679688 -282.1524658203125 C 624.533203125 -278.6828918457031 628.5729370117188 -275.9590759277344 633.07080078125 -274.0567016601562 C 637.7262573242188 -272.0876159667969 642.6728515625 -271.0892028808594 647.773193359375 -271.0892028808594 L 648.2277221679688 -271.0892028808594 M 686.9973754882812 -324.4410095214844 L 698.5704345703125 -336.0140991210938 L 689.8048706054688 -344.7796325683594 L 680.3829345703125 -335.5273742675781 C 681.891357421875 -333.7099914550781 683.2467651367188 -331.764892578125 684.4249267578125 -329.72509765625 C 685.4057006835938 -328.0269775390625 686.2661743164062 -326.2588195800781 686.9973754882812 -324.4410095214844 M 648.2277221679688 -269.0892028808594 L 647.773193359375 -269.0892028808594 C 642.4037475585938 -269.0892028808594 637.1950073242188 -270.1407775878906 632.2916870117188 -272.2146911621094 C 627.5554809570312 -274.2178955078125 623.302001953125 -277.0856323242188 619.6494140625 -280.7382507324219 C 615.996826171875 -284.390869140625 613.1290893554688 -288.6443481445312 611.1259155273438 -293.3804626464844 C 609.052001953125 -298.2839660644531 608.0004272460938 -303.4927062988281 608.0004272460938 -308.8619995117188 C 608.0004272460938 -314.2311096191406 609.052001953125 -319.4396667480469 611.1259155273438 -324.343017578125 C 613.1290283203125 -329.0789794921875 615.9967651367188 -333.3323364257812 619.6494140625 -336.9849853515625 C 623.302001953125 -340.6375732421875 627.5554809570312 -343.5052490234375 632.2916870117188 -345.5084228515625 C 637.1950073242188 -347.5823364257812 642.4037475585938 -348.6339111328125 647.773193359375 -348.6339111328125 L 648.2277221679688 -348.6339111328125 C 653.9242553710938 -348.6339111328125 659.42431640625 -347.454833984375 664.5752563476562 -345.12939453125 C 667.0467529296875 -344.0136108398438 669.4146728515625 -342.6362609863281 671.6131591796875 -341.03564453125 C 673.7935791015625 -339.4481506347656 675.8209228515625 -337.6314086914062 677.6388549804688 -335.6358032226562 L 689.817626953125 -347.5952758789062 L 701.3988647460938 -336.0140991210938 L 686.1793212890625 -320.7946166992188 C 687.3883666992188 -316.945068359375 688.00048828125 -312.9305114746094 688.00048828125 -308.8619995117188 C 688.00048828125 -303.4926147460938 686.9489135742188 -298.2838745117188 684.8748779296875 -293.3804626464844 C 682.8716430664062 -288.6443481445312 680.0038452148438 -284.3908996582031 676.3511352539062 -280.7382507324219 C 672.6984252929688 -277.0856323242188 668.4449462890625 -274.2178649902344 663.7088623046875 -272.2146911621094 C 658.8055419921875 -270.1407775878906 653.596923828125 -269.0892028808594 648.2277221679688 -269.0892028808594 Z M 629.3790893554688 -323.8434448242188 L 617.5485229492188 -312.0137939453125 L 647.4735107421875 -282.0888061523438 L 686.1793212890625 -320.7946166992188 L 686.1784057617188 -320.7957458496094 C 685.3135986328125 -323.5502319335938 684.1409301757812 -326.2179565429688 682.6930541992188 -328.7248229980469 C 681.2657470703125 -331.1959228515625 679.5652465820312 -333.5211181640625 677.6388549804688 -335.6358032226562 L 647.4735107421875 -306.0134887695312 L 629.3790893554688 -323.8434448242188 Z" stroke="none" fill="#1a1a1a"/>
  </g>
</svg>
