<svg xmlns="http://www.w3.org/2000/svg" width="108" height="108" viewBox="0 0 108 108">
  <g id="Exclusion_1" data-name="Exclusion 1" transform="translate(-593 353)" fill="#1a1a1a">
    <path d="M 620.0001220703125 -245.9998016357422 C 616.4895629882812 -245.9998016357422 613.0846557617188 -246.6871185302734 609.8799438476562 -248.0426788330078 C 606.7839965820312 -249.3521575927734 604.0032958984375 -251.2270202636719 601.6151733398438 -253.6151733398438 C 599.22705078125 -256.00341796875 597.352294921875 -258.7840881347656 596.0429077148438 -261.8799438476562 C 594.6873779296875 -265.0847473144531 594.0001220703125 -268.4895629882812 594.0001220703125 -271.9998168945312 C 594.0001220703125 -275.5102844238281 594.6873779296875 -278.9152221679688 596.0429077148438 -282.1200866699219 C 597.352294921875 -285.216064453125 599.2271118164062 -287.9966735839844 601.6151733398438 -290.3847045898438 C 604.0032348632812 -292.7727966308594 606.783935546875 -294.6476135253906 609.8798828125 -295.9570922851562 C 612.7794799804688 -297.1834716796875 615.8427734375 -297.8628845214844 619.0001220703125 -297.9811401367188 L 619.0001220703125 -271.9998168945312 L 619.0001220703125 -270.9998168945312 L 620.0001220703125 -270.9998168945312 L 645.9814453125 -270.9998168945312 C 645.8631591796875 -267.8426818847656 645.1837158203125 -264.7795104980469 643.9572143554688 -261.8799743652344 C 642.647705078125 -258.7839965820312 640.7728271484375 -256.0033264160156 638.384765625 -253.6151733398438 C 635.9965209960938 -251.2270202636719 633.2158203125 -249.3521575927734 630.1199951171875 -248.0426788330078 C 626.915283203125 -246.6871185302734 623.5104370117188 -245.9998016357422 620.0001220703125 -245.9998016357422 Z M 673.0001220703125 -272.9998168945312 L 647.9827880859375 -272.9998168945312 C 647.863525390625 -276.4263000488281 647.1304931640625 -279.7518615722656 645.7992553710938 -282.899169921875 C 644.3889770507812 -286.2333679199219 642.3701782226562 -289.2276916503906 639.7989501953125 -291.7989501953125 C 637.227783203125 -294.3700561523438 634.2334594726562 -296.3887634277344 630.8991088867188 -297.7991027832031 C 627.7518310546875 -299.1302490234375 624.4264526367188 -299.8632202148438 621.0001220703125 -299.9824523925781 L 621.0001220703125 -324.9998168945312 L 646.0175170898438 -324.9998168945312 C 646.136962890625 -321.5730590820312 646.8699340820312 -318.2474975585938 648.2008056640625 -315.1008605957031 C 649.6111450195312 -311.7664794921875 651.6298828125 -308.7721557617188 654.2009887695312 -306.2010192871094 C 656.7720947265625 -303.6297912597656 659.7664184570312 -301.6109619140625 663.1007080078125 -300.20068359375 C 666.2481079101562 -298.8694458007812 669.5737915039062 -298.1364135742188 673.0001220703125 -298.0171508789062 L 673.0001220703125 -272.9998168945312 Z M 674.9992065429688 -300.0184631347656 L 675.0001220703125 -325.9997863769531 L 675.0001831054688 -326.9998168945312 L 674.0001220703125 -326.9998168945312 L 648.0188598632812 -326.9998168945312 C 648.1373291015625 -330.1576843261719 648.8167114257812 -333.2210693359375 650.0429077148438 -336.1200561523438 C 651.3523559570312 -339.2160949707031 653.2271118164062 -341.9967041015625 655.6151733398438 -344.3847045898438 C 658.0032348632812 -346.7727966308594 660.783935546875 -348.6476135253906 663.8798828125 -349.9570617675781 C 667.0845947265625 -351.3125305175781 670.4895629882812 -351.9998168945312 674.0001220703125 -351.9998168945312 C 677.5104370117188 -351.9998168945312 680.9152221679688 -351.3125305175781 684.1199951171875 -349.9570617675781 C 687.2159423828125 -348.6476135253906 689.9966430664062 -346.7727966308594 692.384765625 -344.3847045898438 C 694.77294921875 -341.9965209960938 696.6478271484375 -339.2159118652344 697.9572143554688 -336.1200866699219 C 699.3128051757812 -332.9153442382812 700.0001220703125 -329.5104064941406 700.0001220703125 -325.9998168945312 C 700.0001220703125 -322.4894104003906 699.3128051757812 -319.0845947265625 697.957275390625 -315.8799743652344 C 696.6477661132812 -312.7840576171875 694.7728881835938 -310.0033874511719 692.384765625 -307.6152038574219 C 689.99658203125 -305.2270812988281 687.2158813476562 -303.3522033691406 684.1199340820312 -302.0426635742188 C 681.2201538085938 -300.8161010742188 678.156494140625 -300.1366577148438 674.9992065429688 -300.0184631347656 Z" stroke="none"/>
    <path d="M 620.0001220703125 -246.9998016357422 C 623.3759155273438 -246.9998016357422 626.649658203125 -247.6605377197266 629.7304077148438 -248.9636840820312 C 632.7070922851562 -250.2227478027344 635.3809814453125 -252.0256652832031 637.6776123046875 -254.3222808837891 C 639.9742431640625 -256.618896484375 641.777099609375 -259.2927551269531 643.0362548828125 -262.26953125 C 644.0803833007812 -264.7380676269531 644.7120971679688 -267.3302917480469 644.9219360351562 -269.9998168945312 L 618.0001220703125 -269.9998168945312 L 618.0001220703125 -296.9216613769531 C 615.3304443359375 -296.7118225097656 612.7379760742188 -296.0801391601562 610.2694702148438 -295.0360717773438 C 607.2926635742188 -293.7770080566406 604.6188354492188 -291.9741821289062 602.322265625 -289.6776123046875 C 600.0257568359375 -287.3811340332031 598.2229614257812 -284.7073669433594 596.9639282226562 -281.7305297851562 C 595.6608276367188 -278.6496276855469 595.0001220703125 -275.375732421875 595.0001220703125 -271.9998168945312 C 595.0001220703125 -268.6241149902344 595.6608276367188 -265.350341796875 596.9639282226562 -262.2694702148438 C 598.2228393554688 -259.2928466796875 600.0256958007812 -256.6190185546875 602.322265625 -254.3222808837891 C 604.618896484375 -252.025634765625 607.292724609375 -250.2227325439453 610.2694702148438 -248.9636840820312 C 613.3502807617188 -247.6605377197266 616.6241455078125 -246.9998016357422 620.0001220703125 -246.9998016357422 M 672.0001220703125 -273.9998168945312 L 672.0001220703125 -297.0671691894531 C 668.7916259765625 -297.2843322753906 665.6754760742188 -298.0258483886719 662.711181640625 -299.2796936035156 C 659.2576904296875 -300.7404174804688 656.156494140625 -302.8311767578125 653.4938354492188 -305.493896484375 C 650.8312377929688 -308.1565856933594 648.7405395507812 -311.2577514648438 647.27978515625 -314.7113037109375 C 646.0263061523438 -317.6749267578125 645.2848510742188 -320.7910766601562 645.0675659179688 -323.9998168945312 L 622.0001220703125 -323.9998168945312 L 622.0001220703125 -300.9324340820312 C 625.2083129882812 -300.7152404785156 628.3246459960938 -299.9737243652344 631.2886962890625 -298.7200927734375 C 634.7421875 -297.2593688964844 637.8433227539062 -295.1686706542969 640.506103515625 -292.5060729980469 C 643.1688232421875 -289.8433227539062 645.2595825195312 -286.7421264648438 646.72021484375 -283.2887268066406 C 647.9740600585938 -280.3245239257812 648.715576171875 -277.2084045410156 648.9327392578125 -273.9998168945312 L 672.0001220703125 -273.9998168945312 M 675.9992065429688 -301.0779113769531 C 678.6689453125 -301.2876892089844 681.2616577148438 -301.91943359375 683.7304077148438 -302.9636840820312 C 686.7071533203125 -304.2228088378906 689.3809814453125 -306.0256958007812 691.6776123046875 -308.3222961425781 C 693.9742431640625 -310.6189880371094 695.7771606445312 -313.2928466796875 697.0362548828125 -316.2695617675781 C 698.33935546875 -319.3502197265625 699.0001220703125 -322.6239318847656 699.0001220703125 -325.9998168945312 C 699.0001220703125 -329.3758850097656 698.33935546875 -332.6497497558594 697.0361938476562 -335.7304992675781 C 695.7772216796875 -338.7072143554688 693.9743041992188 -341.3809814453125 691.6776733398438 -343.6776123046875 C 689.381103515625 -345.9741516113281 686.707275390625 -347.7770080566406 683.7304077148438 -349.0360717773438 C 680.649658203125 -350.339111328125 677.3759155273438 -350.9998168945312 674.0001220703125 -350.9998168945312 C 670.6240844726562 -350.9998168945312 667.3502197265625 -350.339111328125 664.2694702148438 -349.0360717773438 C 661.2926635742188 -347.7770080566406 658.6188354492188 -345.9741821289062 656.322265625 -343.6776123046875 C 654.0257568359375 -341.3811340332031 652.2229614257812 -338.7073669433594 650.9639282226562 -335.7305297851562 C 649.9200439453125 -333.2624816894531 649.2883911132812 -330.6698913574219 649.078369140625 -327.9998168945312 L 676.0001831054688 -327.9998168945312 L 675.9992065429688 -301.0779113769531 M 620.0001220703125 -244.9998016357422 C 616.3550415039062 -244.9998016357422 612.8190307617188 -245.7136993408203 609.4903564453125 -247.1216735839844 C 606.275146484375 -248.4815979003906 603.3876953125 -250.4284362792969 600.9080810546875 -252.9080810546875 C 598.428466796875 -255.3878021240234 596.481689453125 -258.2752990722656 595.1218872070312 -261.4903869628906 C 593.7139892578125 -264.8191223144531 593.0001220703125 -268.3550109863281 593.0001220703125 -271.9998168945312 C 593.0001220703125 -275.6448364257812 593.7139892578125 -279.1808471679688 595.1218872070312 -282.5096130371094 C 596.4817504882812 -285.724853515625 598.4285278320312 -288.6123352050781 600.9080810546875 -291.0918273925781 C 603.3876953125 -293.5714416503906 606.2752075195312 -295.5182189941406 609.4903564453125 -296.8780822753906 C 612.8189697265625 -298.2859497070312 616.35498046875 -298.9998168945312 620.0001220703125 -298.9998168945312 L 620.0001220703125 -271.9998168945312 L 647.0001220703125 -271.9998168945312 C 647.0001220703125 -268.3537902832031 646.285888671875 -264.8182678222656 644.8782348632812 -261.4903869628906 C 643.518310546875 -258.2752990722656 641.571533203125 -255.3878021240234 639.0918579101562 -252.9080810546875 C 636.6121215820312 -250.4284057617188 633.724609375 -248.4815826416016 630.509521484375 -247.1216735839844 C 627.180908203125 -245.7136993408203 623.64501953125 -244.9998016357422 620.0001220703125 -244.9998016357422 Z M 674.0001220703125 -271.9998168945312 L 647.0001220703125 -271.9998168945312 C 647.0001220703125 -275.6445617675781 646.2864990234375 -279.1802368164062 644.8782348632812 -282.5095825195312 C 643.5183715820312 -285.7246704101562 641.571533203125 -288.6121520996094 639.0918579101562 -291.0918579101562 C 636.6121826171875 -293.5714111328125 633.7246704101562 -295.5181884765625 630.5095825195312 -296.8780822753906 C 627.1808471679688 -298.2859802246094 623.6449584960938 -298.9998168945312 620.0001220703125 -298.9998168945312 L 620.0001220703125 -325.9998168945312 L 647.0001220703125 -325.9998168945312 C 647.0003662109375 -322.3547668457031 647.7138671875 -318.8192443847656 649.121826171875 -315.4903869628906 C 650.481689453125 -312.2752685546875 652.428466796875 -309.3877563476562 654.9080810546875 -306.9081115722656 C 657.3877563476562 -304.4283752441406 660.2752685546875 -302.4815368652344 663.4902954101562 -301.1216735839844 C 666.81884765625 -299.7138061523438 670.3543090820312 -298.9999084472656 673.9991455078125 -298.9998168945312 L 674.0001220703125 -298.9998168945312 L 674.0001220703125 -271.9998168945312 Z M 674.0001220703125 -298.9998168945312 C 673.9998779296875 -298.9998168945312 673.9993896484375 -298.9998168945312 673.9991455078125 -298.9998168945312 L 674.0001220703125 -325.9998168945312 L 647.0001220703125 -325.9998168945312 C 647.0004272460938 -329.6466979980469 647.714599609375 -333.182373046875 649.1218872070312 -336.5096130371094 C 650.4817504882812 -339.724853515625 652.4285278320312 -342.6123352050781 654.9080810546875 -345.0918273925781 C 657.3876953125 -347.5714416503906 660.2752075195312 -349.5182189941406 663.4903564453125 -350.8780822753906 C 666.8189697265625 -352.2859497070312 670.35498046875 -352.9998168945312 674.0001220703125 -352.9998168945312 C 677.64501953125 -352.9998168945312 681.180908203125 -352.2859497070312 684.509521484375 -350.8780822753906 C 687.7247314453125 -349.5181884765625 690.6122436523438 -347.5714111328125 693.0918579101562 -345.0918273925781 C 695.571533203125 -342.6121826171875 697.5183715820312 -339.7247009277344 698.8782348632812 -336.5096130371094 C 700.2862548828125 -333.180908203125 701.0001220703125 -329.6448974609375 701.0001220703125 -325.9998168945312 C 701.0001220703125 -322.3549194335938 700.2862548828125 -318.8190307617188 698.8782348632812 -315.4903869628906 C 697.518310546875 -312.2752685546875 695.5714721679688 -309.3877868652344 693.0918579101562 -306.9081115722656 C 690.6121826171875 -304.428466796875 687.7246704101562 -302.4816284179688 684.509521484375 -301.1216735839844 C 681.1808471679688 -299.7137145996094 677.6449584960938 -298.9998168945312 674.0001220703125 -298.9998168945312 Z" stroke="none" fill="#1a1a1a"/>
  </g>
</svg>
