<svg xmlns="http://www.w3.org/2000/svg" width="85" height="85" viewBox="0 0 85 85">
  <g id="Exclusion_8" data-name="Exclusion 8" transform="translate(-616 353)" fill="#1a1a1a">
    <path d="M 648.9999389648438 -269.0002136230469 C 644.6795654296875 -269.0002136230469 640.489013671875 -269.8461303710938 636.5444946289062 -271.5144958496094 C 632.734130859375 -273.1260986328125 629.311767578125 -275.4335327148438 626.3724365234375 -278.3726501464844 C 623.4332275390625 -281.3117980957031 621.125732421875 -284.7340698242188 619.5140380859375 -288.5443725585938 C 617.8455810546875 -292.4887390136719 616.9996337890625 -296.6792907714844 616.9996337890625 -300.9996032714844 C 616.9996337890625 -307.6013793945312 618.9928588867188 -313.9388122558594 622.7638549804688 -319.3268737792969 C 624.5811157226562 -321.9232788085938 626.7673950195312 -324.2322692871094 629.2620849609375 -326.189697265625 C 631.1957397460938 -327.7069702148438 633.2872924804688 -328.9912109375 635.5015258789062 -330.0225219726562 C 634.504638671875 -326.7892761230469 634.0004272460938 -323.4277954101562 634.0004272460938 -320.0003967285156 C 634.0004272460938 -315.41064453125 634.8994750976562 -310.9577941894531 636.6726684570312 -306.7655029296875 C 638.3851318359375 -302.7166442871094 640.8364868164062 -299.0806274414062 643.9586791992188 -295.9584350585938 C 647.0807495117188 -292.8363037109375 650.7166137695312 -290.3849182128906 654.7654418945312 -288.6723937988281 C 658.9577026367188 -286.8992004394531 663.410400390625 -286.0001220703125 667.9998168945312 -286.0001220703125 C 671.42822265625 -286.0001220703125 674.7896728515625 -286.5042419433594 678.022705078125 -287.5012512207031 C 676.991455078125 -285.2870483398438 675.707275390625 -283.1957397460938 674.1900634765625 -281.26220703125 C 672.232421875 -278.7673950195312 669.9234008789062 -276.5811462402344 667.3272094726562 -274.7641906738281 C 661.939208984375 -270.9933471679688 655.6017456054688 -269.0002136230469 648.9999389648438 -269.0002136230469 Z M 681.4993896484375 -290.97802734375 C 682.4959716796875 -294.2102661132812 683.000244140625 -297.5718383789062 683.000244140625 -300.9996032714844 C 683.000244140625 -305.5893249511719 682.1011962890625 -310.0421752929688 680.3280029296875 -314.2344970703125 C 678.6153564453125 -318.2834777832031 676.1640014648438 -321.9195251464844 673.0418701171875 -325.0415649414062 C 669.9197387695312 -328.1637878417969 666.28369140625 -330.6151428222656 662.23486328125 -332.32763671875 C 658.0425415039062 -334.100830078125 653.5896606445312 -334.9999084472656 648.9999389648438 -334.9999084472656 C 645.5726318359375 -334.9999084472656 642.211181640625 -334.4956970214844 638.9779052734375 -333.4988098144531 C 640.0092163085938 -335.7130737304688 641.29345703125 -337.8046264648438 642.810546875 -339.7380065917969 C 644.7680053710938 -342.232666015625 647.0769653320312 -344.4188842773438 649.6732788085938 -346.2359619140625 C 655.0610961914062 -350.0067138671875 661.3983154296875 -351.9998168945312 667.9998168945312 -351.9998168945312 C 672.3204345703125 -351.9998168945312 676.5111694335938 -351.1538696289062 680.4556274414062 -349.4855041503906 C 684.2660522460938 -347.8739013671875 687.6884155273438 -345.5664672851562 690.6276245117188 -342.6273498535156 C 693.5667114257812 -339.6883544921875 695.8741455078125 -336.2660827636719 697.48583984375 -332.4556884765625 C 699.1542358398438 -328.5112609863281 700.0001220703125 -324.3206787109375 700.0001220703125 -320.0003967285156 C 700.0001220703125 -313.3993225097656 698.0068359375 -307.0621643066406 694.23583984375 -301.6739501953125 C 692.4188842773438 -299.0777587890625 690.232666015625 -296.7687072753906 687.7378540039062 -294.8109130859375 C 685.8043823242188 -293.2936706542969 683.7131958007812 -292.0093994140625 681.4993896484375 -290.97802734375 Z" stroke="none"/>
    <path d="M 648.9999389648438 -270.0002136230469 C 655.3955688476562 -270.0002136230469 661.5347900390625 -271.9308776855469 666.7538452148438 -275.5834655761719 C 669.2693481445312 -277.3439636230469 671.506591796875 -279.4622497558594 673.4033203125 -281.8795166015625 C 674.4124755859375 -283.16552734375 675.315185546875 -284.5236206054688 676.105224609375 -285.9426879882812 C 673.4651489257812 -285.3161315917969 670.75341796875 -285.0001220703125 667.9998168945312 -285.0001220703125 C 663.2758178710938 -285.0001220703125 658.6920776367188 -285.92578125 654.3758544921875 -287.7513732910156 C 650.2078857421875 -289.5143127441406 646.465087890625 -292.0376892089844 643.2515869140625 -295.2513427734375 C 640.0379028320312 -298.4650268554688 637.5145263671875 -302.2078857421875 635.7516479492188 -306.3759765625 C 633.9260864257812 -310.6921997070312 633.0004272460938 -315.2760925292969 633.0004272460938 -320.0003967285156 C 633.0004272460938 -322.7531433105469 633.3165283203125 -325.4650268554688 633.9430541992188 -328.1050415039062 C 632.5237426757812 -327.31494140625 631.1656494140625 -326.4122619628906 629.87939453125 -325.4029846191406 C 627.4622192382812 -323.50634765625 625.3438720703125 -321.2691345214844 623.5831298828125 -318.7534790039062 C 619.9303588867188 -313.5343627929688 617.9996337890625 -307.3951721191406 617.9996337890625 -300.9996032714844 C 617.9996337890625 -296.8138427734375 618.8190307617188 -292.7543640136719 620.4349975585938 -288.9339294433594 C 621.9962768554688 -285.2428588867188 624.2318725585938 -281.9274291992188 627.0795288085938 -279.0797729492188 C 629.9273071289062 -276.232177734375 633.2428588867188 -273.9967041015625 636.93408203125 -272.4354858398438 C 640.754638671875 -270.8195495605469 644.8141479492188 -270.0002136230469 648.9999389648438 -270.0002136230469 M 683.0577392578125 -292.8956909179688 C 684.4765625 -293.6857604980469 685.8345947265625 -294.5885009765625 687.1205444335938 -295.5975952148438 C 689.5377807617188 -297.4945373535156 691.6560668945312 -299.7318420410156 693.4165649414062 -302.247314453125 C 697.0693359375 -307.4666137695312 699.0001220703125 -313.6054992675781 699.0001220703125 -320.0003967285156 C 699.0001220703125 -324.1860961914062 698.1807861328125 -328.24560546875 696.5648803710938 -332.0661315917969 C 695.0036010742188 -335.7572937011719 692.7681274414062 -339.0727233886719 689.9205322265625 -341.9202270507812 C 687.0728149414062 -344.7678527832031 683.7572631835938 -347.0033264160156 680.0660400390625 -348.5645141601562 C 676.2455444335938 -350.1804504394531 672.1858520507812 -350.9998168945312 667.9998168945312 -350.9998168945312 C 661.6044921875 -350.9998168945312 655.4655151367188 -349.0692138671875 650.2467041015625 -345.4166870117188 C 647.7310791015625 -343.6560974121094 645.493896484375 -341.537841796875 643.5972900390625 -339.1206970214844 C 642.588134765625 -337.8346252441406 641.6854248046875 -336.4765625 640.8953247070312 -335.0572814941406 C 643.5353393554688 -335.6837768554688 646.2472534179688 -335.9999084472656 648.9999389648438 -335.9999084472656 C 653.7241821289062 -335.9999084472656 658.30810546875 -335.0742492675781 662.6244506835938 -333.2486267089844 C 666.79248046875 -331.4857482910156 670.5353393554688 -328.96240234375 673.7489624023438 -325.7486877441406 C 676.9625854492188 -322.5350952148438 679.4859619140625 -318.792236328125 681.2489624023438 -314.6240234375 C 683.0745849609375 -310.3078308105469 684.000244140625 -305.7239074707031 684.000244140625 -300.9996032714844 C 684.000244140625 -298.2470703125 683.6842041015625 -295.5357360839844 683.0577392578125 -292.8956909179688 M 648.9999389648438 -268.0002136230469 C 644.5450439453125 -268.0002136230469 640.223388671875 -268.8727111816406 636.1549682617188 -270.5934753417969 C 632.2252807617188 -272.2555541992188 628.6961059570312 -274.6349487304688 625.6653442382812 -277.66552734375 C 622.6347045898438 -280.6961364746094 620.2551879882812 -284.2252197265625 618.593017578125 -288.15478515625 C 616.8721313476562 -292.2232055664062 615.9996337890625 -296.5448303222656 615.9996337890625 -300.9996032714844 C 615.9996337890625 -307.8075561523438 618.0553588867188 -314.3432922363281 621.944580078125 -319.9002685546875 C 623.8182983398438 -322.577392578125 626.0725708007812 -324.9581604003906 628.644775390625 -326.9764404296875 C 631.2405395507812 -329.0132141113281 634.1123046875 -330.6428527832031 637.1802978515625 -331.820068359375 C 635.7343139648438 -328.0516662597656 635.0004272460938 -324.0753784179688 635.0004272460938 -320.0003967285156 C 635.0004272460938 -315.5452270507812 635.8729248046875 -311.2234191894531 637.5936889648438 -307.1550598144531 C 639.2557373046875 -303.2253723144531 641.6351318359375 -299.6961975097656 644.665771484375 -296.6655578613281 C 647.6963500976562 -293.6348876953125 651.2254638671875 -291.2554626464844 655.1549682617188 -289.5933837890625 C 659.2233276367188 -287.8726196289062 663.5449829101562 -287.0001220703125 667.9998168945312 -287.0001220703125 C 672.0743408203125 -287.0001220703125 676.0513305664062 -287.7335815429688 679.8203735351562 -289.18017578125 C 678.6423950195312 -286.1102294921875 677.0123291015625 -283.2389831542969 674.9767456054688 -280.6448669433594 C 672.9583740234375 -278.0726318359375 670.57763671875 -275.8184204101562 667.9005737304688 -273.9448852539062 C 662.3436889648438 -270.0558471679688 655.8079223632812 -268.0002136230469 648.9999389648438 -268.0002136230469 Z M 679.8204345703125 -289.18017578125 L 679.8212280273438 -289.1822814941406 C 681.26708984375 -292.9513854980469 682.000244140625 -296.9273071289062 682.000244140625 -300.9996032714844 C 682.000244140625 -305.4547424316406 681.1277465820312 -309.7765502929688 679.406982421875 -313.8449401855469 C 677.7448120117188 -317.7746887207031 675.3654174804688 -321.3038635253906 672.3347778320312 -324.33447265625 C 669.3041381835938 -327.3651428222656 665.7749633789062 -329.7445678710938 661.8453369140625 -331.4066162109375 C 657.77685546875 -333.1274108886719 653.455078125 -333.9999084472656 648.9999389648438 -333.9999084472656 C 644.9266967773438 -333.9999084472656 640.9500122070312 -333.2665100097656 637.1802978515625 -331.820068359375 C 638.3583374023438 -334.8900756835938 639.9883422851562 -337.7613220214844 642.0238647460938 -340.3553466796875 C 644.0421752929688 -342.9275512695312 646.4229125976562 -345.1817016601562 649.0999145507812 -347.0552368164062 C 654.6566162109375 -350.9442138671875 661.192138671875 -352.9998168945312 667.9998168945312 -352.9998168945312 C 672.4548950195312 -352.9998168945312 676.7767333984375 -352.1273193359375 680.8451538085938 -350.4065246582031 C 684.7748413085938 -348.7444763183594 688.3040161132812 -346.3650817871094 691.334716796875 -343.33447265625 C 694.3653564453125 -340.3038940429688 696.7447509765625 -336.7748107910156 698.4068603515625 -332.8452453613281 C 700.1276245117188 -328.77685546875 701.0001220703125 -324.4552307128906 701.0001220703125 -320.0003967285156 C 701.0001220703125 -313.1931762695312 698.9443969726562 -306.65771484375 695.0551147460938 -301.1005554199219 C 693.1815795898438 -298.4235229492188 690.9273681640625 -296.042724609375 688.355224609375 -294.0242309570312 C 685.7601318359375 -291.9878234863281 682.8893432617188 -290.3583068847656 679.822509765625 -289.1809692382812 L 679.8204345703125 -289.18017578125 Z" stroke="none" fill="#1a1a1a"/>
  </g>
</svg>
