<svg width="133" height="27" viewBox="0 0 133 27" fill="none" xmlns="http://www.w3.org/2000/svg">
<path d="M9.26746 26.9645H9.23181C6.54663 26.9645 4.34857 26.2932 2.63766 24.9506C0.926746 23.608 0.0475254 21.8317 0 19.6218H4.56244C4.5862 20.7862 5.03175 21.7189 5.89909 22.4199C6.76643 23.1209 7.91298 23.4714 9.33875 23.4714C10.4794 23.4714 11.3942 23.2456 12.0833 22.7941C12.7725 22.3426 13.117 21.7367 13.117 20.9763C13.117 19.9307 12.3923 19.3129 10.9427 19.1228L6.80802 18.6238C3.26737 18.1723 1.49705 16.6277 1.49705 13.9901C1.49705 12.3029 2.15052 10.9544 3.45748 9.94445C4.76442 8.93453 6.53475 8.42958 8.76844 8.42958C11.0021 8.42958 12.7725 8.87513 14.0794 9.76623C15.3864 10.6573 16.1586 11.9227 16.3963 13.5623H11.8695C11.4893 12.3267 10.4556 11.7088 8.76844 11.7088C7.88922 11.7088 7.18822 11.8871 6.66544 12.2435C6.14266 12.5999 5.88127 13.099 5.88127 13.7405C5.88127 14.6911 6.58227 15.2614 7.98427 15.4515L12.0833 15.9505C15.7428 16.402 17.5725 17.9941 17.5725 20.7268C17.5725 22.604 16.8121 24.113 15.2913 25.2536C13.7705 26.3942 11.7625 26.9645 9.26746 26.9645ZM22.5271 17.6257L30.4757 26.6437H24.9508L17.5387 17.6257L24.7013 8.78603H30.0836L22.5271 17.6257ZM31.5985 26.6081V8.78603H36.054V26.6081H31.5985ZM38.9768 26.6081V0.944321H43.4323V26.6081H38.9768ZM46.2125 26.6081V0.944321H50.668V26.6081H46.2125ZM63.0365 4.47309H62.9652C61.6345 4.47309 60.7315 4.75824 60.2563 5.32854C59.781 5.89885 59.5434 6.65926 59.5434 7.60976V8.78603H65.2108V12.493H59.5434V26.6081H55.1592V12.493H51.8799V8.78603H55.1592V7.32462C55.1592 5.20973 55.783 3.55228 57.0305 2.35226C58.278 1.15225 60.0187 0.552246 62.2524 0.552246C63.3217 0.552246 64.3197 0.682938 65.2465 0.944321V4.75824C64.4385 4.56814 63.7019 4.47309 63.0365 4.47309ZM75.0486 26.9645C72.1495 26.9645 69.7732 26.0972 67.9198 24.3625C66.0663 22.6278 65.1395 20.406 65.1395 17.697C65.1395 14.9881 66.0663 12.7663 67.9198 11.0316C69.7732 9.29692 72.1495 8.42958 75.0486 8.42958C77.9239 8.42958 80.2882 9.29692 82.1417 11.0316C83.9952 12.7663 84.922 14.9881 84.922 17.697C84.922 20.406 83.9952 22.6278 82.1417 24.3625C80.2882 26.0972 77.9239 26.9645 75.0486 26.9645ZM71.1634 21.6535C72.1852 22.6753 73.4802 23.1862 75.0486 23.1862C76.6169 23.1862 77.912 22.6694 78.9338 21.6357C79.9556 20.602 80.4665 19.2891 80.4665 17.697C80.4665 16.1049 79.9556 14.792 78.9338 13.7584C77.912 12.7247 76.6169 12.2079 75.0486 12.2079C73.4802 12.2079 72.1911 12.7247 71.1812 13.7584C70.1713 14.792 69.6663 16.1049 69.6663 17.697C69.6663 19.2891 70.1653 20.608 71.1634 21.6535ZM96.7558 8.42958L96.7202 8.39394C97.0291 8.39394 97.2548 8.40582 97.3974 8.42958V12.8494H96.5063C92.728 12.8494 90.8389 15.1425 90.8389 19.7287V26.6081H86.3834V8.78603H90.6607V14.0257H90.6963C91.5993 10.295 93.6191 8.42958 96.7558 8.42958ZM109.409 23.1149L109.338 23.1862C110.526 23.1862 111.607 22.9842 112.582 22.5803V26.2873C111.322 26.7625 109.825 27.0001 108.091 27.0001C106.047 27.0001 104.473 26.4179 103.368 25.2536C102.263 24.0892 101.71 22.509 101.71 20.5129V12.5286H98.4311V9.21375L99.5717 9.14246C101.211 9.04741 102.079 8.06126 102.174 6.18401L102.316 3.65327H106.13V8.78603H112.047V12.493H106.13V20.1921C106.13 22.1407 107.223 23.1149 109.409 23.1149ZM127.873 19.2654H132.4C132.257 21.5466 131.313 23.3941 129.566 24.808C127.82 26.2219 125.651 26.9288 123.061 26.9288C120.186 26.9288 117.839 26.0556 116.021 24.309C114.204 22.5625 113.295 20.3228 113.295 17.5901C113.295 14.9049 114.192 12.7009 115.986 10.9781C117.78 9.25534 120.091 8.39394 122.919 8.39394C125.746 8.39394 127.998 9.22563 129.673 10.889C131.348 12.5524 132.138 14.7742 132.043 17.5545H117.608C117.631 19.2891 118.13 20.6614 119.105 21.6713C120.079 22.6813 121.362 23.1862 122.954 23.1862C124.309 23.1862 125.443 22.8238 126.358 22.0991C127.273 21.3743 127.778 20.4297 127.873 19.2654ZM122.847 11.7088C120.637 11.7088 119.093 12.5999 118.214 14.3821H127.303C126.566 12.5999 125.081 11.7088 122.847 11.7088Z" fill="white"/>
<circle cx="33.95" cy="3.26694" r="2.3403" fill="white"/>
</svg>
