<svg xmlns="http://www.w3.org/2000/svg" width="58.222" height="34.152" viewBox="0 0 58.222 34.152">
  <g id="Group_2771" data-name="Group 2771" transform="translate(-397.48 -1415.379)">
    <path id="Path_16" data-name="Path 16" d="M33.556,12.531H33.49q-7.421,0-12.15-3.711A12.225,12.225,0,0,1,16.48-1h8.407a6.477,6.477,0,0,0,2.463,5.156,9.777,9.777,0,0,0,6.338,1.937,9.1,9.1,0,0,0,5.057-1.248,3.831,3.831,0,0,0,1.9-3.35q0-2.89-4.006-3.415l-7.618-.919q-9.786-1.248-9.786-8.538a8.944,8.944,0,0,1,3.612-7.454q3.612-2.791,9.786-2.791t9.786,2.463a9.773,9.773,0,0,1,4.269,6.995H38.35q-1.051-3.415-5.714-3.415a6.773,6.773,0,0,0-3.875.985,3.152,3.152,0,0,0-1.445,2.758q0,2.627,3.875,3.152l7.553.919q10.114,1.248,10.114,8.8a9.924,9.924,0,0,1-4.2,8.341Q40.452,12.531,33.556,12.531ZM57.988-4.676,72.634,11.94H62.454L48.8-4.676h0l13.2-16.288h9.917ZM74.7,11.874v0Z" transform="translate(381 1437)" fill="#fff"/>
  </g>
</svg>
