<svg xmlns="http://www.w3.org/2000/svg" width="102.141" height="104.277" viewBox="0 0 102.141 104.277">
  <g id="Exclusion_2" data-name="Exclusion 2" transform="translate(-616.929 333.678)" fill="#1a1a1a">
    <path d="M 630.8311157226562 -230.8357849121094 L 618.3274536132812 -243.6753234863281 L 633.614990234375 -259.2678527832031 C 636.8930053710938 -254.2522277832031 641.2611083984375 -249.9906463623047 646.354248046875 -246.8392944335938 L 630.8311157226562 -230.8357849121094 Z M 668.2275390625 -242.7669830322266 L 667.7720947265625 -242.7669830322266 C 664.3230590820312 -242.7669830322266 660.9024658203125 -243.2200317382812 657.6053466796875 -244.1135711669922 C 654.8224487304688 -244.8677215576172 652.1282348632812 -245.9349060058594 649.5792236328125 -247.2915344238281 L 701.7344360351562 -301.0607299804688 C 705.1832275390625 -295.151123046875 707.0003051757812 -288.4292602539062 707.0003051757812 -281.5389099121094 C 707.0003051757812 -276.30419921875 705.9752807617188 -271.2267150878906 703.9536743164062 -266.4474792480469 C 702.0009765625 -261.8307800292969 699.2051391601562 -257.6842346191406 695.6438598632812 -254.123046875 C 692.0826416015625 -250.5619201660156 687.9359741210938 -247.7661743164062 683.3191528320312 -245.8134765625 C 678.5396728515625 -243.7919616699219 673.462158203125 -242.7669830322266 668.2275390625 -242.7669830322266 Z M 633.9867553710938 -262.5038146972656 C 630.7208251953125 -268.2915954589844 629.000244140625 -274.8450012207031 629.000244140625 -281.5389099121094 C 629.000244140625 -286.7736511230469 630.0252075195312 -291.8513488769531 632.0467529296875 -296.6309204101562 C 633.99951171875 -301.2478332519531 636.7952270507812 -305.3944396972656 640.356201171875 -308.95556640625 C 643.9171752929688 -312.5166015625 648.063720703125 -315.3123779296875 652.6807250976562 -317.2652282714844 C 657.4600219726562 -319.2867126464844 662.5375366210938 -320.3117065429688 667.7720947265625 -320.3117065429688 L 668.2275390625 -320.3117065429688 C 671.65380859375 -320.3117065429688 675.0526123046875 -319.8645629882812 678.3294067382812 -318.9826965332031 C 681.0889282226562 -318.2400207519531 683.7623901367188 -317.1895141601562 686.2937622070312 -315.8543395996094 L 633.9867553710938 -262.5038146972656 Z M 702.0722045898438 -304.281494140625 C 698.8087768554688 -309.126953125 694.5119018554688 -313.2490844726562 689.5374755859375 -316.3059387207031 L 705.1912231445312 -332.2720336914062 L 717.6516723632812 -320.3431396484375 L 702.0722045898438 -304.281494140625 Z" stroke="none"/>
    <path d="M 630.8296508789062 -232.2705841064453 L 644.783935546875 -246.6566772460938 C 640.3572387695312 -249.5812377929688 636.5059204101562 -253.3386688232422 633.4715576171875 -257.6931457519531 L 619.7255859375 -243.6729736328125 L 630.8296508789062 -232.2705841064453 M 668.2275390625 -243.7669830322266 C 673.3275756835938 -243.7669830322266 678.2741088867188 -244.7653961181641 682.9295654296875 -246.7344970703125 C 687.42724609375 -248.6367797851562 691.467041015625 -251.3605651855469 694.936767578125 -254.8301696777344 C 698.4065551757812 -258.2998352050781 701.13037109375 -262.3395385742188 703.03271484375 -266.8370666503906 C 705.0018920898438 -271.4923400878906 706.0003051757812 -276.4387512207031 706.0003051757812 -281.5389099121094 C 706.0003051757812 -287.8069152832031 704.4574584960938 -293.9307556152344 701.5180053710938 -299.4013366699219 L 651.2399291992188 -247.5673675537109 C 653.3659057617188 -246.5310211181641 655.5858764648438 -245.6969146728516 657.8668823242188 -245.0787353515625 C 661.0787963867188 -244.2083282470703 664.411376953125 -243.7669830322266 667.7720947265625 -243.7669830322266 L 668.2275390625 -243.7669830322266 M 634.2213134765625 -264.1714477539062 L 684.6223754882812 -315.5780029296875 C 682.5184936523438 -316.5929870605469 680.3234252929688 -317.4104614257812 678.0695190429688 -318.0170593261719 C 674.87744140625 -318.8761291503906 671.5661010742188 -319.3117065429688 668.2275390625 -319.3117065429688 L 667.7720947265625 -319.3117065429688 C 662.6720581054688 -319.3117065429688 657.7256469726562 -318.3132934570312 653.0702514648438 -316.3442077636719 C 648.572509765625 -314.4418334960938 644.5328369140625 -311.718017578125 641.0633544921875 -308.2484741210938 C 637.5938720703125 -304.7788696289062 634.8701171875 -300.7391052246094 632.9677734375 -296.2413635253906 C 630.9986572265625 -291.5857238769531 630.000244140625 -286.6390991210938 630.000244140625 -281.5389099121094 C 630.000244140625 -275.4666442871094 631.4530029296875 -269.5140380859375 634.2213134765625 -264.1714477539062 M 702.199951171875 -305.8494567871094 L 716.2330322265625 -320.31689453125 L 705.2134399414062 -330.8663330078125 L 691.115966796875 -316.4875793457031 C 695.4227294921875 -313.6591491699219 699.1953735351562 -310.0383605957031 702.199951171875 -305.8494567871094 M 630.83251953125 -229.4009857177734 L 630.831787109375 -229.4017333984375 L 616.9293212890625 -243.6776885986328 L 633.7857666015625 -260.8704223632812 C 637.2637939453125 -255.1633453369141 642.1617431640625 -250.3843841552734 647.9517211914062 -247.0499725341797 L 701.9182739257812 -302.6865539550781 C 705.897705078125 -296.3586120605469 708.0003051757812 -289.0459289550781 708.0003051757812 -281.5389099121094 C 708.0003051757812 -276.1697082519531 706.94873046875 -270.9611511230469 704.8746948242188 -266.0579223632812 C 702.8715209960938 -261.3219299316406 700.003662109375 -257.0685424804688 696.3509521484375 -253.4159393310547 C 692.6982421875 -249.7633514404297 688.44482421875 -246.8956451416016 683.7086791992188 -244.8924713134766 C 678.8052978515625 -242.8185424804688 673.5966796875 -241.7669830322266 668.2275390625 -241.7669830322266 L 667.7720947265625 -241.7669830322266 C 664.2347412109375 -241.7669830322266 660.7261352539062 -242.2317504882812 657.34375 -243.1483612060547 C 654.0635986328125 -244.0373077392578 650.9036254882812 -245.3500061035156 647.9517211914062 -247.0499572753906 L 630.83251953125 -229.4009857177734 Z M 633.7848510742188 -260.8695068359375 L 633.7850952148438 -260.8715209960938 C 633.7848510742188 -260.8718872070312 633.784912109375 -260.871826171875 633.78466796875 -260.8721923828125 C 630.0006103515625 -267.0823669433594 628.000244140625 -274.2290954589844 628.000244140625 -281.5389099121094 C 628.000244140625 -286.9082336425781 629.0518188476562 -292.1169738769531 631.125732421875 -297.0204467773438 C 633.12890625 -301.756591796875 635.99658203125 -306.0100402832031 639.6491088867188 -309.6626586914062 C 643.3016357421875 -313.3152770996094 647.5550537109375 -316.1830139160156 652.2911376953125 -318.1862182617188 C 657.1943969726562 -320.2601318359375 662.4029541015625 -321.3117065429688 667.7720947265625 -321.3117065429688 L 668.2275390625 -321.3117065429688 C 671.7415771484375 -321.3117065429688 675.227783203125 -320.8529968261719 678.5892944335938 -319.9483337402344 C 681.8496704101562 -319.0708618164062 684.99267578125 -317.7747192382812 687.9310302734375 -316.0958862304688 L 633.7848510742188 -260.8695068359375 Z M 633.7843017578125 -260.871826171875 L 633.78466796875 -260.8721923828125 L 633.7843017578125 -260.871826171875 Z M 701.9173583984375 -302.6856384277344 L 701.9170532226562 -302.6870422363281 C 698.4378662109375 -308.2192077636719 693.6015625 -312.8558959960938 687.9310302734375 -316.0958557128906 L 705.1689453125 -333.6777038574219 L 719.0703125 -320.3694152832031 L 701.9173583984375 -302.6856384277344 Z" stroke="none" fill="#1a1a1a"/>
  </g>
</svg>
