<svg xmlns="http://www.w3.org/2000/svg" xmlns:xlink="http://www.w3.org/1999/xlink" width="125.309" height="43.09" viewBox="0 0 125.309 43.09">
  <defs>
    <linearGradient id="linear-gradient" x1="0.499" y1="0.028" x2="0.509" y2="2.327" gradientUnits="objectBoundingBox">
      <stop offset="0.015" stop-color="#55c2b4"/>
      <stop offset="0.098" stop-color="#57c2b1"/>
      <stop offset="0.216" stop-color="#00aed4"/>
      <stop offset="0.427" stop-color="#3e67b1"/>
    </linearGradient>
  </defs>
  <g id="xloop_logovector" data-name="xloop logovector" transform="translate(-3.536 -1.22)">
    <g id="loop_xA0_Image_00000018223315458643089440000012509454808839027891_" transform="translate(54.304 7.961)">
      <path id="Path_11" data-name="Path 11" d="M118.01,16.42h5.273V45.18H118.01Q118.01,30.8,118.01,16.42Z" transform="translate(-118.01 -16.42)" fill="#242161"/>
      <path id="Path_12" data-name="Path 12" d="M242.752,33.779v2.049a26.543,26.543,0,0,1,2.3-1.557,9.22,9.22,0,0,1,11.5,2.4,11.543,11.543,0,0,1,2.466,8.586,10.459,10.459,0,0,1-4.63,8.2A8.949,8.949,0,0,1,243.4,53c-.186-.155-.377-.31-.63-.519V62.1h-5.26V33.783C239.24,33.779,240.947,33.779,242.752,33.779Zm5.384,16.449a5.3,5.3,0,0,0,4.093-1.792,6.3,6.3,0,0,0,1.477-5.428,5.294,5.294,0,0,0-3.672-4.581,5.445,5.445,0,0,0-5.876,1.33,6.173,6.173,0,0,0-1.619,5.078A5.608,5.608,0,0,0,248.136,50.228Z" transform="translate(-184.513 -25.756)" fill="#242161"/>
      <path id="Path_13" data-name="Path 13" d="M144.132,55.107A10.939,10.939,0,1,1,155.183,44.2,10.868,10.868,0,0,1,144.132,55.107Zm-5.566-10.821c.013.2.018.5.053.794a5.342,5.342,0,0,0,3.339,4.67,5.412,5.412,0,0,0,5.788-.829,5.986,5.986,0,0,0,2.058-5.269,5.581,5.581,0,0,0-7.38-5.158A5.766,5.766,0,0,0,138.566,44.286Z" transform="translate(-126.512 -25.775)" fill="#242161"/>
      <path id="Path_14" data-name="Path 14" d="M195.92,55.1a10.812,10.812,0,0,1-10.861-10.892,10.945,10.945,0,1,1,21.891-.031A10.856,10.856,0,0,1,195.92,55.1Zm-5.588-10.812c.013.2.018.5.053.8a5.581,5.581,0,0,0,9.14,3.823,6,6,0,0,0,2.049-5.273,5.578,5.578,0,0,0-7.335-5.158A5.757,5.757,0,0,0,190.332,44.289Z" transform="translate(-155.323 -25.769)" fill="#242161"/>
    </g>
    <g id="Group_208" data-name="Group 208" transform="translate(3.536 1.22)">
      <g id="Vector_Smart_Object_copy_2_xA0_Image_00000099664145367522094230000000186714931376444821_" transform="translate(2.676)">
        <path id="Path_15" data-name="Path 15" d="M41.976,16.778a35.93,35.93,0,0,1,3.641-4.311,5.337,5.337,0,0,1,2.581-1.49c.408-.075.324-.208.142-.421a5.625,5.625,0,0,0-6.9-1.668,11.749,11.749,0,0,0-3.96,3.291c-1.37,1.663-2.683,3.375-4.027,5.056-.129.16-.235.514-.523.1-.891-1.273-1.805-2.528-2.7-3.8-2.342-3.335-4.683-6.679-7.885-9.3a13.328,13.328,0,0,0-4.6-2.639c-.519-.155-1.051-.257-1.574-.381H14.577c-.04.031-.08.08-.124.089a7.388,7.388,0,0,0-3.73,1.752A5.366,5.366,0,0,0,9.57,4.373a6.7,6.7,0,0,1,4.546.9,21.054,21.054,0,0,1,5.557,4.843c3.251,3.8,5.916,8.036,8.888,12.045.373.506.461.883,0,1.326a1.5,1.5,0,0,0-.2.177c-1.592,2-3.167,4.018-4.781,6A24.413,24.413,0,0,1,18.12,34.81a8.435,8.435,0,0,1-5.051,1.645,2.386,2.386,0,0,0-.869,0c-.009.044-.018.067-.013.075a8.337,8.337,0,0,0,10.249,2.036,19.757,19.757,0,0,0,6.3-5.144c1.326-1.557,2.572-3.175,3.827-4.79.266-.341.39-.3.6.022.288.443.612.865.918,1.295a21.828,21.828,0,0,0,4.359,4.807c3.016,2.319,5.929,2.377,8.652.164a5.521,5.521,0,0,0,1.375-1.592,5.116,5.116,0,0,1-2.821-.541,11.607,11.607,0,0,1-3.14-2.461A38.385,38.385,0,0,1,39.2,26.157c-.63-.9-1.251-1.8-1.9-2.679a.557.557,0,0,1,0-.816C38.876,20.707,40.415,18.733,41.976,16.778Z" transform="translate(-9.57 -1.22)" fill="url(#linear-gradient)"/>
      </g>
      <g id="Vector_Smart_Object_copy_3_xA0_Image_00000034798031388954737630000004408392556354400655_" transform="translate(0 4.953)">
        <path id="Path_16" data-name="Path 16" d="M7.095,12.576c-1.9.643-3.078,3.286-3.481,7.8a57.164,57.164,0,0,0,.155,8.014c.749,5.437,1.942,8.834,3.752,10.653a4.5,4.5,0,0,0,2.506,1.4,2.586,2.586,0,0,0,1.508-.093,9.775,9.775,0,0,0,3.18-1.539c.705-.519.789-.656.426-.656a3.866,3.866,0,0,1-1.8-.945c-1.654-1.526-2.963-5.486-3.5-10.591a51.94,51.94,0,0,1,.053-8.094c.333-2.111.914-3.49,1.694-3.969.2-.115.355-.248.355-.293a12.544,12.544,0,0,0-1.925-1.291,7.774,7.774,0,0,0-2.089-.581A3.1,3.1,0,0,0,7.095,12.576Z" transform="translate(-3.536 -12.389)" fill="#242161"/>
        <path id="Path_17" data-name="Path 17" d="M90.3,27.609A13.665,13.665,0,0,0,87.65,30.23l-.665.82.164.643a17.571,17.571,0,0,1,.355,4.834c-.093,2.971-.466,5.144-1.082,6.235l-.262.466.718.656a5.573,5.573,0,0,0,3.251,1.787,2.853,2.853,0,0,0,2.328-1.84c1.6-3.171,1.632-11.828.053-15.163C91.943,27.462,91.225,27.116,90.3,27.609Z" transform="translate(-49.517 -20.739)" fill="#242161"/>
      </g>
    </g>
    <text id="TM" transform="translate(124.771 11.282)" fill="#242161" font-size="2" font-family="Poppins-Bold, Poppins" font-weight="700"><tspan x="0" y="0">TM</tspan></text>
  </g>
</svg>
