<svg xmlns="http://www.w3.org/2000/svg" xmlns:xlink="http://www.w3.org/1999/xlink" width="106.694" height="36.5" viewBox="0 0 106.694 36.5">
  <defs>
    <linearGradient id="linear-gradient" x1="0.499" y1="0.028" x2="0.509" y2="2.327" gradientUnits="objectBoundingBox">
      <stop offset="0.015" stop-color="#55c2b4"/>
      <stop offset="0.098" stop-color="#57c2b1"/>
      <stop offset="0.216" stop-color="#00aed4"/>
      <stop offset="0.427" stop-color="#3e67b1"/>
    </linearGradient>
  </defs>
  <g id="xloop_logovector" data-name="xloop logovector" transform="translate(-3.536 -1.22)">
    <g id="loop_xA0_Image_00000018223315458643089440000012509454808839027891_" transform="translate(46.54 6.93)">
      <path id="Path_11" data-name="Path 11" d="M118.01,16.42h4.467V40.782H118.01Q118.01,28.6,118.01,16.42Z" transform="translate(-118.01 -16.42)" fill="#242161"/>
      <path id="Path_12" data-name="Path 12" d="M241.95,33.69v1.736a22.487,22.487,0,0,1,1.946-1.319,7.81,7.81,0,0,1,9.737,2.036,9.778,9.778,0,0,1,2.089,7.273,8.859,8.859,0,0,1-3.922,6.942,7.581,7.581,0,0,1-9.3-.387c-.158-.131-.319-.263-.533-.44v8.152H237.51V33.693C238.975,33.69,240.421,33.69,241.95,33.69Zm4.561,13.933a4.492,4.492,0,0,0,3.467-1.518,5.337,5.337,0,0,0,1.251-4.6,4.484,4.484,0,0,0-3.111-3.881,4.612,4.612,0,0,0-4.978,1.127,5.229,5.229,0,0,0-1.371,4.3A4.75,4.75,0,0,0,246.511,47.623Z" transform="translate(-192.618 -26.894)" fill="#242161"/>
      <path id="Path_13" data-name="Path 13" d="M142.473,51.762a9.266,9.266,0,1,1,9.362-9.238A9.206,9.206,0,0,1,142.473,51.762ZM137.758,42.6c.011.165.015.421.045.672a4.525,4.525,0,0,0,2.829,3.956,4.584,4.584,0,0,0,4.9-.7,5.07,5.07,0,0,0,1.743-4.463,4.727,4.727,0,0,0-6.251-4.369A4.884,4.884,0,0,0,137.758,42.6Z" transform="translate(-127.548 -26.915)" fill="#242161"/>
      <path id="Path_14" data-name="Path 14" d="M194.258,51.755a9.158,9.158,0,0,1-9.2-9.226A9.271,9.271,0,1,1,203.6,42.5,9.2,9.2,0,0,1,194.258,51.755ZM189.525,42.6c.011.169.015.425.045.676a4.727,4.727,0,0,0,7.742,3.238,5.082,5.082,0,0,0,1.736-4.467,4.725,4.725,0,0,0-6.214-4.369A4.877,4.877,0,0,0,189.525,42.6Z" transform="translate(-159.87 -26.909)" fill="#242161"/>
    </g>
    <g id="Group_208" data-name="Group 208" transform="translate(3.536 1.22)">
      <g id="Vector_Smart_Object_copy_2_xA0_Image_00000099664145367522094230000000186714931376444821_" transform="translate(2.267)">
        <path id="Path_15" data-name="Path 15" d="M37.02,14.4A30.435,30.435,0,0,1,40.1,10.747,4.521,4.521,0,0,1,42.29,9.485c.346-.064.274-.177.12-.357a4.764,4.764,0,0,0-5.845-1.413A9.952,9.952,0,0,0,33.211,10.5c-1.161,1.409-2.273,2.859-3.411,4.283-.109.135-.2.436-.443.086-.755-1.078-1.529-2.141-2.284-3.219a37.608,37.608,0,0,0-6.679-7.874,11.29,11.29,0,0,0-3.9-2.235c-.44-.131-.89-.218-1.334-.323H13.811c-.034.026-.068.068-.105.075a6.259,6.259,0,0,0-3.159,1.484A4.545,4.545,0,0,0,9.57,3.891a5.671,5.671,0,0,1,3.851.766,17.834,17.834,0,0,1,4.707,4.1c2.754,3.219,5.011,6.807,7.528,10.2.316.428.391.748,0,1.123a1.268,1.268,0,0,0-.165.15c-1.349,1.694-2.682,3.4-4.05,5.087a20.679,20.679,0,0,1-4.624,4.35,7.145,7.145,0,0,1-4.279,1.394,2.021,2.021,0,0,0-.736,0c-.008.038-.015.056-.011.064a7.062,7.062,0,0,0,8.682,1.724A16.736,16.736,0,0,0,25.8,28.5c1.123-1.319,2.179-2.69,3.242-4.057.225-.289.331-.252.507.019.244.376.518.733.778,1.1a18.489,18.489,0,0,0,3.693,4.072c2.555,1.965,5.023,2.014,7.329.139a4.677,4.677,0,0,0,1.165-1.349,4.334,4.334,0,0,1-2.389-.458,9.832,9.832,0,0,1-2.66-2.085,32.515,32.515,0,0,1-2.8-3.535c-.533-.759-1.059-1.521-1.608-2.269a.472.472,0,0,1,0-.691C34.394,17.727,35.7,16.055,37.02,14.4Z" transform="translate(-9.57 -1.22)" fill="url(#linear-gradient)"/>
      </g>
      <g id="Vector_Smart_Object_copy_3_xA0_Image_00000034798031388954737630000004408392556354400655_" transform="translate(0 4.196)">
        <path id="Path_16" data-name="Path 16" d="M6.55,12.547c-1.612.545-2.607,2.784-2.949,6.6a48.422,48.422,0,0,0,.131,6.788c.635,4.606,1.645,7.483,3.178,9.023A3.81,3.81,0,0,0,9.034,36.15a2.191,2.191,0,0,0,1.277-.079A8.281,8.281,0,0,0,13,34.768c.6-.44.669-.556.361-.556a3.275,3.275,0,0,1-1.521-.8c-1.4-1.292-2.509-4.647-2.968-8.971a44,44,0,0,1,.045-6.856c.282-1.788.774-2.956,1.435-3.362.169-.1.3-.21.3-.248a10.626,10.626,0,0,0-1.63-1.093,6.585,6.585,0,0,0-1.769-.492A2.622,2.622,0,0,0,6.55,12.547Z" transform="translate(-3.536 -12.389)" fill="#242161"/>
        <path id="Path_17" data-name="Path 17" d="M89.669,27.576a11.575,11.575,0,0,0-2.246,2.22l-.564.695.139.545a14.884,14.884,0,0,1,.3,4.095,13.064,13.064,0,0,1-.917,5.282l-.222.394.609.556a4.721,4.721,0,0,0,2.754,1.514,2.417,2.417,0,0,0,1.972-1.559c1.356-2.686,1.382-10.019.045-12.844C91.059,27.452,90.45,27.159,89.669,27.576Z" transform="translate(-55.121 -21.756)" fill="#242161"/>
      </g>
    </g>
    <text id="TM" transform="translate(106.23 10.049)" fill="#242161" font-size="2" font-family="Poppins" font-weight="700"><tspan x="0" y="0">TM</tspan></text>
  </g>
</svg>
