<svg width="99" height="25" viewBox="0 0 99 25" fill="none" xmlns="http://www.w3.org/2000/svg">
<path d="M90.0995 20.9294C91.3479 20.9294 92.2953 20.8625 92.9418 20.7288V16.248C92.7188 16.1811 92.3956 16.1142 91.972 16.0474C91.5485 15.9805 91.0804 15.947 90.5676 15.947C90.1218 15.947 89.6648 15.9805 89.1967 16.0474C88.7508 16.1142 88.3384 16.2368 87.9594 16.4152C87.6028 16.5935 87.313 16.8499 87.09 17.1843C86.8671 17.4964 86.7556 17.8976 86.7556 18.3881C86.7556 19.3466 87.0566 20.0154 87.6585 20.3944C88.2604 20.751 89.074 20.9294 90.0995 20.9294ZM89.7651 5.84863C91.1026 5.84863 92.2284 6.01582 93.1424 6.35021C94.0564 6.68459 94.7809 7.15273 95.3159 7.75462C95.8732 8.35652 96.2633 9.09216 96.4862 9.96156C96.7315 10.8087 96.8541 11.7449 96.8541 12.7704V23.3704C96.2299 23.5041 95.2825 23.6602 94.0118 23.8385C92.7634 24.0392 91.3479 24.1395 89.7651 24.1395C88.7174 24.1395 87.7588 24.0392 86.8894 23.8385C86.02 23.6379 85.2732 23.3147 84.649 22.8688C84.0471 22.423 83.5678 21.8434 83.2112 21.13C82.8768 20.4167 82.7096 19.5361 82.7096 18.4884C82.7096 17.4852 82.8991 16.6381 83.278 15.947C83.6793 15.256 84.2143 14.6987 84.8831 14.2751C85.5519 13.8293 86.3209 13.5172 87.1903 13.3388C88.082 13.1382 89.0072 13.0379 89.9657 13.0379C90.4116 13.0379 90.8797 13.0713 91.3702 13.1382C91.8606 13.1828 92.3845 13.272 92.9418 13.4057V12.737C92.9418 12.2688 92.886 11.823 92.7746 11.3994C92.6631 10.9759 92.4625 10.608 92.1727 10.2959C91.9052 9.96156 91.5373 9.7052 91.0692 9.52686C90.6234 9.34852 90.0549 9.25936 89.3638 9.25936C88.4276 9.25936 87.5693 9.32623 86.7891 9.45999C86.0089 9.59374 85.3735 9.74979 84.8831 9.92813L84.3815 6.65116C84.8942 6.47282 85.641 6.29448 86.6219 6.11614C87.6028 5.9378 88.6505 5.84863 89.7651 5.84863Z" fill="url(#paint0_linear_3188_1911)"/>
<path d="M82.1639 9.92814C81.8295 9.81668 81.3614 9.70522 80.7595 9.59376C80.1799 9.46001 79.5 9.39313 78.7197 9.39313C78.2739 9.39313 77.7946 9.43771 77.2819 9.52688C76.7914 9.61605 76.4459 9.69408 76.2453 9.76095V23.7717H72.1992V7.11931C72.9794 6.82951 73.9492 6.562 75.1084 6.31679C76.2899 6.04928 77.594 5.91553 79.0207 5.91553C79.2882 5.91553 79.6003 5.93782 79.9569 5.98241C80.3136 6.0047 80.6703 6.04928 81.027 6.11616C81.3837 6.16074 81.7292 6.22762 82.0636 6.31679C82.398 6.38367 82.6655 6.45054 82.8661 6.51742L82.1639 9.92814Z" fill="url(#paint1_linear_3188_1911)"/>
<path d="M59.7611 1.66877L63.8072 1V6.28328H70.0267V9.66056H63.8072V16.783C63.8072 18.1874 64.0301 19.1905 64.4759 19.7924C64.9218 20.3943 65.6797 20.6953 66.7497 20.6953C67.4854 20.6953 68.1319 20.6172 68.6892 20.4612C69.2688 20.3051 69.7258 20.1602 70.0602 20.0265L70.7289 23.2366C70.2608 23.4372 69.6477 23.6378 68.8898 23.8385C68.1319 24.0614 67.2402 24.1729 66.2147 24.1729C64.9664 24.1729 63.9186 24.0057 63.0715 23.6713C62.2467 23.3369 61.5891 22.8576 61.0986 22.2334C60.6082 21.587 60.2627 20.8179 60.0621 19.9262C59.8614 19.0122 59.7611 17.9756 59.7611 16.8164V1.66877Z" fill="url(#paint2_linear_3188_1911)"/>
<path d="M50.7985 20.8625C51.8686 20.8625 52.6488 20.7399 53.1392 20.4947C53.6297 20.2272 53.8749 19.7813 53.8749 19.1571C53.8749 18.5775 53.6074 18.0983 53.0724 17.7193C52.5596 17.3403 51.7014 16.9279 50.4976 16.4821C49.762 16.2146 49.082 15.9359 48.4579 15.6461C47.856 15.334 47.3321 14.9773 46.8862 14.5761C46.4404 14.1748 46.0837 13.6955 45.8162 13.1382C45.571 12.5586 45.4484 11.8564 45.4484 11.0316C45.4484 9.42655 46.0391 8.16703 47.2206 7.25305C48.4021 6.31677 50.0072 5.84863 52.0358 5.84863C53.0612 5.84863 54.0421 5.94895 54.9784 6.14958C55.9146 6.32792 56.6168 6.50625 57.085 6.68459L56.3493 9.96156C55.9035 9.76093 55.335 9.58259 54.644 9.42655C53.9529 9.24821 53.1504 9.15904 52.2364 9.15904C51.4116 9.15904 50.7428 9.30394 50.2301 9.59374C49.7174 9.86125 49.461 10.2848 49.461 10.8644C49.461 11.1542 49.5056 11.4106 49.5948 11.6335C49.7062 11.8564 49.8846 12.0682 50.1298 12.2688C50.375 12.4472 50.6982 12.6366 51.0995 12.8373C51.5008 13.0156 51.9912 13.2051 52.5708 13.4057C53.5294 13.7624 54.343 14.1191 55.0118 14.4758C55.6806 14.8101 56.2267 15.2003 56.6503 15.6461C57.0961 16.0697 57.4194 16.5601 57.62 17.1174C57.8206 17.6747 57.9209 18.3435 57.9209 19.1237C57.9209 20.7956 57.2968 22.0663 56.0484 22.9357C54.8223 23.7828 53.0612 24.2064 50.7651 24.2064C49.2269 24.2064 47.9897 24.0726 47.0534 23.8051C46.1172 23.5599 45.4595 23.3592 45.0806 23.2032L45.7828 19.8259C46.3847 20.0711 47.098 20.3052 47.9228 20.5281C48.7699 20.751 49.7285 20.8625 50.7985 20.8625Z" fill="url(#paint3_linear_3188_1911)"/>
<path d="M36.4475 20.9294C37.6959 20.9294 38.6433 20.8625 39.2898 20.7288V16.248C39.0669 16.1811 38.7436 16.1142 38.3201 16.0474C37.8965 15.9805 37.4284 15.947 36.9157 15.947C36.4698 15.947 36.0128 15.9805 35.5447 16.0474C35.0988 16.1142 34.6864 16.2368 34.3075 16.4152C33.9508 16.5935 33.661 16.8499 33.4381 17.1843C33.2151 17.4964 33.1037 17.8976 33.1037 18.3881C33.1037 19.3466 33.4046 20.0154 34.0065 20.3944C34.6084 20.751 35.4221 20.9294 36.4475 20.9294ZM36.1131 5.84863C37.4507 5.84863 38.5764 6.01582 39.4904 6.35021C40.4044 6.68459 41.1289 7.15273 41.6639 7.75462C42.2212 8.35652 42.6113 9.09216 42.8343 9.96156C43.0795 10.8087 43.2021 11.7449 43.2021 12.7704V23.3704C42.5779 23.5041 41.6305 23.6602 40.3598 23.8385C39.1115 24.0392 37.6959 24.1395 36.1131 24.1395C35.0654 24.1395 34.1068 24.0392 33.2374 23.8385C32.368 23.6379 31.6212 23.3147 30.997 22.8688C30.3952 22.423 29.9159 21.8434 29.5592 21.13C29.2248 20.4167 29.0576 19.5361 29.0576 18.4884C29.0576 17.4852 29.2471 16.6381 29.6261 15.947C30.0273 15.256 30.5623 14.6987 31.2311 14.2751C31.8999 13.8293 32.669 13.5172 33.5384 13.3388C34.4301 13.1382 35.3552 13.0379 36.3138 13.0379C36.7596 13.0379 37.2277 13.0713 37.7182 13.1382C38.2086 13.1828 38.7325 13.272 39.2898 13.4057V12.737C39.2898 12.2688 39.2341 11.823 39.1226 11.3994C39.0111 10.9759 38.8105 10.608 38.5207 10.2959C38.2532 9.96156 37.8854 9.7052 37.4172 9.52686C36.9714 9.34852 36.4029 9.25936 35.7119 9.25936C34.7756 9.25936 33.9173 9.32623 33.1371 9.45999C32.3569 9.59374 31.7215 9.74979 31.2311 9.92813L30.7295 6.65116C31.2423 6.47282 31.9891 6.29448 32.9699 6.11614C33.9508 5.9378 34.9985 5.84863 36.1131 5.84863Z" fill="url(#paint4_linear_3188_1911)"/>
<path d="M11.932 24.1972C5.80244 24.1972 0.833374 19.3471 0.833374 13.5181C0.833374 7.68914 6.65046 4.51726 11.8992 8.62344C9.44147 8.64129 7.45384 10.6378 7.45384 13.0986C7.45384 15.5593 9.45932 17.5767 11.932 17.5767C14.4046 17.5767 16.4101 15.6635 16.4101 12.679C16.4101 8.03727 11.5481 3.80612 4.70151 4.68389C6.64451 3.01167 9.16772 2 11.932 2C18.0615 2 23.0305 6.96907 23.0305 13.0986C23.0305 19.2281 18.0615 24.1972 11.932 24.1972Z" fill="url(#paint5_linear_3188_1911)"/>
<defs>
<linearGradient id="paint0_linear_3188_1911" x1="97.1524" y1="15.4275" x2="29.5017" y2="15.4275" gradientUnits="userSpaceOnUse">
<stop stop-color="#FD334D"/>
<stop offset="1" stop-color="#FD5B16"/>
</linearGradient>
<linearGradient id="paint1_linear_3188_1911" x1="97.1524" y1="15.4275" x2="29.5017" y2="15.4275" gradientUnits="userSpaceOnUse">
<stop stop-color="#FD334D"/>
<stop offset="1" stop-color="#FD5B16"/>
</linearGradient>
<linearGradient id="paint2_linear_3188_1911" x1="97.1523" y1="15.4274" x2="29.5017" y2="15.4274" gradientUnits="userSpaceOnUse">
<stop stop-color="#FD334D"/>
<stop offset="1" stop-color="#FD5B16"/>
</linearGradient>
<linearGradient id="paint3_linear_3188_1911" x1="97.1523" y1="15.4275" x2="29.5017" y2="15.4275" gradientUnits="userSpaceOnUse">
<stop stop-color="#FD334D"/>
<stop offset="1" stop-color="#FD5B16"/>
</linearGradient>
<linearGradient id="paint4_linear_3188_1911" x1="97.1524" y1="15.4275" x2="29.5017" y2="15.4275" gradientUnits="userSpaceOnUse">
<stop stop-color="#FD334D"/>
<stop offset="1" stop-color="#FD5B16"/>
</linearGradient>
<linearGradient id="paint5_linear_3188_1911" x1="11.932" y1="2.0761" x2="11.932" y2="24.1972" gradientUnits="userSpaceOnUse">
<stop stop-color="#FD713A"/>
<stop offset="1" stop-color="#FD3D3F"/>
</linearGradient>
</defs>
</svg>
